<svg width="110" height="110" viewBox="0 0 110 110" fill="none" xmlns="http://www.w3.org/2000/svg">
<g clip-path="url(#clip0_692_316)">
<path fill-rule="evenodd" clip-rule="evenodd" d="M46.5639 47.2719H34.2721C33.5718 47.3222 32.8876 47.5241 32.259 47.8662C31.6305 48.2082 31.0701 48.6836 30.6104 49.2647C30.1506 49.8458 29.8007 50.521 29.5807 51.2513C29.3608 51.9816 29.2752 52.7526 29.329 53.5194V103.608C29.2194 105.172 29.6769 106.72 30.6023 107.917C31.5277 109.114 32.8463 109.862 34.2721 110H46.5639C47.9923 109.862 49.3141 109.115 50.2448 107.919C51.1754 106.724 51.6405 105.176 51.5399 103.608V53.5194C51.589 52.7392 51.4948 51.9561 51.263 51.2165C51.0311 50.4769 50.6663 49.7958 50.1901 49.2133C49.7139 48.6309 49.136 48.1591 48.4905 47.8256C47.845 47.4921 47.1451 47.3039 46.4321 47.2719H46.5639ZM75.761 60.5976H63.601C62.9697 60.5637 62.3385 60.6682 61.7446 60.9053C61.1506 61.1424 60.6059 61.5071 60.1424 61.9781C59.6788 62.449 59.3058 63.0168 59.0452 63.6479C58.7847 64.2791 58.6418 64.9608 58.625 65.6533V104.98C58.6371 105.673 58.777 106.355 59.0364 106.987C59.2959 107.619 59.6694 108.186 60.1344 108.655C60.5994 109.124 61.1463 109.485 61.7421 109.716C62.3379 109.948 62.9703 110.044 63.601 110H75.761C76.3967 110.044 77.034 109.948 77.6353 109.718C78.2367 109.488 78.7901 109.129 79.2629 108.661C79.7358 108.193 80.1185 107.627 80.3886 106.995C80.6588 106.363 80.8108 105.678 80.8359 104.98V65.6533C80.7676 64.2482 80.1965 62.9292 79.2464 61.9827C78.2963 61.0362 77.0439 60.5386 75.761 60.5976ZM105.057 38.7132H92.6993C91.3853 38.7131 90.1246 39.2827 89.1923 40.2975C88.2601 41.3124 87.732 42.6901 87.7233 44.1301V104.439C87.7146 105.162 87.8366 105.881 88.0824 106.553C88.3281 107.225 88.6928 107.837 89.1553 108.354C89.6178 108.871 90.169 109.282 90.7773 109.565C91.3855 109.847 92.0387 109.995 92.6993 110H104.991C105.652 109.995 106.305 109.847 106.913 109.565C107.521 109.282 108.073 108.871 108.535 108.354C108.998 107.837 109.362 107.225 109.608 106.553C109.854 105.881 109.976 105.162 109.967 104.439V44.1301C109.958 42.6901 109.43 41.3124 108.498 40.2975C107.566 39.2827 106.305 38.7131 104.991 38.7132H105.057ZM32.921 10.9423V32.6101C32.6371 32.3431 32.2976 32.157 31.9324 32.0683V9.06437C40.1049 14.6619 48.1786 10.8339 56.1205 7.04205C62.7113 4.04468 68.676 1.04717 74.6406 3.0695V4.44181C73.2997 4.10411 71.93 3.92267 70.5543 3.90025C65.2201 4.36664 60.0232 5.98684 55.2637 8.66718C50.7439 11.2165 45.8009 12.7395 40.7311 13.1451C38.5461 13.1916 36.3809 12.6848 34.4039 11.6644L32.921 10.9423ZM80.2098 11.7728V7.4031L79.7155 6.86153C78.8482 6.27507 77.9324 5.77922 76.9803 5.38078V1.40845L76.2553 1.15563C69.1702 -1.84175 62.0852 1.55287 55.2637 4.76692C47.0582 8.70323 39.2482 12.3868 31.4381 5.70589L29.6915 4.08077V33.1878L30.054 33.585C30.966 34.2984 31.9242 34.9382 32.921 35.4991V39.5798L33.4153 39.8686C34.4039 40.4103 35.3926 40.6632 36.2823 41.0965V42.7217C46.3332 45.9718 56.2524 36.8713 66.2044 34.5601V32.3573C64.7242 32.2237 63.3241 31.5643 62.217 30.4793C61.6398 29.8675 61.1951 29.1217 60.9157 28.2968C60.6363 27.4718 60.5291 26.5887 60.6022 25.7124H64.326C64.326 26.9402 64.326 28.0236 65.084 28.4208C65.3226 28.7395 65.6252 28.9934 65.9682 29.1625C66.3113 29.3317 66.6853 29.4116 67.0612 29.396C67.7705 29.4064 68.464 29.1658 69.0385 28.7098C69.4022 28.1547 69.5771 27.4774 69.5327 26.7957C69.5859 26.1131 69.4102 25.4327 69.0385 24.8819C68.436 24.2684 67.7151 23.8117 66.9294 23.5457C65.3382 22.999 63.8604 22.1155 62.5795 20.9454C62.0919 20.4179 61.7176 19.778 61.4839 19.0721C61.2502 18.3663 61.1629 17.6121 61.2284 16.8647C61.2104 16.1926 61.3214 15.5239 61.5541 14.9019C61.7868 14.2798 62.1362 13.7182 62.5795 13.2534C63.5847 12.0842 64.9701 11.3966 66.4351 11.3395V8.88385C56.5489 11.1951 46.2014 20.3317 36.1505 17.0454V38.7132C35.7583 38.6555 35.3787 38.5208 35.03 38.3158V15.059C36.8184 15.7577 38.7007 16.124 40.5993 16.1426C45.9658 15.6818 51.1961 14.0617 55.9887 11.3757C60.4904 8.84968 65.388 7.28109 70.4225 6.75309C73.0301 6.79154 75.5885 7.53601 77.8701 8.92V10.5449C74.9695 8.86457 71.6693 8.19681 68.4123 8.63103V11.3757C69.1338 11.4449 69.8353 11.6724 70.475 12.0446C71.1147 12.4168 71.6795 12.9262 72.1361 13.5423C73.0124 14.832 73.4548 16.414 73.3883 18.0203H69.6316C69.6979 17.1311 69.5261 16.2402 69.1373 15.4564C68.9361 15.1554 68.6733 14.9103 68.3699 14.741C68.0666 14.5716 67.7312 14.4827 67.3908 14.4813C66.534 14.4813 66.0396 14.4813 65.6772 15.1675C65.4913 15.4114 65.3518 15.6937 65.2669 15.9976C65.182 16.3014 65.1534 16.6208 65.1828 16.937C65.1428 17.276 65.166 17.6206 65.251 17.9496C65.336 18.2785 65.4809 18.5852 65.6772 18.8511C66.0396 19.3927 66.7646 19.6453 67.7862 20.2231C69.342 20.8814 70.7975 21.7946 72.1031 22.9316C72.6002 23.4221 72.9845 24.0343 73.225 24.7183C73.4655 25.4023 73.5554 26.1388 73.4872 26.868C73.5426 27.5961 73.4469 28.3285 73.2072 29.0102C72.9675 29.692 72.59 30.3054 72.1031 30.8044C71.0252 31.8109 69.6904 32.4288 68.2805 32.5739V34.4878C70.6439 34.0724 73.063 34.2604 75.3493 35.0371C77.6356 35.8138 79.7274 37.1582 81.462 38.9658L80.2098 11.7728ZM17.2679 38.7132H5.10793C4.44738 38.6988 3.79076 38.8278 3.17589 39.0927C2.56102 39.3576 2.00005 39.7532 1.52528 40.2567C1.05051 40.7602 0.671349 41.3615 0.409586 42.0262C0.147823 42.691 0.00863958 43.4062 7.61976e-05 44.1301V104.439C-0.00436352 105.173 0.124988 105.902 0.380522 106.581C0.636056 107.26 1.01264 107.877 1.48827 108.395C1.9639 108.913 2.52903 109.321 3.15055 109.597C3.77206 109.873 4.43751 110.01 5.10793 110H17.2679C17.9368 110.01 18.6007 109.873 19.2204 109.596C19.8401 109.32 20.4031 108.911 20.8762 108.393C21.3492 107.874 21.7227 107.257 21.9746 106.578C22.2265 105.899 22.3517 105.172 22.3428 104.439V44.1301C22.3386 43.4078 22.2034 42.6937 21.9452 42.0291C21.6871 41.3645 21.311 40.7627 20.8389 40.2587C20.3667 39.7548 19.8079 39.3587 19.1949 39.0934C18.5819 38.828 17.9269 38.6988 17.2679 38.7132Z" fill="url(#paint0_linear_692_316)"/>
</g>
<defs>
<linearGradient id="paint0_linear_692_316" x1="54.9837" y1="-0.00378418" x2="54.9837" y2="110.01" gradientUnits="userSpaceOnUse">
<stop stop-color="white"/>
<stop offset="1" stop-color="#918F8F"/>
</linearGradient>
<clipPath id="clip0_692_316">
<rect width="110" height="110" fill="white"/>
</clipPath>
</defs>
</svg>
