<svg width="110" height="110" viewBox="0 0 110 110" fill="none" xmlns="http://www.w3.org/2000/svg">
<g clip-path="url(#clip0_692_318)">
<path fill-rule="evenodd" clip-rule="evenodd" d="M92.7101 48.0405C94.8448 47.737 96.7945 46.6583 98.1898 45.0087C99.5852 43.3591 100.329 41.2533 100.281 39.09C100.353 38.0502 100.211 37.0068 99.8643 36.0245C99.5174 35.0421 98.9727 34.1418 98.2643 33.3797C97.5559 32.6176 96.6989 32.01 95.7465 31.5946C94.7941 31.1791 93.7668 30.9646 92.7283 30.9646C91.6899 30.9646 90.6625 31.1791 89.7101 31.5946C88.7578 32.01 87.9007 32.6176 87.1923 33.3797C86.4839 34.1418 85.9393 35.0421 85.5923 36.0245C85.2454 37.0068 85.1034 38.0502 85.1754 39.09C85.1495 41.2418 85.8968 43.331 87.2806 44.9748C88.6644 46.6186 90.5919 47.7069 92.7101 48.0405ZM4.25877 109.561H19.0735V77.9243H4.25877V109.561ZM55.546 109.561H70.3607V52.7166H55.4732L55.546 109.561ZM29.6294 109.561H44.5533V66.0877H29.6294V109.561ZM79.4242 18.2297L90.8173 24.2943L83.137 -0.072998L61.8795 9.71774L72.7995 14.7958C72.5447 15.1977 72.3991 15.6361 72.2535 15.8918C71.7075 16.8416 71.1615 17.6819 70.6155 18.6683C70.3243 19.0702 70.0695 19.6181 69.7783 20.02C69.1636 21.0486 68.5203 22.0596 67.8491 23.052C67.5803 23.5795 67.2635 24.0811 66.9027 24.55C66.0655 25.5364 65.2647 26.6324 64.4275 27.7283C63.5903 28.8243 62.7895 29.8107 61.8432 30.9067C60.8968 32.0027 59.914 32.843 58.9312 33.9389C57.9484 35.0349 56.8928 35.9846 55.8008 36.971C55.1803 37.386 54.5847 37.8373 54.0172 38.3227C53.4825 38.9003 52.8841 39.4152 52.2336 39.8572C51.1416 40.6609 49.904 41.6472 48.5936 42.4509C47.2833 43.2546 47.3561 43.2913 46.6645 43.6931L44.7353 44.9353C42.2284 46.5188 39.627 47.9462 36.9457 49.2096C34.3249 50.4517 31.7042 51.5476 29.1198 52.4974C26.6007 53.4066 24.0373 54.187 21.4394 54.8356C18.9643 55.5297 16.6347 56.0777 14.4507 56.5161C12.2667 56.9545 10.3375 57.2103 8.55394 57.466L4.00397 57.8678C1.41959 57.8678 -0.109201 57.8678 -0.109201 57.8678V58.2696C4.81824 58.7329 9.77804 58.7329 14.7055 58.2696C16.8895 57.9774 19.2191 57.7216 21.9854 57.2832C24.7518 56.8448 27.1906 56.1872 29.957 55.4931C32.7234 54.799 35.4169 53.8493 38.1833 52.8994C40.9497 51.9496 43.9345 50.6709 46.6645 49.2462L48.7393 48.15L50.7776 46.908C52.1535 46.2019 53.4901 45.4214 54.7816 44.5699C55.4368 44.1315 56.1284 43.5835 56.6744 43.1816C57.3417 42.7538 57.9857 42.2904 58.6036 41.7933L62.2436 38.9073C63.3355 37.9575 64.4275 36.8615 65.5195 35.8751L68.6863 32.7333L71.4163 29.555C71.8745 29.0956 72.2888 28.594 72.6539 28.057L73.8915 26.3766C74.2985 25.9629 74.6643 25.5102 74.9835 25.025C75.316 24.4917 75.6807 23.9791 76.0754 23.4904C76.767 22.3944 77.313 21.5543 77.859 20.6044C78.4339 19.8186 78.9451 18.9879 79.3878 18.1202L79.4242 18.2297ZM107.525 53.1915C107.525 53.1915 107.525 52.7898 107.27 52.6437C107.015 52.4975 107.27 52.388 106.979 52.2419C106.688 52.0957 106.724 51.8399 106.578 51.6938C106.433 51.5477 106.287 51.6937 106.178 51.4015C106.069 51.1092 105.887 51.4014 105.741 51.1457C101.918 49.8672 97.9607 49.0337 93.9477 48.6615L93.1469 50.1595L95.1853 65.8685L92.7101 70.1428L90.3805 65.8685L92.3097 50.1595L91.6181 48.6615C87.6059 49.0384 83.6493 49.8718 79.8246 51.1457C79.5698 51.1457 79.4242 51.4015 79.2786 51.4015C79.133 51.4015 79.0238 51.4015 78.8782 51.6938C78.7331 51.8675 78.5993 52.0507 78.4778 52.2419C78.4778 52.2419 78.1866 52.4975 78.1866 52.6437C78.1866 52.7898 78.1866 53.0454 77.8954 53.1915C77.9454 53.3334 77.9454 53.4881 77.8954 53.6299L75.5659 75.2209C75.4731 76.005 75.6926 76.7942 76.1766 77.4168C76.6605 78.0393 77.3698 78.4448 78.1502 78.5452H78.587C79.3075 78.5481 80.0028 78.2794 80.5353 77.7923C81.0679 77.3051 81.3988 76.6353 81.4626 75.915L83.6466 56.2238C83.9376 56.1843 84.2202 56.0979 84.4838 55.9681V76.4629L82.1178 106.054C82.0571 107.006 82.3696 107.944 82.9885 108.668C83.6074 109.391 84.4837 109.843 85.4302 109.927H85.685C86.5962 109.931 87.4756 109.591 88.1496 108.976C88.8235 108.36 89.2429 107.513 89.3249 106.602L91.5453 79.8969C91.9716 80.0795 92.4287 80.1788 92.8921 80.1893C93.4127 80.1627 93.9271 80.0643 94.4209 79.8969L96.4593 106.602C96.5413 107.513 96.9607 108.36 97.6346 108.976C98.3086 109.591 99.1881 109.931 100.099 109.927H100.39C101.33 109.834 102.198 109.378 102.809 108.656C103.42 107.933 103.728 107 103.666 106.054L101.337 76.4629V55.9681C101.599 56.1025 101.882 56.1892 102.174 56.2238L104.358 75.915C104.445 76.6261 104.783 77.2825 105.31 77.765C105.838 78.2476 106.52 78.5243 107.234 78.5452H107.634C108.024 78.4999 108.401 78.3779 108.743 78.1862C109.086 77.9946 109.388 77.7371 109.631 77.4284C109.874 77.1196 110.055 76.7656 110.162 76.3868C110.269 76.008 110.3 75.6119 110.255 75.2209L107.925 53.6299C107.925 53.6299 107.925 53.3377 107.925 53.1915H107.525Z" fill="url(#paint0_linear_692_318)"/>
</g>
<defs>
<linearGradient id="paint0_linear_692_318" x1="55.083" y1="-0.072998" x2="55.083" y2="109.927" gradientUnits="userSpaceOnUse">
<stop stop-color="white"/>
<stop offset="1" stop-color="#918F8F"/>
</linearGradient>
<clipPath id="clip0_692_318">
<rect width="110" height="110" fill="white"/>
</clipPath>
</defs>
</svg>
