<svg width="110" height="110" viewBox="0 0 110 110" fill="none" xmlns="http://www.w3.org/2000/svg">
<g clip-path="url(#clip0_692_314)">
<path fill-rule="evenodd" clip-rule="evenodd" d="M53.0599 69.1176C51.6054 70.0934 50.2012 71.1909 48.8562 72.4034C54.0081 75.364 59.5207 77.1231 65.1417 77.5998C70.76 78.1385 76.392 76.8243 81.5152 73.7791C83.881 72.3855 86.1783 70.803 88.3939 69.0411C94.2732 64.9911 100.799 60.1006 104.797 59.7949C105.653 59.766 106.507 59.9209 107.325 60.2534C107.717 60.2886 108.098 60.4332 108.443 60.6771C108.788 60.9211 109.088 61.2587 109.324 61.6671L110 62.8515L109.206 63.9979C108.207 65.297 106.766 67.0161 105.326 68.5826C103.886 70.1492 102.386 71.3336 101.681 72.1742C99.0353 74.7723 96.3603 77.2176 93.4794 79.5482C90.5986 81.8789 88.0706 83.7129 85.3074 85.7379L80.4276 88.7564C78.752 89.597 77.1058 90.4758 75.3127 91.2018C72.3663 92.5339 69.2598 93.168 66.1411 93.0739C61.379 93.4942 56.8226 93.7999 52.178 94.0674C47.5334 94.3348 42.8888 94.3729 38.1267 94.3729C35.2022 94.8045 32.3948 96.1124 29.9252 98.1936C25.8767 101.179 22.083 104.714 18.6077 108.739L17.6083 109.885L16.7264 108.739L0.99946 88.8709L0.117615 87.8395L0.676102 86.5403C4.08924 80.2167 7.83131 74.204 11.876 68.5444C14.431 64.6474 17.5086 61.3853 20.9594 58.9162C26.3935 57.1562 31.9681 56.2327 37.5681 56.1651C39.0967 56.1651 40.5078 56.1651 41.7718 55.8977C42.9902 55.882 44.207 55.7801 45.4169 55.5922C46.6515 55.5922 47.8568 55.3246 49.0914 55.019C51.1785 54.5987 53.295 54.2931 55.3821 53.72C57.4693 53.1469 59.4976 52.8794 61.7023 52.2681L62.9076 52.0006C65.1417 51.4275 67.3464 50.8544 69.4629 50.5487C70.0953 50.5415 70.7256 50.4519 71.3442 50.2812H73.108H74.225L74.5484 51.7332C74.6661 52.4382 74.6661 53.1678 74.5484 53.8728C74.4663 54.637 74.277 55.3752 73.9899 56.0506C73.3728 57.6056 72.5578 59.0136 71.5794 60.2152C70.3601 61.4558 69.0147 62.4716 67.5815 63.2337C65.8251 64.1787 64.0043 64.9078 62.1432 65.4116C61.5847 65.679 61.0556 65.8318 60.3795 66.0993C57.9351 66.9351 55.5303 67.9557 53.1774 69.1559L53.0599 69.1176ZM50.8552 18.4159H41.0957C41.1453 19.0523 41.3275 19.6591 41.6228 20.1708C41.9181 20.6824 42.3151 21.0797 42.7713 21.3197C43.7851 21.8765 44.8748 22.1625 45.9754 22.1604C47.1181 22.3445 48.2703 21.9324 49.1796 21.0142C49.9505 20.423 50.5419 19.5057 50.8552 18.4159ZM54.1769 0C41.0957 0 30.4543 7.9089 30.4543 17.5755C30.4543 27.242 41.0957 35.4184 54.1769 35.4184C67.2582 35.4184 77.6938 27.5095 77.6938 17.5755C77.6938 7.64145 67.17 0 54.1769 0ZM41.2133 16.8495H51.1785C51.7756 15.0616 52.6457 13.4499 53.736 12.1118C55.3857 10.5205 57.4188 9.74807 59.4682 9.93391C62.2234 9.63654 64.9712 10.6104 67.2288 12.6848C68.1308 13.7895 68.7209 15.2564 68.9044 16.8495H72.9022V18.4159H68.9044C68.7696 19.8676 68.2937 21.2299 67.5414 22.3171C66.7891 23.4043 65.7971 24.1635 64.7007 24.491C62.8515 25.1312 60.9399 25.4143 59.0273 25.3315V22.6189C60.4138 22.6501 61.7974 22.4444 63.1427 22.0074C63.806 21.8119 64.4105 21.3671 64.8809 20.7286C65.3513 20.09 65.6669 19.2858 65.7884 18.4159H54.6179C54.1382 20.4633 53.0906 22.2062 51.6783 23.3066C50.01 24.4692 48.1309 25.0236 46.24 24.9113C44.2777 24.9594 42.3374 24.3682 40.5959 23.1919C39.8626 22.7976 39.2318 22.1379 38.7785 21.2913C38.3251 20.4447 38.0683 19.4467 38.0385 18.4159H35.2753V16.8495H37.9503C38.0359 15.8835 38.2998 14.9588 38.7195 14.1539C39.1392 13.349 39.7022 12.6876 40.3608 12.2263C42.0954 10.9896 44.0577 10.3951 46.0342 10.5071V13.258C45.128 13.3075 44.2297 13.5 43.3592 13.8312C41.9188 14.4043 41.1545 15.5504 41.1545 16.8495H41.2133ZM54.1769 37.711C42.0952 37.711 32.3357 31.1011 30.6601 22.4279C30.5242 23.1802 30.4454 23.948 30.4249 24.7203C30.4249 34.5014 41.0663 42.4487 54.1475 42.4487C67.2288 42.4487 77.6644 34.5014 77.6644 24.7203C77.6393 23.9506 77.5706 23.1844 77.4586 22.4279C75.9006 31.0628 66.0529 37.711 54.0888 37.711H54.1769ZM54.1769 44.9321C42.0952 44.9321 32.3357 38.1311 30.6601 29.649C30.5241 30.4142 30.4454 31.1949 30.4249 31.9798C30.4249 41.761 41.0663 49.67 54.1475 49.67C67.2288 49.67 77.6644 41.761 77.6644 31.9798C77.6394 31.1975 77.5706 30.4184 77.4586 29.649C75.9006 38.2839 66.0529 44.9321 54.0888 44.9321H54.1769ZM60.4677 12.7995C59.0901 12.6473 57.7179 13.1646 56.6168 14.2514C55.938 14.9339 55.4022 15.8273 55.0588 16.8495H65.9059C65.9059 15.1302 64.9065 13.9458 63.2603 13.3727C62.3216 12.9191 61.3205 12.7239 60.3207 12.7995H60.4677Z" fill="url(#paint0_linear_692_314)"/>
</g>
<defs>
<linearGradient id="paint0_linear_692_314" x1="55.0588" y1="0" x2="55.0588" y2="109.885" gradientUnits="userSpaceOnUse">
<stop stop-color="white"/>
<stop offset="1" stop-color="#918F8F"/>
</linearGradient>
<clipPath id="clip0_692_314">
<rect width="110" height="110" fill="white"/>
</clipPath>
</defs>
</svg>
