<svg width="110" height="110" viewBox="0 0 110 110" fill="none" xmlns="http://www.w3.org/2000/svg">
<g clip-path="url(#clip0_692_320)">
<path fill-rule="evenodd" clip-rule="evenodd" d="M43.8981 8.72145H66.1019V17.742H73.6731V8.08007C73.654 5.90265 72.9066 3.82149 71.5922 2.28574C70.2778 0.749991 68.5019 -0.117065 66.6479 -0.128174H43.3521C41.5015 -0.116941 39.7294 0.751419 38.4209 2.28835C37.1123 3.82528 36.3729 5.90655 36.3633 8.08007V17.742H43.8981V8.72145ZM0 47.1979V97.8157C0.0189107 99.4737 0.316944 101.111 0.876918 102.633C1.43689 104.155 2.24775 105.532 3.26278 106.684C4.2778 107.837 5.47693 108.742 6.7911 109.348C8.10526 109.954 9.50848 110.248 10.9199 110.214H99.1529C100.569 110.271 101.981 109.993 103.304 109.396C104.627 108.798 105.834 107.894 106.853 106.737C107.873 105.58 108.683 104.194 109.236 102.661C109.789 101.129 110.074 99.4805 110.073 97.8157V33.6883C110.073 30.2867 108.922 27.0247 106.874 24.6195C104.827 22.2142 102.049 20.8628 99.1529 20.8628H10.9927C8.11408 20.9284 5.36893 22.3008 3.33304 24.692C1.29715 27.0832 0.128713 30.3073 0.0728011 33.6883L0 47.1979ZM82.1542 53.183V47.6681L81.3534 47.0268C80.4985 46.3068 79.5688 45.7179 78.587 45.2741V39.9729H77.7862C69.9603 36.2535 62.28 40.4431 54.7452 44.4618C45.8273 49.2927 37.1641 54.1237 28.683 45.6161L26.6082 43.8204V80.2449L27.1542 80.5442C28.097 81.4612 29.1082 82.2768 30.1754 82.981V88.1113L30.7214 88.4531C31.8184 89.0688 32.9645 89.5558 34.143 89.9068V92.0016C45.0629 96.0202 55.9828 84.7339 66.9027 81.6985V78.9624C66.0225 78.974 65.1506 78.7622 64.3465 78.3416C63.5424 77.9211 62.8251 77.3016 62.2436 76.5255C61.6756 75.7306 61.2479 74.811 60.9854 73.8201C60.723 72.8293 60.631 71.7872 60.7148 70.7541H64.8279C64.7556 72.0143 65.0509 73.2656 65.6651 74.3023C65.9462 74.6408 66.2883 74.901 66.6662 75.0637C67.0442 75.2265 67.4484 75.2879 67.8491 75.243C68.2328 75.2775 68.6181 75.2108 68.977 75.0481C69.336 74.8854 69.6595 74.6306 69.9239 74.3023C70.3351 73.7166 70.5314 72.9632 70.4699 72.2076C70.4699 70.925 70.4699 70.4119 69.9239 69.7707C69.3292 68.985 68.5792 68.3832 67.7399 68.018C66.0309 67.2425 64.4156 66.2075 62.9351 64.9397C61.9364 63.4812 61.4425 61.6342 61.552 59.7669C61.4525 57.9664 61.948 56.19 62.9351 54.8076C64.0837 53.4604 65.5827 52.6026 67.1939 52.3707V49.4636C56.0556 52.1997 44.9537 63.9566 34.1066 59.7669V86.7004C33.8547 86.7294 33.6005 86.6861 33.366 86.5744C33.1314 86.4627 32.9234 86.2859 32.7598 86.059V57.0308C34.7689 57.9496 36.9011 58.4418 39.0569 58.4844C44.9955 57.7999 50.7286 55.565 55.8372 51.9433C60.7385 48.9049 66.0873 46.9897 71.5983 46.3001C74.4274 46.2662 77.2015 47.2184 79.5698 49.0362V51.131C76.6004 48.9056 73.0338 48.0526 69.5599 48.7369V51.9433C71.0953 52.3262 72.4564 53.3614 73.3819 54.8504C74.3977 56.4741 74.841 58.4956 74.6195 60.4936H70.5063C70.5812 59.386 70.3922 58.2758 69.9603 57.2873C69.7027 56.9462 69.3813 56.68 69.0213 56.5094C68.6613 56.3388 68.2725 56.2685 67.8855 56.3041C67.5663 56.2496 67.2409 56.2788 66.9325 56.3896C66.6241 56.5005 66.3405 56.6902 66.1019 56.9452C65.8078 57.6943 65.6706 58.5151 65.7015 59.3393C65.683 60.176 65.8196 61.0076 66.1019 61.7761C66.8562 62.3084 67.6338 62.7937 68.4315 63.2298C70.2189 64.0519 71.8884 65.1908 73.3819 66.6071C74.3699 68.0157 74.9103 69.7839 74.9103 71.609C74.9103 73.434 74.3699 75.2025 73.3819 76.6111C72.1546 77.8683 70.6038 78.6059 68.9775 78.7059V81.2709C71.5884 80.668 74.2859 80.8369 76.8274 81.7622C79.3689 82.6876 81.6747 84.3403 83.5374 86.572L82.1542 53.183ZM30.1754 51.9433V79.1761C29.775 78.8768 29.4838 78.8767 29.229 78.5347V49.7201C38.2561 56.7742 47.0649 51.9432 55.8372 47.2833C62.8259 43.4356 69.5599 39.8875 76.2575 42.4526V44.0769C74.7235 43.7022 73.1644 43.4878 71.5983 43.4358C65.6665 43.9951 59.9124 46.0824 54.7452 49.5492C49.8822 52.5857 44.5693 54.5013 39.0933 55.1925C36.6496 55.2068 34.2436 54.4856 32.1046 53.0977L30.1754 51.9433Z" fill="url(#paint0_linear_692_320)"/>
</g>
<defs>
<linearGradient id="paint0_linear_692_320" x1="55.0364" y1="-0.128174" x2="55.0364" y2="110.221" gradientUnits="userSpaceOnUse">
<stop stop-color="white"/>
<stop offset="1" stop-color="#918F8F"/>
</linearGradient>
<clipPath id="clip0_692_320">
<rect width="110" height="110" fill="white"/>
</clipPath>
</defs>
</svg>
