<svg width="110" height="110" viewBox="0 0 110 110" fill="none" xmlns="http://www.w3.org/2000/svg">
<g clip-path="url(#clip0_690_306)">
<path fill-rule="evenodd" clip-rule="evenodd" d="M33.2919 7.21904C30.3237 9.66783 27.9695 12.649 26.3839 15.9668C24.7983 19.2845 24.017 22.8638 24.0914 26.4699H18.9184L22.6134 32.0738L26.3084 37.6447L30.0034 32.0738L33.4767 26.4699H28.3776C28.3764 23.4235 29.0702 20.4087 30.4169 17.6091C31.7637 14.8096 33.735 12.2839 36.211 10.1859C48.1827 0.29673 63.8865 5.34021 76.8559 10.4166C74.3528 7.46585 71.1816 5.01798 67.5485 3.23236C63.9154 1.44674 59.9017 0.36339 55.7683 0.0524789C51.635 -0.258432 47.4746 0.210152 43.5577 1.42785C39.6407 2.64554 36.0549 4.58505 33.0333 7.12025L33.2919 7.21904ZM79.775 102.814C82.7204 100.365 85.0676 97.3998 86.6698 94.1044C88.272 90.8089 89.0946 87.254 89.0863 83.662H94.1115L90.4165 78.0911L86.7215 72.4874L83.0265 78.0911L79.5532 83.662H84.4306C84.4351 86.718 83.7318 89.7421 82.3647 92.5443C80.9977 95.3465 78.9964 97.8663 76.4864 99.9461C64.4038 109.835 48.8109 104.528 35.8414 99.188C38.316 102.188 41.4749 104.687 45.1102 106.519C48.7455 108.351 52.7746 109.476 56.9323 109.818C61.09 110.161 65.2818 109.714 69.2318 108.507C73.1818 107.299 76.8002 105.359 79.8488 102.814H79.775ZM6.1337 44.1055H53.0232C53.8415 44.114 54.6499 44.267 55.4018 44.5553C56.1537 44.8437 56.8343 45.2618 57.4043 45.7856C57.9744 46.3095 58.4227 46.9288 58.7235 47.6079C59.0243 48.2869 59.1715 49.0123 59.1569 49.7423V91.6063C59.1618 92.3419 59.0025 93.071 58.6881 93.7511C58.3737 94.4311 57.9106 95.0484 57.3259 95.5671C56.7411 96.0857 56.0463 96.4952 55.2822 96.7716C54.5181 97.048 53.6999 97.186 52.8754 97.1772H6.1337C5.30888 97.1646 4.49516 97.0053 3.74011 96.7088C2.98505 96.4124 2.3038 95.9848 1.73617 95.4508C1.16853 94.9167 0.725914 94.2871 0.434157 93.5988C0.142401 92.9104 0.00736801 92.177 0.0369523 91.4416V49.7423C0.0561354 48.2964 0.708522 46.9146 1.85468 45.8921C3.00084 44.8696 4.54984 44.2876 6.17064 44.2705L6.1337 44.1055ZM36.7652 56.8954C38.0106 56.8879 39.2521 57.0208 40.4602 57.291V60.7523C39.2712 60.393 38.02 60.2255 36.7652 60.2578C34.415 60.2296 32.112 60.8471 30.1687 62.0265C28.2253 63.2059 26.7357 64.8901 25.9019 66.8505H33.2919V69.5866H25.1999V71.3006H33.2919V74.0366H25.9019C26.7357 75.9971 28.2253 77.6813 30.1687 78.8606C32.112 80.04 34.415 80.6575 36.7652 80.6293C38.0287 80.6173 39.2798 80.4052 40.4602 80.003V83.2994C39.2521 83.5696 38.0106 83.7025 36.7652 83.695C33.4315 83.7039 30.1854 82.7435 27.5184 80.9591C24.8515 79.1747 22.909 76.6634 21.9852 73.8058H18.9184V71.0698H21.431V69.3558H18.9184V66.6198H21.9852C22.8572 63.7198 24.7793 61.1582 27.4524 59.3339C30.1255 57.5096 33.3996 56.5249 36.7652 56.5329V56.8954ZM56.9399 14.0426H103.866C105.506 14.0599 107.072 14.6556 108.221 15.6994C109.37 16.7432 110.01 18.1503 110 19.6134V61.4774C109.981 62.9234 109.328 64.3052 108.182 65.3277C107.036 66.3502 105.487 66.9322 103.866 66.9493H64.0343V46.3142C64.0249 45.463 63.8251 44.6221 63.4467 43.8407C63.0683 43.0593 62.5189 42.3532 61.8306 41.7638C61.1423 41.1743 60.329 40.7133 59.4385 40.4079C58.5479 40.1025 57.5979 39.9586 56.6443 39.985H50.6584V19.6134C50.6584 18.8791 50.8211 18.152 51.1372 17.4739C51.4534 16.7959 51.9166 16.1803 52.5004 15.6626C53.0842 15.1448 53.777 14.7352 54.5388 14.4572C55.3007 14.1792 56.1167 14.0382 56.9399 14.0426ZM79.3685 55.3792V52.4124C77.726 52.3405 76.1115 52.0056 74.602 51.4235C73.3107 50.919 72.2081 50.0954 71.4243 49.05C70.4945 47.9279 69.9549 46.5868 69.8724 45.1933L73.789 44.6C73.9021 45.9247 74.4844 47.1831 75.4518 48.1931C76.4782 49.1782 77.8693 49.7986 79.3685 49.9401V40.5125C77.6522 40.2234 76.0031 39.6773 74.4911 38.8973C73.2572 38.5279 72.2099 37.7804 71.5351 36.7876C70.8415 35.8035 70.506 34.6521 70.5744 33.4912C70.5726 32.4988 70.8365 31.5203 71.3443 30.6373C71.852 29.7543 72.5889 28.9925 73.4935 28.4149C75.2419 27.3931 77.2786 26.833 79.3685 26.7995V25.4151H81.7333V26.7995C83.5998 26.9211 85.4089 27.429 87.0171 28.2829C88.6263 29.3727 89.7202 30.9602 90.084 32.7331L86.0195 33.2605C85.9683 32.227 85.4797 31.2492 84.6523 30.5244C83.8359 29.8634 82.8218 29.4282 81.7333 29.2718V37.8425C83.6547 38.2051 84.911 38.6007 85.4283 38.6996C86.4991 39.1095 87.5257 39.6059 88.4951 40.1828C89.1799 40.8089 89.742 41.5333 90.1579 42.3255C90.619 43.132 90.8596 44.0243 90.8599 44.9296C90.8848 45.8981 90.6613 46.8589 90.2066 47.7386C89.752 48.6184 89.0781 49.394 88.2365 50.0061C86.4182 51.414 84.1035 52.2073 81.6963 52.2476V55.2142L79.3685 55.3792ZM79.3685 29.4368C77.997 29.4858 76.6888 29.9642 75.6735 30.7882C74.9169 31.4937 74.4946 32.4324 74.4946 33.4088C74.4946 34.3851 74.9169 35.324 75.6735 36.0295C76.7196 36.8307 78.0026 37.3456 79.3685 37.5127V29.4368ZM81.7333 49.9401C83.1264 49.8377 84.4346 49.3007 85.4283 48.4237C85.9593 48.0234 86.3743 47.515 86.638 46.9411C86.9017 46.3673 87.0064 45.745 86.9432 45.1273C86.9787 44.6674 86.8975 44.2064 86.7056 43.7783C86.5137 43.3503 86.216 42.9663 85.8347 42.6551C84.7249 41.7402 83.3109 41.1731 81.8072 41.0399L81.7333 49.9401Z" fill="url(#paint0_linear_690_306)"/>
</g>
<defs>
<linearGradient id="paint0_linear_690_306" x1="55.0165" y1="-0.0407715" x2="55.0165" y2="109.93" gradientUnits="userSpaceOnUse">
<stop stop-color="white"/>
<stop offset="1" stop-color="#918F8F"/>
</linearGradient>
<clipPath id="clip0_690_306">
<rect width="110" height="110" fill="white"/>
</clipPath>
</defs>
</svg>
