<svg width="110" height="110" viewBox="0 0 110 110" fill="none" xmlns="http://www.w3.org/2000/svg">
<g clip-path="url(#clip0_692_322)">
<path fill-rule="evenodd" clip-rule="evenodd" d="M39.9678 21.9733C33.2869 23.8377 28.5709 28.9983 33.6013 34.3917C35.3501 35.947 37.5429 37.0937 39.9678 37.721V21.9733ZM63.5477 17.7119C72.4658 19.9719 80.3611 24.4774 86.1844 30.6296H69.9143C68.2553 26.1701 66.1245 21.8467 63.5477 17.7119ZM50.2251 15.9473C52.609 15.933 54.9897 16.1002 57.3384 16.4468C60.4257 20.9227 62.9042 25.6807 64.7267 30.6296H50.2251V15.9473ZM71.6827 35.9231H90.3501C93.6898 41.056 95.7121 46.7286 96.2844 52.5696H74.1979C74.0157 46.9636 73.1732 41.3871 71.6827 35.9231ZM50.2251 35.9231H66.4952C68.1364 41.3635 68.9811 46.9543 69.0104 52.5696H50.2251V35.9231ZM74.0407 57.7633H96.4416C95.8743 63.6577 93.8526 69.3857 90.5073 74.5764H71.2504C72.8816 69.0675 73.8689 63.4359 74.1979 57.7633H74.0407ZM50.2251 57.7633H68.9318C68.463 63.4609 67.2638 69.0985 65.3555 74.5764H50.4216L50.2251 57.7633ZM69.3248 79.5703H86.1844C80.2557 85.9387 72.1405 90.5917 62.9582 92.8875C65.4042 88.5645 67.5305 84.1169 69.3248 79.5703ZM50.343 4.56114C58.1661 4.51896 65.9214 5.79208 73.1597 8.3066C80.3981 10.8211 86.9757 14.5272 92.5116 19.2101C100.954 26.2701 106.722 35.3007 109.079 45.1498C111.437 54.9988 110.277 65.2198 105.748 74.5081C101.219 83.7964 93.5261 91.7309 83.651 97.2993C73.7758 102.868 62.1663 105.817 50.3037 105.772V98.4807C63.8535 98.4807 76.8484 93.9208 86.4295 85.804C96.0107 77.6873 101.393 66.6786 101.393 55.1998C101.393 43.721 96.0107 32.7124 86.4295 24.5957C76.8484 16.4789 63.8535 11.919 50.3037 11.919L50.343 4.56114ZM50.343 79.5703H63.5084C61.467 84.5133 59.0516 89.3396 56.2772 94.0194C54.3516 94.0194 52.3473 94.2524 50.343 94.2524V79.5703ZM45.5877 110.2H39.9678V98.5138C18.353 97.0156 3.96927 89.9909 0 71.3135L29.1604 68.417C30.6538 75.0756 32.4223 78.8378 39.9678 81.9673V60.2602C32.9015 58.733 25.9788 56.7634 19.2569 54.3675C1.4541 46.9765 -0.746701 25.7688 13.1654 14.4159C19.2569 9.52187 28.1386 6.75851 39.9678 6.25912V0.0997925H45.5877V110.2Z" fill="url(#paint0_linear_692_322)"/>
</g>
<defs>
<linearGradient id="paint0_linear_692_322" x1="55.135" y1="0.0997925" x2="55.135" y2="110.2" gradientUnits="userSpaceOnUse">
<stop stop-color="white"/>
<stop offset="1" stop-color="#918F8F"/>
</linearGradient>
<clipPath id="clip0_692_322">
<rect width="110" height="110" fill="white"/>
</clipPath>
</defs>
</svg>
