<svg width="168" height="60" viewBox="0 0 168 60" fill="none" xmlns="http://www.w3.org/2000/svg">
<path d="M32.0014 14.0629L33.2117 14.8846L26.5749 21.2795L24.7897 22.9996H27.2688H32.2504H32.6537L32.9442 22.7198L37.8237 18.0189L40.8708 20.0905L39.5995 21.2651L37.7221 22.9996H40.2781H45.3219H45.7719L46.0704 22.6628C46.8722 21.7579 47.2559 20.6052 47.0651 19.4302C46.8758 18.2653 46.1529 17.2628 45.1369 16.5725C45.1368 16.5724 45.1367 16.5724 45.1366 16.5723L35.5369 10.0464L35.5364 10.046C34.969 9.66089 34.3185 9.37718 33.6277 9.20325C32.9367 9.02925 32.2111 8.96651 31.493 9.01681C30.775 9.0671 30.071 9.22998 29.4233 9.50076C28.7759 9.77143 28.1897 10.148 27.7086 10.6185L27.7085 10.6186L21.1862 16.9995H19.0465H7.83784C6.0966 16.9995 4.39001 17.5306 3.09935 18.5255L3.67829 19.2766L3.09935 18.5256C1.80288 19.5249 1 20.9444 1 22.4996V43.4999C1 45.5855 2.07624 47.5137 3.85929 48.8882C5.63653 50.2581 8.00306 51 10.4324 51H41.5676C43.9969 51 46.3635 50.2581 48.1407 48.8882C49.9238 47.5137 51 45.5855 51 43.4999V30.4997C51 28.4141 49.9238 26.4859 48.1407 25.1114C46.3635 23.7415 43.9969 22.9996 41.5676 22.9996H7.83784C7.51469 22.9996 7.24144 22.8986 7.07236 22.7683C6.90909 22.6424 6.89189 22.5357 6.89189 22.4996C6.89189 22.4634 6.90909 22.3568 7.07236 22.2309C7.24144 22.1006 7.51469 21.9996 7.83784 21.9996H15.9537H16.0753L15.0532 22.9996H17.5053H22.461H22.8689L23.1604 22.7143L32.0014 14.0629ZM31.8389 13.9526L31.8392 13.9528L31.8389 13.9526ZM36.3784 37.9998C36.0435 37.9998 35.7761 37.894 35.6131 37.7683C35.4511 37.6434 35.4324 37.5399 35.4324 37.4998C35.4324 37.4637 35.4496 37.357 35.6129 37.2311C35.782 37.1008 36.0552 36.9998 36.3784 36.9998H41.5676C41.8907 36.9998 42.164 37.1008 42.333 37.2311C42.4963 37.357 42.5135 37.4637 42.5135 37.4998C42.5135 37.536 42.4963 37.6426 42.333 37.7685C42.164 37.8988 41.8907 37.9998 41.5676 37.9998H36.3784Z" stroke="url(#paint0_linear_14_14)" stroke-width="2"/>
<path d="M61.2642 44V29.4545H67.0881C68.1581 29.4545 69.0507 29.6132 69.7656 29.9304C70.4806 30.2476 71.018 30.688 71.3778 31.2514C71.7377 31.8101 71.9176 32.4541 71.9176 33.1832C71.9176 33.7514 71.804 34.2509 71.5767 34.6818C71.3494 35.108 71.0369 35.4583 70.6392 35.733C70.2462 36.0028 69.7964 36.1946 69.2898 36.3082V36.4503C69.8438 36.474 70.3622 36.6302 70.8452 36.919C71.3329 37.2079 71.7282 37.6127 72.0312 38.1335C72.3343 38.6496 72.4858 39.2652 72.4858 39.9801C72.4858 40.7519 72.294 41.4408 71.9105 42.0469C71.5317 42.6482 70.9706 43.1241 70.2273 43.4744C69.4839 43.8248 68.5677 44 67.4787 44H61.2642ZM64.3395 41.4858H66.8466C67.7036 41.4858 68.3286 41.3224 68.7216 40.9957C69.1146 40.6643 69.3111 40.224 69.3111 39.6747C69.3111 39.2723 69.214 38.9171 69.0199 38.6094C68.8258 38.3016 68.5488 38.0601 68.1889 37.8849C67.8338 37.7098 67.41 37.6222 66.9176 37.6222H64.3395V41.4858ZM64.3395 35.5412H66.6193C67.0407 35.5412 67.4148 35.4678 67.7415 35.321C68.0729 35.1695 68.3333 34.9564 68.5227 34.6818C68.7169 34.4072 68.8139 34.0781 68.8139 33.6946C68.8139 33.169 68.6269 32.7453 68.2528 32.4233C67.8835 32.1013 67.358 31.9403 66.6761 31.9403H64.3395V35.5412ZM74.4869 44V29.4545H77.5621V41.4645H83.7979V44H74.4869ZM98.6346 36.7273C98.6346 38.3134 98.3339 39.6629 97.7326 40.7756C97.136 41.8883 96.3216 42.7382 95.2894 43.3253C94.262 43.9077 93.1067 44.1989 91.8235 44.1989C90.5309 44.1989 89.3709 43.9053 88.3434 43.3182C87.3159 42.7311 86.5039 41.8812 85.9073 40.7685C85.3107 39.6558 85.0124 38.3087 85.0124 36.7273C85.0124 35.1411 85.3107 33.7917 85.9073 32.679C86.5039 31.5663 87.3159 30.7187 88.3434 30.1364C89.3709 29.5492 90.5309 29.2557 91.8235 29.2557C93.1067 29.2557 94.262 29.5492 95.2894 30.1364C96.3216 30.7187 97.136 31.5663 97.7326 32.679C98.3339 33.7917 98.6346 35.1411 98.6346 36.7273ZM95.5167 36.7273C95.5167 35.6998 95.3628 34.8333 95.055 34.1278C94.752 33.4223 94.3235 32.8873 93.7695 32.5227C93.2156 32.1581 92.5669 31.9759 91.8235 31.9759C91.0801 31.9759 90.4315 32.1581 89.8775 32.5227C89.3235 32.8873 88.8926 33.4223 88.5849 34.1278C88.2818 34.8333 88.1303 35.6998 88.1303 36.7273C88.1303 37.7547 88.2818 38.6212 88.5849 39.3267C88.8926 40.0322 89.3235 40.5672 89.8775 40.9318C90.4315 41.2964 91.0801 41.4787 91.8235 41.4787C92.5669 41.4787 93.2156 41.2964 93.7695 40.9318C94.3235 40.5672 94.752 40.0322 95.055 39.3267C95.3628 38.6212 95.5167 37.7547 95.5167 36.7273ZM113.746 34.5469H110.636C110.579 34.1444 110.463 33.7869 110.288 33.4744C110.112 33.1572 109.888 32.8873 109.613 32.6648C109.338 32.4422 109.021 32.2718 108.661 32.1534C108.306 32.035 107.92 31.9759 107.504 31.9759C106.751 31.9759 106.095 32.1629 105.536 32.5369C104.978 32.9062 104.544 33.446 104.237 34.1562C103.929 34.8617 103.775 35.7187 103.775 36.7273C103.775 37.7642 103.929 38.6354 104.237 39.3409C104.549 40.0464 104.985 40.5791 105.543 40.9389C106.102 41.2988 106.748 41.4787 107.482 41.4787C107.894 41.4787 108.275 41.4242 108.626 41.3153C108.981 41.2064 109.296 41.0478 109.57 40.8395C109.845 40.6264 110.072 40.3684 110.252 40.0653C110.437 39.7623 110.565 39.4167 110.636 39.0284L113.746 39.0426C113.666 39.7102 113.465 40.3542 113.143 40.9744C112.826 41.59 112.397 42.1416 111.857 42.6293C111.322 43.1122 110.683 43.4957 109.94 43.7798C109.201 44.0592 108.365 44.1989 107.433 44.1989C106.135 44.1989 104.975 43.9053 103.952 43.3182C102.934 42.7311 102.129 41.8812 101.538 40.7685C100.951 39.6558 100.657 38.3087 100.657 36.7273C100.657 35.1411 100.955 33.7917 101.552 32.679C102.148 31.5663 102.958 30.7187 103.981 30.1364C105.004 29.5492 106.154 29.2557 107.433 29.2557C108.275 29.2557 109.057 29.3741 109.776 29.6108C110.501 29.8475 111.142 30.1932 111.701 30.6477C112.26 31.0975 112.714 31.6491 113.065 32.3026C113.42 32.956 113.647 33.7041 113.746 34.5469ZM115.952 44V29.4545H119.027V35.8679H119.219L124.453 29.4545H128.139L122.741 35.9673L128.203 44H124.524L120.54 38.0199L119.027 39.8665V44H115.952ZM129.741 44V29.4545H135.479C136.583 29.4545 137.522 29.6652 138.299 30.0866C139.076 30.5033 139.667 31.0833 140.075 31.8267C140.487 32.5653 140.692 33.4176 140.692 34.3835C140.692 35.3494 140.484 36.2017 140.067 36.9403C139.651 37.679 139.047 38.2543 138.256 38.6662C137.47 39.0781 136.519 39.2841 135.401 39.2841H131.744V36.8196H134.904C135.496 36.8196 135.984 36.7178 136.367 36.5142C136.755 36.3059 137.044 36.0194 137.234 35.6548C137.428 35.2855 137.525 34.8617 137.525 34.3835C137.525 33.9006 137.428 33.4792 137.234 33.1193C137.044 32.7547 136.755 32.473 136.367 32.2741C135.979 32.0705 135.487 31.9688 134.89 31.9688H132.816V44H129.741ZM143.517 44H140.222L145.243 29.4545H149.206L154.221 44H150.925L147.282 32.7784H147.168L143.517 44ZM143.311 38.2827H151.096V40.6832H143.311V38.2827ZM153.635 29.4545H157.079L160.396 35.7188H160.538L163.855 29.4545H167.299L161.994 38.858V44H158.94V38.858L153.635 29.4545Z" fill="url(#paint1_linear_14_14)"/>
<defs>
<linearGradient id="paint0_linear_14_14" x1="26" y1="10" x2="26" y2="50" gradientUnits="userSpaceOnUse">
<stop stop-color="white"/>
<stop offset="1" stop-color="#7B7979"/>
</linearGradient>
<linearGradient id="paint1_linear_14_14" x1="114" y1="30" x2="114" y2="43" gradientUnits="userSpaceOnUse">
<stop stop-color="white"/>
<stop offset="1" stop-color="#7B7979"/>
</linearGradient>
</defs>
</svg>
