<svg width="24" height="24" viewBox="0 0 24 24" fill="none" xmlns="http://www.w3.org/2000/svg">
<path fill-rule="evenodd" clip-rule="evenodd" d="M11.012 3.03837C6.513 3.53237 3 7.35237 3 11.9804C3 16.9434 7.038 20.9804 12 20.9804C16.962 20.9804 21 16.9434 21 11.9804C21 7.35237 17.487 3.53237 12.988 3.03837C12.2115 2.98708 11.8049 2.98734 11.012 3.03837ZM12 18.7304C8.278 18.7304 5.25 15.7024 5.25 11.9804C5.25 8.25838 8.278 5.23038 12 5.23038C15.722 5.23038 18.75 8.25838 18.75 11.9804C18.75 15.7024 15.722 18.7304 12 18.7304ZM14 11.9804H12V9.98038C12 9.42738 11.552 8.98038 11 8.98038C10.448 8.98038 10 9.42738 10 9.98038V12.9804C10 13.5334 10.448 13.9804 11 13.9804H14C14.552 13.9804 15 13.5334 15 12.9804C15 12.4274 14.552 11.9804 14 11.9804Z" fill="#30B0C7"/>
</svg>
