<svg width="20" height="20" viewBox="0 0 20 20" fill="none" xmlns="http://www.w3.org/2000/svg">
<path fill-rule="evenodd" clip-rule="evenodd" d="M15.9256 3.37078C16.333 3.373 16.6618 3.70409 16.6618 4.11073L16.667 7.77718C16.667 8.18604 16.3359 8.51862 15.9271 8.51862H15.9263C15.5175 8.51862 15.1856 8.18753 15.1856 7.77866L15.1819 5.86618L9.04304 12.0051C8.8986 12.1503 8.70898 12.2221 8.51937 12.2221C8.32975 12.2221 8.14013 12.1503 7.99569 12.0051C7.70608 11.7162 7.70608 11.2473 7.99569 10.9577L14.1131 4.84106L12.2184 4.81513C11.8088 4.81291 11.4792 4.47886 11.4822 4.06999C11.4848 3.71009 11.7429 3.41146 12.084 3.34674L15.9256 3.37078ZM12.084 3.34674C12.1289 3.33821 12.1754 3.33374 12.2228 3.33374H10.0052L12.084 3.34674ZM15.1846 11.4508C15.1846 11.0419 15.5165 10.7101 15.9253 10.7101C16.3342 10.7101 16.666 11.0419 16.666 11.4508V14.7402C16.666 15.8023 15.8016 16.6667 14.7402 16.6667H5.25931C4.19789 16.6667 3.3335 15.8023 3.3335 14.7402V5.26C3.3335 4.19784 4.19789 3.33419 5.25931 3.33419H8.54943C8.9583 3.33419 9.29013 3.66528 9.29013 4.07488C9.29013 4.48375 8.9583 4.81558 8.54943 4.81558H5.25931C5.01414 4.81558 4.81489 5.01483 4.81489 5.26V14.7402C4.81489 14.9853 5.01414 15.1853 5.25931 15.1853H14.7402C14.9854 15.1853 15.1846 14.9853 15.1846 14.7402V11.4508Z" fill="#32ADE6"/>
</svg>
