<svg width="30" height="30" viewBox="0 0 30 30" fill="none" xmlns="http://www.w3.org/2000/svg">
<rect width="30" height="30" rx="15" fill="#E84142"/>
<path d="M23.5414 19.3439C23.9397 20.0338 23.4418 20.8956 22.6453 20.8956H17.52C16.7241 20.8956 16.2263 20.0338 16.6246 19.3439L19.1868 14.906C19.5851 14.2161 20.5808 14.2161 20.9784 14.906L23.5414 19.3439Z" fill="white"/>
<path d="M18.026 9.79001C18.4016 10.4411 18.4016 11.2435 18.026 11.8945L13.4264 19.8607C13.0566 20.5008 12.3738 20.8952 11.6342 20.8952H7.35465C6.5581 20.8952 6.06026 20.0333 6.45853 19.3435L14.104 6.10078C14.5023 5.41156 15.498 5.41156 15.8962 6.10078L18.026 9.79001Z" fill="white"/>
<path d="M18.1679 24.4162H11.8317C11.546 24.4162 11.3145 24.1846 11.3145 23.899C11.3145 23.6133 11.546 23.3817 11.8317 23.3817H18.1679C18.4536 23.3817 18.6852 23.6133 18.6852 23.899C18.6852 24.1846 18.4536 24.4162 18.1679 24.4162Z" fill="white"/>
</svg>
