<svg width="335" height="129" viewBox="0 0 335 129" fill="none" xmlns="http://www.w3.org/2000/svg">
<path d="M28.6567 19.278V22.54H32.2127V23.59H28.6567V26.95H32.6327V28H27.3827V18.228H32.6327V19.278H28.6567ZM43.7864 20.188C44.3838 20.188 44.9158 20.314 45.3824 20.566C45.8491 20.8087 46.2178 21.1773 46.4884 21.672C46.7591 22.1667 46.8944 22.7687 46.8944 23.478V28H45.6344V23.66C45.6344 22.8947 45.4431 22.3113 45.0604 21.91C44.6871 21.4993 44.1784 21.294 43.5344 21.294C42.8718 21.294 42.3444 21.5087 41.9524 21.938C41.5604 22.358 41.3644 22.9693 41.3644 23.772V28H40.1044V23.66C40.1044 22.8947 39.9131 22.3113 39.5304 21.91C39.1571 21.4993 38.6484 21.294 38.0044 21.294C37.3418 21.294 36.8144 21.5087 36.4224 21.938C36.0304 22.358 35.8344 22.9693 35.8344 23.772V28H34.5604V20.328H35.8344V21.434C36.0864 21.0327 36.4224 20.7247 36.8424 20.51C37.2718 20.2953 37.7431 20.188 38.2564 20.188C38.9004 20.188 39.4698 20.3327 39.9644 20.622C40.4591 20.9113 40.8278 21.336 41.0704 21.896C41.2851 21.3547 41.6398 20.9347 42.1344 20.636C42.6291 20.3373 43.1798 20.188 43.7864 20.188ZM50.2583 21.742C50.5103 21.3033 50.8836 20.9393 51.3783 20.65C51.8823 20.3513 52.4656 20.202 53.1283 20.202C53.8096 20.202 54.4256 20.3653 54.9762 20.692C55.5362 21.0187 55.9749 21.4807 56.2923 22.078C56.6096 22.666 56.7683 23.352 56.7683 24.136C56.7683 24.9107 56.6096 25.6013 56.2923 26.208C55.9749 26.8147 55.5362 27.286 54.9762 27.622C54.4256 27.958 53.8096 28.126 53.1283 28.126C52.4749 28.126 51.8963 27.9813 51.3923 27.692C50.8976 27.3933 50.5196 27.0247 50.2583 26.586V31.64H48.9843V20.328H50.2583V21.742ZM55.4663 24.136C55.4663 23.5573 55.3496 23.0533 55.1163 22.624C54.8829 22.1947 54.5656 21.868 54.1643 21.644C53.7723 21.42 53.3383 21.308 52.8623 21.308C52.3956 21.308 51.9616 21.4247 51.5603 21.658C51.1683 21.882 50.8509 22.2133 50.6083 22.652C50.3749 23.0813 50.2583 23.5807 50.2583 24.15C50.2583 24.7287 50.3749 25.2373 50.6083 25.676C50.8509 26.1053 51.1683 26.4367 51.5603 26.67C51.9616 26.894 52.3956 27.006 52.8623 27.006C53.3383 27.006 53.7723 26.894 54.1643 26.67C54.5656 26.4367 54.8829 26.1053 55.1163 25.676C55.3496 25.2373 55.4663 24.724 55.4663 24.136ZM59.7192 17.64V28H58.4452V17.64H59.7192ZM65.2365 28.126C64.5178 28.126 63.8645 27.9627 63.2765 27.636C62.6978 27.3093 62.2405 26.8473 61.9045 26.25C61.5778 25.6433 61.4145 24.9433 61.4145 24.15C61.4145 23.366 61.5825 22.6753 61.9185 22.078C62.2638 21.4713 62.7305 21.0093 63.3185 20.692C63.9065 20.3653 64.5645 20.202 65.2925 20.202C66.0205 20.202 66.6785 20.3653 67.2665 20.692C67.8545 21.0093 68.3165 21.4667 68.6525 22.064C68.9978 22.6613 69.1705 23.3567 69.1705 24.15C69.1705 24.9433 68.9932 25.6433 68.6385 26.25C68.2932 26.8473 67.8218 27.3093 67.2245 27.636C66.6272 27.9627 65.9645 28.126 65.2365 28.126ZM65.2365 27.006C65.6938 27.006 66.1232 26.8987 66.5245 26.684C66.9258 26.4693 67.2478 26.1473 67.4905 25.718C67.7425 25.2887 67.8685 24.766 67.8685 24.15C67.8685 23.534 67.7472 23.0113 67.5045 22.582C67.2618 22.1527 66.9445 21.8353 66.5525 21.63C66.1605 21.4153 65.7358 21.308 65.2785 21.308C64.8118 21.308 64.3825 21.4153 63.9905 21.63C63.6078 21.8353 63.2998 22.1527 63.0665 22.582C62.8332 23.0113 62.7165 23.534 62.7165 24.15C62.7165 24.7753 62.8285 25.3027 63.0525 25.732C63.2858 26.1613 63.5938 26.4833 63.9765 26.698C64.3592 26.9033 64.7792 27.006 65.2365 27.006ZM77.4536 20.328L72.8336 31.612H71.5176L73.0296 27.916L69.9356 20.328H71.3496L73.7576 26.544L76.1376 20.328H77.4536ZM85.7343 23.87C85.7343 24.1127 85.7203 24.3693 85.6923 24.64H79.5603C79.6069 25.396 79.8636 25.9887 80.3303 26.418C80.8063 26.838 81.3803 27.048 82.0523 27.048C82.6029 27.048 83.0603 26.922 83.4243 26.67C83.7976 26.4087 84.0589 26.0633 84.2083 25.634H85.5803C85.3749 26.3713 84.9643 26.9733 84.3483 27.44C83.7323 27.8973 82.9669 28.126 82.0523 28.126C81.3243 28.126 80.6709 27.9627 80.0923 27.636C79.5229 27.3093 79.0749 26.8473 78.7483 26.25C78.4216 25.6433 78.2583 24.9433 78.2583 24.15C78.2583 23.3567 78.4169 22.6613 78.7343 22.064C79.0516 21.4667 79.4949 21.0093 80.0643 20.692C80.6429 20.3653 81.3056 20.202 82.0523 20.202C82.7803 20.202 83.4243 20.3607 83.9843 20.678C84.5443 20.9953 84.9736 21.434 85.2723 21.994C85.5803 22.5447 85.7343 23.17 85.7343 23.87ZM84.4183 23.604C84.4183 23.1187 84.3109 22.7033 84.0963 22.358C83.8816 22.0033 83.5876 21.7373 83.2143 21.56C82.8503 21.3733 82.4443 21.28 81.9963 21.28C81.3523 21.28 80.8016 21.4853 80.3443 21.896C79.8963 22.3067 79.6396 22.876 79.5743 23.604H84.4183ZM94.4159 23.87C94.4159 24.1127 94.4019 24.3693 94.3739 24.64H88.2419C88.2886 25.396 88.5452 25.9887 89.0119 26.418C89.4879 26.838 90.0619 27.048 90.7339 27.048C91.2846 27.048 91.7419 26.922 92.1059 26.67C92.4792 26.4087 92.7406 26.0633 92.8899 25.634H94.2619C94.0566 26.3713 93.6459 26.9733 93.0299 27.44C92.4139 27.8973 91.6486 28.126 90.7339 28.126C90.0059 28.126 89.3526 27.9627 88.7739 27.636C88.2046 27.3093 87.7566 26.8473 87.4299 26.25C87.1032 25.6433 86.9399 24.9433 86.9399 24.15C86.9399 23.3567 87.0986 22.6613 87.4159 22.064C87.7332 21.4667 88.1766 21.0093 88.7459 20.692C89.3246 20.3653 89.9872 20.202 90.7339 20.202C91.4619 20.202 92.1059 20.3607 92.6659 20.678C93.2259 20.9953 93.6552 21.434 93.9539 21.994C94.2619 22.5447 94.4159 23.17 94.4159 23.87ZM93.0999 23.604C93.0999 23.1187 92.9926 22.7033 92.7779 22.358C92.5632 22.0033 92.2692 21.7373 91.8959 21.56C91.5319 21.3733 91.1259 21.28 90.6779 21.28C90.0339 21.28 89.4832 21.4853 89.0259 21.896C88.5779 22.3067 88.3212 22.876 88.2559 23.604H93.0999ZM98.8135 28.126C98.2255 28.126 97.6982 28.028 97.2315 27.832C96.7649 27.6267 96.3962 27.3467 96.1255 26.992C95.8549 26.628 95.7055 26.2127 95.6775 25.746H96.9935C97.0309 26.1287 97.2082 26.4413 97.5255 26.684C97.8522 26.9267 98.2769 27.048 98.7995 27.048C99.2849 27.048 99.6675 26.9407 99.9475 26.726C100.228 26.5113 100.368 26.2407 100.368 25.914C100.368 25.578 100.218 25.3307 99.9195 25.172C99.6209 25.004 99.1589 24.8407 98.5335 24.682C97.9642 24.5327 97.4975 24.3833 97.1335 24.234C96.7789 24.0753 96.4709 23.8467 96.2095 23.548C95.9575 23.24 95.8315 22.8387 95.8315 22.344C95.8315 21.952 95.9482 21.5927 96.1815 21.266C96.4149 20.9393 96.7462 20.6827 97.1755 20.496C97.6049 20.3 98.0949 20.202 98.6455 20.202C99.4949 20.202 100.181 20.4167 100.704 20.846C101.226 21.2753 101.506 21.8633 101.544 22.61H100.27C100.242 22.2087 100.078 21.8867 99.7795 21.644C99.4902 21.4013 99.0982 21.28 98.6035 21.28C98.1462 21.28 97.7822 21.378 97.5115 21.574C97.2409 21.77 97.1055 22.0267 97.1055 22.344C97.1055 22.596 97.1849 22.806 97.3435 22.974C97.5115 23.1327 97.7169 23.2633 97.9595 23.366C98.2115 23.4593 98.5569 23.5667 98.9955 23.688C99.5462 23.8373 99.9942 23.9867 100.34 24.136C100.685 24.276 100.979 24.4907 101.222 24.78C101.474 25.0693 101.604 25.4473 101.614 25.914C101.614 26.334 101.497 26.712 101.264 27.048C101.03 27.384 100.699 27.65 100.27 27.846C99.8495 28.0327 99.3642 28.126 98.8135 28.126ZM108.418 21.742C108.67 21.3033 109.044 20.9393 109.538 20.65C110.042 20.3513 110.626 20.202 111.288 20.202C111.97 20.202 112.586 20.3653 113.136 20.692C113.696 21.0187 114.135 21.4807 114.452 22.078C114.77 22.666 114.928 23.352 114.928 24.136C114.928 24.9107 114.77 25.6013 114.452 26.208C114.135 26.8147 113.696 27.286 113.136 27.622C112.586 27.958 111.97 28.126 111.288 28.126C110.635 28.126 110.056 27.9813 109.552 27.692C109.058 27.3933 108.68 27.0247 108.418 26.586V31.64H107.144V20.328H108.418V21.742ZM113.626 24.136C113.626 23.5573 113.51 23.0533 113.276 22.624C113.043 22.1947 112.726 21.868 112.324 21.644C111.932 21.42 111.498 21.308 111.022 21.308C110.556 21.308 110.122 21.4247 109.72 21.658C109.328 21.882 109.011 22.2133 108.768 22.652C108.535 23.0813 108.418 23.5807 108.418 24.15C108.418 24.7287 108.535 25.2373 108.768 25.676C109.011 26.1053 109.328 26.4367 109.72 26.67C110.122 26.894 110.556 27.006 111.022 27.006C111.498 27.006 111.932 26.894 112.324 26.67C112.726 26.4367 113.043 26.1053 113.276 25.676C113.51 25.2373 113.626 24.724 113.626 24.136ZM116.129 24.136C116.129 23.352 116.288 22.666 116.605 22.078C116.923 21.4807 117.357 21.0187 117.907 20.692C118.467 20.3653 119.088 20.202 119.769 20.202C120.441 20.202 121.025 20.3467 121.519 20.636C122.014 20.9253 122.383 21.2893 122.625 21.728V20.328H123.913V28H122.625V26.572C122.373 27.02 121.995 27.3933 121.491 27.692C120.997 27.9813 120.418 28.126 119.755 28.126C119.074 28.126 118.458 27.958 117.907 27.622C117.357 27.286 116.923 26.8147 116.605 26.208C116.288 25.6013 116.129 24.9107 116.129 24.136ZM122.625 24.15C122.625 23.5713 122.509 23.0673 122.275 22.638C122.042 22.2087 121.725 21.882 121.323 21.658C120.931 21.4247 120.497 21.308 120.021 21.308C119.545 21.308 119.111 21.42 118.719 21.644C118.327 21.868 118.015 22.1947 117.781 22.624C117.548 23.0533 117.431 23.5573 117.431 24.136C117.431 24.724 117.548 25.2373 117.781 25.676C118.015 26.1053 118.327 26.4367 118.719 26.67C119.111 26.894 119.545 27.006 120.021 27.006C120.497 27.006 120.931 26.894 121.323 26.67C121.725 26.4367 122.042 26.1053 122.275 25.676C122.509 25.2373 122.625 24.7287 122.625 24.15ZM126.724 19.082C126.482 19.082 126.276 18.998 126.108 18.83C125.94 18.662 125.856 18.4567 125.856 18.214C125.856 17.9713 125.94 17.766 126.108 17.598C126.276 17.43 126.482 17.346 126.724 17.346C126.958 17.346 127.154 17.43 127.312 17.598C127.48 17.766 127.564 17.9713 127.564 18.214C127.564 18.4567 127.48 18.662 127.312 18.83C127.154 18.998 126.958 19.082 126.724 19.082ZM127.34 20.328V28H126.066V20.328H127.34ZM129.036 24.136C129.036 23.352 129.194 22.666 129.512 22.078C129.829 21.4807 130.263 21.0187 130.814 20.692C131.374 20.3653 131.999 20.202 132.69 20.202C133.287 20.202 133.842 20.342 134.356 20.622C134.869 20.8927 135.261 21.252 135.532 21.7V17.64H136.82V28H135.532V26.558C135.28 27.0153 134.906 27.3933 134.412 27.692C133.917 27.9813 133.338 28.126 132.676 28.126C131.994 28.126 131.374 27.958 130.814 27.622C130.263 27.286 129.829 26.8147 129.512 26.208C129.194 25.6013 129.036 24.9107 129.036 24.136ZM135.532 24.15C135.532 23.5713 135.415 23.0673 135.182 22.638C134.948 22.2087 134.631 21.882 134.23 21.658C133.838 21.4247 133.404 21.308 132.928 21.308C132.452 21.308 132.018 21.42 131.626 21.644C131.234 21.868 130.921 22.1947 130.688 22.624C130.454 23.0533 130.338 23.5573 130.338 24.136C130.338 24.724 130.454 25.2373 130.688 25.676C130.921 26.1053 131.234 26.4367 131.626 26.67C132.018 26.894 132.452 27.006 132.928 27.006C133.404 27.006 133.838 26.894 134.23 26.67C134.631 26.4367 134.948 26.1053 135.182 25.676C135.415 25.2373 135.532 24.7287 135.532 24.15Z" fill="#828690"/>
<path d="M268.837 19.04V17.878H271.469V28H270.181V19.04H268.837ZM280.111 18.984H275.197V22.176C275.412 21.8773 275.729 21.6347 276.149 21.448C276.569 21.252 277.022 21.154 277.507 21.154C278.282 21.154 278.912 21.3173 279.397 21.644C279.882 21.9613 280.228 22.3767 280.433 22.89C280.648 23.394 280.755 23.9307 280.755 24.5C280.755 25.172 280.629 25.774 280.377 26.306C280.125 26.838 279.738 27.258 279.215 27.566C278.702 27.874 278.062 28.028 277.297 28.028C276.317 28.028 275.524 27.776 274.917 27.272C274.31 26.768 273.942 26.096 273.811 25.256H275.057C275.178 25.788 275.435 26.2033 275.827 26.502C276.219 26.8007 276.714 26.95 277.311 26.95C278.048 26.95 278.604 26.7307 278.977 26.292C279.35 25.844 279.537 25.256 279.537 24.528C279.537 23.8 279.35 23.24 278.977 22.848C278.604 22.4467 278.053 22.246 277.325 22.246C276.83 22.246 276.396 22.3673 276.023 22.61C275.659 22.8433 275.393 23.1653 275.225 23.576H274.021V17.864H280.111V18.984ZM287.418 14.812L283.582 30.38H282.322L286.144 14.812H287.418ZM288.952 26.978C290.138 26.026 291.066 25.2467 291.738 24.64C292.41 24.024 292.975 23.3847 293.432 22.722C293.899 22.05 294.132 21.392 294.132 20.748C294.132 20.1413 293.983 19.6653 293.684 19.32C293.395 18.9653 292.924 18.788 292.27 18.788C291.636 18.788 291.141 18.9887 290.786 19.39C290.441 19.782 290.254 20.3093 290.226 20.972H288.994C289.032 19.9267 289.349 19.1193 289.946 18.55C290.544 17.9807 291.314 17.696 292.256 17.696C293.218 17.696 293.978 17.962 294.538 18.494C295.108 19.026 295.392 19.7587 295.392 20.692C295.392 21.4667 295.159 22.2227 294.692 22.96C294.235 23.688 293.712 24.332 293.124 24.892C292.536 25.4427 291.785 26.0867 290.87 26.824H295.686V27.888H288.952V26.978ZM299.007 22.736C298.484 22.5307 298.083 22.232 297.803 21.84C297.523 21.448 297.383 20.972 297.383 20.412C297.383 19.908 297.509 19.4553 297.761 19.054C298.013 18.6433 298.386 18.3213 298.881 18.088C299.385 17.8453 299.992 17.724 300.701 17.724C301.41 17.724 302.012 17.8453 302.507 18.088C303.011 18.3213 303.389 18.6433 303.641 19.054C303.902 19.4553 304.033 19.908 304.033 20.412C304.033 20.9533 303.888 21.4293 303.599 21.84C303.31 22.2413 302.913 22.54 302.409 22.736C302.988 22.9133 303.445 23.226 303.781 23.674C304.126 24.1127 304.299 24.6447 304.299 25.27C304.299 25.8767 304.15 26.4087 303.851 26.866C303.552 27.314 303.128 27.664 302.577 27.916C302.036 28.1587 301.41 28.28 300.701 28.28C299.992 28.28 299.366 28.1587 298.825 27.916C298.293 27.664 297.878 27.314 297.579 26.866C297.28 26.4087 297.131 25.8767 297.131 25.27C297.131 24.6447 297.299 24.108 297.635 23.66C297.971 23.212 298.428 22.904 299.007 22.736ZM302.801 20.566C302.801 19.9967 302.614 19.558 302.241 19.25C301.868 18.942 301.354 18.788 300.701 18.788C300.057 18.788 299.548 18.942 299.175 19.25C298.802 19.558 298.615 20.0013 298.615 20.58C298.615 21.1027 298.806 21.5227 299.189 21.84C299.581 22.1573 300.085 22.316 300.701 22.316C301.326 22.316 301.83 22.1573 302.213 21.84C302.605 21.5133 302.801 21.0887 302.801 20.566ZM300.701 23.296C300.01 23.296 299.446 23.4593 299.007 23.786C298.568 24.1033 298.349 24.584 298.349 25.228C298.349 25.8253 298.559 26.306 298.979 26.67C299.408 27.034 299.982 27.216 300.701 27.216C301.42 27.216 301.989 27.034 302.409 26.67C302.829 26.306 303.039 25.8253 303.039 25.228C303.039 24.6027 302.824 24.1267 302.395 23.8C301.966 23.464 301.401 23.296 300.701 23.296Z" fill="#828690"/>
<g clip-path="url(#clip0_609_423)">
<rect x="25" y="49.1875" width="284.609" height="5" rx="2.5" fill="#E6EAEE"/>
<rect x="25" y="49.1875" width="184" height="5" rx="2.5" fill="#0D99FF"/>
</g>
<path d="M27.352 83.278V86.54H30.908V87.59H27.352V90.95H31.328V92H26.078V82.228H31.328V83.278H27.352ZM42.4817 84.188C43.0791 84.188 43.6111 84.314 44.0777 84.566C44.5444 84.8087 44.9131 85.1773 45.1837 85.672C45.4544 86.1667 45.5897 86.7687 45.5897 87.478V92H44.3297V87.66C44.3297 86.8947 44.1384 86.3113 43.7557 85.91C43.3824 85.4993 42.8737 85.294 42.2297 85.294C41.5671 85.294 41.0397 85.5087 40.6477 85.938C40.2557 86.358 40.0597 86.9693 40.0597 87.772V92H38.7997V87.66C38.7997 86.8947 38.6084 86.3113 38.2257 85.91C37.8524 85.4993 37.3437 85.294 36.6997 85.294C36.0371 85.294 35.5097 85.5087 35.1177 85.938C34.7257 86.358 34.5297 86.9693 34.5297 87.772V92H33.2557V84.328H34.5297V85.434C34.7817 85.0327 35.1177 84.7247 35.5377 84.51C35.9671 84.2953 36.4384 84.188 36.9517 84.188C37.5957 84.188 38.1651 84.3327 38.6597 84.622C39.1544 84.9113 39.5231 85.336 39.7657 85.896C39.9804 85.3547 40.3351 84.9347 40.8297 84.636C41.3244 84.3373 41.8751 84.188 42.4817 84.188ZM48.9536 85.742C49.2056 85.3033 49.5789 84.9393 50.0736 84.65C50.5776 84.3513 51.1609 84.202 51.8236 84.202C52.5049 84.202 53.1209 84.3653 53.6716 84.692C54.2316 85.0187 54.6702 85.4807 54.9876 86.078C55.3049 86.666 55.4636 87.352 55.4636 88.136C55.4636 88.9107 55.3049 89.6013 54.9876 90.208C54.6702 90.8147 54.2316 91.286 53.6716 91.622C53.1209 91.958 52.5049 92.126 51.8236 92.126C51.1702 92.126 50.5916 91.9813 50.0876 91.692C49.5929 91.3933 49.2149 91.0247 48.9536 90.586V95.64H47.6796V84.328H48.9536V85.742ZM54.1616 88.136C54.1616 87.5573 54.0449 87.0533 53.8116 86.624C53.5782 86.1947 53.2609 85.868 52.8596 85.644C52.4676 85.42 52.0336 85.308 51.5576 85.308C51.0909 85.308 50.6569 85.4247 50.2556 85.658C49.8636 85.882 49.5462 86.2133 49.3036 86.652C49.0702 87.0813 48.9536 87.5807 48.9536 88.15C48.9536 88.7287 49.0702 89.2373 49.3036 89.676C49.5462 90.1053 49.8636 90.4367 50.2556 90.67C50.6569 90.894 51.0909 91.006 51.5576 91.006C52.0336 91.006 52.4676 90.894 52.8596 90.67C53.2609 90.4367 53.5782 90.1053 53.8116 89.676C54.0449 89.2373 54.1616 88.724 54.1616 88.136ZM58.4145 81.64V92H57.1405V81.64H58.4145ZM63.9318 92.126C63.2131 92.126 62.5598 91.9627 61.9718 91.636C61.3931 91.3093 60.9358 90.8473 60.5998 90.25C60.2731 89.6433 60.1098 88.9433 60.1098 88.15C60.1098 87.366 60.2778 86.6753 60.6138 86.078C60.9591 85.4713 61.4258 85.0093 62.0138 84.692C62.6018 84.3653 63.2598 84.202 63.9878 84.202C64.7158 84.202 65.3738 84.3653 65.9618 84.692C66.5498 85.0093 67.0118 85.4667 67.3478 86.064C67.6931 86.6613 67.8658 87.3567 67.8658 88.15C67.8658 88.9433 67.6885 89.6433 67.3338 90.25C66.9885 90.8473 66.5171 91.3093 65.9198 91.636C65.3225 91.9627 64.6598 92.126 63.9318 92.126ZM63.9318 91.006C64.3891 91.006 64.8185 90.8987 65.2198 90.684C65.6211 90.4693 65.9431 90.1473 66.1858 89.718C66.4378 89.2887 66.5638 88.766 66.5638 88.15C66.5638 87.534 66.4425 87.0113 66.1998 86.582C65.9571 86.1527 65.6398 85.8353 65.2478 85.63C64.8558 85.4153 64.4311 85.308 63.9738 85.308C63.5071 85.308 63.0778 85.4153 62.6858 85.63C62.3031 85.8353 61.9951 86.1527 61.7618 86.582C61.5285 87.0113 61.4118 87.534 61.4118 88.15C61.4118 88.7753 61.5238 89.3027 61.7478 89.732C61.9811 90.1613 62.2891 90.4833 62.6718 90.698C63.0545 90.9033 63.4745 91.006 63.9318 91.006ZM76.1489 84.328L71.5289 95.612H70.2129L71.7249 91.916L68.6309 84.328H70.0449L72.4529 90.544L74.8329 84.328H76.1489ZM84.4296 87.87C84.4296 88.1127 84.4156 88.3693 84.3876 88.64H78.2556C78.3022 89.396 78.5589 89.9887 79.0256 90.418C79.5016 90.838 80.0756 91.048 80.7476 91.048C81.2982 91.048 81.7556 90.922 82.1196 90.67C82.4929 90.4087 82.7542 90.0633 82.9036 89.634H84.2756C84.0702 90.3713 83.6596 90.9733 83.0436 91.44C82.4276 91.8973 81.6622 92.126 80.7476 92.126C80.0196 92.126 79.3662 91.9627 78.7876 91.636C78.2182 91.3093 77.7702 90.8473 77.4436 90.25C77.1169 89.6433 76.9536 88.9433 76.9536 88.15C76.9536 87.3567 77.1122 86.6613 77.4296 86.064C77.7469 85.4667 78.1902 85.0093 78.7596 84.692C79.3382 84.3653 80.0009 84.202 80.7476 84.202C81.4756 84.202 82.1196 84.3607 82.6796 84.678C83.2396 84.9953 83.6689 85.434 83.9676 85.994C84.2756 86.5447 84.4296 87.17 84.4296 87.87ZM83.1136 87.604C83.1136 87.1187 83.0062 86.7033 82.7916 86.358C82.5769 86.0033 82.2829 85.7373 81.9096 85.56C81.5456 85.3733 81.1396 85.28 80.6916 85.28C80.0476 85.28 79.4969 85.4853 79.0396 85.896C78.5916 86.3067 78.3349 86.876 78.2696 87.604H83.1136ZM93.1112 87.87C93.1112 88.1127 93.0972 88.3693 93.0692 88.64H86.9372C86.9839 89.396 87.2405 89.9887 87.7072 90.418C88.1832 90.838 88.7572 91.048 89.4292 91.048C89.9799 91.048 90.4372 90.922 90.8012 90.67C91.1745 90.4087 91.4359 90.0633 91.5852 89.634H92.9572C92.7519 90.3713 92.3412 90.9733 91.7252 91.44C91.1092 91.8973 90.3439 92.126 89.4292 92.126C88.7012 92.126 88.0479 91.9627 87.4692 91.636C86.8999 91.3093 86.4519 90.8473 86.1252 90.25C85.7985 89.6433 85.6352 88.9433 85.6352 88.15C85.6352 87.3567 85.7939 86.6613 86.1112 86.064C86.4285 85.4667 86.8719 85.0093 87.4412 84.692C88.0199 84.3653 88.6825 84.202 89.4292 84.202C90.1572 84.202 90.8012 84.3607 91.3612 84.678C91.9212 84.9953 92.3505 85.434 92.6492 85.994C92.9572 86.5447 93.1112 87.17 93.1112 87.87ZM91.7952 87.604C91.7952 87.1187 91.6879 86.7033 91.4732 86.358C91.2585 86.0033 90.9645 85.7373 90.5912 85.56C90.2272 85.3733 89.8212 85.28 89.3732 85.28C88.7292 85.28 88.1785 85.4853 87.7212 85.896C87.2732 86.3067 87.0165 86.876 86.9512 87.604H91.7952ZM97.5088 92.126C96.9208 92.126 96.3935 92.028 95.9268 91.832C95.4602 91.6267 95.0915 91.3467 94.8208 90.992C94.5502 90.628 94.4008 90.2127 94.3728 89.746H95.6888C95.7262 90.1287 95.9035 90.4413 96.2208 90.684C96.5475 90.9267 96.9722 91.048 97.4948 91.048C97.9802 91.048 98.3628 90.9407 98.6428 90.726C98.9228 90.5113 99.0628 90.2407 99.0628 89.914C99.0628 89.578 98.9135 89.3307 98.6148 89.172C98.3162 89.004 97.8542 88.8407 97.2288 88.682C96.6595 88.5327 96.1928 88.3833 95.8288 88.234C95.4742 88.0753 95.1662 87.8467 94.9048 87.548C94.6528 87.24 94.5268 86.8387 94.5268 86.344C94.5268 85.952 94.6435 85.5927 94.8768 85.266C95.1102 84.9393 95.4415 84.6827 95.8708 84.496C96.3002 84.3 96.7902 84.202 97.3408 84.202C98.1902 84.202 98.8762 84.4167 99.3988 84.846C99.9215 85.2753 100.202 85.8633 100.239 86.61H98.9648C98.9368 86.2087 98.7735 85.8867 98.4748 85.644C98.1855 85.4013 97.7935 85.28 97.2988 85.28C96.8415 85.28 96.4775 85.378 96.2068 85.574C95.9362 85.77 95.8008 86.0267 95.8008 86.344C95.8008 86.596 95.8802 86.806 96.0388 86.974C96.2068 87.1327 96.4122 87.2633 96.6548 87.366C96.9068 87.4593 97.2522 87.5667 97.6908 87.688C98.2415 87.8373 98.6895 87.9867 99.0348 88.136C99.3802 88.276 99.6742 88.4907 99.9168 88.78C100.169 89.0693 100.3 89.4473 100.309 89.914C100.309 90.334 100.192 90.712 99.9588 91.048C99.7255 91.384 99.3942 91.65 98.9648 91.846C98.5448 92.0327 98.0595 92.126 97.5088 92.126ZM107.114 85.574C107.338 85.1353 107.655 84.7947 108.066 84.552C108.486 84.3093 108.994 84.188 109.592 84.188V85.504H109.256C107.828 85.504 107.114 86.2787 107.114 87.828V92H105.84V84.328H107.114V85.574ZM118.062 87.87C118.062 88.1127 118.048 88.3693 118.02 88.64H111.888C111.935 89.396 112.192 89.9887 112.658 90.418C113.134 90.838 113.708 91.048 114.38 91.048C114.931 91.048 115.388 90.922 115.752 90.67C116.126 90.4087 116.387 90.0633 116.536 89.634H117.908C117.703 90.3713 117.292 90.9733 116.676 91.44C116.06 91.8973 115.295 92.126 114.38 92.126C113.652 92.126 112.999 91.9627 112.42 91.636C111.851 91.3093 111.403 90.8473 111.076 90.25C110.75 89.6433 110.586 88.9433 110.586 88.15C110.586 87.3567 110.745 86.6613 111.062 86.064C111.38 85.4667 111.823 85.0093 112.392 84.692C112.971 84.3653 113.634 84.202 114.38 84.202C115.108 84.202 115.752 84.3607 116.312 84.678C116.872 84.9953 117.302 85.434 117.6 85.994C117.908 86.5447 118.062 87.17 118.062 87.87ZM116.746 87.604C116.746 87.1187 116.639 86.7033 116.424 86.358C116.21 86.0033 115.916 85.7373 115.542 85.56C115.178 85.3733 114.772 85.28 114.324 85.28C113.68 85.28 113.13 85.4853 112.672 85.896C112.224 86.3067 111.968 86.876 111.902 87.604H116.746ZM128.97 84.188C129.567 84.188 130.099 84.314 130.566 84.566C131.033 84.8087 131.401 85.1773 131.672 85.672C131.943 86.1667 132.078 86.7687 132.078 87.478V92H130.818V87.66C130.818 86.8947 130.627 86.3113 130.244 85.91C129.871 85.4993 129.362 85.294 128.718 85.294C128.055 85.294 127.528 85.5087 127.136 85.938C126.744 86.358 126.548 86.9693 126.548 87.772V92H125.288V87.66C125.288 86.8947 125.097 86.3113 124.714 85.91C124.341 85.4993 123.832 85.294 123.188 85.294C122.525 85.294 121.998 85.5087 121.606 85.938C121.214 86.358 121.018 86.9693 121.018 87.772V92H119.744V84.328H121.018V85.434C121.27 85.0327 121.606 84.7247 122.026 84.51C122.455 84.2953 122.927 84.188 123.44 84.188C124.084 84.188 124.653 84.3327 125.148 84.622C125.643 84.9113 126.011 85.336 126.254 85.896C126.469 85.3547 126.823 84.9347 127.318 84.636C127.813 84.3373 128.363 84.188 128.97 84.188ZM133.692 88.136C133.692 87.352 133.851 86.666 134.168 86.078C134.485 85.4807 134.919 85.0187 135.47 84.692C136.03 84.3653 136.651 84.202 137.332 84.202C138.004 84.202 138.587 84.3467 139.082 84.636C139.577 84.9253 139.945 85.2893 140.188 85.728V84.328H141.476V92H140.188V90.572C139.936 91.02 139.558 91.3933 139.054 91.692C138.559 91.9813 137.981 92.126 137.318 92.126C136.637 92.126 136.021 91.958 135.47 91.622C134.919 91.286 134.485 90.8147 134.168 90.208C133.851 89.6013 133.692 88.9107 133.692 88.136ZM140.188 88.15C140.188 87.5713 140.071 87.0673 139.838 86.638C139.605 86.2087 139.287 85.882 138.886 85.658C138.494 85.4247 138.06 85.308 137.584 85.308C137.108 85.308 136.674 85.42 136.282 85.644C135.89 85.868 135.577 86.1947 135.344 86.624C135.111 87.0533 134.994 87.5573 134.994 88.136C134.994 88.724 135.111 89.2373 135.344 89.676C135.577 90.1053 135.89 90.4367 136.282 90.67C136.674 90.894 137.108 91.006 137.584 91.006C138.06 91.006 138.494 90.894 138.886 90.67C139.287 90.4367 139.605 90.1053 139.838 89.676C140.071 89.2373 140.188 88.7287 140.188 88.15ZM144.287 83.082C144.044 83.082 143.839 82.998 143.671 82.83C143.503 82.662 143.419 82.4567 143.419 82.214C143.419 81.9713 143.503 81.766 143.671 81.598C143.839 81.43 144.044 81.346 144.287 81.346C144.52 81.346 144.716 81.43 144.875 81.598C145.043 81.766 145.127 81.9713 145.127 82.214C145.127 82.4567 145.043 82.662 144.875 82.83C144.716 82.998 144.52 83.082 144.287 83.082ZM144.903 84.328V92H143.629V84.328H144.903ZM150.812 84.188C151.745 84.188 152.501 84.4727 153.08 85.042C153.659 85.602 153.948 86.414 153.948 87.478V92H152.688V87.66C152.688 86.8947 152.497 86.3113 152.114 85.91C151.731 85.4993 151.209 85.294 150.546 85.294C149.874 85.294 149.337 85.504 148.936 85.924C148.544 86.344 148.348 86.9553 148.348 87.758V92H147.074V84.328H148.348V85.42C148.6 85.028 148.941 84.7247 149.37 84.51C149.809 84.2953 150.289 84.188 150.812 84.188ZM156.687 83.082C156.445 83.082 156.239 82.998 156.071 82.83C155.903 82.662 155.819 82.4567 155.819 82.214C155.819 81.9713 155.903 81.766 156.071 81.598C156.239 81.43 156.445 81.346 156.687 81.346C156.921 81.346 157.117 81.43 157.275 81.598C157.443 81.766 157.527 81.9713 157.527 82.214C157.527 82.4567 157.443 82.662 157.275 82.83C157.117 82.998 156.921 83.082 156.687 83.082ZM157.303 84.328V92H156.029V84.328H157.303ZM163.212 84.188C164.146 84.188 164.902 84.4727 165.48 85.042C166.059 85.602 166.348 86.414 166.348 87.478V92H165.088V87.66C165.088 86.8947 164.897 86.3113 164.514 85.91C164.132 85.4993 163.609 85.294 162.946 85.294C162.274 85.294 161.738 85.504 161.336 85.924C160.944 86.344 160.748 86.9553 160.748 87.758V92H159.474V84.328H160.748V85.42C161 85.028 161.341 84.7247 161.77 84.51C162.209 84.2953 162.69 84.188 163.212 84.188ZM171.594 84.202C172.256 84.202 172.835 84.3467 173.33 84.636C173.834 84.9253 174.207 85.2893 174.45 85.728V84.328H175.738V92.168C175.738 92.868 175.588 93.4887 175.29 94.03C174.991 94.5807 174.562 95.01 174.002 95.318C173.451 95.626 172.807 95.78 172.07 95.78C171.062 95.78 170.222 95.542 169.55 95.066C168.878 94.59 168.481 93.9413 168.36 93.12H169.62C169.76 93.5867 170.049 93.96 170.488 94.24C170.926 94.5293 171.454 94.674 172.07 94.674C172.77 94.674 173.339 94.4547 173.778 94.016C174.226 93.5773 174.45 92.9613 174.45 92.168V90.558C174.198 91.006 173.824 91.3793 173.33 91.678C172.835 91.9767 172.256 92.126 171.594 92.126C170.912 92.126 170.292 91.958 169.732 91.622C169.181 91.286 168.747 90.8147 168.43 90.208C168.112 89.6013 167.954 88.9107 167.954 88.136C167.954 87.352 168.112 86.666 168.43 86.078C168.747 85.4807 169.181 85.0187 169.732 84.692C170.292 84.3653 170.912 84.202 171.594 84.202ZM174.45 88.15C174.45 87.5713 174.333 87.0673 174.1 86.638C173.866 86.2087 173.549 85.882 173.148 85.658C172.756 85.4247 172.322 85.308 171.846 85.308C171.37 85.308 170.936 85.42 170.544 85.644C170.152 85.868 169.839 86.1947 169.606 86.624C169.372 87.0533 169.256 87.5573 169.256 88.136C169.256 88.724 169.372 89.2373 169.606 89.676C169.839 90.1053 170.152 90.4367 170.544 90.67C170.936 90.894 171.37 91.006 171.846 91.006C172.322 91.006 172.756 90.894 173.148 90.67C173.549 90.4367 173.866 90.1053 174.1 89.676C174.333 89.2373 174.45 88.7287 174.45 88.15Z" fill="#828690"/>
<path d="M264.532 83.04V81.878H267.164V92H265.876V83.04H264.532ZM269.324 84.426C269.39 83.5673 269.721 82.8953 270.318 82.41C270.916 81.9247 271.69 81.682 272.642 81.682C273.277 81.682 273.823 81.7987 274.28 82.032C274.747 82.256 275.097 82.564 275.33 82.956C275.573 83.348 275.694 83.7913 275.694 84.286C275.694 84.8647 275.526 85.364 275.19 85.784C274.864 86.204 274.434 86.4747 273.902 86.596V86.666C274.509 86.8153 274.99 87.1093 275.344 87.548C275.699 87.9867 275.876 88.5607 275.876 89.27C275.876 89.802 275.755 90.2827 275.512 90.712C275.27 91.132 274.906 91.4633 274.42 91.706C273.935 91.9487 273.352 92.07 272.67 92.07C271.681 92.07 270.869 91.8133 270.234 91.3C269.6 90.7773 269.245 90.04 269.17 89.088H270.402C270.468 89.648 270.696 90.1053 271.088 90.46C271.48 90.8147 272.003 90.992 272.656 90.992C273.31 90.992 273.804 90.824 274.14 90.488C274.486 90.1427 274.658 89.6993 274.658 89.158C274.658 88.458 274.425 87.954 273.958 87.646C273.492 87.338 272.787 87.184 271.844 87.184H271.522V86.12H271.858C272.717 86.1107 273.366 85.9707 273.804 85.7C274.243 85.42 274.462 84.9907 274.462 84.412C274.462 83.9173 274.299 83.5207 273.972 83.222C273.655 82.9233 273.198 82.774 272.6 82.774C272.022 82.774 271.555 82.9233 271.2 83.222C270.846 83.5207 270.636 83.922 270.57 84.426H269.324ZM282.567 78.812L278.731 94.38H277.471L281.293 78.812H282.567ZM284.101 90.978C285.286 90.026 286.215 89.2467 286.887 88.64C287.559 88.024 288.123 87.3847 288.581 86.722C289.047 86.05 289.281 85.392 289.281 84.748C289.281 84.1413 289.131 83.6653 288.833 83.32C288.543 82.9653 288.072 82.788 287.419 82.788C286.784 82.788 286.289 82.9887 285.935 83.39C285.589 83.782 285.403 84.3093 285.375 84.972H284.143C284.18 83.9267 284.497 83.1193 285.095 82.55C285.692 81.9807 286.462 81.696 287.405 81.696C288.366 81.696 289.127 81.962 289.687 82.494C290.256 83.026 290.541 83.7587 290.541 84.692C290.541 85.4667 290.307 86.2227 289.841 86.96C289.383 87.688 288.861 88.332 288.273 88.892C287.685 89.4427 286.933 90.0867 286.019 90.824H290.835V91.888H284.101V90.978ZM294.155 86.736C293.633 86.5307 293.231 86.232 292.951 85.84C292.671 85.448 292.531 84.972 292.531 84.412C292.531 83.908 292.657 83.4553 292.909 83.054C293.161 82.6433 293.535 82.3213 294.029 82.088C294.533 81.8453 295.14 81.724 295.849 81.724C296.559 81.724 297.161 81.8453 297.655 82.088C298.159 82.3213 298.537 82.6433 298.789 83.054C299.051 83.4553 299.181 83.908 299.181 84.412C299.181 84.9533 299.037 85.4293 298.747 85.84C298.458 86.2413 298.061 86.54 297.557 86.736C298.136 86.9133 298.593 87.226 298.929 87.674C299.275 88.1127 299.447 88.6447 299.447 89.27C299.447 89.8767 299.298 90.4087 298.999 90.866C298.701 91.314 298.276 91.664 297.725 91.916C297.184 92.1587 296.559 92.28 295.849 92.28C295.14 92.28 294.515 92.1587 293.973 91.916C293.441 91.664 293.026 91.314 292.727 90.866C292.429 90.4087 292.279 89.8767 292.279 89.27C292.279 88.6447 292.447 88.108 292.783 87.66C293.119 87.212 293.577 86.904 294.155 86.736ZM297.949 84.566C297.949 83.9967 297.763 83.558 297.389 83.25C297.016 82.942 296.503 82.788 295.849 82.788C295.205 82.788 294.697 82.942 294.323 83.25C293.95 83.558 293.763 84.0013 293.763 84.58C293.763 85.1027 293.955 85.5227 294.337 85.84C294.729 86.1573 295.233 86.316 295.849 86.316C296.475 86.316 296.979 86.1573 297.361 85.84C297.753 85.5133 297.949 85.0887 297.949 84.566ZM295.849 87.296C295.159 87.296 294.594 87.4593 294.155 87.786C293.717 88.1033 293.497 88.584 293.497 89.228C293.497 89.8253 293.707 90.306 294.127 90.67C294.557 91.034 295.131 91.216 295.849 91.216C296.568 91.216 297.137 91.034 297.557 90.67C297.977 90.306 298.187 89.8253 298.187 89.228C298.187 88.6027 297.973 88.1267 297.543 87.8C297.114 87.464 296.549 87.296 295.849 87.296Z" fill="#828690"/>
<g clip-path="url(#clip1_609_423)">
<rect x="25" y="113.188" width="284.609" height="5" rx="2.5" fill="#E6EAEE"/>
<rect x="25" y="113.188" width="120.719" height="5" rx="2.5" fill="#0D99FF"/>
</g>
<defs>
<clipPath id="clip0_609_423">
<rect x="25" y="49.1875" width="284.609" height="5" rx="2.5" fill="white"/>
</clipPath>
<clipPath id="clip1_609_423">
<rect x="25" y="113.188" width="284.609" height="5" rx="2.5" fill="white"/>
</clipPath>
</defs>
</svg>
