<svg width="30" height="30" viewBox="0 0 30 30" fill="none" xmlns="http://www.w3.org/2000/svg">
<rect width="30" height="30" rx="15" fill="#F7931A"/>
<path fill-rule="evenodd" clip-rule="evenodd" d="M13.7088 16.2347L16.4109 15.3538C17.672 14.9427 18.6966 15.5387 19.0581 16.7494C19.3419 17.6201 19.206 18.528 18.5833 19.0631C18.3523 19.2713 17.9717 19.4285 17.6415 19.5361L15.0594 20.3779L13.7088 16.2347ZM15.2901 9.67414C15.9284 9.79822 16.3944 10.3106 16.6195 11.0011C16.9718 12.082 16.586 13.0381 15.5052 13.3905L13.0432 14.1931L11.8589 10.5601L14.0206 9.85542C14.501 9.69883 14.941 9.6219 15.2901 9.67414ZM18.5571 21.5295C19.0139 22.9307 19.2422 23.6312 19.2422 23.6312C19.2422 23.6312 18.7718 23.7846 17.8311 24.0913L17.1459 21.9895L15.6748 22.4691C16.1315 23.8703 16.3599 24.5709 16.3599 24.5709C16.3599 24.5709 15.8895 24.7242 14.9488 25.0309L14.2637 22.9291C12.3821 23.5425 11.4414 23.8492 11.4414 23.8492C11.4414 23.8492 11.2326 23.2087 10.815 21.9278L11.6857 21.6439C12.136 21.4971 12.3488 21.0291 12.2118 20.6088L9.44193 12.112C9.29512 11.6617 8.8272 11.4489 8.4069 11.5859C7.8264 11.7752 7.53616 11.8698 7.53616 11.8698C7.53616 11.8698 7.32735 11.2293 6.90974 9.94822L9.73203 9.02817C9.27528 7.62706 9.0469 6.92651 9.0469 6.92651C9.0469 6.92651 9.51727 6.77317 10.458 6.4665L11.1431 8.56816L12.6143 8.08858C12.1575 6.68747 11.9291 5.98691 11.9291 5.98691C11.9291 5.98691 12.3995 5.83357 13.3403 5.52688L14.0352 7.65852C14.7656 7.45368 15.3654 7.35782 16.0142 7.41204C17.4317 7.48131 18.6842 8.36835 19.1932 9.92964C19.6238 11.2507 19.3756 12.5273 18.4507 13.4599C20.1783 13.4614 21.3093 14.5873 21.7889 16.0585C22.3755 17.9597 21.5647 19.7519 20.2201 20.7217C19.6784 21.0975 19.1576 21.3337 18.5571 21.5295Z" fill="white"/>
</svg>
