<svg width="51" height="50" viewBox="0 0 51 50" fill="none" xmlns="http://www.w3.org/2000/svg">
<g clip-path="url(#clip0_440_5488)">
<circle cx="25.4991" cy="25" r="25" fill="#F7931A"/>
<path fill-rule="evenodd" clip-rule="evenodd" d="M24.1731 26.7072L28.7131 25.4907C30.8318 24.923 32.4713 25.9976 32.9616 28.0288C33.3535 29.4917 33.049 30.979 31.9736 31.8078C31.5737 32.1312 30.9314 32.3573 30.3766 32.5059L26.0384 33.6684L24.1731 26.7072ZM27.3629 16.0126C28.4059 16.2737 29.1303 17.1609 29.4412 18.3211C29.9278 20.1371 29.2063 21.6821 27.3904 22.1686L23.2539 23.277L21.6184 17.1732L25.2505 16.2C26.0575 15.9838 26.7909 15.8955 27.3629 16.0126ZM31.7128 35.8785C32.3436 38.2326 32.659 39.4097 32.659 39.4097C32.659 39.4097 31.8687 39.6215 30.288 40.045L29.3418 36.5138L26.8701 37.1761C27.5009 39.5302 27.8163 40.7073 27.8163 40.7073C27.8163 40.7073 27.026 40.919 25.4455 41.3426L24.4993 37.8113C21.3381 38.6584 19.7575 39.0819 19.7575 39.0819C19.7575 39.0819 19.4691 38.0058 18.8925 35.8537L20.3554 35.4617C21.112 35.259 21.5047 34.5048 21.3154 33.7987L17.4903 19.523C17.2875 18.7663 16.5336 18.3737 15.8274 18.5629C14.8521 18.8242 14.3644 18.9549 14.3644 18.9549C14.3644 18.9549 14.0761 17.8787 13.4994 15.7264L18.2412 14.4558C17.6104 12.1018 17.295 10.9247 17.295 10.9247C17.295 10.9247 18.0853 10.713 19.6659 10.2895L20.612 13.8206L23.0838 13.1583C22.453 10.8042 22.1376 9.62719 22.1376 9.62719C22.1376 9.62719 22.9279 9.41542 24.5086 8.99189L25.4682 12.5733C26.6924 12.2995 27.6913 12.194 28.758 12.3408C31.0928 12.5801 33.0829 14.1554 33.7858 16.7786C34.3805 18.9982 33.8581 21.0845 32.2485 22.5429C35.1014 22.6977 36.8698 24.6567 37.5321 27.1286C38.3333 30.3199 36.8363 33.2081 34.5304 34.6911C33.6027 35.264 32.7217 35.6082 31.7128 35.8785Z" fill="#EFF2F4" fill-opacity="0.1"/>
</g>
<defs>
<clipPath id="clip0_440_5488">
<rect width="50" height="50" fill="white" transform="translate(0.5)"/>
</clipPath>
</defs>
</svg>
