<svg width="41" height="40" viewBox="0 0 41 40" fill="none" xmlns="http://www.w3.org/2000/svg">
<rect x="0.4375" width="40" height="40" rx="10" fill="#0D99FF" fill-opacity="0.1"/>
<g clip-path="url(#clip0_42_6591)">
<path d="M25.9016 23.8637C25.9133 22.2815 25.2878 21.0301 24.0402 20.1463C23.0766 19.4659 21.9072 19.111 20.7762 18.7699C18.4201 18.0557 17.7366 17.6795 17.7366 16.5528C17.7366 15.2977 19.3677 14.8512 20.7639 14.8512C21.7808 14.8512 22.9507 15.1673 23.6772 15.6359L25.1176 13.4051C24.1681 12.7895 22.8685 12.3697 21.5852 12.2394V10.1562H18.9281V12.3854C16.5662 12.905 15.0783 14.4487 15.0783 16.5528C15.0783 18.0263 15.6906 19.1949 16.8948 20.0191C17.8107 20.6483 18.9277 20.9862 20.0066 21.3134C22.3176 22.0119 23.2561 22.4375 23.2454 23.8472L23.2454 23.8576C23.2454 25.0407 21.6774 25.4614 20.3341 25.4614C19.0652 25.4614 17.6854 24.9053 16.9032 24.0785L14.9729 25.9044C15.9634 26.952 17.4026 27.6926 18.9281 27.983V30.1563H21.5852V28.0298C24.2098 27.6541 25.899 26.0739 25.9016 23.8637Z" fill="#0D99FF"/>
</g>
<defs>
<clipPath id="clip0_42_6591">
<rect width="12" height="20" fill="white" transform="translate(14.4375 10.1562)"/>
</clipPath>
</defs>
</svg>
