<svg width="77" height="26" viewBox="0 0 77 26" fill="none" xmlns="http://www.w3.org/2000/svg">
<rect width="77" height="26" rx="3" fill="#4D7E49" fill-opacity="0.4"/>
<path d="M23.811 12.359C24.2963 12.4457 24.708 12.7013 25.046 13.126C25.384 13.5507 25.553 14.0317 25.553 14.569C25.553 15.0283 25.4317 15.4443 25.189 15.817C24.955 16.181 24.6127 16.4713 24.162 16.688C23.7113 16.896 23.187 17 22.589 17H18.975V7.965H22.42C23.0353 7.965 23.564 8.069 24.006 8.277C24.448 8.485 24.7817 8.76667 25.007 9.122C25.2323 9.46867 25.345 9.85867 25.345 10.292C25.345 10.812 25.2063 11.2453 24.929 11.592C24.6517 11.9387 24.279 12.1943 23.811 12.359ZM20.457 11.761H22.29C22.7753 11.761 23.1523 11.6527 23.421 11.436C23.6983 11.2107 23.837 10.89 23.837 10.474C23.837 10.0667 23.6983 9.75033 23.421 9.525C23.1523 9.291 22.7753 9.174 22.29 9.174H20.457V11.761ZM22.459 15.791C22.9617 15.791 23.356 15.6697 23.642 15.427C23.928 15.1843 24.071 14.8463 24.071 14.413C24.071 13.971 23.9193 13.62 23.616 13.36C23.3127 13.1 22.9097 12.97 22.407 12.97H20.457V15.791H22.459ZM30.2705 17.117C29.5945 17.117 28.9835 16.9653 28.4375 16.662C27.8915 16.35 27.4625 15.9167 27.1505 15.362C26.8385 14.7987 26.6825 14.1487 26.6825 13.412C26.6825 12.684 26.8428 12.0383 27.1635 11.475C27.4841 10.9117 27.9218 10.4783 28.4765 10.175C29.0311 9.87167 29.6508 9.72 30.3355 9.72C31.0201 9.72 31.6398 9.87167 32.1945 10.175C32.7491 10.4783 33.1868 10.9117 33.5075 11.475C33.8281 12.0383 33.9885 12.684 33.9885 13.412C33.9885 14.14 33.8238 14.7857 33.4945 15.349C33.1651 15.9123 32.7145 16.35 32.1425 16.662C31.5791 16.9653 30.9551 17.117 30.2705 17.117ZM30.2705 15.83C30.6518 15.83 31.0071 15.739 31.3365 15.557C31.6745 15.375 31.9475 15.102 32.1555 14.738C32.3635 14.374 32.4675 13.932 32.4675 13.412C32.4675 12.892 32.3678 12.4543 32.1685 12.099C31.9691 11.735 31.7048 11.462 31.3755 11.28C31.0461 11.098 30.6908 11.007 30.3095 11.007C29.9281 11.007 29.5728 11.098 29.2435 11.28C28.9228 11.462 28.6671 11.735 28.4765 12.099C28.2858 12.4543 28.1905 12.892 28.1905 13.412C28.1905 14.1833 28.3855 14.7813 28.7755 15.206C29.1741 15.622 29.6725 15.83 30.2705 15.83ZM39.0675 9.72C39.6308 9.72 40.1335 9.837 40.5755 10.071C41.0262 10.305 41.3772 10.6517 41.6285 11.111C41.8798 11.5703 42.0055 12.125 42.0055 12.775V17H40.5365V12.996C40.5365 12.3547 40.3762 11.865 40.0555 11.527C39.7348 11.1803 39.2972 11.007 38.7425 11.007C38.1878 11.007 37.7458 11.1803 37.4165 11.527C37.0958 11.865 36.9355 12.3547 36.9355 12.996V17H35.4535V9.837H36.9355V10.656C37.1782 10.3613 37.4858 10.1317 37.8585 9.967C38.2398 9.80233 38.6428 9.72 39.0675 9.72ZM50.3829 9.837V17H48.9009V16.155C48.6669 16.4497 48.3592 16.6837 47.9779 16.857C47.6052 17.0217 47.2066 17.104 46.7819 17.104C46.2186 17.104 45.7116 16.987 45.2609 16.753C44.8189 16.519 44.4679 16.1723 44.2079 15.713C43.9566 15.2537 43.8309 14.699 43.8309 14.049V9.837H45.2999V13.828C45.2999 14.4693 45.4602 14.9633 45.7809 15.31C46.1016 15.648 46.5392 15.817 47.0939 15.817C47.6486 15.817 48.0862 15.648 48.4069 15.31C48.7362 14.9633 48.9009 14.4693 48.9009 13.828V9.837H50.3829ZM54.9383 17.117C54.3749 17.117 53.8679 17.0173 53.4173 16.818C52.9753 16.61 52.6243 16.3327 52.3643 15.986C52.1043 15.6307 51.9656 15.2363 51.9483 14.803H53.4823C53.5083 15.1063 53.6513 15.362 53.9113 15.57C54.1799 15.7693 54.5136 15.869 54.9123 15.869C55.3283 15.869 55.6489 15.791 55.8743 15.635C56.1083 15.4703 56.2253 15.2623 56.2253 15.011C56.2253 14.7423 56.0953 14.543 55.8353 14.413C55.5839 14.283 55.1809 14.14 54.6263 13.984C54.0889 13.8367 53.6513 13.6937 53.3133 13.555C52.9753 13.4163 52.6806 13.204 52.4293 12.918C52.1866 12.632 52.0653 12.255 52.0653 11.787C52.0653 11.4057 52.1779 11.059 52.4033 10.747C52.6286 10.4263 52.9493 10.175 53.3653 9.993C53.7899 9.811 54.2753 9.72 54.8213 9.72C55.6359 9.72 56.2903 9.928 56.7843 10.344C57.2869 10.7513 57.5556 11.3103 57.5903 12.021H56.1083C56.0823 11.7003 55.9523 11.4447 55.7183 11.254C55.4843 11.0633 55.1679 10.968 54.7693 10.968C54.3793 10.968 54.0803 11.0417 53.8723 11.189C53.6643 11.3363 53.5603 11.5313 53.5603 11.774C53.5603 11.9647 53.6296 12.125 53.7683 12.255C53.9069 12.385 54.0759 12.489 54.2753 12.567C54.4746 12.6363 54.7693 12.7273 55.1593 12.84C55.6793 12.9787 56.1039 13.1217 56.4333 13.269C56.7713 13.4077 57.0616 13.6157 57.3043 13.893C57.5469 14.1703 57.6726 14.5387 57.6813 14.998C57.6813 15.4053 57.5686 15.7693 57.3433 16.09C57.1179 16.4107 56.7973 16.662 56.3813 16.844C55.9739 17.026 55.4929 17.117 54.9383 17.117Z" fill="#79FFAF"/>
</svg>
