<svg width="40" height="40" viewBox="0 0 40 40" fill="none" xmlns="http://www.w3.org/2000/svg">
<rect width="40" height="40" rx="10" fill="#0D99FF" fill-opacity="0.1"/>
<g clip-path="url(#clip0_330_476)">
<path d="M26.3787 12.0312H25.625V11.4062C25.625 11.2405 25.5592 11.0815 25.4419 10.9643C25.3247 10.8471 25.1658 10.7812 25 10.7812C24.8342 10.7812 24.6753 10.8471 24.5581 10.9643C24.4408 11.0815 24.375 11.2405 24.375 11.4062V12.0312H20.625V11.4062C20.625 11.2405 20.5592 11.0815 20.4419 10.9643C20.3247 10.8471 20.1658 10.7812 20 10.7812C19.8342 10.7812 19.6753 10.8471 19.5581 10.9643C19.4408 11.0815 19.375 11.2405 19.375 11.4062V12.0312H15.625V11.4062C15.625 11.2405 15.5591 11.0815 15.4419 10.9643C15.3247 10.8471 15.1658 10.7812 15 10.7812C14.8342 10.7812 14.6753 10.8471 14.5581 10.9643C14.4409 11.0815 14.375 11.2405 14.375 11.4062V12.0312H13.6212C12.9927 12.0322 12.3901 12.2824 11.9456 12.7269C11.5011 13.1714 11.251 13.7739 11.25 14.4025V27.16C11.251 27.7885 11.5011 28.3911 11.9456 28.8356C12.3901 29.2801 12.9927 29.5303 13.6212 29.5312H26.3787C27.0073 29.5303 27.6099 29.2801 28.0544 28.8356C28.4989 28.3911 28.749 27.7885 28.75 27.16V14.4025C28.749 13.7739 28.4989 13.1714 28.0544 12.7269C27.6099 12.2824 27.0073 12.0322 26.3787 12.0312ZM27.5 27.16C27.499 27.4571 27.3806 27.7416 27.1705 27.9517C26.9604 28.1618 26.6758 28.2803 26.3787 28.2812H13.6212C13.3242 28.2803 13.0396 28.1618 12.8295 27.9517C12.6194 27.7416 12.501 27.4571 12.5 27.16V14.4025C12.501 14.1054 12.6194 13.8208 12.8295 13.6107C13.0396 13.4007 13.3242 13.2822 13.6212 13.2812H14.375V13.9062C14.375 14.072 14.4409 14.231 14.5581 14.3482C14.6753 14.4654 14.8342 14.5312 15 14.5312C15.1658 14.5312 15.3247 14.4654 15.4419 14.3482C15.5591 14.231 15.625 14.072 15.625 13.9062V13.2812H19.375V13.9062C19.375 14.072 19.4408 14.231 19.5581 14.3482C19.6753 14.4654 19.8342 14.5312 20 14.5312C20.1658 14.5312 20.3247 14.4654 20.4419 14.3482C20.5592 14.231 20.625 14.072 20.625 13.9062V13.2812H24.375V13.9062C24.375 14.072 24.4408 14.231 24.5581 14.3482C24.6753 14.4654 24.8342 14.5312 25 14.5312C25.1658 14.5312 25.3247 14.4654 25.4419 14.3482C25.5592 14.231 25.625 14.072 25.625 13.9062V13.2812H26.3787C26.6758 13.2822 26.9604 13.4007 27.1705 13.6107C27.3806 13.8208 27.499 14.1054 27.5 14.4025V27.16Z" fill="#0D99FF"/>
<path d="M17.683 17.2144L16.2499 18.6475L15.4417 17.8394C15.3841 17.7797 15.3151 17.7321 15.2389 17.6993C15.1626 17.6666 15.0806 17.6493 14.9976 17.6486C14.9146 17.6479 14.8323 17.6637 14.7555 17.6951C14.6787 17.7265 14.6089 17.773 14.5503 17.8316C14.4916 17.8903 14.4452 17.9601 14.4137 18.0369C14.3823 18.1137 14.3665 18.196 14.3672 18.279C14.3679 18.362 14.3852 18.444 14.4179 18.5203C14.4507 18.5965 14.4983 18.6655 14.558 18.7231L15.808 19.9731C15.9252 20.0903 16.0841 20.1561 16.2499 20.1561C16.4156 20.1561 16.5745 20.0903 16.6917 19.9731L18.5667 18.0981C18.6806 17.9803 18.7436 17.8224 18.7422 17.6585C18.7407 17.4946 18.675 17.3379 18.5591 17.222C18.4433 17.1061 18.2865 17.0404 18.1226 17.039C17.9588 17.0375 17.8009 17.1005 17.683 17.2144Z" fill="#0D99FF"/>
<path d="M25 18.2812H20.625C20.4592 18.2812 20.3003 18.3471 20.1831 18.4643C20.0658 18.5815 20 18.7405 20 18.9062C20 19.072 20.0658 19.231 20.1831 19.3482C20.3003 19.4654 20.4592 19.5312 20.625 19.5312H25C25.1658 19.5312 25.3247 19.4654 25.4419 19.3482C25.5592 19.231 25.625 19.072 25.625 18.9062C25.625 18.7405 25.5592 18.5815 25.4419 18.4643C25.3247 18.3471 25.1658 18.2812 25 18.2812Z" fill="#0D99FF"/>
<path d="M17.683 22.8394L16.2499 24.2725L15.4417 23.4644C15.3841 23.4047 15.3151 23.3571 15.2389 23.3244C15.1626 23.2916 15.0806 23.2744 14.9976 23.2736C14.9146 23.2729 14.8323 23.2887 14.7555 23.3202C14.6787 23.3516 14.6089 23.398 14.5503 23.4567C14.4916 23.5154 14.4452 23.5851 14.4137 23.6619C14.3823 23.7388 14.3665 23.8211 14.3672 23.904C14.3679 23.987 14.3852 24.069 14.4179 24.1453C14.4507 24.2216 14.4983 24.2905 14.558 24.3482L15.808 25.5982C15.9252 25.7153 16.0841 25.7812 16.2499 25.7812C16.4156 25.7812 16.5745 25.7153 16.6917 25.5982L18.5667 23.7232C18.6806 23.6053 18.7436 23.4474 18.7422 23.2835C18.7407 23.1197 18.675 22.9629 18.5591 22.847C18.4433 22.7312 18.2865 22.6654 18.1226 22.664C17.9588 22.6626 17.8009 22.7256 17.683 22.8394Z" fill="#0D99FF"/>
<path d="M25 23.9062H20.625C20.4592 23.9062 20.3003 23.972 20.1831 24.0893C20.0658 24.2065 20 24.3654 20 24.5312C20 24.697 20.0658 24.856 20.1831 24.9732C20.3003 25.0905 20.4592 25.1562 20.625 25.1562H25C25.1658 25.1562 25.3247 25.0905 25.4419 24.9732C25.5592 24.856 25.625 24.697 25.625 24.5312C25.625 24.3654 25.5592 24.2065 25.4419 24.0893C25.3247 23.972 25.1658 23.9062 25 23.9062Z" fill="#0D99FF"/>
</g>
<defs>
<clipPath id="clip0_330_476">
<rect width="20" height="20" fill="white" transform="translate(10 10.1562)"/>
</clipPath>
</defs>
</svg>
