<svg width="20" height="21" viewBox="0 0 20 21" fill="none" xmlns="http://www.w3.org/2000/svg">
<g clip-path="url(#clip0_42_7171)">
<path fill-rule="evenodd" clip-rule="evenodd" d="M14.8382 12.0442C15.4567 12.0442 15.9758 12.5547 15.8812 13.1655C15.3264 16.7588 12.2503 19.4268 8.54015 19.4268C4.43542 19.4268 1.1084 16.0998 1.1084 11.996C1.1084 8.61498 3.67699 5.4655 6.56884 4.7534C7.19024 4.59998 7.82708 5.03708 7.82708 5.67682C7.82708 10.0112 7.97278 11.1324 8.79585 11.7422C9.61892 12.3521 10.5868 12.0442 14.8382 12.0442Z" stroke="#888888" stroke-linecap="round" stroke-linejoin="round"/>
<path fill-rule="evenodd" clip-rule="evenodd" d="M18.8849 8.43479C18.9341 5.65005 15.5135 1.16128 11.3451 1.23847C11.0209 1.24426 10.7613 1.51444 10.7469 1.83768C10.6417 4.12742 10.7835 7.09452 10.8627 8.43961C10.8868 8.85838 11.2158 9.18742 11.6336 9.21154C13.0163 9.29066 16.0915 9.39873 18.3484 9.05715C18.6553 9.01084 18.8801 8.74452 18.8849 8.43479Z" stroke="#888888" stroke-linecap="round" stroke-linejoin="round"/>
</g>
<defs>
<clipPath id="clip0_42_7171">
<rect width="20" height="20" fill="white" transform="translate(0 0.3125)"/>
</clipPath>
</defs>
</svg>
