<svg width="41" height="40" viewBox="0 0 41 40" fill="none" xmlns="http://www.w3.org/2000/svg">
<rect x="0.0234375" width="40" height="40" rx="10" fill="#0D99FF" fill-opacity="0.1"/>
<g clip-path="url(#clip0_42_6673)">
<path d="M26.4021 12.0312H25.6484V11.4062C25.6484 11.2405 25.5826 11.0815 25.4653 10.9643C25.3481 10.8471 25.1892 10.7812 25.0234 10.7812C24.8576 10.7812 24.6987 10.8471 24.5815 10.9643C24.4642 11.0815 24.3984 11.2405 24.3984 11.4062V12.0312H20.6484V11.4062C20.6484 11.2405 20.5826 11.0815 20.4653 10.9643C20.3481 10.8471 20.1892 10.7812 20.0234 10.7812C19.8577 10.7812 19.6987 10.8471 19.5815 10.9643C19.4643 11.0815 19.3984 11.2405 19.3984 11.4062V12.0312H15.6484V11.4062C15.6484 11.2405 15.5826 11.0815 15.4654 10.9643C15.3482 10.8471 15.1892 10.7812 15.0234 10.7812C14.8577 10.7812 14.6987 10.8471 14.5815 10.9643C14.4643 11.0815 14.3984 11.2405 14.3984 11.4062V12.0312H13.6447C13.0161 12.0322 12.4135 12.2824 11.9691 12.7269C11.5246 13.1714 11.2744 13.7739 11.2734 14.4025V27.16C11.2744 27.7885 11.5246 28.3911 11.9691 28.8356C12.4135 29.2801 13.0161 29.5303 13.6447 29.5312H26.4021C27.0307 29.5303 27.6333 29.2801 28.0778 28.8356C28.5223 28.3911 28.7724 27.7885 28.7734 27.16V14.4025C28.7724 13.7739 28.5223 13.1714 28.0778 12.7269C27.6333 12.2824 27.0307 12.0322 26.4021 12.0312ZM27.5234 27.16C27.5224 27.4571 27.404 27.7416 27.1939 27.9517C26.9838 28.1618 26.6992 28.2803 26.4021 28.2812H13.6447C13.3476 28.2803 13.063 28.1618 12.8529 27.9517C12.6429 27.7416 12.5244 27.4571 12.5234 27.16V14.4025C12.5244 14.1054 12.6429 13.8208 12.8529 13.6107C13.063 13.4007 13.3476 13.2822 13.6447 13.2812H14.3984V13.9062C14.3984 14.072 14.4643 14.231 14.5815 14.3482C14.6987 14.4654 14.8577 14.5312 15.0234 14.5312C15.1892 14.5312 15.3482 14.4654 15.4654 14.3482C15.5826 14.231 15.6484 14.072 15.6484 13.9062V13.2812H19.3984V13.9062C19.3984 14.072 19.4643 14.231 19.5815 14.3482C19.6987 14.4654 19.8577 14.5312 20.0234 14.5312C20.1892 14.5312 20.3481 14.4654 20.4653 14.3482C20.5826 14.231 20.6484 14.072 20.6484 13.9062V13.2812H24.3984V13.9062C24.3984 14.072 24.4642 14.231 24.5815 14.3482C24.6987 14.4654 24.8576 14.5312 25.0234 14.5312C25.1892 14.5312 25.3481 14.4654 25.4653 14.3482C25.5826 14.231 25.6484 14.072 25.6484 13.9062V13.2812H26.4021C26.6992 13.2822 26.9838 13.4007 27.1939 13.6107C27.404 13.8208 27.5224 14.1054 27.5234 14.4025V27.16Z" fill="#0D99FF"/>
<path d="M17.7064 17.2144L16.2733 18.6475L15.4652 17.8394C15.4075 17.7797 15.3386 17.7321 15.2623 17.6993C15.1861 17.6666 15.104 17.6493 15.0211 17.6486C14.9381 17.6479 14.8558 17.6637 14.779 17.6951C14.7021 17.7265 14.6324 17.773 14.5737 17.8316C14.515 17.8903 14.4686 17.9601 14.4372 18.0369C14.4057 18.1137 14.3899 18.196 14.3906 18.279C14.3914 18.362 14.4086 18.444 14.4414 18.5203C14.4741 18.5965 14.5217 18.6655 14.5814 18.7231L15.8314 19.9731C15.9486 20.0903 16.1076 20.1561 16.2733 20.1561C16.439 20.1561 16.598 20.0903 16.7152 19.9731L18.5902 18.0981C18.704 17.9803 18.767 17.8224 18.7656 17.6585C18.7642 17.4946 18.6984 17.3379 18.5826 17.222C18.4667 17.1061 18.3099 17.0404 18.1461 17.039C17.9822 17.0375 17.8243 17.1005 17.7064 17.2144Z" fill="#0D99FF"/>
<path d="M25.0234 18.2812H20.6484C20.4826 18.2812 20.3237 18.3471 20.2065 18.4643C20.0892 18.5815 20.0234 18.7405 20.0234 18.9062C20.0234 19.072 20.0892 19.231 20.2065 19.3482C20.3237 19.4654 20.4826 19.5312 20.6484 19.5312H25.0234C25.1892 19.5312 25.3481 19.4654 25.4653 19.3482C25.5826 19.231 25.6484 19.072 25.6484 18.9062C25.6484 18.7405 25.5826 18.5815 25.4653 18.4643C25.3481 18.3471 25.1892 18.2812 25.0234 18.2812Z" fill="#0D99FF"/>
<path d="M17.7064 22.8394L16.2733 24.2725L15.4652 23.4644C15.4075 23.4047 15.3386 23.3571 15.2623 23.3244C15.1861 23.2916 15.104 23.2744 15.0211 23.2736C14.9381 23.2729 14.8558 23.2887 14.779 23.3202C14.7021 23.3516 14.6324 23.398 14.5737 23.4567C14.515 23.5154 14.4686 23.5851 14.4372 23.6619C14.4057 23.7388 14.3899 23.8211 14.3906 23.904C14.3914 23.987 14.4086 24.069 14.4414 24.1453C14.4741 24.2216 14.5217 24.2905 14.5814 24.3482L15.8314 25.5982C15.9486 25.7153 16.1076 25.7812 16.2733 25.7812C16.439 25.7812 16.598 25.7153 16.7152 25.5982L18.5902 23.7232C18.704 23.6053 18.767 23.4474 18.7656 23.2835C18.7642 23.1197 18.6984 22.9629 18.5826 22.847C18.4667 22.7312 18.3099 22.6654 18.1461 22.664C17.9822 22.6626 17.8243 22.7256 17.7064 22.8394Z" fill="#0D99FF"/>
<path d="M25.0234 23.9062H20.6484C20.4826 23.9062 20.3237 23.972 20.2065 24.0893C20.0892 24.2065 20.0234 24.3654 20.0234 24.5312C20.0234 24.697 20.0892 24.856 20.2065 24.9732C20.3237 25.0905 20.4826 25.1562 20.6484 25.1562H25.0234C25.1892 25.1562 25.3481 25.0905 25.4653 24.9732C25.5826 24.856 25.6484 24.697 25.6484 24.5312C25.6484 24.3654 25.5826 24.2065 25.4653 24.0893C25.3481 23.972 25.1892 23.9062 25.0234 23.9062Z" fill="#0D99FF"/>
</g>
<defs>
<clipPath id="clip0_42_6673">
<rect width="20" height="20" fill="white" transform="translate(10.0234 10.1562)"/>
</clipPath>
</defs>
</svg>
