<svg width="102" height="96" viewBox="0 0 102 96" fill="none" xmlns="http://www.w3.org/2000/svg">
<path d="M51 7.88797C59.8379 7.88797 68.4639 10.5944 75.7178 15.6432C82.9717 20.6921 88.5055 27.8412 91.5749 36.129L83.4599 39.1344C81.0044 32.5042 76.5773 26.7849 70.7742 22.7458C64.9711 18.7068 58.0704 16.5416 51 16.5416V7.88797Z" fill="#3AC977" stroke="#444444" stroke-width="2"/>
<path d="M91.575 36.129C95.4287 46.5343 95.1376 58.0226 90.7618 68.2194C86.386 78.4162 78.26 86.5422 68.0631 90.918C57.8663 95.2938 46.3781 95.5849 35.9727 91.7312C25.5674 87.8775 17.0402 80.1735 12.1536 70.2114L19.9229 66.4004C23.8322 74.37 30.6539 80.5332 38.9782 83.6162C47.3025 86.6992 56.4931 86.4663 64.6505 82.9657C72.808 79.465 79.3088 72.9642 82.8094 64.8068C86.3101 56.6493 86.543 47.4587 83.46 39.1344L91.575 36.129Z" fill="#0D99FF" stroke="#444444" stroke-width="2"/>
<path d="M12.1535 70.2114C8.91801 63.6153 7.41534 56.3041 7.78714 48.9666C8.15893 41.6292 10.3929 34.5073 14.2786 28.2721C18.1643 22.0369 23.5736 16.8938 29.9969 13.3275C36.4201 9.76125 43.6456 7.88925 50.9924 7.88797L50.9939 16.5416C45.1165 16.5427 39.3361 18.0403 34.1975 20.8933C29.0589 23.7463 24.7314 27.8608 21.6229 32.8489C18.5143 37.8371 16.7271 43.5346 16.4297 49.4046C16.1323 55.2745 17.3344 61.1235 19.9228 66.4003L12.1535 70.2114Z" fill="black" stroke="#444444" stroke-width="2"/>
<path d="M24.6449 60.3172C24.6449 59.5692 24.8135 58.8982 25.1509 58.3042C25.4882 57.7029 25.9465 57.2336 26.5259 56.8962C27.1125 56.5589 27.7615 56.3902 28.4729 56.3902C29.3089 56.3902 30.0385 56.5919 30.6619 56.9952C31.2852 57.3986 31.7399 57.9706 32.0259 58.7112H30.8269C30.6142 58.2492 30.3062 57.8936 29.9029 57.6442C29.5069 57.3949 29.0302 57.2702 28.4729 57.2702C27.9375 57.2702 27.4572 57.3949 27.0319 57.6442C26.6065 57.8936 26.2729 58.2492 26.0309 58.7112C25.7889 59.1659 25.6679 59.7012 25.6679 60.3172C25.6679 60.9259 25.7889 61.4612 26.0309 61.9232C26.2729 62.3779 26.6065 62.7299 27.0319 62.9792C27.4572 63.2286 27.9375 63.3532 28.4729 63.3532C29.0302 63.3532 29.5069 63.2322 29.9029 62.9902C30.3062 62.7409 30.6142 62.3852 30.8269 61.9232H32.0259C31.7399 62.6566 31.2852 63.2249 30.6619 63.6282C30.0385 64.0242 29.3089 64.2223 28.4729 64.2223C27.7615 64.2223 27.1125 64.0572 26.5259 63.7272C25.9465 63.3899 25.4882 62.9242 25.1509 62.3302C24.8135 61.7362 24.6449 61.0652 24.6449 60.3172ZM36.1449 64.2553C35.5803 64.2553 35.0669 64.1269 34.6049 63.8702C34.1503 63.6136 33.7909 63.2506 33.5269 62.7812C33.2703 62.3046 33.1419 61.7546 33.1419 61.1312C33.1419 60.5152 33.2739 59.9726 33.5379 59.5032C33.8093 59.0266 34.1759 58.6636 34.6379 58.4142C35.0999 58.1576 35.6169 58.0292 36.1889 58.0292C36.7609 58.0292 37.2779 58.1576 37.7399 58.4142C38.2019 58.6636 38.5649 59.0229 38.8289 59.4922C39.1003 59.9616 39.2359 60.5079 39.2359 61.1312C39.2359 61.7546 39.0966 62.3046 38.8179 62.7812C38.5466 63.2506 38.1763 63.6136 37.7069 63.8702C37.2376 64.1269 36.7169 64.2553 36.1449 64.2553ZM36.1449 63.3752C36.5043 63.3752 36.8416 63.2909 37.1569 63.1222C37.4723 62.9536 37.7253 62.7006 37.9159 62.3632C38.1139 62.0259 38.2129 61.6152 38.2129 61.1312C38.2129 60.6472 38.1176 60.2366 37.9269 59.8992C37.7363 59.5619 37.4869 59.3126 37.1789 59.1512C36.8709 58.9826 36.5373 58.8982 36.1779 58.8982C35.8113 58.8982 35.4739 58.9826 35.1659 59.1512C34.8653 59.3126 34.6233 59.5619 34.4399 59.8992C34.2566 60.2366 34.1649 60.6472 34.1649 61.1312C34.1649 61.6226 34.2529 62.0369 34.4289 62.3742C34.6123 62.7116 34.8543 62.9646 35.1549 63.1332C35.4556 63.2946 35.7856 63.3752 36.1449 63.3752ZM47.8011 58.0182C48.2704 58.0182 48.6884 58.1172 49.0551 58.3152C49.4217 58.5059 49.7114 58.7956 49.9241 59.1842C50.1367 59.5729 50.2431 60.0459 50.2431 60.6032V64.1562H49.2531V60.7462C49.2531 60.1449 49.1027 59.6866 48.8021 59.3712C48.5087 59.0486 48.1091 58.8872 47.6031 58.8872C47.0824 58.8872 46.6681 59.0559 46.3601 59.3932C46.0521 59.7232 45.8981 60.2036 45.8981 60.8342V64.1562H44.9081V60.7462C44.9081 60.1449 44.7577 59.6866 44.4571 59.3712C44.1637 59.0486 43.7641 58.8872 43.2581 58.8872C42.7374 58.8872 42.3231 59.0559 42.0151 59.3932C41.7071 59.7232 41.5531 60.2036 41.5531 60.8342V64.1562H40.5521V58.1282H41.5531V58.9972C41.7511 58.6819 42.0151 58.4399 42.3451 58.2712C42.6824 58.1026 43.0527 58.0182 43.4561 58.0182C43.9621 58.0182 44.4094 58.1319 44.7981 58.3592C45.1867 58.5866 45.4764 58.9202 45.6671 59.3602C45.8357 58.9349 46.1144 58.6049 46.5031 58.3702C46.8917 58.1356 47.3244 58.0182 47.8011 58.0182ZM52.8861 59.2392C53.0841 58.8946 53.3774 58.6086 53.7661 58.3812C54.1621 58.1466 54.6204 58.0292 55.1411 58.0292C55.6764 58.0292 56.1604 58.1576 56.5931 58.4142C57.0331 58.6709 57.3778 59.0339 57.6271 59.5032C57.8764 59.9652 58.0011 60.5042 58.0011 61.1202C58.0011 61.7289 57.8764 62.2716 57.6271 62.7482C57.3778 63.2249 57.0331 63.5952 56.5931 63.8592C56.1604 64.1233 55.6764 64.2553 55.1411 64.2553C54.6278 64.2553 54.1731 64.1416 53.7771 63.9142C53.3884 63.6796 53.0914 63.3899 52.8861 63.0452V67.0163H51.8851V58.1282H52.8861V59.2392ZM56.9781 61.1202C56.9781 60.6656 56.8864 60.2696 56.7031 59.9322C56.5198 59.5949 56.2704 59.3382 55.9551 59.1622C55.6471 58.9862 55.3061 58.8982 54.9321 58.8982C54.5654 58.8982 54.2244 58.9899 53.9091 59.1732C53.6011 59.3492 53.3518 59.6096 53.1611 59.9542C52.9778 60.2916 52.8861 60.6839 52.8861 61.1312C52.8861 61.5859 52.9778 61.9856 53.1611 62.3302C53.3518 62.6676 53.6011 62.9279 53.9091 63.1112C54.2244 63.2872 54.5654 63.3752 54.9321 63.3752C55.3061 63.3752 55.6471 63.2872 55.9551 63.1112C56.2704 62.9279 56.5198 62.6676 56.7031 62.3302C56.8864 61.9856 56.9781 61.5822 56.9781 61.1202ZM60.3197 56.0162V64.1562H59.3187V56.0162H60.3197ZM67.5257 60.9112C67.5257 61.1019 67.5147 61.3036 67.4927 61.5162H62.6747C62.7114 62.1102 62.913 62.5759 63.2797 62.9132C63.6537 63.2432 64.1047 63.4082 64.6327 63.4082C65.0654 63.4082 65.4247 63.3092 65.7107 63.1112C66.004 62.9059 66.2094 62.6346 66.3267 62.2972H67.4047C67.2434 62.8766 66.9207 63.3496 66.4367 63.7162C65.9527 64.0756 65.3514 64.2553 64.6327 64.2553C64.0607 64.2553 63.5474 64.1269 63.0927 63.8702C62.6454 63.6136 62.2934 63.2506 62.0367 62.7812C61.78 62.3046 61.6517 61.7546 61.6517 61.1312C61.6517 60.5079 61.7764 59.9616 62.0257 59.4922C62.275 59.0229 62.6234 58.6636 63.0707 58.4142C63.5254 58.1576 64.046 58.0292 64.6327 58.0292C65.2047 58.0292 65.7107 58.1539 66.1507 58.4032C66.5907 58.6526 66.928 58.9972 67.1627 59.4372C67.4047 59.8699 67.5257 60.3612 67.5257 60.9112ZM66.4917 60.7022C66.4917 60.3209 66.4074 59.9946 66.2387 59.7232C66.07 59.4446 65.839 59.2356 65.5457 59.0962C65.2597 58.9496 64.9407 58.8762 64.5887 58.8762C64.0827 58.8762 63.65 59.0376 63.2907 59.3602C62.9387 59.6829 62.737 60.1302 62.6857 60.7022H66.4917ZM70.068 58.9532V62.5062C70.068 62.7996 70.1303 63.0086 70.255 63.1332C70.3797 63.2506 70.596 63.3092 70.904 63.3092H71.641V64.1562H70.739C70.1817 64.1562 69.7637 64.0279 69.485 63.7712C69.2063 63.5146 69.067 63.0929 69.067 62.5062V58.9532H68.286V58.1282H69.067V56.6102H70.068V58.1282H71.641V58.9532H70.068ZM78.3538 60.9112C78.3538 61.1019 78.3428 61.3036 78.3208 61.5162H73.5028C73.5395 62.1102 73.7412 62.5759 74.1078 62.9132C74.4818 63.2432 74.9328 63.4082 75.4608 63.4082C75.8935 63.4082 76.2528 63.3092 76.5388 63.1112C76.8322 62.9059 77.0375 62.6346 77.1548 62.2972H78.2328C78.0715 62.8766 77.7488 63.3496 77.2648 63.7162C76.7808 64.0756 76.1795 64.2553 75.4608 64.2553C74.8888 64.2553 74.3755 64.1269 73.9208 63.8702C73.4735 63.6136 73.1215 63.2506 72.8648 62.7812C72.6082 62.3046 72.4798 61.7546 72.4798 61.1312C72.4798 60.5079 72.6045 59.9616 72.8538 59.4922C73.1032 59.0229 73.4515 58.6636 73.8988 58.4142C74.3535 58.1576 74.8742 58.0292 75.4608 58.0292C76.0328 58.0292 76.5388 58.1539 76.9788 58.4032C77.4188 58.6526 77.7562 58.9972 77.9908 59.4372C78.2328 59.8699 78.3538 60.3612 78.3538 60.9112ZM77.3198 60.7022C77.3198 60.3209 77.2355 59.9946 77.0668 59.7232C76.8982 59.4446 76.6672 59.2356 76.3738 59.0962C76.0878 58.9496 75.7688 58.8762 75.4168 58.8762C74.9108 58.8762 74.4782 59.0376 74.1188 59.3602C73.7668 59.6829 73.5652 60.1302 73.5138 60.7022H77.3198Z" fill="white"/>
<path d="M48.4204 40.0343C48.0978 38.4062 47.0931 37.5922 45.4064 37.5922C44.1011 37.5922 43.1258 38.0982 42.4804 39.1102C41.8351 40.1076 41.5198 41.7576 41.5344 44.0602C41.8718 43.2976 42.4291 42.7036 43.2064 42.2782C43.9984 41.8382 44.8784 41.6182 45.8464 41.6182C47.3571 41.6182 48.5598 42.0876 49.4544 43.0262C50.3638 43.9649 50.8184 45.2629 50.8184 46.9202C50.8184 47.9176 50.6204 48.8122 50.2244 49.6042C49.8431 50.3962 49.2564 51.0269 48.4644 51.4962C47.6871 51.9656 46.7411 52.2003 45.6264 52.2003C44.1158 52.2003 42.9351 51.8629 42.0844 51.1882C41.2338 50.5136 40.6398 49.5822 40.3024 48.3942C39.9651 47.2062 39.7964 45.7396 39.7964 43.9942C39.7964 38.6116 41.6738 35.9202 45.4284 35.9202C46.8658 35.9202 47.9951 36.3089 48.8164 37.0862C49.6378 37.8636 50.1218 38.8462 50.2684 40.0343H48.4204ZM45.4284 43.3122C44.7978 43.3122 44.2038 43.4442 43.6464 43.7082C43.0891 43.9576 42.6344 44.3462 42.2824 44.8742C41.9451 45.3876 41.7764 46.0182 41.7764 46.7662C41.7764 47.8809 42.0991 48.7902 42.7444 49.4942C43.3898 50.1836 44.3138 50.5282 45.5164 50.5282C46.5431 50.5282 47.3571 50.2129 47.9584 49.5822C48.5744 48.9369 48.8824 48.0716 48.8824 46.9862C48.8824 45.8422 48.5891 44.9476 48.0024 44.3022C47.4158 43.6422 46.5578 43.3122 45.4284 43.3122ZM53.2773 50.5502C55.1399 49.0542 56.5993 47.8296 57.6553 46.8762C58.7113 45.9082 59.5986 44.9036 60.3173 43.8622C61.0506 42.8062 61.4173 41.7722 61.4173 40.7602C61.4173 39.8069 61.1826 39.0589 60.7133 38.5162C60.2586 37.9589 59.5179 37.6802 58.4913 37.6802C57.4939 37.6802 56.7166 37.9956 56.1593 38.6262C55.6166 39.2422 55.3233 40.0709 55.2793 41.1122H53.3433C53.4019 39.4696 53.9006 38.2009 54.8393 37.3062C55.7779 36.4116 56.9879 35.9642 58.4693 35.9642C59.9799 35.9642 61.1753 36.3822 62.0553 37.2182C62.9499 38.0542 63.3973 39.2056 63.3973 40.6722C63.3973 41.8896 63.0306 43.0776 62.2973 44.2362C61.5786 45.3802 60.7573 46.3922 59.8333 47.2722C58.9093 48.1376 57.7286 49.1496 56.2913 50.3082H63.8593V51.9802H53.2773V50.5502Z" fill="white"/>
</svg>
