<svg width="22" height="23" viewBox="0 0 22 23" fill="none" xmlns="http://www.w3.org/2000/svg">
<g clip-path="url(#clip0_42_7108)">
<path fill-rule="evenodd" clip-rule="evenodd" d="M15.8382 12.9036C16.4567 12.9036 16.9758 13.4141 16.8812 14.0249C16.3264 17.6182 13.2503 20.2862 9.54015 20.2862C5.43542 20.2862 2.1084 16.9592 2.1084 12.8554C2.1084 9.47435 4.67699 6.32487 7.56884 5.61277C8.19024 5.45935 8.82708 5.89645 8.82708 6.53619C8.82708 10.8706 8.97278 11.9918 9.79585 12.6016C10.619 13.2115 11.5868 12.9036 15.8382 12.9036Z" stroke="#888888" stroke-linecap="round" stroke-linejoin="round"/>
<path fill-rule="evenodd" clip-rule="evenodd" d="M19.8849 9.29416C19.9341 6.50942 16.5135 2.02065 12.3451 2.09785C12.0209 2.10364 11.7613 2.37381 11.7469 2.69706C11.6417 4.98679 11.7835 7.95389 11.8627 9.29899C11.8868 9.71775 12.2158 10.0468 12.6336 10.0709C14.0163 10.15 17.0915 10.2581 19.3484 9.91653C19.6553 9.87021 19.8801 9.6039 19.8849 9.29416Z" stroke="#888888" stroke-linecap="round" stroke-linejoin="round"/>
</g>
<defs>
<clipPath id="clip0_42_7108">
<rect width="22" height="22" fill="white" transform="translate(0 0.171875)"/>
</clipPath>
</defs>
</svg>
