<svg width="20" height="20" viewBox="0 0 20 20" fill="none" xmlns="http://www.w3.org/2000/svg">
<path fill-rule="evenodd" clip-rule="evenodd" d="M17.5001 10C17.5001 9.54 17.1276 9.16667 16.6668 9.16667C16.206 9.16667 15.8335 9.54 15.8335 10V11.9142L12.2993 7.79083C12.036 7.4825 11.5876 7.40916 11.2376 7.61916L7.68347 9.75167L3.97431 5.3C3.67931 4.9475 3.15514 4.8975 2.79931 5.19333C2.44681 5.4875 2.39847 6.01333 2.69264 6.36666L6.85931 11.3667C7.12347 11.6825 7.57764 11.76 7.92931 11.5475L11.4918 9.41L14.8551 13.3333H12.5001C12.0393 13.3333 11.6668 13.7067 11.6668 14.1667C11.6668 14.6267 12.0393 15 12.5001 15H16.6668C16.7701 15 16.8726 14.9775 16.9701 14.9383C17.011 14.9225 17.0426 14.8958 17.0801 14.875C17.1235 14.8492 17.1701 14.8333 17.2085 14.7992C17.2168 14.7925 17.2201 14.7825 17.2276 14.775C17.2735 14.7333 17.3051 14.6825 17.3401 14.6317C17.3676 14.5917 17.4001 14.5567 17.4193 14.5133C17.4401 14.4692 17.4468 14.42 17.4585 14.3725C17.4743 14.3142 17.4918 14.2575 17.4935 14.1975C17.4943 14.1867 17.5001 14.1775 17.5001 14.1667V10Z" fill="#DC2626"/>
</svg>
