<svg width="22" height="23" viewBox="0 0 22 23" fill="none" xmlns="http://www.w3.org/2000/svg">
<g clip-path="url(#clip0_42_7114)">
<path d="M6.64111 14.456L9.38482 10.89L12.5145 13.3484L15.1995 9.88312" stroke="#888888" stroke-linecap="round" stroke-linejoin="round"/>
<path d="M18.3291 6.51847C19.3023 6.51847 20.0912 5.72959 20.0912 4.75646C20.0912 3.78332 19.3023 2.99445 18.3291 2.99445C17.356 2.99445 16.5671 3.78332 16.5671 4.75646C16.5671 5.72959 17.356 6.51847 18.3291 6.51847Z" stroke="#888888" stroke-linecap="round" stroke-linejoin="round"/>
<path d="M13.6809 3.76636H7.01879C4.2583 3.76636 2.54663 5.72136 2.54663 8.48185V15.8907C2.54663 18.6511 4.22474 20.5977 7.01879 20.5977H14.9059C17.6664 20.5977 19.378 18.6511 19.378 15.8907V9.43837" stroke="#888888" stroke-linecap="round" stroke-linejoin="round"/>
</g>
<defs>
<clipPath id="clip0_42_7114">
<rect width="22" height="22" fill="white" transform="translate(0 0.90625)"/>
</clipPath>
</defs>
</svg>
