<svg width="24" height="24" viewBox="0 0 24 24" fill="none" xmlns="http://www.w3.org/2000/svg">
<path fill-rule="evenodd" clip-rule="evenodd" d="M11.1016 8.4C11.1016 7.9032 11.5048 7.5 12.0016 7.5C12.4984 7.5 12.9016 7.9032 12.9016 8.4C12.9016 8.8968 12.4984 9.3 12.0016 9.3C11.5048 9.3 11.1016 8.8968 11.1016 8.4ZM11.1016 11.1002C11.1016 10.6034 11.5048 10.2002 12.0016 10.2002C12.4984 10.2002 12.9016 10.6034 12.9016 11.1002V15.6002C12.9016 16.097 12.4984 16.5002 12.0016 16.5002C11.5048 16.5002 11.1016 16.097 11.1016 15.6002V11.1002ZM12.0008 19.1998C8.03088 19.1998 4.80078 15.9697 4.80078 11.9998C4.80078 8.0299 8.03088 4.7998 12.0008 4.7998C15.9707 4.7998 19.2008 8.0299 19.2008 11.9998C19.2008 15.9697 15.9707 19.1998 12.0008 19.1998ZM12 3C7.0293 3 3 7.0293 3 12C3 16.9707 7.0293 21 12 21C16.9698 21 21 16.9707 21 12C21 7.0293 16.9698 3 12 3Z" fill="#30B0C7"/>
</svg>
