<svg width="369" height="562" viewBox="0 0 369 562" fill="none" xmlns="http://www.w3.org/2000/svg">
<rect x="13.5" y="7" width="32" height="32" rx="6" fill="#0D99FF" fill-opacity="0.1"/>
<path d="M26.1547 22.3125C25.9086 22.5586 25.9086 22.9688 26.1547 23.2148L31.4594 28.5469C31.7328 28.793 32.143 28.793 32.3891 28.5469L33.018 27.918C33.2641 27.6719 33.2641 27.2617 33.018 26.9883L28.807 22.75L33.018 18.5391C33.2641 18.2656 33.2641 17.8555 33.018 17.6094L32.3891 16.9805C32.143 16.7344 31.7328 16.7344 31.4594 16.9805L26.1547 22.3125Z" fill="#0D99FF"/>
<path d="M151.206 17.575V25.09C151.206 26.02 150.921 26.755 150.351 27.295C149.791 27.835 149.051 28.105 148.131 28.105C147.211 28.105 146.466 27.835 145.896 27.295C145.336 26.755 145.056 26.02 145.056 25.09H146.781C146.791 25.55 146.906 25.915 147.126 26.185C147.356 26.455 147.691 26.59 148.131 26.59C148.571 26.59 148.906 26.455 149.136 26.185C149.366 25.905 149.481 25.54 149.481 25.09V17.575H151.206ZM161.473 19.735V28H159.763V27.025C159.493 27.365 159.138 27.635 158.698 27.835C158.268 28.025 157.808 28.12 157.318 28.12C156.668 28.12 156.083 27.985 155.563 27.715C155.053 27.445 154.648 27.045 154.348 26.515C154.058 25.985 153.913 25.345 153.913 24.595V19.735H155.608V24.34C155.608 25.08 155.793 25.65 156.163 26.05C156.533 26.44 157.038 26.635 157.678 26.635C158.318 26.635 158.823 26.44 159.193 26.05C159.573 25.65 159.763 25.08 159.763 24.34V19.735H161.473ZM167.899 19.6C168.549 19.6 169.129 19.735 169.639 20.005C170.159 20.275 170.564 20.675 170.854 21.205C171.144 21.735 171.289 22.375 171.289 23.125V28H169.594V23.38C169.594 22.64 169.409 22.075 169.039 21.685C168.669 21.285 168.164 21.085 167.524 21.085C166.884 21.085 166.374 21.285 165.994 21.685C165.624 22.075 165.439 22.64 165.439 23.38V28H163.729V19.735H165.439V20.68C165.719 20.34 166.074 20.075 166.504 19.885C166.944 19.695 167.409 19.6 167.899 19.6ZM181.045 23.665C181.045 23.975 181.025 24.255 180.985 24.505H174.67C174.72 25.165 174.965 25.695 175.405 26.095C175.845 26.495 176.385 26.695 177.025 26.695C177.945 26.695 178.595 26.31 178.975 25.54H180.82C180.57 26.3 180.115 26.925 179.455 27.415C178.805 27.895 177.995 28.135 177.025 28.135C176.235 28.135 175.525 27.96 174.895 27.61C174.275 27.25 173.785 26.75 173.425 26.11C173.075 25.46 172.9 24.71 172.9 23.86C172.9 23.01 173.07 22.265 173.41 21.625C173.76 20.975 174.245 20.475 174.865 20.125C175.495 19.775 176.215 19.6 177.025 19.6C177.805 19.6 178.5 19.77 179.11 20.11C179.72 20.45 180.195 20.93 180.535 21.55C180.875 22.16 181.045 22.865 181.045 23.665ZM179.26 23.125C179.25 22.495 179.025 21.99 178.585 21.61C178.145 21.23 177.6 21.04 176.95 21.04C176.36 21.04 175.855 21.23 175.435 21.61C175.015 21.98 174.765 22.485 174.685 23.125H179.26ZM187.345 25.675C188.305 24.845 189.06 24.165 189.61 23.635C190.17 23.095 190.635 22.535 191.005 21.955C191.375 21.375 191.56 20.795 191.56 20.215C191.56 19.615 191.415 19.145 191.125 18.805C190.845 18.465 190.4 18.295 189.79 18.295C189.2 18.295 188.74 18.485 188.41 18.865C188.09 19.235 187.92 19.735 187.9 20.365H186.25C186.28 19.225 186.62 18.355 187.27 17.755C187.93 17.145 188.765 16.84 189.775 16.84C190.865 16.84 191.715 17.14 192.325 17.74C192.945 18.34 193.255 19.14 193.255 20.14C193.255 20.86 193.07 21.555 192.7 22.225C192.34 22.885 191.905 23.48 191.395 24.01C190.895 24.53 190.255 25.135 189.475 25.825L188.8 26.425H193.555V27.85H186.265V26.605L187.345 25.675ZM195.057 22.39C195.057 20.66 195.347 19.31 195.927 18.34C196.517 17.36 197.527 16.87 198.957 16.87C200.387 16.87 201.392 17.36 201.972 18.34C202.562 19.31 202.857 20.66 202.857 22.39C202.857 24.14 202.562 25.51 201.972 26.5C201.392 27.48 200.387 27.97 198.957 27.97C197.527 27.97 196.517 27.48 195.927 26.5C195.347 25.51 195.057 24.14 195.057 22.39ZM201.177 22.39C201.177 21.58 201.122 20.895 201.012 20.335C200.912 19.775 200.702 19.32 200.382 18.97C200.062 18.61 199.587 18.43 198.957 18.43C198.327 18.43 197.852 18.61 197.532 18.97C197.212 19.32 196.997 19.775 196.887 20.335C196.787 20.895 196.737 21.58 196.737 22.39C196.737 23.23 196.787 23.935 196.887 24.505C196.987 25.075 197.197 25.535 197.517 25.885C197.847 26.235 198.327 26.41 198.957 26.41C199.587 26.41 200.062 26.235 200.382 25.885C200.712 25.535 200.927 25.075 201.027 24.505C201.127 23.935 201.177 23.23 201.177 22.39ZM205.611 25.675C206.571 24.845 207.326 24.165 207.876 23.635C208.436 23.095 208.901 22.535 209.271 21.955C209.641 21.375 209.826 20.795 209.826 20.215C209.826 19.615 209.681 19.145 209.391 18.805C209.111 18.465 208.666 18.295 208.056 18.295C207.466 18.295 207.006 18.485 206.676 18.865C206.356 19.235 206.186 19.735 206.166 20.365H204.516C204.546 19.225 204.886 18.355 205.536 17.755C206.196 17.145 207.031 16.84 208.041 16.84C209.131 16.84 209.981 17.14 210.591 17.74C211.211 18.34 211.521 19.14 211.521 20.14C211.521 20.86 211.336 21.555 210.966 22.225C210.606 22.885 210.171 23.48 209.661 24.01C209.161 24.53 208.521 25.135 207.741 25.825L207.066 26.425H211.821V27.85H204.531V26.605L205.611 25.675ZM213.113 25.72V24.43L218.153 17.2H220.223V24.235H221.618V25.72H220.223V28H218.543V25.72H213.113ZM218.618 18.94L215.078 24.235H218.618V18.94Z" fill="#828690"/>
<rect x="322.703" y="7" width="32" height="32" rx="6" fill="#0D99FF" fill-opacity="0.1"/>
<path d="M342.221 23.2148C342.467 22.9688 342.467 22.5586 342.221 22.3125L336.916 16.9805C336.643 16.7344 336.233 16.7344 335.987 16.9805L335.358 17.6094C335.112 17.8555 335.112 18.2656 335.358 18.5391L339.569 22.75L335.358 26.9883C335.112 27.2617 335.112 27.6719 335.358 27.918L335.987 28.5469C336.233 28.793 336.643 28.793 336.916 28.5469L342.221 23.2148Z" fill="#0D99FF"/>
<rect width="59.0156" height="34" transform="translate(0 46)" fill="#1E1E1E"/>
<path d="M28.4341 65.34C28.4341 61.728 23.1701 63.296 23.1701 60.776C23.1701 59.726 23.9961 59.18 25.0461 59.208C26.2361 59.222 26.8521 59.964 26.9361 60.622H28.3361C28.1821 59.138 26.9641 58.116 25.1021 58.116C23.1701 58.116 21.8681 59.208 21.8681 60.818C21.8681 64.444 27.1461 62.764 27.1461 65.396C27.1461 66.32 26.4181 67.02 25.1861 67.02C23.8281 67.02 23.2541 66.208 23.1701 65.396H21.8121C21.8401 67.006 23.2261 68.098 25.1861 68.098C27.3001 68.098 28.4341 66.726 28.4341 65.34ZM37.1129 60.328H35.8389V64.542C35.8389 66.194 34.9569 67.006 33.6409 67.006C32.3529 67.006 31.4989 66.208 31.4989 64.654V60.328H30.2389V64.822C30.2389 67.02 31.6249 68.112 33.3889 68.112C34.4109 68.112 35.3489 67.664 35.8389 66.866V68H37.1129V60.328Z" fill="#828690"/>
<rect width="50.0312" height="34" transform="translate(59.0156 46)" fill="#1E1E1E"/>
<path d="M74.6946 68H75.9686V60.762L79.2026 68H80.0986L83.3186 60.776V68H84.5926V58.312H83.2346L79.6506 66.32L76.0666 58.312H74.6946V68ZM94.0332 64.15C94.0332 61.728 92.3392 60.202 90.1552 60.202C87.9852 60.202 86.2772 61.728 86.2772 64.15C86.2772 66.586 87.9292 68.126 90.0992 68.126C92.2832 68.126 94.0332 66.586 94.0332 64.15ZM87.5792 64.15C87.5792 62.218 88.7972 61.308 90.1412 61.308C91.4572 61.308 92.7312 62.218 92.7312 64.15C92.7312 66.096 91.4292 67.006 90.0992 67.006C88.7692 67.006 87.5792 66.096 87.5792 64.15Z" fill="#828690"/>
<rect width="50.0312" height="34" transform="translate(109.047 46)" fill="#1E1E1E"/>
<path d="M126.366 59.278H129.04V68H130.314V59.278H132.974V58.242H126.366V59.278ZM141.346 60.328H140.072V64.542C140.072 66.194 139.19 67.006 137.874 67.006C136.586 67.006 135.732 66.208 135.732 64.654V60.328H134.472V64.822C134.472 67.02 135.858 68.112 137.622 68.112C138.644 68.112 139.582 67.664 140.072 66.866V68H141.346V60.328Z" fill="#828690"/>
<rect width="50.0312" height="34" transform="translate(159.078 46)" fill="#1E1E1E"/>
<path d="M176.068 68.014L177.482 68L179.834 60.146L182.102 68H183.53L186.358 58.242H184.986L182.844 66.488L180.604 58.242H179.176L176.824 66.516L174.696 58.242H173.338L176.068 68.014ZM191.014 61.28C192.33 61.28 193.45 62.106 193.436 63.604H188.592C188.732 62.106 189.768 61.28 191.014 61.28ZM194.598 65.634H193.226C192.946 66.46 192.218 67.048 191.07 67.048C189.768 67.048 188.676 66.194 188.578 64.64H194.71C194.738 64.374 194.752 64.15 194.752 63.87C194.752 61.77 193.296 60.202 191.07 60.202C188.83 60.202 187.276 61.728 187.276 64.15C187.276 66.586 188.886 68.126 191.07 68.126C192.974 68.126 194.206 67.034 194.598 65.634Z" fill="#828690"/>
<rect width="50.0312" height="34" transform="translate(209.109 46)" fill="#1E1E1E"/>
<path d="M226.429 59.278H229.103V68H230.377V59.278H233.037V58.242H226.429V59.278ZM234.605 68H235.879V63.758C235.879 62.106 236.775 61.294 238.077 61.294C239.365 61.294 240.219 62.092 240.219 63.66V68H241.479V63.478C241.479 61.28 240.121 60.188 238.413 60.188C237.335 60.188 236.383 60.622 235.879 61.434V57.64H234.605V68Z" fill="#828690"/>
<rect width="50.0312" height="34" transform="translate(259.141 46)" fill="#1E1E1E"/>
<path d="M279.196 68H280.47V63.604H283.914V62.568H280.47V59.278H284.712V58.242H279.196V68ZM287.524 63.828C287.524 62.05 288.448 61.504 289.666 61.504H290.002V60.188C288.784 60.188 287.958 60.72 287.524 61.574V60.328H286.25V68H287.524V63.828Z" fill="#828690"/>
<rect width="59.0781" height="34" transform="translate(309.172 46)" fill="#1E1E1E"/>
<path d="M337.384 65.34C337.384 61.728 332.12 63.296 332.12 60.776C332.12 59.726 332.946 59.18 333.996 59.208C335.186 59.222 335.802 59.964 335.886 60.622H337.286C337.132 59.138 335.914 58.116 334.052 58.116C332.12 58.116 330.818 59.208 330.818 60.818C330.818 64.444 336.096 62.764 336.096 65.396C336.096 66.32 335.368 67.02 334.136 67.02C332.778 67.02 332.204 66.208 332.12 65.396H330.762C330.79 67.006 332.176 68.098 334.136 68.098C336.25 68.098 337.384 66.726 337.384 65.34ZM338.783 64.136C338.783 66.516 340.365 68.126 342.409 68.126C343.823 68.126 344.817 67.398 345.279 66.572V68H346.567V60.328H345.279V61.728C344.831 60.93 343.851 60.202 342.423 60.202C340.365 60.202 338.783 61.742 338.783 64.136ZM345.279 64.15C345.279 65.956 344.075 67.006 342.675 67.006C341.275 67.006 340.085 65.942 340.085 64.136C340.085 62.33 341.275 61.308 342.675 61.308C344.075 61.308 345.279 62.372 345.279 64.15Z" fill="#828690"/>
<path d="M21.7755 107.888H28.5095V106.824H23.6935C25.4995 105.354 28.2155 103.212 28.2155 100.692C28.2155 98.816 26.9835 97.696 25.0795 97.696C23.2595 97.696 21.9015 98.816 21.8175 100.972H23.0495C23.1055 99.698 23.7775 98.788 25.0935 98.788C26.4655 98.788 26.9555 99.628 26.9555 100.748C26.9555 102.82 24.4355 104.836 21.7755 106.978V107.888ZM36.8003 100.286C36.6323 98.872 35.6523 97.668 33.7203 97.668C31.1583 97.668 30.1363 99.628 30.1363 102.806C30.1363 105.872 30.8503 108.028 33.8463 108.028C36.0583 108.028 37.1503 106.516 37.1503 104.668C37.1503 102.54 35.8763 101.294 33.9863 101.294C32.7823 101.294 31.6763 101.854 31.2423 102.848C31.2283 99.838 32.0963 98.732 33.7063 98.732C34.8543 98.732 35.4283 99.306 35.6243 100.286H36.8003ZM33.7203 102.372C35.1763 102.372 35.9183 103.282 35.9183 104.71C35.9183 106.082 35.0923 106.964 33.7763 106.964C32.1803 106.964 31.3963 105.914 31.3963 104.57C31.3963 103.058 32.5583 102.372 33.7203 102.372Z" fill="#FF5E5E"/>
<path d="M76.0382 107.888H82.7722V106.824H77.9562C79.7622 105.354 82.4782 103.212 82.4782 100.692C82.4782 98.816 81.2462 97.696 79.3422 97.696C77.5222 97.696 76.1642 98.816 76.0802 100.972H77.3122C77.3682 99.698 78.0402 98.788 79.3562 98.788C80.7282 98.788 81.2182 99.628 81.2182 100.748C81.2182 102.82 78.6982 104.836 76.0382 106.978V107.888ZM83.839 97.906V98.998H89.243L85.295 108H86.583L90.475 98.872V97.906H83.839Z" fill="#828690"/>
<path d="M126.381 107.888H133.115V106.824H128.299C130.105 105.354 132.821 103.212 132.821 100.692C132.821 98.816 131.589 97.696 129.685 97.696C127.865 97.696 126.507 98.816 126.423 100.972H127.655C127.711 99.698 128.383 98.788 129.699 98.788C131.071 98.788 131.561 99.628 131.561 100.748C131.561 102.82 129.041 104.836 126.381 106.978V107.888ZM136.436 102.736C135.302 103.072 134.56 103.996 134.56 105.27C134.56 107.104 136.002 108.28 138.13 108.28C140.272 108.28 141.728 107.104 141.728 105.27C141.728 104.01 140.986 103.086 139.838 102.736C140.832 102.344 141.462 101.504 141.462 100.412C141.462 98.942 140.328 97.724 138.13 97.724C135.932 97.724 134.812 98.928 134.812 100.412C134.812 101.546 135.4 102.33 136.436 102.736ZM138.13 102.316C136.898 102.316 136.044 101.63 136.044 100.58C136.044 99.39 136.884 98.788 138.13 98.788C139.404 98.788 140.23 99.404 140.23 100.566C140.23 101.616 139.376 102.316 138.13 102.316ZM138.13 103.296C139.46 103.296 140.468 103.926 140.468 105.228C140.468 106.404 139.572 107.216 138.13 107.216C136.688 107.216 135.778 106.418 135.778 105.228C135.778 103.884 136.828 103.296 138.13 103.296Z" fill="#828690"/>
<path d="M183.978 108H185.266V97.878H182.634V99.04H183.978V108Z" fill="#828690"/>
<path d="M231.281 107.888H238.015V106.824H233.199C235.005 105.354 237.721 103.212 237.721 100.692C237.721 98.816 236.489 97.696 234.585 97.696C232.765 97.696 231.407 98.816 231.323 100.972H232.555C232.611 99.698 233.283 98.788 234.599 98.788C235.971 98.788 236.461 99.628 236.461 100.748C236.461 102.82 233.941 104.836 231.281 106.978V107.888Z" fill="#828690"/>
<path d="M281.249 100.426H282.495C282.621 99.446 283.335 98.774 284.525 98.774C285.743 98.774 286.387 99.446 286.387 100.412C286.387 101.588 285.477 102.106 283.783 102.12H283.447V103.184H283.769C285.589 103.184 286.583 103.73 286.583 105.158C286.583 106.194 285.939 106.992 284.581 106.992C283.237 106.992 282.453 106.166 282.327 105.088H281.095C281.249 107.048 282.677 108.07 284.595 108.07C286.709 108.07 287.801 106.838 287.801 105.27C287.801 103.814 287.003 102.946 285.827 102.666V102.596C286.891 102.358 287.619 101.448 287.619 100.286C287.619 98.83 286.541 97.682 284.567 97.682C282.691 97.682 281.375 98.69 281.249 100.426Z" fill="#828690"/>
<path d="M340.135 108H341.395V105.746H342.795V104.64H341.395V97.976H339.869L334.955 104.78V105.746H340.135V108ZM336.425 104.64L340.191 99.306V104.64H336.425Z" fill="#828690"/>
<path d="M26.4459 143.864V149.576H27.6499C27.9859 148.778 28.7279 148.246 29.7499 148.246C31.2199 148.246 31.9619 149.086 31.9619 150.528C31.9619 151.914 31.2759 152.95 29.7359 152.95C28.5459 152.95 27.7199 152.32 27.4819 151.256H26.2359C26.4879 152.894 27.7059 154.028 29.7219 154.028C32.0879 154.028 33.1799 152.46 33.1799 150.5C33.1799 148.932 32.3959 147.154 29.9319 147.154C28.9379 147.154 28.0419 147.602 27.6219 148.176V144.984H32.5359V143.864H26.4459Z" fill="#FF5E5E"/>
<path d="M129.875 143.906V144.998H135.279L131.331 154H132.619L136.511 144.872V143.906H129.875Z" fill="#828690"/>
<path d="M182.472 148.736C181.338 149.072 180.596 149.996 180.596 151.27C180.596 153.104 182.038 154.28 184.166 154.28C186.308 154.28 187.764 153.104 187.764 151.27C187.764 150.01 187.022 149.086 185.874 148.736C186.868 148.344 187.498 147.504 187.498 146.412C187.498 144.942 186.364 143.724 184.166 143.724C181.968 143.724 180.848 144.928 180.848 146.412C180.848 147.546 181.436 148.33 182.472 148.736ZM184.166 148.316C182.934 148.316 182.08 147.63 182.08 146.58C182.08 145.39 182.92 144.788 184.166 144.788C185.44 144.788 186.266 145.404 186.266 146.566C186.266 147.616 185.412 148.316 184.166 148.316ZM184.166 149.296C185.496 149.296 186.504 149.926 186.504 151.228C186.504 152.404 185.608 153.216 184.166 153.216C182.724 153.216 181.814 152.418 181.814 151.228C181.814 149.884 182.864 149.296 184.166 149.296Z" fill="#828690"/>
<path d="M231.124 151.284C231.264 152.768 232.244 154.014 234.26 154.014C236.92 154.014 237.69 152.124 237.69 148.75C237.69 145.614 236.892 143.682 234.148 143.682C231.964 143.682 230.816 145.082 230.816 147.014C230.816 149.156 232.202 150.318 234.064 150.318C235.156 150.318 236.164 149.828 236.57 148.974C236.612 151.942 235.814 152.95 234.33 152.95C233.154 152.95 232.482 152.334 232.3 151.284H231.124ZM234.274 149.24C232.762 149.24 232.034 148.288 232.034 146.986C232.034 145.642 232.86 144.746 234.176 144.746C235.632 144.746 236.416 145.712 236.416 147.084C236.416 148.442 235.492 149.24 234.274 149.24Z" fill="#828690"/>
<path d="M278.754 154H280.042V143.878H277.41V145.04H278.754V154ZM282.23 148.834C282.23 151.774 282.958 154 285.758 154C288.544 154 289.272 151.774 289.272 148.834C289.272 145.936 288.544 143.724 285.758 143.724C282.958 143.724 282.23 145.936 282.23 148.834ZM288.012 148.834C288.012 151.018 287.746 152.838 285.758 152.838C283.756 152.838 283.49 151.018 283.49 148.834C283.49 146.734 283.756 144.886 285.758 144.886C287.746 144.886 288.012 146.734 288.012 148.834Z" fill="#828690"/>
<path d="M336.11 154H337.398V143.878H334.766V145.04H336.11V154ZM340.595 154H341.883V143.878H339.251V145.04H340.595V154Z" fill="#828690"/>
<rect x="59.0156" y="126" width="50.0312" height="46" rx="6" fill="#0D99FF"/>
<rect x="99.0469" y="125" width="11" height="11" rx="5.5" fill="#FF5E5E" stroke="white" stroke-width="2"/>
<path d="M87.3661 146.286C87.1981 144.872 86.2181 143.668 84.2861 143.668C81.7241 143.668 80.7021 145.628 80.7021 148.806C80.7021 151.872 81.4161 154.028 84.4121 154.028C86.6241 154.028 87.7161 152.516 87.7161 150.668C87.7161 148.54 86.4421 147.294 84.5521 147.294C83.3481 147.294 82.2421 147.854 81.8081 148.848C81.7941 145.838 82.6621 144.732 84.2721 144.732C85.4201 144.732 85.9941 145.306 86.1901 146.286H87.3661ZM84.2861 148.372C85.7421 148.372 86.4841 149.282 86.4841 150.71C86.4841 152.082 85.6581 152.964 84.3421 152.964C82.7461 152.964 81.9621 151.914 81.9621 150.57C81.9621 149.058 83.1241 148.372 84.2861 148.372Z" fill="white"/>
<path d="M25.3418 200H26.6298V189.878H23.9978V191.04H25.3418V200ZM28.6642 199.888H35.3982V198.824H30.5822C32.3882 197.354 35.1042 195.212 35.1042 192.692C35.1042 190.816 33.8722 189.696 31.9682 189.696C30.1482 189.696 28.7902 190.816 28.7062 192.972H29.9382C29.9942 191.698 30.6662 190.788 31.9822 190.788C33.3542 190.788 33.8442 191.628 33.8442 192.748C33.8442 194.82 31.3242 196.836 28.6642 198.978V199.888Z" fill="#FF5E5E"/>
<path d="M79.668 200H80.956V189.878H78.324V191.04H79.668V200ZM83.1164 192.426H84.3624C84.4884 191.446 85.2024 190.774 86.3924 190.774C87.6104 190.774 88.2544 191.446 88.2544 192.412C88.2544 193.588 87.3444 194.106 85.6504 194.12H85.3144V195.184H85.6364C87.4564 195.184 88.4504 195.73 88.4504 197.158C88.4504 198.194 87.8064 198.992 86.4484 198.992C85.1044 198.992 84.3204 198.166 84.1944 197.088H82.9624C83.1164 199.048 84.5444 200.07 86.4624 200.07C88.5764 200.07 89.6684 198.838 89.6684 197.27C89.6684 195.814 88.8704 194.946 87.6944 194.666V194.596C88.7584 194.358 89.4864 193.448 89.4864 192.286C89.4864 190.83 88.4084 189.682 86.4344 189.682C84.5584 189.682 83.2424 190.69 83.1164 192.426Z" fill="#828690"/>
<path d="M128.638 200H129.926V189.878H127.294V191.04H128.638V200ZM136.986 200H138.246V197.746H139.646V196.64H138.246V189.976H136.72L131.806 196.78V197.746H136.986V200ZM133.276 196.64L137.042 191.306V196.64H133.276Z" fill="#828690"/>
<path d="M178.691 200H179.979V189.878H177.347V191.04H178.691V200ZM182.532 189.864V195.576H183.736C184.072 194.778 184.814 194.246 185.836 194.246C187.306 194.246 188.048 195.086 188.048 196.528C188.048 197.914 187.362 198.95 185.822 198.95C184.632 198.95 183.806 198.32 183.568 197.256H182.322C182.574 198.894 183.792 200.028 185.808 200.028C188.174 200.028 189.266 198.46 189.266 196.5C189.266 194.932 188.482 193.154 186.018 193.154C185.024 193.154 184.128 193.602 183.708 194.176V190.984H188.622V189.864H182.532Z" fill="#828690"/>
<path d="M228.628 200H229.916V189.878H227.284V191.04H228.628V200ZM238.922 192.286C238.754 190.872 237.774 189.668 235.842 189.668C233.28 189.668 232.258 191.628 232.258 194.806C232.258 197.872 232.972 200.028 235.968 200.028C238.18 200.028 239.272 198.516 239.272 196.668C239.272 194.54 237.998 193.294 236.108 193.294C234.904 193.294 233.798 193.854 233.364 194.848C233.35 191.838 234.218 190.732 235.828 190.732C236.976 190.732 237.55 191.306 237.746 192.286H238.922ZM235.842 194.372C237.298 194.372 238.04 195.282 238.04 196.71C238.04 198.082 237.214 198.964 235.898 198.964C234.302 198.964 233.518 197.914 233.518 196.57C233.518 195.058 234.68 194.372 235.842 194.372Z" fill="#828690"/>
<path d="M280.406 200H281.694V189.878H279.062V191.04H280.406V200ZM283.477 189.906V190.998H288.881L284.933 200H286.221L290.113 190.872V189.906H283.477Z" fill="#828690"/>
<path d="M333.265 200H334.553V189.878H331.921V191.04H333.265V200ZM338.589 194.736C337.455 195.072 336.713 195.996 336.713 197.27C336.713 199.104 338.155 200.28 340.283 200.28C342.425 200.28 343.881 199.104 343.881 197.27C343.881 196.01 343.139 195.086 341.991 194.736C342.985 194.344 343.615 193.504 343.615 192.412C343.615 190.942 342.481 189.724 340.283 189.724C338.085 189.724 336.965 190.928 336.965 192.412C336.965 193.546 337.553 194.33 338.589 194.736ZM340.283 194.316C339.051 194.316 338.197 193.63 338.197 192.58C338.197 191.39 339.037 190.788 340.283 190.788C341.557 190.788 342.383 191.404 342.383 192.566C342.383 193.616 341.529 194.316 340.283 194.316ZM340.283 195.296C341.613 195.296 342.621 195.926 342.621 197.228C342.621 198.404 341.725 199.216 340.283 199.216C338.841 199.216 337.931 198.418 337.931 197.228C337.931 195.884 338.981 195.296 340.283 195.296Z" fill="#828690"/>
<path d="M24.0684 246H25.3564V235.878H22.7244V237.04H24.0684V246ZM28.0068 243.284C28.1468 244.768 29.1268 246.014 31.1428 246.014C33.8028 246.014 34.5728 244.124 34.5728 240.75C34.5728 237.614 33.7748 235.682 31.0308 235.682C28.8468 235.682 27.6988 237.082 27.6988 239.014C27.6988 241.156 29.0848 242.318 30.9468 242.318C32.0388 242.318 33.0468 241.828 33.4528 240.974C33.4948 243.942 32.6968 244.95 31.2128 244.95C30.0368 244.95 29.3648 244.334 29.1828 243.284H28.0068ZM31.1568 241.24C29.6448 241.24 28.9168 240.288 28.9168 238.986C28.9168 237.642 29.7428 236.746 31.0588 236.746C32.5148 236.746 33.2988 237.712 33.2988 239.084C33.2988 240.442 32.3748 241.24 31.1568 241.24Z" fill="#FF5E5E"/>
<path d="M76.4015 245.888H83.1355V244.824H78.3195C80.1255 243.354 82.8415 241.212 82.8415 238.692C82.8415 236.816 81.6095 235.696 79.7055 235.696C77.8855 235.696 76.5275 236.816 76.4435 238.972H77.6755C77.7315 237.698 78.4035 236.788 79.7195 236.788C81.0915 236.788 81.5815 237.628 81.5815 238.748C81.5815 240.82 79.0615 242.836 76.4015 244.978V245.888ZM84.6082 240.834C84.6082 243.774 85.3362 246 88.1362 246C90.9222 246 91.6502 243.774 91.6502 240.834C91.6502 237.936 90.9222 235.724 88.1362 235.724C85.3362 235.724 84.6082 237.936 84.6082 240.834ZM90.3902 240.834C90.3902 243.018 90.1242 244.838 88.1362 244.838C86.1342 244.838 85.8682 243.018 85.8682 240.834C85.8682 238.734 86.1342 236.886 88.1362 236.886C90.1242 236.886 90.3902 238.734 90.3902 240.834Z" fill="#828690"/>
<path d="M128.742 245.888H135.476V244.824H130.66C132.466 243.354 135.182 241.212 135.182 238.692C135.182 236.816 133.95 235.696 132.046 235.696C130.226 235.696 128.868 236.816 128.784 238.972H130.016C130.072 237.698 130.744 236.788 132.06 236.788C133.432 236.788 133.922 237.628 133.922 238.748C133.922 240.82 131.402 242.836 128.742 244.978V245.888ZM137.957 246H139.245V235.878H136.613V237.04H137.957V246Z" fill="#828690"/>
<path d="M177.193 245.888H183.927V244.824H179.111C180.917 243.354 183.633 241.212 183.633 238.692C183.633 236.816 182.401 235.696 180.497 235.696C178.677 235.696 177.319 236.816 177.235 238.972H178.467C178.523 237.698 179.195 236.788 180.511 236.788C181.883 236.788 182.373 237.628 182.373 238.748C182.373 240.82 179.853 242.836 177.193 244.978V245.888ZM185.245 245.888H191.979V244.824H187.163C188.969 243.354 191.685 241.212 191.685 238.692C191.685 236.816 190.453 235.696 188.549 235.696C186.729 235.696 185.371 236.816 185.287 238.972H186.519C186.575 237.698 187.247 236.788 188.563 236.788C189.935 236.788 190.425 237.628 190.425 238.748C190.425 240.82 187.905 242.836 185.245 244.978V245.888Z" fill="#828690"/>
<path d="M227.034 245.888H233.768V244.824H228.952C230.758 243.354 233.474 241.212 233.474 238.692C233.474 236.816 232.242 235.696 230.338 235.696C228.518 235.696 227.16 236.816 227.076 238.972H228.308C228.364 237.698 229.036 236.788 230.352 236.788C231.724 236.788 232.214 237.628 232.214 238.748C232.214 240.82 229.694 242.836 227.034 244.978V245.888ZM235.213 238.426H236.459C236.585 237.446 237.299 236.774 238.489 236.774C239.707 236.774 240.351 237.446 240.351 238.412C240.351 239.588 239.441 240.106 237.747 240.12H237.411V241.184H237.733C239.553 241.184 240.547 241.73 240.547 243.158C240.547 244.194 239.903 244.992 238.545 244.992C237.201 244.992 236.417 244.166 236.291 243.088H235.059C235.213 245.048 236.641 246.07 238.559 246.07C240.673 246.07 241.765 244.838 241.765 243.27C241.765 241.814 240.967 240.946 239.791 240.666V240.596C240.855 240.358 241.583 239.448 241.583 238.286C241.583 236.83 240.505 235.682 238.531 235.682C236.655 235.682 235.339 236.69 235.213 238.426Z" fill="#828690"/>
<path d="M276.504 245.888H283.238V244.824H278.422C280.228 243.354 282.944 241.212 282.944 238.692C282.944 236.816 281.712 235.696 279.808 235.696C277.988 235.696 276.63 236.816 276.546 238.972H277.778C277.834 237.698 278.506 236.788 279.822 236.788C281.194 236.788 281.684 237.628 281.684 238.748C281.684 240.82 279.164 242.836 276.504 244.978V245.888ZM289.583 246H290.843V243.746H292.243V242.64H290.843V235.976H289.317L284.403 242.78V243.746H289.583V246ZM285.873 242.64L289.639 237.306V242.64H285.873Z" fill="#828690"/>
<path d="M331.073 245.888H337.807V244.824H332.991C334.797 243.354 337.513 241.212 337.513 238.692C337.513 236.816 336.281 235.696 334.377 235.696C332.557 235.696 331.199 236.816 331.115 238.972H332.347C332.403 237.698 333.075 236.788 334.391 236.788C335.763 236.788 336.253 237.628 336.253 238.748C336.253 240.82 333.733 242.836 331.073 244.978V245.888ZM339.644 235.864V241.576H340.848C341.184 240.778 341.926 240.246 342.948 240.246C344.418 240.246 345.16 241.086 345.16 242.528C345.16 243.914 344.474 244.95 342.934 244.95C341.744 244.95 340.918 244.32 340.68 243.256H339.434C339.686 244.894 340.904 246.028 342.92 246.028C345.286 246.028 346.378 244.46 346.378 242.5C346.378 240.932 345.594 239.154 343.13 239.154C342.136 239.154 341.24 239.602 340.82 240.176V236.984H345.734V235.864H339.644Z" fill="#828690"/>
<path d="M21.7755 291.888H28.5095V290.824H23.6935C25.4995 289.354 28.2155 287.212 28.2155 284.692C28.2155 282.816 26.9835 281.696 25.0795 281.696C23.2595 281.696 21.9015 282.816 21.8175 284.972H23.0495C23.1055 283.698 23.7775 282.788 25.0935 282.788C26.4655 282.788 26.9555 283.628 26.9555 284.748C26.9555 286.82 24.4355 288.836 21.7755 290.978V291.888ZM36.8003 284.286C36.6323 282.872 35.6523 281.668 33.7203 281.668C31.1583 281.668 30.1363 283.628 30.1363 286.806C30.1363 289.872 30.8503 292.028 33.8463 292.028C36.0583 292.028 37.1503 290.516 37.1503 288.668C37.1503 286.54 35.8763 285.294 33.9863 285.294C32.7823 285.294 31.6763 285.854 31.2423 286.848C31.2283 283.838 32.0963 282.732 33.7063 282.732C34.8543 282.732 35.4283 283.306 35.6243 284.286H36.8003ZM33.7203 286.372C35.1763 286.372 35.9183 287.282 35.9183 288.71C35.9183 290.082 35.0923 290.964 33.7763 290.964C32.1803 290.964 31.3963 289.914 31.3963 288.57C31.3963 287.058 32.5583 286.372 33.7203 286.372Z" fill="#FF5E5E"/>
<path d="M76.0382 291.888H82.7722V290.824H77.9562C79.7622 289.354 82.4782 287.212 82.4782 284.692C82.4782 282.816 81.2462 281.696 79.3422 281.696C77.5222 281.696 76.1642 282.816 76.0802 284.972H77.3122C77.3682 283.698 78.0402 282.788 79.3562 282.788C80.7282 282.788 81.2182 283.628 81.2182 284.748C81.2182 286.82 78.6982 288.836 76.0382 290.978V291.888ZM83.839 281.906V282.998H89.243L85.295 292H86.583L90.475 282.872V281.906H83.839Z" fill="#828690"/>
<path d="M126.381 291.888H133.115V290.824H128.299C130.105 289.354 132.821 287.212 132.821 284.692C132.821 282.816 131.589 281.696 129.685 281.696C127.865 281.696 126.507 282.816 126.423 284.972H127.655C127.711 283.698 128.383 282.788 129.699 282.788C131.071 282.788 131.561 283.628 131.561 284.748C131.561 286.82 129.041 288.836 126.381 290.978V291.888ZM136.436 286.736C135.302 287.072 134.56 287.996 134.56 289.27C134.56 291.104 136.002 292.28 138.13 292.28C140.272 292.28 141.728 291.104 141.728 289.27C141.728 288.01 140.986 287.086 139.838 286.736C140.832 286.344 141.462 285.504 141.462 284.412C141.462 282.942 140.328 281.724 138.13 281.724C135.932 281.724 134.812 282.928 134.812 284.412C134.812 285.546 135.4 286.33 136.436 286.736ZM138.13 286.316C136.898 286.316 136.044 285.63 136.044 284.58C136.044 283.39 136.884 282.788 138.13 282.788C139.404 282.788 140.23 283.404 140.23 284.566C140.23 285.616 139.376 286.316 138.13 286.316ZM138.13 287.296C139.46 287.296 140.468 287.926 140.468 289.228C140.468 290.404 139.572 291.216 138.13 291.216C136.688 291.216 135.778 290.418 135.778 289.228C135.778 287.884 136.828 287.296 138.13 287.296Z" fill="#828690"/>
<path d="M176.435 291.888H183.169V290.824H178.353C180.159 289.354 182.875 287.212 182.875 284.692C182.875 282.816 181.643 281.696 179.739 281.696C177.919 281.696 176.561 282.816 176.477 284.972H177.709C177.765 283.698 178.437 282.788 179.753 282.788C181.125 282.788 181.615 283.628 181.615 284.748C181.615 286.82 179.095 288.836 176.435 290.978V291.888ZM185.103 289.284C185.243 290.768 186.223 292.014 188.239 292.014C190.899 292.014 191.669 290.124 191.669 286.75C191.669 283.614 190.871 281.682 188.127 281.682C185.943 281.682 184.795 283.082 184.795 285.014C184.795 287.156 186.181 288.318 188.043 288.318C189.135 288.318 190.143 287.828 190.549 286.974C190.591 289.942 189.793 290.95 188.309 290.95C187.133 290.95 186.461 290.334 186.279 289.284H185.103ZM188.253 287.24C186.741 287.24 186.013 286.288 186.013 284.986C186.013 283.642 186.839 282.746 188.155 282.746C189.611 282.746 190.395 283.712 190.395 285.084C190.395 286.442 189.471 287.24 188.253 287.24Z" fill="#828690"/>
<path d="M225.916 284.426H227.162C227.288 283.446 228.002 282.774 229.192 282.774C230.41 282.774 231.054 283.446 231.054 284.412C231.054 285.588 230.144 286.106 228.45 286.12H228.114V287.184H228.436C230.256 287.184 231.25 287.73 231.25 289.158C231.25 290.194 230.606 290.992 229.248 290.992C227.904 290.992 227.12 290.166 226.994 289.088H225.762C225.916 291.048 227.344 292.07 229.262 292.07C231.376 292.07 232.468 290.838 232.468 289.27C232.468 287.814 231.67 286.946 230.494 286.666V286.596C231.558 286.358 232.286 285.448 232.286 284.286C232.286 282.83 231.208 281.682 229.234 281.682C227.358 281.682 226.042 282.69 225.916 284.426ZM234.188 286.834C234.188 289.774 234.916 292 237.716 292C240.502 292 241.23 289.774 241.23 286.834C241.23 283.936 240.502 281.724 237.716 281.724C234.916 281.724 234.188 283.936 234.188 286.834ZM239.97 286.834C239.97 289.018 239.704 290.838 237.716 290.838C235.714 290.838 235.448 289.018 235.448 286.834C235.448 284.734 235.714 282.886 237.716 282.886C239.704 282.886 239.97 284.734 239.97 286.834Z" fill="#828690"/>
<path d="M278.757 284.426H280.003C280.129 283.446 280.843 282.774 282.033 282.774C283.251 282.774 283.895 283.446 283.895 284.412C283.895 285.588 282.985 286.106 281.291 286.12H280.955V287.184H281.277C283.097 287.184 284.091 287.73 284.091 289.158C284.091 290.194 283.447 290.992 282.089 290.992C280.745 290.992 279.961 290.166 279.835 289.088H278.603C278.757 291.048 280.185 292.07 282.103 292.07C284.217 292.07 285.309 290.838 285.309 289.27C285.309 287.814 284.511 286.946 283.335 286.666V286.596C284.399 286.358 285.127 285.448 285.127 284.286C285.127 282.83 284.049 281.682 282.075 281.682C280.199 281.682 278.883 282.69 278.757 284.426ZM288.037 292H289.325V281.878H286.693V283.04H288.037V292Z" fill="#828690"/>
<path d="M338.603 292H339.891V281.878H337.259V283.04H338.603V292Z" fill="#828690"/>
<path d="M26.6564 337.888H33.3904V336.824H28.5744C30.3804 335.354 33.0964 333.212 33.0964 330.692C33.0964 328.816 31.8644 327.696 29.9604 327.696C28.1404 327.696 26.7824 328.816 26.6984 330.972H27.9304C27.9864 329.698 28.6584 328.788 29.9744 328.788C31.3464 328.788 31.8364 329.628 31.8364 330.748C31.8364 332.82 29.3164 334.836 26.6564 336.978V337.888Z" fill="#FF5E5E"/>
<path d="M81.1242 330.426H82.3702C82.4962 329.446 83.2102 328.774 84.4002 328.774C85.6182 328.774 86.2622 329.446 86.2622 330.412C86.2622 331.588 85.3522 332.106 83.6582 332.12H83.3222V333.184H83.6442C85.4642 333.184 86.4582 333.73 86.4582 335.158C86.4582 336.194 85.8142 336.992 84.4562 336.992C83.1122 336.992 82.3282 336.166 82.2022 335.088H80.9702C81.1242 337.048 82.5522 338.07 84.4702 338.07C86.5842 338.07 87.6762 336.838 87.6762 335.27C87.6762 333.814 86.8782 332.946 85.7022 332.666V332.596C86.7662 332.358 87.4942 331.448 87.4942 330.286C87.4942 328.83 86.4162 327.682 84.4422 327.682C82.5662 327.682 81.2502 328.69 81.1242 330.426Z" fill="#828690"/>
<path d="M135.494 338H136.754V335.746H138.154V334.64H136.754V327.976H135.228L130.314 334.78V335.746H135.494V338ZM131.784 334.64L135.55 329.306V334.64H131.784Z" fill="#828690"/>
<path d="M181.024 327.864V333.576H182.228C182.564 332.778 183.306 332.246 184.328 332.246C185.798 332.246 186.54 333.086 186.54 334.528C186.54 335.914 185.854 336.95 184.314 336.95C183.124 336.95 182.298 336.32 182.06 335.256H180.814C181.066 336.894 182.284 338.028 184.3 338.028C186.666 338.028 187.758 336.46 187.758 334.5C187.758 332.932 186.974 331.154 184.51 331.154C183.516 331.154 182.62 331.602 182.2 332.176V328.984H187.114V327.864H181.024Z" fill="#828690"/>
<path d="M237.415 330.286C237.247 328.872 236.267 327.668 234.335 327.668C231.773 327.668 230.751 329.628 230.751 332.806C230.751 335.872 231.465 338.028 234.461 338.028C236.673 338.028 237.765 336.516 237.765 334.668C237.765 332.54 236.491 331.294 234.601 331.294C233.397 331.294 232.291 331.854 231.857 332.848C231.843 329.838 232.711 328.732 234.321 328.732C235.469 328.732 236.043 329.306 236.239 330.286H237.415ZM234.335 332.372C235.791 332.372 236.533 333.282 236.533 334.71C236.533 336.082 235.707 336.964 234.391 336.964C232.795 336.964 232.011 335.914 232.011 334.57C232.011 333.058 233.173 332.372 234.335 332.372Z" fill="#828690"/>
<path d="M279.969 327.906V328.998H285.373L281.425 338H282.713L286.605 328.872V327.906H279.969Z" fill="#828690"/>
<path d="M337.081 332.736C335.947 333.072 335.205 333.996 335.205 335.27C335.205 337.104 336.647 338.28 338.775 338.28C340.917 338.28 342.373 337.104 342.373 335.27C342.373 334.01 341.631 333.086 340.483 332.736C341.477 332.344 342.107 331.504 342.107 330.412C342.107 328.942 340.973 327.724 338.775 327.724C336.577 327.724 335.457 328.928 335.457 330.412C335.457 331.546 336.045 332.33 337.081 332.736ZM338.775 332.316C337.543 332.316 336.689 331.63 336.689 330.58C336.689 329.39 337.529 328.788 338.775 328.788C340.049 328.788 340.875 329.404 340.875 330.566C340.875 331.616 340.021 332.316 338.775 332.316ZM338.775 333.296C340.105 333.296 341.113 333.926 341.113 335.228C341.113 336.404 340.217 337.216 338.775 337.216C337.333 337.216 336.423 336.418 336.423 335.228C336.423 333.884 337.473 333.296 338.775 333.296Z" fill="#828690"/>
<mask id="path-58-inside-1_27_5080" fill="white">
<path d="M0 370H368V410H0V370Z"/>
</mask>
<path d="M0 371H368V369H0V371Z" fill="#444444" mask="url(#path-58-inside-1_27_5080)"/>
<path d="M24.228 384.27C25.264 384.27 26.1693 384.471 26.944 384.872C27.728 385.264 28.33 385.833 28.75 386.58C29.1793 387.317 29.394 388.181 29.394 389.17C29.394 390.159 29.1793 391.018 28.75 391.746C28.33 392.474 27.728 393.034 26.944 393.426C26.1693 393.809 25.264 394 24.228 394H21.05V384.27H24.228ZM24.228 392.698C25.3667 392.698 26.2393 392.39 26.846 391.774C27.4527 391.158 27.756 390.29 27.756 389.17C27.756 388.041 27.4527 387.159 26.846 386.524C26.2393 385.889 25.3667 385.572 24.228 385.572H22.646V392.698H24.228ZM32.5718 385.558V388.414H35.9318V389.716H32.5718V392.698H36.3518V394H30.9758V384.256H36.3518V385.558H32.5718ZM45.1216 387.168C45.1216 387.663 45.0049 388.129 44.7716 388.568C44.5382 389.007 44.1649 389.366 43.6516 389.646C43.1382 389.917 42.4802 390.052 41.6776 390.052H39.9136V394H38.3176V384.27H41.6776C42.4242 384.27 43.0542 384.401 43.5676 384.662C44.0902 384.914 44.4776 385.259 44.7296 385.698C44.9909 386.137 45.1216 386.627 45.1216 387.168ZM41.6776 388.75C42.2842 388.75 42.7369 388.615 43.0356 388.344C43.3342 388.064 43.4836 387.672 43.4836 387.168C43.4836 386.104 42.8816 385.572 41.6776 385.572H39.9136V388.75H41.6776ZM51.0818 394.098C50.1764 394.098 49.3411 393.888 48.5758 393.468C47.8198 393.039 47.2178 392.446 46.7698 391.69C46.3311 390.925 46.1118 390.066 46.1118 389.114C46.1118 388.162 46.3311 387.308 46.7698 386.552C47.2178 385.796 47.8198 385.208 48.5758 384.788C49.3411 384.359 50.1764 384.144 51.0818 384.144C51.9964 384.144 52.8318 384.359 53.5878 384.788C54.3531 385.208 54.9551 385.796 55.3938 386.552C55.8324 387.308 56.0518 388.162 56.0518 389.114C56.0518 390.066 55.8324 390.925 55.3938 391.69C54.9551 392.446 54.3531 393.039 53.5878 393.468C52.8318 393.888 51.9964 394.098 51.0818 394.098ZM51.0818 392.712C51.7258 392.712 52.2998 392.567 52.8038 392.278C53.3078 391.979 53.6998 391.559 53.9798 391.018C54.2691 390.467 54.4138 389.833 54.4138 389.114C54.4138 388.395 54.2691 387.765 53.9798 387.224C53.6998 386.683 53.3078 386.267 52.8038 385.978C52.2998 385.689 51.7258 385.544 51.0818 385.544C50.4378 385.544 49.8638 385.689 49.3598 385.978C48.8558 386.267 48.4591 386.683 48.1698 387.224C47.8898 387.765 47.7498 388.395 47.7498 389.114C47.7498 389.833 47.8898 390.467 48.1698 391.018C48.4591 391.559 48.8558 391.979 49.3598 392.278C49.8638 392.567 50.4378 392.712 51.0818 392.712ZM60.8283 394.098C60.1749 394.098 59.5869 393.986 59.0643 393.762C58.5416 393.529 58.1309 393.202 57.8323 392.782C57.5336 392.362 57.3843 391.872 57.3843 391.312H59.0923C59.1296 391.732 59.2929 392.077 59.5823 392.348C59.8809 392.619 60.2963 392.754 60.8283 392.754C61.3789 392.754 61.8083 392.623 62.1163 392.362C62.4243 392.091 62.5783 391.746 62.5783 391.326C62.5783 390.999 62.4803 390.733 62.2843 390.528C62.0976 390.323 61.8596 390.164 61.5703 390.052C61.2903 389.94 60.8983 389.819 60.3943 389.688C59.7596 389.52 59.2416 389.352 58.8403 389.184C58.4483 389.007 58.1123 388.736 57.8323 388.372C57.5523 388.008 57.4123 387.523 57.4123 386.916C57.4123 386.356 57.5523 385.866 57.8323 385.446C58.1123 385.026 58.5043 384.704 59.0083 384.48C59.5123 384.256 60.0956 384.144 60.7583 384.144C61.7009 384.144 62.4709 384.382 63.0683 384.858C63.6749 385.325 64.0109 385.969 64.0763 386.79H62.3123C62.2843 386.435 62.1163 386.132 61.8083 385.88C61.5003 385.628 61.0943 385.502 60.5903 385.502C60.1329 385.502 59.7596 385.619 59.4703 385.852C59.1809 386.085 59.0363 386.421 59.0363 386.86C59.0363 387.159 59.1249 387.406 59.3023 387.602C59.4889 387.789 59.7223 387.938 60.0023 388.05C60.2823 388.162 60.6649 388.283 61.1503 388.414C61.7943 388.591 62.3169 388.769 62.7183 388.946C63.1289 389.123 63.4743 389.399 63.7543 389.772C64.0436 390.136 64.1883 390.626 64.1883 391.242C64.1883 391.737 64.0529 392.203 63.7823 392.642C63.5209 393.081 63.1336 393.435 62.6203 393.706C62.1163 393.967 61.5189 394.098 60.8283 394.098ZM67.6675 384.27V394H66.0715V384.27H67.6675ZM76.0489 384.27V385.572H73.4589V394H71.8629V385.572H69.2589V384.27H76.0489ZM84.48 384.27C85.516 384.27 86.4213 384.471 87.196 384.872C87.98 385.264 88.582 385.833 89.002 386.58C89.4313 387.317 89.646 388.181 89.646 389.17C89.646 390.159 89.4313 391.018 89.002 391.746C88.582 392.474 87.98 393.034 87.196 393.426C86.4213 393.809 85.516 394 84.48 394H81.302V384.27H84.48ZM84.48 392.698C85.6186 392.698 86.4913 392.39 87.098 391.774C87.7046 391.158 88.008 390.29 88.008 389.17C88.008 388.041 87.7046 387.159 87.098 386.524C86.4913 385.889 85.6186 385.572 84.48 385.572H82.898V392.698H84.48ZM97.0937 392.012H93.0197L92.3197 394H90.6537L94.1397 384.256H95.9877L99.4737 394H97.7937L97.0937 392.012ZM96.6457 390.71L95.0637 386.188L93.4677 390.71H96.6457ZM107.275 384.27V385.572H104.685V394H103.089V385.572H100.485V384.27H107.275ZM110.488 385.558V388.414H113.848V389.716H110.488V392.698H114.268V394H108.892V384.256H114.268V385.558H110.488ZM119.44 394.098C118.786 394.098 118.198 393.986 117.676 393.762C117.153 393.529 116.742 393.202 116.444 392.782C116.145 392.362 115.996 391.872 115.996 391.312H117.704C117.741 391.732 117.904 392.077 118.194 392.348C118.492 392.619 118.908 392.754 119.44 392.754C119.99 392.754 120.42 392.623 120.728 392.362C121.036 392.091 121.19 391.746 121.19 391.326C121.19 390.999 121.092 390.733 120.896 390.528C120.709 390.323 120.471 390.164 120.182 390.052C119.902 389.94 119.51 389.819 119.006 389.688C118.371 389.52 117.853 389.352 117.452 389.184C117.06 389.007 116.724 388.736 116.444 388.372C116.164 388.008 116.024 387.523 116.024 386.916C116.024 386.356 116.164 385.866 116.444 385.446C116.724 385.026 117.116 384.704 117.62 384.48C118.124 384.256 118.707 384.144 119.37 384.144C120.312 384.144 121.082 384.382 121.68 384.858C122.286 385.325 122.622 385.969 122.688 386.79H120.924C120.896 386.435 120.728 386.132 120.42 385.88C120.112 385.628 119.706 385.502 119.202 385.502C118.744 385.502 118.371 385.619 118.082 385.852C117.792 386.085 117.648 386.421 117.648 386.86C117.648 387.159 117.736 387.406 117.914 387.602C118.1 387.789 118.334 387.938 118.614 388.05C118.894 388.162 119.276 388.283 119.762 388.414C120.406 388.591 120.928 388.769 121.33 388.946C121.74 389.123 122.086 389.399 122.366 389.772C122.655 390.136 122.8 390.626 122.8 391.242C122.8 391.737 122.664 392.203 122.394 392.642C122.132 393.081 121.745 393.435 121.232 393.706C120.728 393.967 120.13 394.098 119.44 394.098Z" fill="white"/>
<g clip-path="url(#clip0_27_5080)">
<mask id="path-61-inside-2_27_5080" fill="white">
<path d="M0 418H368V489H0V418Z"/>
</mask>
<path d="M368 488H0V490H368V488Z" fill="#444444" mask="url(#path-61-inside-2_27_5080)"/>
<rect y="426" width="55" height="55" rx="6" fill="#0D99FF" fill-opacity="0.1"/>
<path d="M16.293 451.8H26.173V449.48H20.273C22.593 447.52 25.853 444.88 25.853 441.5C25.853 438.96 24.273 437.1 21.133 437.1C18.513 437.1 16.373 438.64 16.273 441.98H18.993C19.013 440.44 19.753 439.48 21.093 439.48C22.473 439.48 23.053 440.36 23.053 441.66C23.053 444.34 19.593 446.92 16.293 449.72V451.8ZM27.9373 444.52C27.9373 448.78 29.2173 451.96 33.3373 451.96C37.4573 451.96 38.7373 448.78 38.7373 444.52C38.7373 440.3 37.4573 437.14 33.3373 437.14C29.2173 437.14 27.9373 440.3 27.9373 444.52ZM35.9773 444.52C35.9773 447.12 35.6973 449.36 33.3373 449.36C30.9773 449.36 30.6973 447.12 30.6973 444.52C30.6973 442.02 30.9773 439.74 33.3373 439.74C35.6973 439.74 35.9773 442.02 35.9773 444.52Z" fill="white"/>
<path d="M13.6858 469H14.9598V461.762L18.1938 469H19.0898L22.3098 461.776V469H23.5838V459.312H22.2258L18.6418 467.32L15.0578 459.312H13.6858V469ZM33.0244 465.15C33.0244 462.728 31.3304 461.202 29.1464 461.202C26.9764 461.202 25.2684 462.728 25.2684 465.15C25.2684 467.586 26.9204 469.126 29.0904 469.126C31.2744 469.126 33.0244 467.586 33.0244 465.15ZM26.5704 465.15C26.5704 463.218 27.7884 462.308 29.1324 462.308C30.4484 462.308 31.7224 463.218 31.7224 465.15C31.7224 467.096 30.4204 468.006 29.0904 468.006C27.7604 468.006 26.5704 467.096 26.5704 465.15ZM40.3135 469H41.5735V464.478C41.5735 462.28 40.2155 461.188 38.4375 461.188C37.4015 461.188 36.4775 461.622 35.9735 462.42V461.328H34.6995V469H35.9735V464.758C35.9735 463.106 36.8695 462.294 38.1715 462.294C39.4595 462.294 40.3135 463.092 40.3135 464.66V469Z" fill="#828690"/>
<path d="M67.53 437.325H64.125V447.75H67.53C70.875 447.75 73.065 445.785 73.065 442.575C73.065 439.35 70.875 437.325 67.53 437.325ZM65.835 446.355V438.72H67.53C69.99 438.72 71.31 440.19 71.31 442.575C71.31 444.945 69.99 446.355 67.53 446.355H65.835ZM78.2398 440.79C79.5148 440.79 80.5198 441.6 80.5498 442.875H75.9748C76.1548 441.57 77.0848 440.79 78.2398 440.79ZM82.1098 445.29H80.2648C79.9498 445.935 79.3648 446.445 78.3148 446.445C77.0548 446.445 76.0798 445.62 75.9598 444.255H82.2748C82.3198 443.97 82.3348 443.7 82.3348 443.415C82.3348 440.985 80.6698 439.35 78.3148 439.35C75.8698 439.35 74.1898 441.015 74.1898 443.61C74.1898 446.205 75.9448 447.885 78.3148 447.885C80.3398 447.885 81.6448 446.73 82.1098 445.29ZM83.0426 439.485L86.1776 447.75H88.2176L91.3676 439.485H89.5526L87.2126 446.22L84.8726 439.485H83.0426ZM96.1402 440.79C97.4152 440.79 98.4202 441.6 98.4502 442.875H93.8752C94.0552 441.57 94.9852 440.79 96.1402 440.79ZM100.01 445.29H98.1652C97.8502 445.935 97.2652 446.445 96.2152 446.445C94.9552 446.445 93.9802 445.62 93.8602 444.255H100.175C100.22 443.97 100.235 443.7 100.235 443.415C100.235 440.985 98.5702 439.35 96.2152 439.35C93.7702 439.35 92.0902 441.015 92.0902 443.61C92.0902 446.205 93.8452 447.885 96.2152 447.885C98.2402 447.885 99.5452 446.73 100.01 445.29ZM101.918 447.75H103.628V436.65H101.918V447.75ZM113.748 443.61C113.748 441.015 111.888 439.35 109.533 439.35C107.178 439.35 105.318 441.015 105.318 443.61C105.318 446.205 107.103 447.885 109.458 447.885C111.828 447.885 113.748 446.205 113.748 443.61ZM107.058 443.61C107.058 441.735 108.213 440.835 109.503 440.835C110.778 440.835 111.993 441.735 111.993 443.61C111.993 445.485 110.733 446.4 109.458 446.4C108.168 446.4 107.058 445.485 107.058 443.61ZM117.148 440.7V439.485H115.438V451.68H117.148V446.55C117.688 447.195 118.663 447.885 120.028 447.885C122.203 447.885 123.913 446.13 123.913 443.58C123.913 441.03 122.203 439.35 120.028 439.35C118.678 439.35 117.673 440.01 117.148 440.7ZM122.173 443.58C122.173 445.365 120.943 446.4 119.653 446.4C118.378 446.4 117.148 445.395 117.148 443.61C117.148 441.84 118.378 440.835 119.653 440.835C120.943 440.835 122.173 441.795 122.173 443.58ZM137.319 447.75H139.014V442.875C139.014 440.565 137.544 439.35 135.609 439.35C134.409 439.35 133.239 439.98 132.729 440.985C132.159 439.905 131.064 439.35 129.759 439.35C128.769 439.35 127.869 439.755 127.314 440.43V439.485H125.604V447.75H127.314V443.13C127.314 441.615 128.139 440.835 129.399 440.835C130.644 440.835 131.469 441.615 131.469 443.13V447.75H133.164V443.13C133.164 441.615 133.989 440.835 135.249 440.835C136.494 440.835 137.319 441.615 137.319 443.13V447.75ZM144.67 440.79C145.945 440.79 146.95 441.6 146.98 442.875H142.405C142.585 441.57 143.515 440.79 144.67 440.79ZM148.54 445.29H146.695C146.38 445.935 145.795 446.445 144.745 446.445C143.485 446.445 142.51 445.62 142.39 444.255H148.705C148.75 443.97 148.765 443.7 148.765 443.415C148.765 440.985 147.1 439.35 144.745 439.35C142.3 439.35 140.62 441.015 140.62 443.61C140.62 446.205 142.375 447.885 144.745 447.885C146.77 447.885 148.075 446.73 148.54 445.29ZM156.313 447.75H158.008V442.875C158.008 440.565 156.553 439.35 154.618 439.35C153.628 439.35 152.713 439.755 152.158 440.43V439.485H150.448V447.75H152.158V443.13C152.158 441.615 152.983 440.835 154.243 440.835C155.488 440.835 156.313 441.615 156.313 443.13V447.75ZM160.459 445.455C160.459 447.135 161.374 447.75 162.844 447.75H164.194V446.325H163.144C162.424 446.325 162.184 446.07 162.184 445.455V440.88H164.194V439.485H162.184V437.43H160.459V439.485H159.484V440.88H160.459V445.455ZM171.377 440.7V439.485H169.667V451.68H171.377V446.55C171.917 447.195 172.892 447.885 174.257 447.885C176.432 447.885 178.142 446.13 178.142 443.58C178.142 441.03 176.432 439.35 174.257 439.35C172.907 439.35 171.902 440.01 171.377 440.7ZM176.402 443.58C176.402 445.365 175.172 446.4 173.882 446.4C172.607 446.4 171.377 445.395 171.377 443.61C171.377 441.84 172.607 440.835 173.882 440.835C175.172 440.835 176.402 441.795 176.402 443.58ZM179.833 447.75H181.543V436.65H179.833V447.75ZM183.218 443.58C183.218 446.13 184.943 447.885 187.088 447.885C188.468 447.885 189.458 447.225 189.983 446.52V447.75H191.708V439.485H189.983V440.685C189.473 440.01 188.513 439.35 187.118 439.35C184.943 439.35 183.218 441.03 183.218 443.58ZM189.983 443.61C189.983 445.395 188.768 446.4 187.478 446.4C186.203 446.4 184.973 445.365 184.973 443.58C184.973 441.795 186.203 440.835 187.478 440.835C188.768 440.835 189.983 441.84 189.983 443.61ZM199.819 447.75H201.514V442.875C201.514 440.565 200.059 439.35 198.124 439.35C197.134 439.35 196.219 439.755 195.664 440.43V439.485H193.954V447.75H195.664V443.13C195.664 441.615 196.489 440.835 197.749 440.835C198.994 440.835 199.819 441.615 199.819 443.13V447.75ZM209.56 447.75H211.255V442.875C211.255 440.565 209.8 439.35 207.865 439.35C206.875 439.35 205.96 439.755 205.405 440.43V439.485H203.695V447.75H205.405V443.13C205.405 441.615 206.23 440.835 207.49 440.835C208.735 440.835 209.56 441.615 209.56 443.13V447.75ZM213.437 447.75H215.147V439.485H213.437V447.75ZM214.307 438.39C214.907 438.39 215.387 437.91 215.387 437.295C215.387 436.68 214.907 436.2 214.307 436.2C213.692 436.2 213.212 436.68 213.212 437.295C213.212 437.91 213.692 438.39 214.307 438.39ZM223.257 447.75H224.952V442.875C224.952 440.565 223.497 439.35 221.562 439.35C220.572 439.35 219.657 439.755 219.102 440.43V439.485H217.392V447.75H219.102V443.13C219.102 441.615 219.927 440.835 221.187 440.835C222.432 440.835 223.257 441.615 223.257 443.13V447.75ZM226.563 443.58C226.563 446.13 228.288 447.885 230.463 447.885C231.813 447.885 232.803 447.21 233.328 446.505V447.885C233.328 449.535 232.338 450.345 231.018 450.345C229.833 450.345 228.918 449.76 228.663 448.905H226.968C227.178 450.735 228.813 451.83 231.018 451.83C233.598 451.83 235.053 450.135 235.053 447.885V439.485H233.328V440.685C232.818 439.98 231.813 439.35 230.463 439.35C228.288 439.35 226.563 441.03 226.563 443.58ZM233.328 443.61C233.328 445.395 232.113 446.4 230.823 446.4C229.548 446.4 228.318 445.365 228.318 443.58C228.318 441.795 229.548 440.835 230.823 440.835C232.113 440.835 233.328 441.84 233.328 443.61Z" fill="white"/>
<path d="M73.491 462.126L71.268 469.25H70.046L68.33 463.595L66.614 469.25H65.392L63.156 462.126H64.365L66.003 468.106L67.771 462.126H68.98L70.709 468.119L72.321 462.126H73.491ZM74.4441 462.217C74.5047 461.42 74.8124 460.796 75.3671 460.345C75.9217 459.894 76.6411 459.669 77.5251 459.669C78.1144 459.669 78.6214 459.777 79.0461 459.994C79.4794 460.202 79.8044 460.488 80.0211 460.852C80.2464 461.216 80.3591 461.628 80.3591 462.087C80.3591 462.624 80.2031 463.088 79.8911 463.478C79.5877 463.868 79.1891 464.119 78.6951 464.232V464.297C79.2584 464.436 79.7047 464.709 80.0341 465.116C80.3634 465.523 80.5281 466.056 80.5281 466.715C80.5281 467.209 80.4154 467.655 80.1901 468.054C79.9647 468.444 79.6267 468.752 79.1761 468.977C78.7254 469.202 78.1837 469.315 77.5511 469.315C76.6324 469.315 75.8784 469.077 75.2891 468.6C74.6997 468.115 74.3704 467.43 74.3011 466.546H75.4451C75.5057 467.066 75.7181 467.491 76.0821 467.82C76.4461 468.149 76.9314 468.314 77.5381 468.314C78.1447 468.314 78.6041 468.158 78.9161 467.846C79.2367 467.525 79.3971 467.114 79.3971 466.611C79.3971 465.961 79.1804 465.493 78.7471 465.207C78.3137 464.921 77.6594 464.778 76.7841 464.778H76.4851V463.79H76.7971C77.5944 463.781 78.1967 463.651 78.6041 463.4C79.0114 463.14 79.2151 462.741 79.2151 462.204C79.2151 461.745 79.0634 461.376 78.7601 461.099C78.4654 460.822 78.0407 460.683 77.4861 460.683C76.9487 460.683 76.5154 460.822 76.1861 461.099C75.8567 461.376 75.6617 461.749 75.6011 462.217H74.4441ZM82.9313 460.969C82.706 460.969 82.5153 460.891 82.3593 460.735C82.2033 460.579 82.1253 460.388 82.1253 460.163C82.1253 459.938 82.2033 459.747 82.3593 459.591C82.5153 459.435 82.706 459.357 82.9313 459.357C83.148 459.357 83.33 459.435 83.4773 459.591C83.6333 459.747 83.7113 459.938 83.7113 460.163C83.7113 460.388 83.6333 460.579 83.4773 460.735C83.33 460.891 83.148 460.969 82.9313 460.969ZM83.5033 462.126V469.25H82.3203V462.126H83.5033ZM86.9626 463.101V467.3C86.9626 467.647 87.0362 467.894 87.1836 468.041C87.3309 468.18 87.5866 468.249 87.9506 468.249H88.8216V469.25H87.7556C87.0969 469.25 86.6029 469.098 86.2736 468.795C85.9442 468.492 85.7796 467.993 85.7796 467.3V463.101H84.8566V462.126H85.7796V460.332H86.9626V462.126H88.8216V463.101H86.9626ZM99.2977 460.189V461.151H96.8277V469.25H95.6447V461.151H93.1617V460.189H99.2977ZM107.254 465.415C107.254 465.64 107.241 465.879 107.215 466.13H101.521C101.564 466.832 101.803 467.382 102.236 467.781C102.678 468.171 103.211 468.366 103.835 468.366C104.346 468.366 104.771 468.249 105.109 468.015C105.456 467.772 105.698 467.452 105.837 467.053H107.111C106.92 467.738 106.539 468.297 105.967 468.73C105.395 469.155 104.684 469.367 103.835 469.367C103.159 469.367 102.552 469.215 102.015 468.912C101.486 468.609 101.07 468.18 100.767 467.625C100.464 467.062 100.312 466.412 100.312 465.675C100.312 464.938 100.459 464.293 100.754 463.738C101.049 463.183 101.46 462.759 101.989 462.464C102.526 462.161 103.142 462.009 103.835 462.009C104.511 462.009 105.109 462.156 105.629 462.451C106.149 462.746 106.548 463.153 106.825 463.673C107.111 464.184 107.254 464.765 107.254 465.415ZM106.032 465.168C106.032 464.717 105.932 464.332 105.733 464.011C105.534 463.682 105.261 463.435 104.914 463.27C104.576 463.097 104.199 463.01 103.783 463.01C103.185 463.01 102.674 463.201 102.249 463.582C101.833 463.963 101.595 464.492 101.534 465.168H106.032ZM108.373 465.675C108.373 464.938 108.521 464.297 108.815 463.751C109.11 463.196 109.517 462.767 110.037 462.464C110.566 462.161 111.168 462.009 111.844 462.009C112.72 462.009 113.439 462.221 114.002 462.646C114.574 463.071 114.951 463.66 115.133 464.414H113.859C113.738 463.981 113.5 463.638 113.144 463.387C112.798 463.136 112.364 463.01 111.844 463.01C111.168 463.01 110.622 463.244 110.206 463.712C109.79 464.171 109.582 464.826 109.582 465.675C109.582 466.533 109.79 467.196 110.206 467.664C110.622 468.132 111.168 468.366 111.844 468.366C112.364 468.366 112.798 468.245 113.144 468.002C113.491 467.759 113.729 467.413 113.859 466.962H115.133C114.943 467.69 114.561 468.275 113.989 468.717C113.417 469.15 112.702 469.367 111.844 469.367C111.168 469.367 110.566 469.215 110.037 468.912C109.517 468.609 109.11 468.18 108.815 467.625C108.521 467.07 108.373 466.42 108.373 465.675ZM120.248 461.996C120.785 461.996 121.271 462.113 121.704 462.347C122.137 462.572 122.475 462.915 122.718 463.374C122.969 463.833 123.095 464.392 123.095 465.051V469.25H121.925V465.22C121.925 464.509 121.747 463.968 121.392 463.595C121.037 463.214 120.551 463.023 119.936 463.023C119.312 463.023 118.814 463.218 118.441 463.608C118.077 463.998 117.895 464.566 117.895 465.311V469.25H116.712V459.63H117.895V463.14C118.129 462.776 118.45 462.494 118.857 462.295C119.273 462.096 119.737 461.996 120.248 461.996ZM128.498 461.996C129.365 461.996 130.067 462.26 130.604 462.789C131.142 463.309 131.41 464.063 131.41 465.051V469.25H130.24V465.22C130.24 464.509 130.063 463.968 129.707 463.595C129.352 463.214 128.867 463.023 128.251 463.023C127.627 463.023 127.129 463.218 126.756 463.608C126.392 463.998 126.21 464.566 126.21 465.311V469.25H125.027V462.126H126.21V463.14C126.444 462.776 126.761 462.494 127.159 462.295C127.567 462.096 128.013 461.996 128.498 461.996ZM136.45 469.367C135.782 469.367 135.176 469.215 134.63 468.912C134.092 468.609 133.668 468.18 133.356 467.625C133.052 467.062 132.901 466.412 132.901 465.675C132.901 464.947 133.057 464.306 133.369 463.751C133.689 463.188 134.123 462.759 134.669 462.464C135.215 462.161 135.826 462.009 136.502 462.009C137.178 462.009 137.789 462.161 138.335 462.464C138.881 462.759 139.31 463.183 139.622 463.738C139.942 464.293 140.103 464.938 140.103 465.675C140.103 466.412 139.938 467.062 139.609 467.625C139.288 468.18 138.85 468.609 138.296 468.912C137.741 469.215 137.126 469.367 136.45 469.367ZM136.45 468.327C136.874 468.327 137.273 468.227 137.646 468.028C138.018 467.829 138.317 467.53 138.543 467.131C138.777 466.732 138.894 466.247 138.894 465.675C138.894 465.103 138.781 464.618 138.556 464.219C138.33 463.82 138.036 463.526 137.672 463.335C137.308 463.136 136.913 463.036 136.489 463.036C136.055 463.036 135.657 463.136 135.293 463.335C134.937 463.526 134.651 463.82 134.435 464.219C134.218 464.618 134.11 465.103 134.11 465.675C134.11 466.256 134.214 466.745 134.422 467.144C134.638 467.543 134.924 467.842 135.28 468.041C135.635 468.232 136.025 468.327 136.45 468.327ZM142.841 459.63V469.25H141.658V459.63H142.841ZM147.964 469.367C147.297 469.367 146.69 469.215 146.144 468.912C145.607 468.609 145.182 468.18 144.87 467.625C144.567 467.062 144.415 466.412 144.415 465.675C144.415 464.947 144.571 464.306 144.883 463.751C145.204 463.188 145.637 462.759 146.183 462.464C146.729 462.161 147.34 462.009 148.016 462.009C148.692 462.009 149.303 462.161 149.849 462.464C150.395 462.759 150.824 463.183 151.136 463.738C151.457 464.293 151.617 464.938 151.617 465.675C151.617 466.412 151.453 467.062 151.123 467.625C150.803 468.18 150.365 468.609 149.81 468.912C149.256 469.215 148.64 469.367 147.964 469.367ZM147.964 468.327C148.389 468.327 148.788 468.227 149.16 468.028C149.533 467.829 149.832 467.53 150.057 467.131C150.291 466.732 150.408 466.247 150.408 465.675C150.408 465.103 150.296 464.618 150.07 464.219C149.845 463.82 149.55 463.526 149.186 463.335C148.822 463.136 148.428 463.036 148.003 463.036C147.57 463.036 147.171 463.136 146.807 463.335C146.452 463.526 146.166 463.82 145.949 464.219C145.733 464.618 145.624 465.103 145.624 465.675C145.624 466.256 145.728 466.745 145.936 467.144C146.153 467.543 146.439 467.842 146.794 468.041C147.15 468.232 147.54 468.327 147.964 468.327ZM156.111 462.009C156.726 462.009 157.264 462.143 157.723 462.412C158.191 462.681 158.538 463.019 158.763 463.426V462.126H159.959V469.406C159.959 470.056 159.82 470.632 159.543 471.135C159.266 471.646 158.867 472.045 158.347 472.331C157.836 472.617 157.238 472.76 156.553 472.76C155.617 472.76 154.837 472.539 154.213 472.097C153.589 471.655 153.221 471.053 153.108 470.29H154.278C154.408 470.723 154.677 471.07 155.084 471.33C155.491 471.599 155.981 471.733 156.553 471.733C157.203 471.733 157.732 471.529 158.139 471.122C158.555 470.715 158.763 470.143 158.763 469.406V467.911C158.529 468.327 158.182 468.674 157.723 468.951C157.264 469.228 156.726 469.367 156.111 469.367C155.478 469.367 154.902 469.211 154.382 468.899C153.871 468.587 153.468 468.149 153.173 467.586C152.878 467.023 152.731 466.381 152.731 465.662C152.731 464.934 152.878 464.297 153.173 463.751C153.468 463.196 153.871 462.767 154.382 462.464C154.902 462.161 155.478 462.009 156.111 462.009ZM158.763 465.675C158.763 465.138 158.655 464.67 158.438 464.271C158.221 463.872 157.927 463.569 157.554 463.361C157.19 463.144 156.787 463.036 156.345 463.036C155.903 463.036 155.5 463.14 155.136 463.348C154.772 463.556 154.482 463.859 154.265 464.258C154.048 464.657 153.94 465.125 153.94 465.662C153.94 466.208 154.048 466.685 154.265 467.092C154.482 467.491 154.772 467.798 155.136 468.015C155.5 468.223 155.903 468.327 156.345 468.327C156.787 468.327 157.19 468.223 157.554 468.015C157.927 467.798 158.221 467.491 158.438 467.092C158.655 466.685 158.763 466.212 158.763 465.675ZM162.569 460.969C162.344 460.969 162.153 460.891 161.997 460.735C161.841 460.579 161.763 460.388 161.763 460.163C161.763 459.938 161.841 459.747 161.997 459.591C162.153 459.435 162.344 459.357 162.569 459.357C162.786 459.357 162.968 459.435 163.115 459.591C163.271 459.747 163.349 459.938 163.349 460.163C163.349 460.388 163.271 460.579 163.115 460.735C162.968 460.891 162.786 460.969 162.569 460.969ZM163.141 462.126V469.25H161.958V462.126H163.141ZM171.657 465.415C171.657 465.64 171.644 465.879 171.618 466.13H165.924C165.968 466.832 166.206 467.382 166.639 467.781C167.081 468.171 167.614 468.366 168.238 468.366C168.75 468.366 169.174 468.249 169.512 468.015C169.859 467.772 170.102 467.452 170.24 467.053H171.514C171.324 467.738 170.942 468.297 170.37 468.73C169.798 469.155 169.088 469.367 168.238 469.367C167.562 469.367 166.956 469.215 166.418 468.912C165.89 468.609 165.474 468.18 165.17 467.625C164.867 467.062 164.715 466.412 164.715 465.675C164.715 464.938 164.863 464.293 165.157 463.738C165.452 463.183 165.864 462.759 166.392 462.464C166.93 462.161 167.545 462.009 168.238 462.009C168.914 462.009 169.512 462.156 170.032 462.451C170.552 462.746 170.951 463.153 171.228 463.673C171.514 464.184 171.657 464.765 171.657 465.415ZM170.435 465.168C170.435 464.717 170.336 464.332 170.136 464.011C169.937 463.682 169.664 463.435 169.317 463.27C168.979 463.097 168.602 463.01 168.186 463.01C167.588 463.01 167.077 463.201 166.652 463.582C166.236 463.963 165.998 464.492 165.937 465.168H170.435ZM175.741 469.367C175.195 469.367 174.705 469.276 174.272 469.094C173.838 468.903 173.496 468.643 173.245 468.314C172.993 467.976 172.855 467.59 172.829 467.157H174.051C174.085 467.512 174.25 467.803 174.545 468.028C174.848 468.253 175.242 468.366 175.728 468.366C176.178 468.366 176.534 468.266 176.794 468.067C177.054 467.868 177.184 467.616 177.184 467.313C177.184 467.001 177.045 466.771 176.768 466.624C176.49 466.468 176.061 466.316 175.481 466.169C174.952 466.03 174.519 465.892 174.181 465.753C173.851 465.606 173.565 465.393 173.323 465.116C173.089 464.83 172.972 464.457 172.972 463.998C172.972 463.634 173.08 463.3 173.297 462.997C173.513 462.694 173.821 462.455 174.22 462.282C174.618 462.1 175.073 462.009 175.585 462.009C176.373 462.009 177.01 462.208 177.496 462.607C177.981 463.006 178.241 463.552 178.276 464.245H177.093C177.067 463.872 176.915 463.573 176.638 463.348C176.369 463.123 176.005 463.01 175.546 463.01C175.121 463.01 174.783 463.101 174.532 463.283C174.28 463.465 174.155 463.703 174.155 463.998C174.155 464.232 174.228 464.427 174.376 464.583C174.532 464.73 174.722 464.852 174.948 464.947C175.182 465.034 175.502 465.133 175.91 465.246C176.421 465.385 176.837 465.523 177.158 465.662C177.478 465.792 177.751 465.991 177.977 466.26C178.211 466.529 178.332 466.88 178.341 467.313C178.341 467.703 178.232 468.054 178.016 468.366C177.799 468.678 177.491 468.925 177.093 469.107C176.703 469.28 176.252 469.367 175.741 469.367Z" fill="#828690"/>
<path d="M312.876 463H314.164V452.878H311.532V454.04H312.876V463ZM316.198 462.888H322.932V461.824H318.116C319.922 460.354 322.638 458.212 322.638 455.692C322.638 453.816 321.406 452.696 319.502 452.696C317.682 452.696 316.324 453.816 316.24 455.972H317.472C317.528 454.698 318.2 453.788 319.516 453.788C320.888 453.788 321.378 454.628 321.378 455.748C321.378 457.82 318.858 459.836 316.198 461.978V462.888ZM325.861 462.216C325.861 461.726 325.483 461.348 325.021 461.348C324.531 461.348 324.153 461.726 324.153 462.216C324.153 462.706 324.531 463.084 325.021 463.084C325.483 463.084 325.861 462.706 325.861 462.216ZM325.861 456.224C325.861 455.734 325.483 455.356 325.021 455.356C324.531 455.356 324.153 455.734 324.153 456.224C324.153 456.714 324.531 457.092 325.021 457.092C325.483 457.092 325.861 456.714 325.861 456.224ZM327.386 457.834C327.386 460.774 328.114 463 330.914 463C333.7 463 334.428 460.774 334.428 457.834C334.428 454.936 333.7 452.724 330.914 452.724C328.114 452.724 327.386 454.936 327.386 457.834ZM333.168 457.834C333.168 460.018 332.902 461.838 330.914 461.838C328.912 461.838 328.646 460.018 328.646 457.834C328.646 455.734 328.912 453.886 330.914 453.886C332.902 453.886 333.168 455.734 333.168 457.834ZM336.541 452.864V458.576H337.745C338.081 457.778 338.823 457.246 339.845 457.246C341.315 457.246 342.057 458.086 342.057 459.528C342.057 460.914 341.371 461.95 339.831 461.95C338.641 461.95 337.815 461.32 337.577 460.256H336.331C336.583 461.894 337.801 463.028 339.817 463.028C342.183 463.028 343.275 461.46 343.275 459.5C343.275 457.932 342.491 456.154 340.027 456.154C339.033 456.154 338.137 456.602 337.717 457.176V453.984H342.631V452.864H336.541ZM350.184 457.876V454.292H352.06C353.516 454.292 354.132 454.964 354.132 456.098C354.132 457.19 353.516 457.876 352.06 457.876H350.184ZM355.434 456.098C355.434 454.502 354.356 453.242 352.06 453.242H348.91V463H350.184V458.926H352.06C354.482 458.926 355.434 457.582 355.434 456.098ZM357.017 463H358.291V455.762L361.525 463H362.421L365.641 455.776V463H366.915V453.312H365.557L361.973 461.32L358.389 453.312H357.017V463Z" fill="white"/>
<mask id="path-69-inside-3_27_5080" fill="white">
<path d="M0 494H368V570H0V494Z"/>
</mask>
<path d="M368 569H0V571H368V569Z" fill="#444444" mask="url(#path-69-inside-3_27_5080)"/>
<rect y="504" width="55" height="55" rx="6" fill="#0D99FF" fill-opacity="0.1"/>
<path d="M17.4013 526.84C18.6813 525.773 19.7013 524.887 20.4613 524.18C21.2213 523.46 21.8547 522.713 22.3613 521.94C22.868 521.167 23.1213 520.407 23.1213 519.66C23.1213 518.98 22.9613 518.447 22.6413 518.06C22.3213 517.673 21.828 517.48 21.1613 517.48C20.4947 517.48 19.9813 517.707 19.6213 518.16C19.2613 518.6 19.0747 519.207 19.0613 519.98H16.3413C16.3947 518.38 16.868 517.167 17.7613 516.34C18.668 515.513 19.8147 515.1 21.2013 515.1C22.7213 515.1 23.888 515.507 24.7013 516.32C25.5147 517.12 25.9213 518.18 25.9213 519.5C25.9213 520.54 25.6413 521.533 25.0813 522.48C24.5213 523.427 23.8813 524.253 23.1613 524.96C22.4413 525.653 21.5013 526.493 20.3413 527.48H26.2413V529.8H16.3613V527.72L17.4013 526.84ZM35.5657 519.06C35.4324 518.5 35.199 518.08 34.8657 517.8C34.5457 517.52 34.079 517.38 33.4657 517.38C32.5457 517.38 31.8657 517.753 31.4257 518.5C30.999 519.233 30.779 520.433 30.7657 522.1C31.0857 521.567 31.5524 521.153 32.1657 520.86C32.779 520.553 33.4457 520.4 34.1657 520.4C35.0324 520.4 35.799 520.587 36.4657 520.96C37.1324 521.333 37.6524 521.88 38.0257 522.6C38.399 523.307 38.5857 524.16 38.5857 525.16C38.5857 526.107 38.3924 526.953 38.0057 527.7C37.6324 528.433 37.079 529.007 36.3457 529.42C35.6124 529.833 34.739 530.04 33.7257 530.04C32.339 530.04 31.2457 529.733 30.4457 529.12C29.659 528.507 29.1057 527.653 28.7857 526.56C28.479 525.453 28.3257 524.093 28.3257 522.48C28.3257 520.04 28.7457 518.2 29.5857 516.96C30.4257 515.707 31.7524 515.08 33.5657 515.08C34.9657 515.08 36.0524 515.46 36.8257 516.22C37.599 516.98 38.0457 517.927 38.1657 519.06H35.5657ZM33.5257 522.7C32.819 522.7 32.2257 522.907 31.7457 523.32C31.2657 523.733 31.0257 524.333 31.0257 525.12C31.0257 525.907 31.2457 526.527 31.6857 526.98C32.139 527.433 32.7724 527.66 33.5857 527.66C34.3057 527.66 34.8724 527.44 35.2857 527C35.7124 526.56 35.9257 525.967 35.9257 525.22C35.9257 524.447 35.719 523.833 35.3057 523.38C34.9057 522.927 34.3124 522.7 33.5257 522.7Z" fill="white"/>
<path d="M20.3755 547.098C19.7315 547.098 19.1528 546.986 18.6395 546.762C18.1355 546.529 17.7388 546.211 17.4495 545.81C17.1602 545.399 17.0108 544.928 17.0015 544.396H18.3595C18.4062 544.853 18.5928 545.241 18.9195 545.558C19.2555 545.866 19.7408 546.02 20.3755 546.02C20.9822 546.02 21.4582 545.871 21.8035 545.572C22.1582 545.264 22.3355 544.872 22.3355 544.396C22.3355 544.023 22.2328 543.719 22.0275 543.486C21.8222 543.253 21.5655 543.075 21.2575 542.954C20.9495 542.833 20.5342 542.702 20.0115 542.562C19.3675 542.394 18.8495 542.226 18.4575 542.058C18.0748 541.89 17.7435 541.629 17.4635 541.274C17.1928 540.91 17.0575 540.425 17.0575 539.818C17.0575 539.286 17.1928 538.815 17.4635 538.404C17.7342 537.993 18.1122 537.676 18.5975 537.452C19.0922 537.228 19.6568 537.116 20.2915 537.116C21.2062 537.116 21.9528 537.345 22.5315 537.802C23.1195 538.259 23.4508 538.866 23.5255 539.622H22.1255C22.0788 539.249 21.8828 538.922 21.5375 538.642C21.1922 538.353 20.7348 538.208 20.1655 538.208C19.6335 538.208 19.1995 538.348 18.8635 538.628C18.5275 538.899 18.3595 539.281 18.3595 539.776C18.3595 540.131 18.4575 540.42 18.6535 540.644C18.8588 540.868 19.1062 541.041 19.3955 541.162C19.6942 541.274 20.1095 541.405 20.6415 541.554C21.2855 541.731 21.8035 541.909 22.1955 542.086C22.5875 542.254 22.9235 542.52 23.2035 542.884C23.4835 543.239 23.6235 543.724 23.6235 544.34C23.6235 544.816 23.4975 545.264 23.2455 545.684C22.9935 546.104 22.6202 546.445 22.1255 546.706C21.6308 546.967 21.0475 547.098 20.3755 547.098ZM25.0223 543.136C25.0223 542.352 25.181 541.666 25.4983 541.078C25.8156 540.481 26.2496 540.019 26.8003 539.692C27.3603 539.365 27.981 539.202 28.6623 539.202C29.3343 539.202 29.9176 539.347 30.4123 539.636C30.907 539.925 31.2756 540.289 31.5183 540.728V539.328H32.8063V547H31.5183V545.572C31.2663 546.02 30.8883 546.393 30.3843 546.692C29.8896 546.981 29.311 547.126 28.6483 547.126C27.967 547.126 27.351 546.958 26.8003 546.622C26.2496 546.286 25.8156 545.815 25.4983 545.208C25.181 544.601 25.0223 543.911 25.0223 543.136ZM31.5183 543.15C31.5183 542.571 31.4016 542.067 31.1683 541.638C30.935 541.209 30.6176 540.882 30.2163 540.658C29.8243 540.425 29.3903 540.308 28.9143 540.308C28.4383 540.308 28.0043 540.42 27.6123 540.644C27.2203 540.868 26.9076 541.195 26.6743 541.624C26.441 542.053 26.3243 542.557 26.3243 543.136C26.3243 543.724 26.441 544.237 26.6743 544.676C26.9076 545.105 27.2203 545.437 27.6123 545.67C28.0043 545.894 28.4383 546.006 28.9143 546.006C29.3903 546.006 29.8243 545.894 30.2163 545.67C30.6176 545.437 30.935 545.105 31.1683 544.676C31.4016 544.237 31.5183 543.729 31.5183 543.15ZM36.5133 540.378V544.9C36.5133 545.273 36.5926 545.539 36.7513 545.698C36.9099 545.847 37.1853 545.922 37.5773 545.922H38.5153V547H37.3673C36.6579 547 36.1259 546.837 35.7713 546.51C35.4166 546.183 35.2393 545.647 35.2393 544.9V540.378H34.2453V539.328H35.2393V537.396H36.5133V539.328H38.5153V540.378H36.5133Z" fill="#828690"/>
<path d="M67.53 515.325H64.125V525.75H67.53C70.875 525.75 73.065 523.785 73.065 520.575C73.065 517.35 70.875 515.325 67.53 515.325ZM65.835 524.355V516.72H67.53C69.99 516.72 71.31 518.19 71.31 520.575C71.31 522.945 69.99 524.355 67.53 524.355H65.835ZM78.2398 518.79C79.5148 518.79 80.5198 519.6 80.5498 520.875H75.9748C76.1548 519.57 77.0848 518.79 78.2398 518.79ZM82.1098 523.29H80.2648C79.9498 523.935 79.3648 524.445 78.3148 524.445C77.0548 524.445 76.0798 523.62 75.9598 522.255H82.2748C82.3198 521.97 82.3348 521.7 82.3348 521.415C82.3348 518.985 80.6698 517.35 78.3148 517.35C75.8698 517.35 74.1898 519.015 74.1898 521.61C74.1898 524.205 75.9448 525.885 78.3148 525.885C80.3398 525.885 81.6448 524.73 82.1098 523.29ZM83.0426 517.485L86.1776 525.75H88.2176L91.3676 517.485H89.5526L87.2126 524.22L84.8726 517.485H83.0426ZM96.1402 518.79C97.4152 518.79 98.4202 519.6 98.4502 520.875H93.8752C94.0552 519.57 94.9852 518.79 96.1402 518.79ZM100.01 523.29H98.1652C97.8502 523.935 97.2652 524.445 96.2152 524.445C94.9552 524.445 93.9802 523.62 93.8602 522.255H100.175C100.22 521.97 100.235 521.7 100.235 521.415C100.235 518.985 98.5702 517.35 96.2152 517.35C93.7702 517.35 92.0902 519.015 92.0902 521.61C92.0902 524.205 93.8452 525.885 96.2152 525.885C98.2402 525.885 99.5452 524.73 100.01 523.29ZM101.918 525.75H103.628V514.65H101.918V525.75ZM113.748 521.61C113.748 519.015 111.888 517.35 109.533 517.35C107.178 517.35 105.318 519.015 105.318 521.61C105.318 524.205 107.103 525.885 109.458 525.885C111.828 525.885 113.748 524.205 113.748 521.61ZM107.058 521.61C107.058 519.735 108.213 518.835 109.503 518.835C110.778 518.835 111.993 519.735 111.993 521.61C111.993 523.485 110.733 524.4 109.458 524.4C108.168 524.4 107.058 523.485 107.058 521.61ZM117.148 518.7V517.485H115.438V529.68H117.148V524.55C117.688 525.195 118.663 525.885 120.028 525.885C122.203 525.885 123.913 524.13 123.913 521.58C123.913 519.03 122.203 517.35 120.028 517.35C118.678 517.35 117.673 518.01 117.148 518.7ZM122.173 521.58C122.173 523.365 120.943 524.4 119.653 524.4C118.378 524.4 117.148 523.395 117.148 521.61C117.148 519.84 118.378 518.835 119.653 518.835C120.943 518.835 122.173 519.795 122.173 521.58ZM137.319 525.75H139.014V520.875C139.014 518.565 137.544 517.35 135.609 517.35C134.409 517.35 133.239 517.98 132.729 518.985C132.159 517.905 131.064 517.35 129.759 517.35C128.769 517.35 127.869 517.755 127.314 518.43V517.485H125.604V525.75H127.314V521.13C127.314 519.615 128.139 518.835 129.399 518.835C130.644 518.835 131.469 519.615 131.469 521.13V525.75H133.164V521.13C133.164 519.615 133.989 518.835 135.249 518.835C136.494 518.835 137.319 519.615 137.319 521.13V525.75ZM144.67 518.79C145.945 518.79 146.95 519.6 146.98 520.875H142.405C142.585 519.57 143.515 518.79 144.67 518.79ZM148.54 523.29H146.695C146.38 523.935 145.795 524.445 144.745 524.445C143.485 524.445 142.51 523.62 142.39 522.255H148.705C148.75 521.97 148.765 521.7 148.765 521.415C148.765 518.985 147.1 517.35 144.745 517.35C142.3 517.35 140.62 519.015 140.62 521.61C140.62 524.205 142.375 525.885 144.745 525.885C146.77 525.885 148.075 524.73 148.54 523.29ZM156.313 525.75H158.008V520.875C158.008 518.565 156.553 517.35 154.618 517.35C153.628 517.35 152.713 517.755 152.158 518.43V517.485H150.448V525.75H152.158V521.13C152.158 519.615 152.983 518.835 154.243 518.835C155.488 518.835 156.313 519.615 156.313 521.13V525.75ZM160.459 523.455C160.459 525.135 161.374 525.75 162.844 525.75H164.194V524.325H163.144C162.424 524.325 162.184 524.07 162.184 523.455V518.88H164.194V517.485H162.184V515.43H160.459V517.485H159.484V518.88H160.459V523.455ZM171.377 518.7V517.485H169.667V529.68H171.377V524.55C171.917 525.195 172.892 525.885 174.257 525.885C176.432 525.885 178.142 524.13 178.142 521.58C178.142 519.03 176.432 517.35 174.257 517.35C172.907 517.35 171.902 518.01 171.377 518.7ZM176.402 521.58C176.402 523.365 175.172 524.4 173.882 524.4C172.607 524.4 171.377 523.395 171.377 521.61C171.377 519.84 172.607 518.835 173.882 518.835C175.172 518.835 176.402 519.795 176.402 521.58ZM179.833 525.75H181.543V514.65H179.833V525.75ZM183.218 521.58C183.218 524.13 184.943 525.885 187.088 525.885C188.468 525.885 189.458 525.225 189.983 524.52V525.75H191.708V517.485H189.983V518.685C189.473 518.01 188.513 517.35 187.118 517.35C184.943 517.35 183.218 519.03 183.218 521.58ZM189.983 521.61C189.983 523.395 188.768 524.4 187.478 524.4C186.203 524.4 184.973 523.365 184.973 521.58C184.973 519.795 186.203 518.835 187.478 518.835C188.768 518.835 189.983 519.84 189.983 521.61ZM199.819 525.75H201.514V520.875C201.514 518.565 200.059 517.35 198.124 517.35C197.134 517.35 196.219 517.755 195.664 518.43V517.485H193.954V525.75H195.664V521.13C195.664 519.615 196.489 518.835 197.749 518.835C198.994 518.835 199.819 519.615 199.819 521.13V525.75ZM209.56 525.75H211.255V520.875C211.255 518.565 209.8 517.35 207.865 517.35C206.875 517.35 205.96 517.755 205.405 518.43V517.485H203.695V525.75H205.405V521.13C205.405 519.615 206.23 518.835 207.49 518.835C208.735 518.835 209.56 519.615 209.56 521.13V525.75ZM213.437 525.75H215.147V517.485H213.437V525.75ZM214.307 516.39C214.907 516.39 215.387 515.91 215.387 515.295C215.387 514.68 214.907 514.2 214.307 514.2C213.692 514.2 213.212 514.68 213.212 515.295C213.212 515.91 213.692 516.39 214.307 516.39ZM223.257 525.75H224.952V520.875C224.952 518.565 223.497 517.35 221.562 517.35C220.572 517.35 219.657 517.755 219.102 518.43V517.485H217.392V525.75H219.102V521.13C219.102 519.615 219.927 518.835 221.187 518.835C222.432 518.835 223.257 519.615 223.257 521.13V525.75ZM226.563 521.58C226.563 524.13 228.288 525.885 230.463 525.885C231.813 525.885 232.803 525.21 233.328 524.505V525.885C233.328 527.535 232.338 528.345 231.018 528.345C229.833 528.345 228.918 527.76 228.663 526.905H226.968C227.178 528.735 228.813 529.83 231.018 529.83C233.598 529.83 235.053 528.135 235.053 525.885V517.485H233.328V518.685C232.818 517.98 231.813 517.35 230.463 517.35C228.288 517.35 226.563 519.03 226.563 521.58ZM233.328 521.61C233.328 523.395 232.113 524.4 230.823 524.4C229.548 524.4 228.318 523.365 228.318 521.58C228.318 519.795 229.548 518.835 230.823 518.835C232.113 518.835 233.328 519.84 233.328 521.61Z" fill="white"/>
<path d="M65.392 547.25H66.614L68.33 541.595L70.046 547.25H71.268L73.491 540.126H72.321L70.709 546.119L68.98 540.126H67.771L66.003 546.106L64.365 540.126H63.156L65.392 547.25ZM74.4441 540.217H75.6011C75.7181 539.307 76.3811 538.683 77.4861 538.683C78.6171 538.683 79.2151 539.307 79.2151 540.204C79.2151 541.296 78.3701 541.777 76.7971 541.79H76.4851V542.778H76.7841C78.4741 542.778 79.3971 543.285 79.3971 544.611C79.3971 545.573 78.7991 546.314 77.5381 546.314C76.2901 546.314 75.5621 545.547 75.4451 544.546H74.3011C74.4441 546.366 75.7701 547.315 77.5511 547.315C79.5141 547.315 80.5281 546.171 80.5281 544.715C80.5281 543.363 79.7871 542.557 78.6951 542.297V542.232C79.6831 542.011 80.3591 541.166 80.3591 540.087C80.3591 538.735 79.3581 537.669 77.5251 537.669C75.7831 537.669 74.5611 538.605 74.4441 540.217ZM82.3203 547.25H83.5033V540.126H82.3203V547.25ZM82.9313 538.969C83.3603 538.969 83.7113 538.618 83.7113 538.163C83.7113 537.708 83.3603 537.357 82.9313 537.357C82.4763 537.357 82.1253 537.708 82.1253 538.163C82.1253 538.618 82.4763 538.969 82.9313 538.969ZM85.7796 545.3C85.7796 546.73 86.4946 547.25 87.7556 547.25H88.8216V546.249H87.9506C87.2226 546.249 86.9626 546.002 86.9626 545.3V541.101H88.8216V540.126H86.9626V538.332H85.7796V540.126H84.8566V541.101H85.7796V545.3ZM93.1617 539.151H95.6447V547.25H96.8277V539.151H99.2977V538.189H93.1617V539.151ZM103.783 541.01C105.005 541.01 106.045 541.777 106.032 543.168H101.534C101.664 541.777 102.626 541.01 103.783 541.01ZM107.111 545.053H105.837C105.577 545.82 104.901 546.366 103.835 546.366C102.626 546.366 101.612 545.573 101.521 544.13H107.215C107.241 543.883 107.254 543.675 107.254 543.415C107.254 541.465 105.902 540.009 103.835 540.009C101.755 540.009 100.312 541.426 100.312 543.675C100.312 545.937 101.807 547.367 103.835 547.367C105.603 547.367 106.747 546.353 107.111 545.053ZM108.373 543.675C108.373 545.937 109.816 547.367 111.844 547.367C113.612 547.367 114.769 546.379 115.133 544.962H113.859C113.599 545.859 112.897 546.366 111.844 546.366C110.544 546.366 109.582 545.443 109.582 543.675C109.582 541.933 110.544 541.01 111.844 541.01C112.897 541.01 113.612 541.556 113.859 542.414H115.133C114.769 540.919 113.612 540.009 111.844 540.009C109.816 540.009 108.373 541.439 108.373 543.675ZM116.712 547.25H117.895V543.311C117.895 541.777 118.727 541.023 119.936 541.023C121.132 541.023 121.925 541.764 121.925 543.22V547.25H123.095V543.051C123.095 541.01 121.834 539.996 120.248 539.996C119.247 539.996 118.363 540.399 117.895 541.153V537.63H116.712V547.25ZM130.24 547.25H131.41V543.051C131.41 541.01 130.149 539.996 128.498 539.996C127.536 539.996 126.678 540.399 126.21 541.14V540.126H125.027V547.25H126.21V543.311C126.21 541.777 127.042 541.023 128.251 541.023C129.447 541.023 130.24 541.764 130.24 543.22V547.25ZM140.103 543.675C140.103 541.426 138.53 540.009 136.502 540.009C134.487 540.009 132.901 541.426 132.901 543.675C132.901 545.937 134.435 547.367 136.45 547.367C138.478 547.367 140.103 545.937 140.103 543.675ZM134.11 543.675C134.11 541.881 135.241 541.036 136.489 541.036C137.711 541.036 138.894 541.881 138.894 543.675C138.894 545.482 137.685 546.327 136.45 546.327C135.215 546.327 134.11 545.482 134.11 543.675ZM141.658 547.25H142.841V537.63H141.658V547.25ZM151.617 543.675C151.617 541.426 150.044 540.009 148.016 540.009C146.001 540.009 144.415 541.426 144.415 543.675C144.415 545.937 145.949 547.367 147.964 547.367C149.992 547.367 151.617 545.937 151.617 543.675ZM145.624 543.675C145.624 541.881 146.755 541.036 148.003 541.036C149.225 541.036 150.408 541.881 150.408 543.675C150.408 545.482 149.199 546.327 147.964 546.327C146.729 546.327 145.624 545.482 145.624 543.675ZM152.731 543.662C152.731 545.872 154.2 547.367 156.111 547.367C157.411 547.367 158.334 546.678 158.763 545.911V547.406C158.763 548.927 157.814 549.733 156.553 549.733C155.383 549.733 154.538 549.148 154.278 548.29H153.108C153.342 549.811 154.681 550.76 156.553 550.76C158.646 550.76 159.959 549.369 159.959 547.406V540.126H158.763V541.426C158.347 540.659 157.411 540.009 156.111 540.009C154.2 540.009 152.731 541.439 152.731 543.662ZM158.763 543.675C158.763 545.352 157.645 546.327 156.345 546.327C155.045 546.327 153.94 545.339 153.94 543.662C153.94 541.985 155.045 541.036 156.345 541.036C157.645 541.036 158.763 542.024 158.763 543.675ZM161.958 547.25H163.141V540.126H161.958V547.25ZM162.569 538.969C162.998 538.969 163.349 538.618 163.349 538.163C163.349 537.708 162.998 537.357 162.569 537.357C162.114 537.357 161.763 537.708 161.763 538.163C161.763 538.618 162.114 538.969 162.569 538.969ZM168.186 541.01C169.408 541.01 170.448 541.777 170.435 543.168H165.937C166.067 541.777 167.029 541.01 168.186 541.01ZM171.514 545.053H170.24C169.98 545.82 169.304 546.366 168.238 546.366C167.029 546.366 166.015 545.573 165.924 544.13H171.618C171.644 543.883 171.657 543.675 171.657 543.415C171.657 541.465 170.305 540.009 168.238 540.009C166.158 540.009 164.715 541.426 164.715 543.675C164.715 545.937 166.21 547.367 168.238 547.367C170.006 547.367 171.15 546.353 171.514 545.053ZM178.341 545.313C178.289 542.765 174.155 543.688 174.155 541.998C174.155 541.426 174.675 541.01 175.546 541.01C176.495 541.01 177.041 541.53 177.093 542.245H178.276C178.198 540.854 177.158 540.009 175.585 540.009C173.999 540.009 172.972 540.906 172.972 541.998C172.972 544.65 177.184 543.727 177.184 545.313C177.184 545.898 176.664 546.366 175.728 546.366C174.727 546.366 174.116 545.846 174.051 545.157H172.829C172.907 546.457 174.077 547.367 175.741 547.367C177.314 547.367 178.341 546.483 178.341 545.313Z" fill="#828690"/>
<path d="M312.876 535H314.164V524.878H311.532V526.04H312.876V535ZM316.198 534.888H322.932V533.824H318.116C319.922 532.354 322.638 530.212 322.638 527.692C322.638 525.816 321.406 524.696 319.502 524.696C317.682 524.696 316.324 525.816 316.24 527.972H317.472C317.528 526.698 318.2 525.788 319.516 525.788C320.888 525.788 321.378 526.628 321.378 527.748C321.378 529.82 318.858 531.836 316.198 533.978V534.888ZM325.861 534.216C325.861 533.726 325.483 533.348 325.021 533.348C324.531 533.348 324.153 533.726 324.153 534.216C324.153 534.706 324.531 535.084 325.021 535.084C325.483 535.084 325.861 534.706 325.861 534.216ZM325.861 528.224C325.861 527.734 325.483 527.356 325.021 527.356C324.531 527.356 324.153 527.734 324.153 528.224C324.153 528.714 324.531 529.092 325.021 529.092C325.483 529.092 325.861 528.714 325.861 528.224ZM327.386 529.834C327.386 532.774 328.114 535 330.914 535C333.7 535 334.428 532.774 334.428 529.834C334.428 526.936 333.7 524.724 330.914 524.724C328.114 524.724 327.386 526.936 327.386 529.834ZM333.168 529.834C333.168 532.018 332.902 533.838 330.914 533.838C328.912 533.838 328.646 532.018 328.646 529.834C328.646 527.734 328.912 525.886 330.914 525.886C332.902 525.886 333.168 527.734 333.168 529.834ZM336.541 524.864V530.576H337.745C338.081 529.778 338.823 529.246 339.845 529.246C341.315 529.246 342.057 530.086 342.057 531.528C342.057 532.914 341.371 533.95 339.831 533.95C338.641 533.95 337.815 533.32 337.577 532.256H336.331C336.583 533.894 337.801 535.028 339.817 535.028C342.183 535.028 343.275 533.46 343.275 531.5C343.275 529.932 342.491 528.154 340.027 528.154C339.033 528.154 338.137 528.602 337.717 529.176V525.984H342.631V524.864H336.541ZM350.184 529.876V526.292H352.06C353.516 526.292 354.132 526.964 354.132 528.098C354.132 529.19 353.516 529.876 352.06 529.876H350.184ZM355.434 528.098C355.434 526.502 354.356 525.242 352.06 525.242H348.91V535H350.184V530.926H352.06C354.482 530.926 355.434 529.582 355.434 528.098ZM357.017 535H358.291V527.762L361.525 535H362.421L365.641 527.776V535H366.915V525.312H365.557L361.973 533.32L358.389 525.312H357.017V535Z" fill="white"/>
</g>
<defs>
<clipPath id="clip0_27_5080">
<rect width="368.25" height="144" fill="white" transform="translate(0 418)"/>
</clipPath>
</defs>
</svg>
