<svg width="24" height="25" viewBox="0 0 24 25" fill="none" xmlns="http://www.w3.org/2000/svg">
<path d="M8 10.8764H16M8 14.8764H16M8 18.8764H12M8 4.8764C8 5.98097 8.89543 6.8764 10 6.8764H14C15.1046 6.8764 16 5.98097 16 4.8764M8 4.8764C8 3.77183 8.89543 2.8764 10 2.8764H14C15.1046 2.8764 16 3.77183 16 4.8764M8 4.8764H7C4.79086 4.8764 3 6.66726 3 8.8764V18.8764C3 21.0855 4.79086 22.8764 7 22.8764H17C19.2091 22.8764 21 21.0855 21 18.8764V8.8764C21 6.66726 19.2091 4.8764 17 4.8764H16" stroke="white" stroke-width="1.5" stroke-linecap="round"/>
</svg>
