<svg width="23" height="23" viewBox="0 0 23 23" fill="none" xmlns="http://www.w3.org/2000/svg">
<g clip-path="url(#clip0_42_7151)">
<path fill-rule="evenodd" clip-rule="evenodd" d="M9.29234 14.5177C12.6739 14.5177 15.5642 15.0301 15.5642 17.077C15.5642 19.1239 12.6932 19.651 9.29234 19.651C5.90984 19.651 3.02051 19.1432 3.02051 17.0953C3.02051 15.0475 5.89059 14.5177 9.29234 14.5177Z" stroke="#888888" stroke-linecap="round" stroke-linejoin="round"/>
<path fill-rule="evenodd" clip-rule="evenodd" d="M9.29223 11.5963C7.07206 11.5963 5.27173 9.79689 5.27173 7.57672C5.27173 5.35655 7.07206 3.55713 9.29223 3.55713C11.5115 3.55713 13.3118 5.35655 13.3118 7.57672C13.3201 9.78864 11.5326 11.588 9.32064 11.5963H9.29223Z" stroke="#888888" stroke-linecap="round" stroke-linejoin="round"/>
<path d="M15.6096 10.553C17.0772 10.3467 18.2074 9.08721 18.2102 7.5628C18.2102 6.06038 17.1148 4.8137 15.6783 4.57812" stroke="#888888" stroke-linecap="round" stroke-linejoin="round"/>
<path d="M17.5459 14.0826C18.9676 14.2944 19.9604 14.793 19.9604 15.8197C19.9604 16.5264 19.4929 16.9848 18.7375 17.2717" stroke="#888888" stroke-linecap="round" stroke-linejoin="round"/>
</g>
<defs>
<clipPath id="clip0_42_7151">
<rect width="22" height="22" fill="white" transform="translate(0.5 0.578125)"/>
</clipPath>
</defs>
</svg>
