<svg width="22" height="23" viewBox="0 0 22 23" fill="none" xmlns="http://www.w3.org/2000/svg">
<g clip-path="url(#clip0_42_7217)">
<path fill-rule="evenodd" clip-rule="evenodd" d="M16.3691 18.747C18.086 18.747 19.4784 17.3555 19.4793 15.6386V15.6368V13.1618C18.3454 13.1618 17.4269 12.2433 17.426 11.1093C17.426 9.97629 18.3445 9.05687 19.4784 9.05687L19.4793 6.58187C19.4812 4.86404 18.0906 3.47071 16.3737 3.46887H16.3682H5.63216C3.91433 3.46887 2.52191 4.86037 2.521 6.57821V9.13662C3.6155 9.09812 4.53308 9.95429 4.57158 11.0488C4.5725 11.069 4.57341 11.0892 4.57341 11.1093C4.57433 12.2414 3.65858 13.1599 2.5265 13.1618H2.521V15.6368C2.52008 17.3537 3.9125 18.747 5.62941 18.747H16.3691Z" stroke="#888888" stroke-linecap="round" stroke-linejoin="round"/>
<path fill-rule="evenodd" clip-rule="evenodd" d="M11.3402 8.33919L11.9049 9.48227C11.9599 9.59411 12.0662 9.67202 12.19 9.69036L13.4522 9.87461C13.7648 9.92044 13.8886 10.3036 13.6631 10.5227L12.7501 11.4118C12.6602 11.4989 12.6199 11.6245 12.6401 11.7483L12.8555 13.0041C12.9086 13.3148 12.5832 13.5513 12.3046 13.4047L11.1761 12.8116C11.0652 12.7529 10.9332 12.7529 10.8223 12.8116L9.69479 13.4047C9.41521 13.5513 9.08979 13.3148 9.14296 13.0041L9.35838 11.7483C9.37946 11.6245 9.33821 11.4989 9.24838 11.4118L8.33629 10.5227C8.11079 10.3036 8.23454 9.92044 8.54621 9.87461L9.80846 9.69036C9.93221 9.67202 10.0395 9.59411 10.0945 9.48227L10.6582 8.33919C10.7976 8.05686 11.2009 8.05686 11.3402 8.33919Z" stroke="#888888" stroke-linecap="round" stroke-linejoin="round"/>
</g>
<defs>
<clipPath id="clip0_42_7217">
<rect width="22" height="22" fill="white" transform="translate(0 0.03125)"/>
</clipPath>
</defs>
</svg>
