<svg width="30" height="30" viewBox="0 0 30 30" fill="none" xmlns="http://www.w3.org/2000/svg">
<rect width="30" height="30" rx="15" fill="#E6007A"/>
<path d="M14.6614 25.9898C14.6012 25.9823 14.5485 25.9672 14.4883 25.9672C13.6832 25.8995 12.9157 25.7189 12.2084 25.3201C11.8999 25.147 11.6215 24.9288 11.4033 24.6504C11.2452 24.4473 11.1173 24.2215 11.0647 23.9732C10.9969 23.6421 11.0421 23.3261 11.2001 23.0326C11.3656 22.7166 11.5989 22.4758 11.8848 22.2651C12.2761 21.9792 12.705 21.7836 13.164 21.6481C13.6681 21.4976 14.1873 21.4149 14.7065 21.3923C15.4966 21.3547 16.2716 21.4525 17.0241 21.7083C17.4755 21.8588 17.8969 22.077 18.2581 22.3855C18.4537 22.5511 18.6268 22.7467 18.7547 22.9724C19.0105 23.4314 19.0181 23.898 18.7697 24.3645C18.5967 24.6956 18.3333 24.9439 18.0399 25.1546C17.611 25.4555 17.1369 25.6437 16.6403 25.7791C16.249 25.8844 15.8502 25.9446 15.4514 25.9747C15.4138 25.9747 15.3762 25.9898 15.3386 25.9973C15.1204 25.9898 14.8946 25.9898 14.6614 25.9898Z" fill="white"/>
<path d="M4.64648 12.2124C4.66153 11.6781 4.76688 11.1665 4.93994 10.6623C5.28607 9.65404 5.84288 8.76614 6.6179 8.02874C6.99413 7.67509 7.4155 7.37411 7.89707 7.186C8.1529 7.08818 8.40873 7.02046 8.67961 7.02046C9.21385 7.01293 9.63523 7.22362 9.92868 7.67509C10.1168 7.96102 10.2071 8.27705 10.2447 8.61565C10.32 9.27781 10.2221 9.91739 10.0115 10.5419C9.66532 11.5803 9.10851 12.4908 8.31091 13.2432C7.93469 13.6044 7.51332 13.8979 7.02422 14.0935C6.73829 14.2064 6.44484 14.2666 6.13634 14.2515C5.66982 14.2289 5.30112 14.0258 5.03776 13.6495C4.84212 13.3711 4.73678 13.0626 4.69163 12.7316C4.66906 12.5585 4.66153 12.3854 4.64648 12.2124Z" fill="white"/>
<path d="M4.6543 17.8396C4.66182 17.3655 4.70697 16.9968 4.85746 16.6507C4.9327 16.4776 5.03052 16.3121 5.15844 16.1691C5.45942 15.8381 5.84317 15.7026 6.27959 15.7177C6.558 15.7252 6.82135 15.7929 7.08471 15.8983C7.55875 16.0939 7.96508 16.3798 8.33378 16.7335C9.25177 17.6214 9.86125 18.6899 10.1622 19.9314C10.26 20.3452 10.3052 20.7666 10.2751 21.1955C10.2525 21.5416 10.1773 21.8802 10.0042 22.1887C9.77848 22.6026 9.43988 22.8659 8.97336 22.9337C8.67238 22.9788 8.3714 22.9412 8.08547 22.8509C7.64152 22.7079 7.24273 22.4671 6.88907 22.1737C6.14415 21.5567 5.60238 20.7967 5.19606 19.9314C4.97785 19.4649 4.81984 18.9758 4.73707 18.4641C4.68439 18.2233 4.66935 17.9825 4.6543 17.8396Z" fill="white"/>
<path d="M25.3385 12.1521C25.3385 12.581 25.2934 12.9121 25.173 13.2356C25.0827 13.4689 24.9623 13.6871 24.7817 13.8602C24.5334 14.101 24.24 14.2214 23.9014 14.2439C23.5176 14.2665 23.164 14.1762 22.8178 14.0257C22.3513 13.815 21.945 13.5141 21.5838 13.1529C20.7034 12.265 20.109 11.2116 19.8306 9.99259C19.7478 9.64646 19.7102 9.29281 19.7177 8.93915C19.7328 8.56293 19.793 8.19423 19.966 7.8481C20.1692 7.44178 20.4777 7.1709 20.9217 7.05803C21.2377 6.98278 21.5462 7.01288 21.8547 7.10317C22.3062 7.23109 22.705 7.47187 23.0737 7.76533C23.6756 8.2469 24.1497 8.83381 24.5259 9.49597C24.8795 10.113 25.1354 10.7601 25.2633 11.4599C25.316 11.7232 25.3461 11.9791 25.3385 12.1521Z" fill="white"/>
<path d="M14.9855 8.59263C14.1954 8.5851 13.4053 8.46471 12.6604 8.14116C12.2466 7.96809 11.8628 7.73483 11.5468 7.41128C11.306 7.16297 11.1329 6.87704 11.0652 6.53844C11.0125 6.22993 11.0577 5.93648 11.2007 5.65807C11.3511 5.35709 11.5769 5.11631 11.8402 4.91315C12.2466 4.59712 12.7056 4.39396 13.2022 4.25099C13.6461 4.12307 14.0976 4.04783 14.5566 4.01773C15.3918 3.96506 16.2045 4.04783 16.9945 4.31119C17.446 4.46168 17.8674 4.66484 18.2436 4.97334C18.5145 5.19155 18.7402 5.45491 18.8681 5.77846C19.0337 6.18479 19.0036 6.59111 18.8004 6.97486C18.6499 7.26079 18.4317 7.48653 18.1759 7.68216C17.7771 7.99067 17.3256 8.19383 16.844 8.33679C16.2346 8.50986 15.6251 8.5851 14.9855 8.59263Z" fill="white"/>
<path d="M25.3536 17.7349C25.3385 18.3143 25.2181 18.8711 25.0225 19.4129C24.6689 20.376 24.1346 21.2263 23.3897 21.9336C22.9984 22.3098 22.562 22.6183 22.0428 22.8064C21.7494 22.9118 21.4559 22.972 21.1399 22.9419C20.7336 22.9042 20.4025 22.7312 20.1466 22.4151C19.951 22.1668 19.8381 21.8809 19.7779 21.5724C19.6876 21.1134 19.6952 20.6619 19.7855 20.2029C20.0639 18.7733 20.7486 17.5694 21.8246 16.5987C22.2084 16.2526 22.6448 15.9817 23.1414 15.8237C23.4348 15.7334 23.7433 15.6958 24.0519 15.7484C24.4431 15.8162 24.7441 16.0193 24.9698 16.3429C25.1504 16.5987 25.2482 16.8922 25.2934 17.1931C25.3235 17.3737 25.331 17.5543 25.3536 17.7349Z" fill="white"/>
</svg>
