<svg width="25" height="24" viewBox="0 0 25 24" fill="none" xmlns="http://www.w3.org/2000/svg">
<path d="M8.5 6V5C8.5 3.34315 9.84315 2 11.5 2H13.5C15.1569 2 16.5 3.34315 16.5 5V6M2.5 10.3475C2.5 10.3475 5.61804 12.4244 10.4777 12.9109M22.5 10.3475C22.5 10.3475 19.382 12.4244 14.5223 12.9109M6.5 22H18.5C20.7091 22 22.5 20.2091 22.5 18V10C22.5 7.79086 20.7091 6 18.5 6H6.5C4.29086 6 2.5 7.79086 2.5 10V18C2.5 20.2091 4.29086 22 6.5 22Z" stroke="white" stroke-width="1.5" stroke-linecap="round"/>
<path d="M14.5 12.16V13.16C14.5 13.17 14.5 13.17 14.5 13.18C14.5 14.27 14.49 15.16 12.5 15.16C10.52 15.16 10.5 14.28 10.5 13.19V12.16C10.5 11.16 10.5 11.16 11.5 11.16H13.5C14.5 11.16 14.5 11.16 14.5 12.16Z" stroke="white" stroke-width="1.5" stroke-miterlimit="10" stroke-linecap="round" stroke-linejoin="round"/>
</svg>
