<svg width="24" height="25" viewBox="0 0 24 25" fill="none" xmlns="http://www.w3.org/2000/svg">
<path d="M7 22.9326C8.86748 22.9326 10.4361 21.6529 10.8766 19.9225C11.0128 19.3873 11.4477 18.9326 12 18.9326H19M7 22.9326C4.79086 22.9326 3 21.1418 3 18.9326V5.93262C3 4.27576 4.34315 2.93262 6 2.93262H16C17.6569 2.93262 19 4.27576 19 5.93262V18.9326M7 22.9326H19C20.8675 22.9326 22.4361 21.6529 22.8766 19.9225C23.0128 19.3873 22.5523 18.9326 22 18.9326H19M15 7.93262H7M11 12.9326H7" stroke="white" stroke-width="1.5" stroke-linecap="round"/>
</svg>
