<svg width="113" height="26" viewBox="0 0 113 26" fill="none" xmlns="http://www.w3.org/2000/svg">
<rect width="113" height="26" rx="3" fill="#49687E" fill-opacity="0.4"/>
<path d="M11.952 17.591C11.3453 17.591 10.7993 17.487 10.314 17.279C9.82867 17.0623 9.44733 16.759 9.17 16.369C8.89267 15.979 8.754 15.524 8.754 15.004H10.34C10.3747 15.394 10.5263 15.7147 10.795 15.966C11.0723 16.2173 11.458 16.343 11.952 16.343C12.4633 16.343 12.862 16.2217 13.148 15.979C13.434 15.7277 13.577 15.407 13.577 15.017C13.577 14.7137 13.486 14.4667 13.304 14.276C13.1307 14.0853 12.9097 13.938 12.641 13.834C12.381 13.73 12.017 13.6173 11.549 13.496C10.9597 13.34 10.4787 13.184 10.106 13.028C9.742 12.8633 9.43 12.612 9.17 12.274C8.91 11.936 8.78 11.4853 8.78 10.922C8.78 10.402 8.91 9.947 9.17 9.557C9.43 9.167 9.794 8.868 10.262 8.66C10.73 8.452 11.2717 8.348 11.887 8.348C12.7623 8.348 13.4773 8.569 14.032 9.011C14.5953 9.44433 14.9073 10.0423 14.968 10.805H13.33C13.304 10.4757 13.148 10.194 12.862 9.96C12.576 9.726 12.199 9.609 11.731 9.609C11.3063 9.609 10.9597 9.71733 10.691 9.934C10.4223 10.1507 10.288 10.4627 10.288 10.87C10.288 11.1473 10.3703 11.377 10.535 11.559C10.7083 11.7323 10.925 11.871 11.185 11.975C11.445 12.079 11.8003 12.1917 12.251 12.313C12.849 12.4777 13.3343 12.6423 13.707 12.807C14.0883 12.9717 14.409 13.2273 14.669 13.574C14.9377 13.912 15.072 14.367 15.072 14.939C15.072 15.3983 14.9463 15.8317 14.695 16.239C14.4523 16.6463 14.0927 16.9757 13.616 17.227C13.148 17.4697 12.5933 17.591 11.952 17.591ZM16.3267 13.886C16.3267 13.1667 16.474 12.5297 16.7687 11.975C17.072 11.4203 17.4794 10.9913 17.9907 10.688C18.5107 10.376 19.0827 10.22 19.7067 10.22C20.27 10.22 20.7597 10.3327 21.1757 10.558C21.6004 10.7747 21.9384 11.0477 22.1897 11.377V10.337H23.6847V17.5H22.1897V16.434C21.9384 16.772 21.596 17.0537 21.1627 17.279C20.7294 17.5043 20.2354 17.617 19.6807 17.617C19.0654 17.617 18.502 17.461 17.9907 17.149C17.4794 16.8283 17.072 16.3863 16.7687 15.823C16.474 15.251 16.3267 14.6053 16.3267 13.886ZM22.1897 13.912C22.1897 13.418 22.0857 12.989 21.8777 12.625C21.6784 12.261 21.414 11.9837 21.0847 11.793C20.7554 11.6023 20.4 11.507 20.0187 11.507C19.6374 11.507 19.282 11.6023 18.9527 11.793C18.6234 11.975 18.3547 12.248 18.1467 12.612C17.9474 12.9673 17.8477 13.392 17.8477 13.886C17.8477 14.38 17.9474 14.8133 18.1467 15.186C18.3547 15.5587 18.6234 15.8447 18.9527 16.044C19.2907 16.2347 19.646 16.33 20.0187 16.33C20.4 16.33 20.7554 16.2347 21.0847 16.044C21.414 15.8533 21.6784 15.576 21.8777 15.212C22.0857 14.8393 22.1897 14.406 22.1897 13.912ZM27.1133 7.88V17.5H25.6313V7.88H27.1133ZM28.565 13.886C28.565 13.1667 28.7123 12.5297 29.007 11.975C29.3103 11.4203 29.7177 10.9913 30.229 10.688C30.749 10.376 31.321 10.22 31.945 10.22C32.5083 10.22 32.998 10.3327 33.414 10.558C33.8387 10.7747 34.1767 11.0477 34.428 11.377V10.337H35.923V17.5H34.428V16.434C34.1767 16.772 33.8343 17.0537 33.401 17.279C32.9677 17.5043 32.4737 17.617 31.919 17.617C31.3037 17.617 30.7403 17.461 30.229 17.149C29.7177 16.8283 29.3103 16.3863 29.007 15.823C28.7123 15.251 28.565 14.6053 28.565 13.886ZM34.428 13.912C34.428 13.418 34.324 12.989 34.116 12.625C33.9167 12.261 33.6523 11.9837 33.323 11.793C32.9937 11.6023 32.6383 11.507 32.257 11.507C31.8757 11.507 31.5203 11.6023 31.191 11.793C30.8617 11.975 30.593 12.248 30.385 12.612C30.1857 12.9673 30.086 13.392 30.086 13.886C30.086 14.38 30.1857 14.8133 30.385 15.186C30.593 15.5587 30.8617 15.8447 31.191 16.044C31.529 16.2347 31.8843 16.33 32.257 16.33C32.6383 16.33 32.9937 16.2347 33.323 16.044C33.6523 15.8533 33.9167 15.576 34.116 15.212C34.324 14.8393 34.428 14.406 34.428 13.912ZM39.3515 11.377C39.5682 11.013 39.8542 10.7313 40.2095 10.532C40.5735 10.324 41.0025 10.22 41.4965 10.22V11.754H41.1195C40.5389 11.754 40.0969 11.9013 39.7935 12.196C39.4989 12.4907 39.3515 13.002 39.3515 13.73V17.5H37.8695V10.337H39.3515V11.377ZM49.3068 10.337L44.9128 20.867H43.3788L44.8348 17.383L42.0138 10.337H43.6648L45.6798 15.797L47.7728 10.337H49.3068ZM56.7531 8.465C57.7151 8.465 58.5558 8.65133 59.2751 9.024C60.0031 9.388 60.5621 9.91667 60.9521 10.61C61.3508 11.2947 61.5501 12.0963 61.5501 13.015C61.5501 13.9337 61.3508 14.731 60.9521 15.407C60.5621 16.083 60.0031 16.603 59.2751 16.967C58.5558 17.3223 57.7151 17.5 56.7531 17.5H53.8021V8.465H56.7531ZM56.7531 16.291C57.8105 16.291 58.6208 16.005 59.1841 15.433C59.7475 14.861 60.0291 14.055 60.0291 13.015C60.0291 11.9663 59.7475 11.1473 59.1841 10.558C58.6208 9.96867 57.8105 9.674 56.7531 9.674H55.2841V16.291H56.7531ZM69.5839 13.743C69.5839 14.0117 69.5666 14.2543 69.5319 14.471H64.0589C64.1023 15.043 64.3146 15.5023 64.6959 15.849C65.0773 16.1957 65.5453 16.369 66.0999 16.369C66.8973 16.369 67.4606 16.0353 67.7899 15.368H69.3889C69.1723 16.0267 68.7779 16.5683 68.2059 16.993C67.6426 17.409 66.9406 17.617 66.0999 17.617C65.4153 17.617 64.7999 17.4653 64.2539 17.162C63.7166 16.85 63.2919 16.4167 62.9799 15.862C62.6766 15.2987 62.5249 14.6487 62.5249 13.912C62.5249 13.1753 62.6723 12.5297 62.9669 11.975C63.2703 11.4117 63.6906 10.9783 64.2279 10.675C64.7739 10.3717 65.3979 10.22 66.0999 10.22C66.7759 10.22 67.3783 10.3673 67.9069 10.662C68.4356 10.9567 68.8473 11.3727 69.1419 11.91C69.4366 12.4387 69.5839 13.0497 69.5839 13.743ZM68.0369 13.275C68.0283 12.729 67.8333 12.2913 67.4519 11.962C67.0706 11.6327 66.5983 11.468 66.0349 11.468C65.5236 11.468 65.0859 11.6327 64.7219 11.962C64.3579 12.2827 64.1413 12.7203 64.0719 13.275H68.0369ZM72.5244 11.39C72.7757 11.0607 73.118 10.7833 73.5514 10.558C73.9847 10.3327 74.4744 10.22 75.0204 10.22C75.6444 10.22 76.212 10.376 76.7234 10.688C77.2434 10.9913 77.6507 11.4203 77.9454 11.975C78.24 12.5297 78.3874 13.1667 78.3874 13.886C78.3874 14.6053 78.24 15.251 77.9454 15.823C77.6507 16.3863 77.2434 16.8283 76.7234 17.149C76.212 17.461 75.6444 17.617 75.0204 17.617C74.4744 17.617 73.989 17.5087 73.5644 17.292C73.1397 17.0667 72.793 16.7893 72.5244 16.46V20.906H71.0424V10.337H72.5244V11.39ZM76.8794 13.886C76.8794 13.392 76.7754 12.9673 76.5674 12.612C76.368 12.248 76.0994 11.975 75.7614 11.793C75.432 11.6023 75.0767 11.507 74.6954 11.507C74.3227 11.507 73.9674 11.6023 73.6294 11.793C73.3 11.9837 73.0314 12.261 72.8234 12.625C72.624 12.989 72.5244 13.418 72.5244 13.912C72.5244 14.406 72.624 14.8393 72.8234 15.212C73.0314 15.576 73.3 15.8533 73.6294 16.044C73.9674 16.2347 74.3227 16.33 74.6954 16.33C75.0767 16.33 75.432 16.2347 75.7614 16.044C76.0994 15.8447 76.368 15.5587 76.5674 15.186C76.7754 14.8133 76.8794 14.38 76.8794 13.886ZM82.9599 17.617C82.2839 17.617 81.6729 17.4653 81.1269 17.162C80.5809 16.85 80.1519 16.4167 79.8399 15.862C79.5279 15.2987 79.3719 14.6487 79.3719 13.912C79.3719 13.184 79.5323 12.5383 79.8529 11.975C80.1736 11.4117 80.6113 10.9783 81.1659 10.675C81.7206 10.3717 82.3403 10.22 83.0249 10.22C83.7096 10.22 84.3293 10.3717 84.8839 10.675C85.4386 10.9783 85.8763 11.4117 86.1969 11.975C86.5176 12.5383 86.6779 13.184 86.6779 13.912C86.6779 14.64 86.5133 15.2857 86.1839 15.849C85.8546 16.4123 85.4039 16.85 84.8319 17.162C84.2686 17.4653 83.6446 17.617 82.9599 17.617ZM82.9599 16.33C83.3413 16.33 83.6966 16.239 84.0259 16.057C84.3639 15.875 84.6369 15.602 84.8449 15.238C85.0529 14.874 85.1569 14.432 85.1569 13.912C85.1569 13.392 85.0573 12.9543 84.8579 12.599C84.6586 12.235 84.3943 11.962 84.0649 11.78C83.7356 11.598 83.3803 11.507 82.9989 11.507C82.6176 11.507 82.2623 11.598 81.9329 11.78C81.6123 11.962 81.3566 12.235 81.1659 12.599C80.9753 12.9543 80.8799 13.392 80.8799 13.912C80.8799 14.6833 81.0749 15.2813 81.4649 15.706C81.8636 16.122 82.3619 16.33 82.9599 16.33ZM90.743 17.617C90.1796 17.617 89.6726 17.5173 89.222 17.318C88.78 17.11 88.429 16.8327 88.169 16.486C87.909 16.1307 87.7703 15.7363 87.753 15.303H89.287C89.313 15.6063 89.456 15.862 89.716 16.07C89.9846 16.2693 90.3183 16.369 90.717 16.369C91.133 16.369 91.4536 16.291 91.679 16.135C91.913 15.9703 92.03 15.7623 92.03 15.511C92.03 15.2423 91.9 15.043 91.64 14.913C91.3886 14.783 90.9856 14.64 90.431 14.484C89.8936 14.3367 89.456 14.1937 89.118 14.055C88.78 13.9163 88.4853 13.704 88.234 13.418C87.9913 13.132 87.87 12.755 87.87 12.287C87.87 11.9057 87.9826 11.559 88.208 11.247C88.4333 10.9263 88.754 10.675 89.17 10.493C89.5946 10.311 90.08 10.22 90.626 10.22C91.4406 10.22 92.095 10.428 92.589 10.844C93.0916 11.2513 93.3603 11.8103 93.395 12.521H91.913C91.887 12.2003 91.757 11.9447 91.523 11.754C91.289 11.5633 90.9726 11.468 90.574 11.468C90.184 11.468 89.885 11.5417 89.677 11.689C89.469 11.8363 89.365 12.0313 89.365 12.274C89.365 12.4647 89.4343 12.625 89.573 12.755C89.7116 12.885 89.8806 12.989 90.08 13.067C90.2793 13.1363 90.574 13.2273 90.964 13.34C91.484 13.4787 91.9086 13.6217 92.238 13.769C92.576 13.9077 92.8663 14.1157 93.109 14.393C93.3516 14.6703 93.4773 15.0387 93.486 15.498C93.486 15.9053 93.3733 16.2693 93.148 16.59C92.9226 16.9107 92.602 17.162 92.186 17.344C91.7786 17.526 91.2976 17.617 90.743 17.617ZM95.8413 9.388C95.5726 9.388 95.3473 9.297 95.1653 9.115C94.9833 8.933 94.8923 8.70767 94.8923 8.439C94.8923 8.17033 94.9833 7.945 95.1653 7.763C95.3473 7.581 95.5726 7.49 95.8413 7.49C96.1013 7.49 96.3223 7.581 96.5043 7.763C96.6863 7.945 96.7773 8.17033 96.7773 8.439C96.7773 8.70767 96.6863 8.933 96.5043 9.115C96.3223 9.297 96.1013 9.388 95.8413 9.388ZM96.5693 10.337V17.5H95.0873V10.337H96.5693ZM100.244 11.546V15.511C100.244 15.7797 100.305 15.9747 100.426 16.096C100.556 16.2087 100.773 16.265 101.076 16.265H101.986V17.5H100.816C100.149 17.5 99.6374 17.344 99.282 17.032C98.9267 16.72 98.749 16.213 98.749 15.511V11.546H97.904V10.337H98.749V8.556H100.244V10.337H101.986V11.546H100.244Z" fill="#73C5FF"/>
</svg>
