<svg width="43" height="42" viewBox="0 0 43 42" fill="none" xmlns="http://www.w3.org/2000/svg">
<rect x="0.5" width="42" height="42" rx="5" fill="#EFF2F4" fill-opacity="0.1"/>
<path fill-rule="evenodd" clip-rule="evenodd" d="M27.2363 29.9501C27.0867 29.9501 26.9361 29.915 26.7979 29.8431L21.9692 27.3203L17.1415 29.8431C16.8214 30.0088 16.4351 29.9804 16.1453 29.7682C15.8536 29.5561 15.7087 29.1972 15.7703 28.8421L16.6898 23.5125L12.7882 19.7388C12.5288 19.4878 12.435 19.1109 12.5458 18.7662C12.6566 18.4234 12.953 18.1725 13.311 18.1213L18.7088 17.3372L21.1217 12.483C21.4417 11.8391 22.4976 11.8391 22.8177 12.483L25.2306 17.3372L30.6284 18.1213C30.9864 18.1725 31.2828 18.4234 31.3936 18.7662C31.5043 19.1109 31.4106 19.4878 31.1511 19.7388L27.2496 23.5125L28.1691 28.8421C28.2306 29.1972 28.0848 29.5561 27.7941 29.7682C27.6293 29.8895 27.4333 29.9501 27.2363 29.9501Z" fill="#30B0C7"/>
</svg>
