<svg width="169" height="137" viewBox="0 0 169 137" fill="none" xmlns="http://www.w3.org/2000/svg">
<g clip-path="url(#clip0_373_254)">
<path d="M9 7.5H3C1.34315 7.5 0 8.84315 0 10.5V16.5C0 18.1569 1.34315 19.5 3 19.5H9C10.6569 19.5 12 18.1569 12 16.5V10.5C12 8.84315 10.6569 7.5 9 7.5Z" fill="#0D99FF"/>
</g>
<path d="M27.602 11.098C27.602 11.91 27.322 12.5867 26.762 13.128C26.2113 13.66 25.3667 13.926 24.228 13.926H22.352V18H21.078V8.242H24.228C25.3293 8.242 26.1647 8.508 26.734 9.04C27.3127 9.572 27.602 10.258 27.602 11.098ZM24.228 12.876C24.9373 12.876 25.46 12.722 25.796 12.414C26.132 12.106 26.3 11.6673 26.3 11.098C26.3 9.894 25.6093 9.292 24.228 9.292H22.352V12.876H24.228ZM28.7094 14.136C28.7094 13.352 28.8681 12.666 29.1854 12.078C29.5028 11.4807 29.9368 11.0187 30.4874 10.692C31.0474 10.3653 31.6681 10.202 32.3494 10.202C33.0214 10.202 33.6048 10.3467 34.0994 10.636C34.5941 10.9253 34.9628 11.2893 35.2054 11.728V10.328H36.4934V18H35.2054V16.572C34.9534 17.02 34.5754 17.3933 34.0714 17.692C33.5768 17.9813 32.9981 18.126 32.3354 18.126C31.6541 18.126 31.0381 17.958 30.4874 17.622C29.9368 17.286 29.5028 16.8147 29.1854 16.208C28.8681 15.6013 28.7094 14.9107 28.7094 14.136ZM35.2054 14.15C35.2054 13.5713 35.0888 13.0673 34.8554 12.638C34.6221 12.2087 34.3048 11.882 33.9034 11.658C33.5114 11.4247 33.0774 11.308 32.6014 11.308C32.1254 11.308 31.6914 11.42 31.2994 11.644C30.9074 11.868 30.5948 12.1947 30.3614 12.624C30.1281 13.0533 30.0114 13.5573 30.0114 14.136C30.0114 14.724 30.1281 15.2373 30.3614 15.676C30.5948 16.1053 30.9074 16.4367 31.2994 16.67C31.6914 16.894 32.1254 17.006 32.6014 17.006C33.0774 17.006 33.5114 16.894 33.9034 16.67C34.3048 16.4367 34.6221 16.1053 34.8554 15.676C35.0888 15.2373 35.2054 14.7287 35.2054 14.15ZM45.2544 10.328L40.6344 21.612H39.3184L40.8304 17.916L37.7364 10.328H39.1504L41.5584 16.544L43.9384 10.328H45.2544ZM55.761 10.188C56.3584 10.188 56.8904 10.314 57.357 10.566C57.8237 10.8087 58.1924 11.1773 58.463 11.672C58.7337 12.1667 58.869 12.7687 58.869 13.478V18H57.609V13.66C57.609 12.8947 57.4177 12.3113 57.035 11.91C56.6617 11.4993 56.153 11.294 55.509 11.294C54.8464 11.294 54.319 11.5087 53.927 11.938C53.535 12.358 53.339 12.9693 53.339 13.772V18H52.079V13.66C52.079 12.8947 51.8877 12.3113 51.505 11.91C51.1317 11.4993 50.623 11.294 49.979 11.294C49.3164 11.294 48.789 11.5087 48.397 11.938C48.005 12.358 47.809 12.9693 47.809 13.772V18H46.535V10.328H47.809V11.434C48.061 11.0327 48.397 10.7247 48.817 10.51C49.2464 10.2953 49.7177 10.188 50.231 10.188C50.875 10.188 51.4444 10.3327 51.939 10.622C52.4337 10.9113 52.8024 11.336 53.045 11.896C53.2597 11.3547 53.6144 10.9347 54.109 10.636C54.6037 10.3373 55.1544 10.188 55.761 10.188ZM67.9589 13.87C67.9589 14.1127 67.9449 14.3693 67.9169 14.64H61.7849C61.8315 15.396 62.0882 15.9887 62.5549 16.418C63.0309 16.838 63.6049 17.048 64.2769 17.048C64.8275 17.048 65.2849 16.922 65.6489 16.67C66.0222 16.4087 66.2835 16.0633 66.4329 15.634H67.8049C67.5995 16.3713 67.1889 16.9733 66.5729 17.44C65.9569 17.8973 65.1915 18.126 64.2769 18.126C63.5489 18.126 62.8955 17.9627 62.3169 17.636C61.7475 17.3093 61.2995 16.8473 60.9729 16.25C60.6462 15.6433 60.4829 14.9433 60.4829 14.15C60.4829 13.3567 60.6415 12.6613 60.9589 12.064C61.2762 11.4667 61.7195 11.0093 62.2889 10.692C62.8675 10.3653 63.5302 10.202 64.2769 10.202C65.0049 10.202 65.6489 10.3607 66.2089 10.678C66.7689 10.9953 67.1982 11.434 67.4969 11.994C67.8049 12.5447 67.9589 13.17 67.9589 13.87ZM66.6429 13.604C66.6429 13.1187 66.5355 12.7033 66.3209 12.358C66.1062 12.0033 65.8122 11.7373 65.4389 11.56C65.0749 11.3733 64.6689 11.28 64.2209 11.28C63.5769 11.28 63.0262 11.4853 62.5689 11.896C62.1209 12.3067 61.8642 12.876 61.7989 13.604H66.6429ZM73.3785 10.188C74.3118 10.188 75.0678 10.4727 75.6465 11.042C76.2252 11.602 76.5145 12.414 76.5145 13.478V18H75.2545V13.66C75.2545 12.8947 75.0632 12.3113 74.6805 11.91C74.2978 11.4993 73.7752 11.294 73.1125 11.294C72.4405 11.294 71.9038 11.504 71.5025 11.924C71.1105 12.344 70.9145 12.9553 70.9145 13.758V18H69.6405V10.328H70.9145V11.42C71.1665 11.028 71.5072 10.7247 71.9365 10.51C72.3752 10.2953 72.8558 10.188 73.3785 10.188ZM80.1496 11.378V15.9C80.1496 16.2733 80.2289 16.5393 80.3876 16.698C80.5462 16.8473 80.8216 16.922 81.2136 16.922H82.1516V18H81.0036C80.2942 18 79.7622 17.8367 79.4076 17.51C79.0529 17.1833 78.8756 16.6467 78.8756 15.9V11.378H77.8816V10.328H78.8756V8.396H80.1496V10.328H82.1516V11.378H80.1496ZM90.1436 18.126C89.5556 18.126 89.0283 18.028 88.5616 17.832C88.0949 17.6267 87.7263 17.3467 87.4556 16.992C87.1849 16.628 87.0356 16.2127 87.0076 15.746H88.3236C88.3609 16.1287 88.5383 16.4413 88.8556 16.684C89.1823 16.9267 89.6069 17.048 90.1296 17.048C90.6149 17.048 90.9976 16.9407 91.2776 16.726C91.5576 16.5113 91.6976 16.2407 91.6976 15.914C91.6976 15.578 91.5483 15.3307 91.2496 15.172C90.9509 15.004 90.4889 14.8407 89.8636 14.682C89.2943 14.5327 88.8276 14.3833 88.4636 14.234C88.1089 14.0753 87.8009 13.8467 87.5396 13.548C87.2876 13.24 87.1616 12.8387 87.1616 12.344C87.1616 11.952 87.2783 11.5927 87.5116 11.266C87.7449 10.9393 88.0763 10.6827 88.5056 10.496C88.9349 10.3 89.4249 10.202 89.9756 10.202C90.8249 10.202 91.5109 10.4167 92.0336 10.846C92.5563 11.2753 92.8363 11.8633 92.8736 12.61H91.5996C91.5716 12.2087 91.4083 11.8867 91.1096 11.644C90.8203 11.4013 90.4283 11.28 89.9336 11.28C89.4763 11.28 89.1123 11.378 88.8416 11.574C88.5709 11.77 88.4356 12.0267 88.4356 12.344C88.4356 12.596 88.5149 12.806 88.6736 12.974C88.8416 13.1327 89.0469 13.2633 89.2896 13.366C89.5416 13.4593 89.8869 13.5667 90.3256 13.688C90.8763 13.8373 91.3243 13.9867 91.6696 14.136C92.0149 14.276 92.3089 14.4907 92.5516 14.78C92.8036 15.0693 92.9343 15.4473 92.9436 15.914C92.9436 16.334 92.8269 16.712 92.5936 17.048C92.3603 17.384 92.0289 17.65 91.5996 17.846C91.1796 18.0327 90.6943 18.126 90.1436 18.126ZM101.546 10.328V18H100.272V16.866C100.029 17.258 99.6887 17.566 99.2501 17.79C98.8207 18.0047 98.3447 18.112 97.8221 18.112C97.2247 18.112 96.6881 17.9907 96.2121 17.748C95.7361 17.496 95.3581 17.1227 95.0781 16.628C94.8074 16.1333 94.6721 15.5313 94.6721 14.822V10.328H95.9321V14.654C95.9321 15.41 96.1234 15.9933 96.5061 16.404C96.8887 16.8053 97.4114 17.006 98.0741 17.006C98.7554 17.006 99.2921 16.796 99.6841 16.376C100.076 15.956 100.272 15.3447 100.272 14.542V10.328H101.546ZM103.221 14.15C103.221 13.3567 103.38 12.666 103.697 12.078C104.014 11.4807 104.453 11.0187 105.013 10.692C105.582 10.3653 106.231 10.202 106.959 10.202C107.902 10.202 108.676 10.4307 109.283 10.888C109.899 11.3453 110.305 11.98 110.501 12.792H109.129C108.998 12.3253 108.742 11.9567 108.359 11.686C107.986 11.4153 107.519 11.28 106.959 11.28C106.231 11.28 105.643 11.532 105.195 12.036C104.747 12.5307 104.523 13.2353 104.523 14.15C104.523 15.074 104.747 15.788 105.195 16.292C105.643 16.796 106.231 17.048 106.959 17.048C107.519 17.048 107.986 16.9173 108.359 16.656C108.732 16.3947 108.989 16.0213 109.129 15.536H110.501C110.296 16.32 109.885 16.95 109.269 17.426C108.653 17.8927 107.883 18.126 106.959 18.126C106.231 18.126 105.582 17.9627 105.013 17.636C104.453 17.3093 104.014 16.8473 103.697 16.25C103.38 15.6527 103.221 14.9527 103.221 14.15ZM111.725 14.15C111.725 13.3567 111.884 12.666 112.201 12.078C112.518 11.4807 112.957 11.0187 113.517 10.692C114.086 10.3653 114.735 10.202 115.463 10.202C116.406 10.202 117.18 10.4307 117.787 10.888C118.403 11.3453 118.809 11.98 119.005 12.792H117.633C117.502 12.3253 117.246 11.9567 116.863 11.686C116.49 11.4153 116.023 11.28 115.463 11.28C114.735 11.28 114.147 11.532 113.699 12.036C113.251 12.5307 113.027 13.2353 113.027 14.15C113.027 15.074 113.251 15.788 113.699 16.292C114.147 16.796 114.735 17.048 115.463 17.048C116.023 17.048 116.49 16.9173 116.863 16.656C117.236 16.3947 117.493 16.0213 117.633 15.536H119.005C118.8 16.32 118.389 16.95 117.773 17.426C117.157 17.8927 116.387 18.126 115.463 18.126C114.735 18.126 114.086 17.9627 113.517 17.636C112.957 17.3093 112.518 16.8473 112.201 16.25C111.884 15.6527 111.725 14.9527 111.725 14.15ZM127.705 13.87C127.705 14.1127 127.691 14.3693 127.663 14.64H121.531C121.578 15.396 121.834 15.9887 122.301 16.418C122.777 16.838 123.351 17.048 124.023 17.048C124.574 17.048 125.031 16.922 125.395 16.67C125.768 16.4087 126.03 16.0633 126.179 15.634H127.551C127.346 16.3713 126.935 16.9733 126.319 17.44C125.703 17.8973 124.938 18.126 124.023 18.126C123.295 18.126 122.642 17.9627 122.063 17.636C121.494 17.3093 121.046 16.8473 120.719 16.25C120.392 15.6433 120.229 14.9433 120.229 14.15C120.229 13.3567 120.388 12.6613 120.705 12.064C121.022 11.4667 121.466 11.0093 122.035 10.692C122.614 10.3653 123.276 10.202 124.023 10.202C124.751 10.202 125.395 10.3607 125.955 10.678C126.515 10.9953 126.944 11.434 127.243 11.994C127.551 12.5447 127.705 13.17 127.705 13.87ZM126.389 13.604C126.389 13.1187 126.282 12.7033 126.067 12.358C125.852 12.0033 125.558 11.7373 125.185 11.56C124.821 11.3733 124.415 11.28 123.967 11.28C123.323 11.28 122.772 11.4853 122.315 11.896C121.867 12.3067 121.61 12.876 121.545 13.604H126.389ZM132.103 18.126C131.515 18.126 130.987 18.028 130.521 17.832C130.054 17.6267 129.685 17.3467 129.415 16.992C129.144 16.628 128.995 16.2127 128.967 15.746H130.283C130.32 16.1287 130.497 16.4413 130.815 16.684C131.141 16.9267 131.566 17.048 132.089 17.048C132.574 17.048 132.957 16.9407 133.237 16.726C133.517 16.5113 133.657 16.2407 133.657 15.914C133.657 15.578 133.507 15.3307 133.209 15.172C132.91 15.004 132.448 14.8407 131.823 14.682C131.253 14.5327 130.787 14.3833 130.423 14.234C130.068 14.0753 129.76 13.8467 129.499 13.548C129.247 13.24 129.121 12.8387 129.121 12.344C129.121 11.952 129.237 11.5927 129.471 11.266C129.704 10.9393 130.035 10.6827 130.465 10.496C130.894 10.3 131.384 10.202 131.935 10.202C132.784 10.202 133.47 10.4167 133.993 10.846C134.515 11.2753 134.795 11.8633 134.833 12.61H133.559C133.531 12.2087 133.367 11.8867 133.069 11.644C132.779 11.4013 132.387 11.28 131.893 11.28C131.435 11.28 131.071 11.378 130.801 11.574C130.53 11.77 130.395 12.0267 130.395 12.344C130.395 12.596 130.474 12.806 130.633 12.974C130.801 13.1327 131.006 13.2633 131.249 13.366C131.501 13.4593 131.846 13.5667 132.285 13.688C132.835 13.8373 133.283 13.9867 133.629 14.136C133.974 14.276 134.268 14.4907 134.511 14.78C134.763 15.0693 134.893 15.4473 134.903 15.914C134.903 16.334 134.786 16.712 134.553 17.048C134.319 17.384 133.988 17.65 133.559 17.846C133.139 18.0327 132.653 18.126 132.103 18.126ZM139.417 18.126C138.829 18.126 138.302 18.028 137.835 17.832C137.368 17.6267 137 17.3467 136.729 16.992C136.458 16.628 136.309 16.2127 136.281 15.746H137.597C137.634 16.1287 137.812 16.4413 138.129 16.684C138.456 16.9267 138.88 17.048 139.403 17.048C139.888 17.048 140.271 16.9407 140.551 16.726C140.831 16.5113 140.971 16.2407 140.971 15.914C140.971 15.578 140.822 15.3307 140.523 15.172C140.224 15.004 139.762 14.8407 139.137 14.682C138.568 14.5327 138.101 14.3833 137.737 14.234C137.382 14.0753 137.074 13.8467 136.813 13.548C136.561 13.24 136.435 12.8387 136.435 12.344C136.435 11.952 136.552 11.5927 136.785 11.266C137.018 10.9393 137.35 10.6827 137.779 10.496C138.208 10.3 138.698 10.202 139.249 10.202C140.098 10.202 140.784 10.4167 141.307 10.846C141.83 11.2753 142.11 11.8633 142.147 12.61H140.873C140.845 12.2087 140.682 11.8867 140.383 11.644C140.094 11.4013 139.702 11.28 139.207 11.28C138.75 11.28 138.386 11.378 138.115 11.574C137.844 11.77 137.709 12.0267 137.709 12.344C137.709 12.596 137.788 12.806 137.947 12.974C138.115 13.1327 138.32 13.2633 138.563 13.366C138.815 13.4593 139.16 13.5667 139.599 13.688C140.15 13.8373 140.598 13.9867 140.943 14.136C141.288 14.276 141.582 14.4907 141.825 14.78C142.077 15.0693 142.208 15.4473 142.217 15.914C142.217 16.334 142.1 16.712 141.867 17.048C141.634 17.384 141.302 17.65 140.873 17.846C140.453 18.0327 139.968 18.126 139.417 18.126ZM147.138 11.378H145.528V18H144.254V11.378H143.26V10.328H144.254V9.782C144.254 8.92333 144.473 8.298 144.912 7.906C145.36 7.50467 146.074 7.304 147.053 7.304V8.368C146.494 8.368 146.097 8.48 145.864 8.704C145.64 8.91867 145.528 9.278 145.528 9.782V10.328H147.138V11.378ZM155.427 10.328V18H154.153V16.866C153.91 17.258 153.57 17.566 153.131 17.79C152.702 18.0047 152.226 18.112 151.703 18.112C151.106 18.112 150.569 17.9907 150.093 17.748C149.617 17.496 149.239 17.1227 148.959 16.628C148.688 16.1333 148.553 15.5313 148.553 14.822V10.328H149.813V14.654C149.813 15.41 150.004 15.9933 150.387 16.404C150.77 16.8053 151.292 17.006 151.955 17.006C152.636 17.006 153.173 16.796 153.565 16.376C153.957 15.956 154.153 15.3447 154.153 14.542V10.328H155.427ZM158.852 7.64V18H157.578V7.64H158.852Z" fill="#828690"/>
<g clip-path="url(#clip1_373_254)">
<path d="M9 44.5H3C1.34315 44.5 0 45.8431 0 47.5V53.5C0 55.1569 1.34315 56.5 3 56.5H9C10.6569 56.5 12 55.1569 12 53.5V47.5C12 45.8431 10.6569 44.5 9 44.5Z" fill="#3AC977"/>
</g>
<path d="M27.602 48.098C27.602 48.91 27.322 49.5867 26.762 50.128C26.2113 50.66 25.3667 50.926 24.228 50.926H22.352V55H21.078V45.242H24.228C25.3293 45.242 26.1647 45.508 26.734 46.04C27.3127 46.572 27.602 47.258 27.602 48.098ZM24.228 49.876C24.9373 49.876 25.46 49.722 25.796 49.414C26.132 49.106 26.3 48.6673 26.3 48.098C26.3 46.894 25.6093 46.292 24.228 46.292H22.352V49.876H24.228ZM28.7094 51.136C28.7094 50.352 28.8681 49.666 29.1854 49.078C29.5028 48.4807 29.9368 48.0187 30.4874 47.692C31.0474 47.3653 31.6681 47.202 32.3494 47.202C33.0214 47.202 33.6048 47.3467 34.0994 47.636C34.5941 47.9253 34.9628 48.2893 35.2054 48.728V47.328H36.4934V55H35.2054V53.572C34.9534 54.02 34.5754 54.3933 34.0714 54.692C33.5768 54.9813 32.9981 55.126 32.3354 55.126C31.6541 55.126 31.0381 54.958 30.4874 54.622C29.9368 54.286 29.5028 53.8147 29.1854 53.208C28.8681 52.6013 28.7094 51.9107 28.7094 51.136ZM35.2054 51.15C35.2054 50.5713 35.0888 50.0673 34.8554 49.638C34.6221 49.2087 34.3048 48.882 33.9034 48.658C33.5114 48.4247 33.0774 48.308 32.6014 48.308C32.1254 48.308 31.6914 48.42 31.2994 48.644C30.9074 48.868 30.5948 49.1947 30.3614 49.624C30.1281 50.0533 30.0114 50.5573 30.0114 51.136C30.0114 51.724 30.1281 52.2373 30.3614 52.676C30.5948 53.1053 30.9074 53.4367 31.2994 53.67C31.6914 53.894 32.1254 54.006 32.6014 54.006C33.0774 54.006 33.5114 53.894 33.9034 53.67C34.3048 53.4367 34.6221 53.1053 34.8554 52.676C35.0888 52.2373 35.2054 51.7287 35.2054 51.15ZM45.2544 47.328L40.6344 58.612H39.3184L40.8304 54.916L37.7364 47.328H39.1504L41.5584 53.544L43.9384 47.328H45.2544ZM55.761 47.188C56.3584 47.188 56.8904 47.314 57.357 47.566C57.8237 47.8087 58.1924 48.1773 58.463 48.672C58.7337 49.1667 58.869 49.7687 58.869 50.478V55H57.609V50.66C57.609 49.8947 57.4177 49.3113 57.035 48.91C56.6617 48.4993 56.153 48.294 55.509 48.294C54.8464 48.294 54.319 48.5087 53.927 48.938C53.535 49.358 53.339 49.9693 53.339 50.772V55H52.079V50.66C52.079 49.8947 51.8877 49.3113 51.505 48.91C51.1317 48.4993 50.623 48.294 49.979 48.294C49.3164 48.294 48.789 48.5087 48.397 48.938C48.005 49.358 47.809 49.9693 47.809 50.772V55H46.535V47.328H47.809V48.434C48.061 48.0327 48.397 47.7247 48.817 47.51C49.2464 47.2953 49.7177 47.188 50.231 47.188C50.875 47.188 51.4444 47.3327 51.939 47.622C52.4337 47.9113 52.8024 48.336 53.045 48.896C53.2597 48.3547 53.6144 47.9347 54.109 47.636C54.6037 47.3373 55.1544 47.188 55.761 47.188ZM67.9589 50.87C67.9589 51.1127 67.9449 51.3693 67.9169 51.64H61.7849C61.8315 52.396 62.0882 52.9887 62.5549 53.418C63.0309 53.838 63.6049 54.048 64.2769 54.048C64.8275 54.048 65.2849 53.922 65.6489 53.67C66.0222 53.4087 66.2835 53.0633 66.4329 52.634H67.8049C67.5995 53.3713 67.1889 53.9733 66.5729 54.44C65.9569 54.8973 65.1915 55.126 64.2769 55.126C63.5489 55.126 62.8955 54.9627 62.3169 54.636C61.7475 54.3093 61.2995 53.8473 60.9729 53.25C60.6462 52.6433 60.4829 51.9433 60.4829 51.15C60.4829 50.3567 60.6415 49.6613 60.9589 49.064C61.2762 48.4667 61.7195 48.0093 62.2889 47.692C62.8675 47.3653 63.5302 47.202 64.2769 47.202C65.0049 47.202 65.6489 47.3607 66.2089 47.678C66.7689 47.9953 67.1982 48.434 67.4969 48.994C67.8049 49.5447 67.9589 50.17 67.9589 50.87ZM66.6429 50.604C66.6429 50.1187 66.5355 49.7033 66.3209 49.358C66.1062 49.0033 65.8122 48.7373 65.4389 48.56C65.0749 48.3733 64.6689 48.28 64.2209 48.28C63.5769 48.28 63.0262 48.4853 62.5689 48.896C62.1209 49.3067 61.8642 49.876 61.7989 50.604H66.6429ZM73.3785 47.188C74.3118 47.188 75.0678 47.4727 75.6465 48.042C76.2252 48.602 76.5145 49.414 76.5145 50.478V55H75.2545V50.66C75.2545 49.8947 75.0632 49.3113 74.6805 48.91C74.2978 48.4993 73.7752 48.294 73.1125 48.294C72.4405 48.294 71.9038 48.504 71.5025 48.924C71.1105 49.344 70.9145 49.9553 70.9145 50.758V55H69.6405V47.328H70.9145V48.42C71.1665 48.028 71.5072 47.7247 71.9365 47.51C72.3752 47.2953 72.8558 47.188 73.3785 47.188ZM80.1496 48.378V52.9C80.1496 53.2733 80.2289 53.5393 80.3876 53.698C80.5462 53.8473 80.8216 53.922 81.2136 53.922H82.1516V55H81.0036C80.2942 55 79.7622 54.8367 79.4076 54.51C79.0529 54.1833 78.8756 53.6467 78.8756 52.9V48.378H77.8816V47.328H78.8756V45.396H80.1496V47.328H82.1516V48.378H80.1496ZM88.0856 46.082C87.8429 46.082 87.6376 45.998 87.4696 45.83C87.3016 45.662 87.2176 45.4567 87.2176 45.214C87.2176 44.9713 87.3016 44.766 87.4696 44.598C87.6376 44.43 87.8429 44.346 88.0856 44.346C88.3189 44.346 88.5149 44.43 88.6736 44.598C88.8416 44.766 88.9256 44.9713 88.9256 45.214C88.9256 45.4567 88.8416 45.662 88.6736 45.83C88.5149 45.998 88.3189 46.082 88.0856 46.082ZM88.7016 47.328V55H87.4276V47.328H88.7016ZM94.6109 47.188C95.5443 47.188 96.3003 47.4727 96.8789 48.042C97.4576 48.602 97.7469 49.414 97.7469 50.478V55H96.4869V50.66C96.4869 49.8947 96.2956 49.3113 95.9129 48.91C95.5303 48.4993 95.0076 48.294 94.3449 48.294C93.6729 48.294 93.1363 48.504 92.7349 48.924C92.3429 49.344 92.1469 49.9553 92.1469 50.758V55H90.8729V47.328H92.1469V48.42C92.3989 48.028 92.7396 47.7247 93.1689 47.51C93.6076 47.2953 94.0883 47.188 94.6109 47.188ZM105.148 49.33V50.408H99.562V49.33H105.148ZM108.813 48.742C109.065 48.3033 109.438 47.9393 109.933 47.65C110.437 47.3513 111.02 47.202 111.683 47.202C112.364 47.202 112.98 47.3653 113.531 47.692C114.091 48.0187 114.53 48.4807 114.847 49.078C115.164 49.666 115.323 50.352 115.323 51.136C115.323 51.9107 115.164 52.6013 114.847 53.208C114.53 53.8147 114.091 54.286 113.531 54.622C112.98 54.958 112.364 55.126 111.683 55.126C111.03 55.126 110.451 54.9813 109.947 54.692C109.452 54.3933 109.074 54.0247 108.813 53.586V58.64H107.539V47.328H108.813V48.742ZM114.021 51.136C114.021 50.5573 113.904 50.0533 113.671 49.624C113.438 49.1947 113.12 48.868 112.719 48.644C112.327 48.42 111.893 48.308 111.417 48.308C110.95 48.308 110.516 48.4247 110.115 48.658C109.723 48.882 109.406 49.2133 109.163 49.652C108.93 50.0813 108.813 50.5807 108.813 51.15C108.813 51.7287 108.93 52.2373 109.163 52.676C109.406 53.1053 109.723 53.4367 110.115 53.67C110.516 53.894 110.95 54.006 111.417 54.006C111.893 54.006 112.327 53.894 112.719 53.67C113.12 53.4367 113.438 53.1053 113.671 52.676C113.904 52.2373 114.021 51.724 114.021 51.136ZM118.274 48.574C118.498 48.1353 118.815 47.7947 119.226 47.552C119.646 47.3093 120.155 47.188 120.752 47.188V48.504H120.416C118.988 48.504 118.274 49.2787 118.274 50.828V55H117V47.328H118.274V48.574ZM125.569 55.126C124.85 55.126 124.197 54.9627 123.609 54.636C123.03 54.3093 122.573 53.8473 122.237 53.25C121.91 52.6433 121.747 51.9433 121.747 51.15C121.747 50.366 121.915 49.6753 122.251 49.078C122.596 48.4713 123.063 48.0093 123.651 47.692C124.239 47.3653 124.897 47.202 125.625 47.202C126.353 47.202 127.011 47.3653 127.599 47.692C128.187 48.0093 128.649 48.4667 128.985 49.064C129.33 49.6613 129.503 50.3567 129.503 51.15C129.503 51.9433 129.325 52.6433 128.971 53.25C128.625 53.8473 128.154 54.3093 127.557 54.636C126.959 54.9627 126.297 55.126 125.569 55.126ZM125.569 54.006C126.026 54.006 126.455 53.8987 126.857 53.684C127.258 53.4693 127.58 53.1473 127.823 52.718C128.075 52.2887 128.201 51.766 128.201 51.15C128.201 50.534 128.079 50.0113 127.837 49.582C127.594 49.1527 127.277 48.8353 126.885 48.63C126.493 48.4153 126.068 48.308 125.611 48.308C125.144 48.308 124.715 48.4153 124.323 48.63C123.94 48.8353 123.632 49.1527 123.399 49.582C123.165 50.0113 123.049 50.534 123.049 51.15C123.049 51.7753 123.161 52.3027 123.385 52.732C123.618 53.1613 123.926 53.4833 124.309 53.698C124.691 53.9033 125.111 54.006 125.569 54.006ZM134.342 47.202C135.004 47.202 135.583 47.3467 136.078 47.636C136.582 47.9253 136.955 48.2893 137.198 48.728V47.328H138.486V55.168C138.486 55.868 138.336 56.4887 138.038 57.03C137.739 57.5807 137.31 58.01 136.75 58.318C136.199 58.626 135.555 58.78 134.818 58.78C133.81 58.78 132.97 58.542 132.298 58.066C131.626 57.59 131.229 56.9413 131.108 56.12H132.368C132.508 56.5867 132.797 56.96 133.236 57.24C133.674 57.5293 134.202 57.674 134.818 57.674C135.518 57.674 136.087 57.4547 136.526 57.016C136.974 56.5773 137.198 55.9613 137.198 55.168V53.558C136.946 54.006 136.572 54.3793 136.078 54.678C135.583 54.9767 135.004 55.126 134.342 55.126C133.66 55.126 133.04 54.958 132.48 54.622C131.929 54.286 131.495 53.8147 131.178 53.208C130.86 52.6013 130.702 51.9107 130.702 51.136C130.702 50.352 130.86 49.666 131.178 49.078C131.495 48.4807 131.929 48.0187 132.48 47.692C133.04 47.3653 133.66 47.202 134.342 47.202ZM137.198 51.15C137.198 50.5713 137.081 50.0673 136.848 49.638C136.614 49.2087 136.297 48.882 135.896 48.658C135.504 48.4247 135.07 48.308 134.594 48.308C134.118 48.308 133.684 48.42 133.292 48.644C132.9 48.868 132.587 49.1947 132.354 49.624C132.12 50.0533 132.004 50.5573 132.004 51.136C132.004 51.724 132.12 52.2373 132.354 52.676C132.587 53.1053 132.9 53.4367 133.292 53.67C133.684 53.894 134.118 54.006 134.594 54.006C135.07 54.006 135.504 53.894 135.896 53.67C136.297 53.4367 136.614 53.1053 136.848 52.676C137.081 52.2373 137.198 51.7287 137.198 51.15ZM141.913 48.574C142.137 48.1353 142.454 47.7947 142.865 47.552C143.285 47.3093 143.793 47.188 144.391 47.188V48.504H144.055C142.627 48.504 141.913 49.2787 141.913 50.828V55H140.639V47.328H141.913V48.574ZM152.861 50.87C152.861 51.1127 152.847 51.3693 152.819 51.64H146.687C146.734 52.396 146.991 52.9887 147.457 53.418C147.933 53.838 148.507 54.048 149.179 54.048C149.73 54.048 150.187 53.922 150.551 53.67C150.925 53.4087 151.186 53.0633 151.335 52.634H152.707C152.502 53.3713 152.091 53.9733 151.475 54.44C150.859 54.8973 150.094 55.126 149.179 55.126C148.451 55.126 147.798 54.9627 147.219 54.636C146.65 54.3093 146.202 53.8473 145.875 53.25C145.549 52.6433 145.385 51.9433 145.385 51.15C145.385 50.3567 145.544 49.6613 145.861 49.064C146.179 48.4667 146.622 48.0093 147.191 47.692C147.77 47.3653 148.433 47.202 149.179 47.202C149.907 47.202 150.551 47.3607 151.111 47.678C151.671 47.9953 152.101 48.434 152.399 48.994C152.707 49.5447 152.861 50.17 152.861 50.87ZM151.545 50.604C151.545 50.1187 151.438 49.7033 151.223 49.358C151.009 49.0033 150.715 48.7373 150.341 48.56C149.977 48.3733 149.571 48.28 149.123 48.28C148.479 48.28 147.929 48.4853 147.471 48.896C147.023 49.3067 146.767 49.876 146.701 50.604H151.545ZM157.259 55.126C156.671 55.126 156.144 55.028 155.677 54.832C155.21 54.6267 154.842 54.3467 154.571 53.992C154.3 53.628 154.151 53.2127 154.123 52.746H155.439C155.476 53.1287 155.654 53.4413 155.971 53.684C156.298 53.9267 156.722 54.048 157.245 54.048C157.73 54.048 158.113 53.9407 158.393 53.726C158.673 53.5113 158.813 53.2407 158.813 52.914C158.813 52.578 158.664 52.3307 158.365 52.172C158.066 52.004 157.604 51.8407 156.979 51.682C156.41 51.5327 155.943 51.3833 155.579 51.234C155.224 51.0753 154.916 50.8467 154.655 50.548C154.403 50.24 154.277 49.8387 154.277 49.344C154.277 48.952 154.394 48.5927 154.627 48.266C154.86 47.9393 155.192 47.6827 155.621 47.496C156.05 47.3 156.54 47.202 157.091 47.202C157.94 47.202 158.626 47.4167 159.149 47.846C159.672 48.2753 159.952 48.8633 159.989 49.61H158.715C158.687 49.2087 158.524 48.8867 158.225 48.644C157.936 48.4013 157.544 48.28 157.049 48.28C156.592 48.28 156.228 48.378 155.957 48.574C155.686 48.77 155.551 49.0267 155.551 49.344C155.551 49.596 155.63 49.806 155.789 49.974C155.957 50.1327 156.162 50.2633 156.405 50.366C156.657 50.4593 157.002 50.5667 157.441 50.688C157.992 50.8373 158.44 50.9867 158.785 51.136C159.13 51.276 159.424 51.4907 159.667 51.78C159.919 52.0693 160.05 52.4473 160.059 52.914C160.059 53.334 159.942 53.712 159.709 54.048C159.476 54.384 159.144 54.65 158.715 54.846C158.295 55.0327 157.81 55.126 157.259 55.126ZM164.573 55.126C163.985 55.126 163.458 55.028 162.991 54.832C162.525 54.6267 162.156 54.3467 161.885 53.992C161.615 53.628 161.465 53.2127 161.437 52.746H162.753C162.791 53.1287 162.968 53.4413 163.285 53.684C163.612 53.9267 164.037 54.048 164.559 54.048C165.045 54.048 165.427 53.9407 165.707 53.726C165.987 53.5113 166.127 53.2407 166.127 52.914C166.127 52.578 165.978 52.3307 165.679 52.172C165.381 52.004 164.919 51.8407 164.293 51.682C163.724 51.5327 163.257 51.3833 162.893 51.234C162.539 51.0753 162.231 50.8467 161.969 50.548C161.717 50.24 161.591 49.8387 161.591 49.344C161.591 48.952 161.708 48.5927 161.941 48.266C162.175 47.9393 162.506 47.6827 162.935 47.496C163.365 47.3 163.855 47.202 164.405 47.202C165.255 47.202 165.941 47.4167 166.463 47.846C166.986 48.2753 167.266 48.8633 167.303 49.61H166.029C166.001 49.2087 165.838 48.8867 165.539 48.644C165.25 48.4013 164.858 48.28 164.363 48.28C163.906 48.28 163.542 48.378 163.271 48.574C163.001 48.77 162.865 49.0267 162.865 49.344C162.865 49.596 162.945 49.806 163.103 49.974C163.271 50.1327 163.477 50.2633 163.719 50.366C163.971 50.4593 164.317 50.5667 164.755 50.688C165.306 50.8373 165.754 50.9867 166.099 51.136C166.445 51.276 166.739 51.4907 166.981 51.78C167.233 52.0693 167.364 52.4473 167.373 52.914C167.373 53.334 167.257 53.712 167.023 54.048C166.79 54.384 166.459 54.65 166.029 54.846C165.609 55.0327 165.124 55.126 164.573 55.126Z" fill="#828690"/>
<g clip-path="url(#clip2_373_254)">
<path d="M9 118.5H3C1.34315 118.5 0 119.843 0 121.5V127.5C0 129.157 1.34315 130.5 3 130.5H9C10.6569 130.5 12 129.157 12 127.5V121.5C12 119.843 10.6569 118.5 9 118.5Z" fill="#FF9F00"/>
</g>
<g clip-path="url(#clip3_373_254)">
<path d="M9 82.5H3C1.34315 82.5 0 83.8431 0 85.5V91.5C0 93.1569 1.34315 94.5 3 94.5H9C10.6569 94.5 12 93.1569 12 91.5V85.5C12 83.8431 10.6569 82.5 9 82.5Z" fill="#FF5E5E"/>
</g>
<path d="M27.602 122.098C27.602 122.91 27.322 123.587 26.762 124.128C26.2113 124.66 25.3667 124.926 24.228 124.926H22.352V129H21.078V119.242H24.228C25.3293 119.242 26.1647 119.508 26.734 120.04C27.3127 120.572 27.602 121.258 27.602 122.098ZM24.228 123.876C24.9373 123.876 25.46 123.722 25.796 123.414C26.132 123.106 26.3 122.667 26.3 122.098C26.3 120.894 25.6093 120.292 24.228 120.292H22.352V123.876H24.228ZM28.7094 125.136C28.7094 124.352 28.8681 123.666 29.1854 123.078C29.5028 122.481 29.9368 122.019 30.4874 121.692C31.0474 121.365 31.6681 121.202 32.3494 121.202C33.0214 121.202 33.6048 121.347 34.0994 121.636C34.5941 121.925 34.9628 122.289 35.2054 122.728V121.328H36.4934V129H35.2054V127.572C34.9534 128.02 34.5754 128.393 34.0714 128.692C33.5768 128.981 32.9981 129.126 32.3354 129.126C31.6541 129.126 31.0381 128.958 30.4874 128.622C29.9368 128.286 29.5028 127.815 29.1854 127.208C28.8681 126.601 28.7094 125.911 28.7094 125.136ZM35.2054 125.15C35.2054 124.571 35.0888 124.067 34.8554 123.638C34.6221 123.209 34.3048 122.882 33.9034 122.658C33.5114 122.425 33.0774 122.308 32.6014 122.308C32.1254 122.308 31.6914 122.42 31.2994 122.644C30.9074 122.868 30.5948 123.195 30.3614 123.624C30.1281 124.053 30.0114 124.557 30.0114 125.136C30.0114 125.724 30.1281 126.237 30.3614 126.676C30.5948 127.105 30.9074 127.437 31.2994 127.67C31.6914 127.894 32.1254 128.006 32.6014 128.006C33.0774 128.006 33.5114 127.894 33.9034 127.67C34.3048 127.437 34.6221 127.105 34.8554 126.676C35.0888 126.237 35.2054 125.729 35.2054 125.15ZM45.2544 121.328L40.6344 132.612H39.3184L40.8304 128.916L37.7364 121.328H39.1504L41.5584 127.544L43.9384 121.328H45.2544ZM55.761 121.188C56.3584 121.188 56.8904 121.314 57.357 121.566C57.8237 121.809 58.1924 122.177 58.463 122.672C58.7337 123.167 58.869 123.769 58.869 124.478V129H57.609V124.66C57.609 123.895 57.4177 123.311 57.035 122.91C56.6617 122.499 56.153 122.294 55.509 122.294C54.8464 122.294 54.319 122.509 53.927 122.938C53.535 123.358 53.339 123.969 53.339 124.772V129H52.079V124.66C52.079 123.895 51.8877 123.311 51.505 122.91C51.1317 122.499 50.623 122.294 49.979 122.294C49.3164 122.294 48.789 122.509 48.397 122.938C48.005 123.358 47.809 123.969 47.809 124.772V129H46.535V121.328H47.809V122.434C48.061 122.033 48.397 121.725 48.817 121.51C49.2464 121.295 49.7177 121.188 50.231 121.188C50.875 121.188 51.4444 121.333 51.939 121.622C52.4337 121.911 52.8024 122.336 53.045 122.896C53.2597 122.355 53.6144 121.935 54.109 121.636C54.6037 121.337 55.1544 121.188 55.761 121.188ZM67.9589 124.87C67.9589 125.113 67.9449 125.369 67.9169 125.64H61.7849C61.8315 126.396 62.0882 126.989 62.5549 127.418C63.0309 127.838 63.6049 128.048 64.2769 128.048C64.8275 128.048 65.2849 127.922 65.6489 127.67C66.0222 127.409 66.2835 127.063 66.4329 126.634H67.8049C67.5995 127.371 67.1889 127.973 66.5729 128.44C65.9569 128.897 65.1915 129.126 64.2769 129.126C63.5489 129.126 62.8955 128.963 62.3169 128.636C61.7475 128.309 61.2995 127.847 60.9729 127.25C60.6462 126.643 60.4829 125.943 60.4829 125.15C60.4829 124.357 60.6415 123.661 60.9589 123.064C61.2762 122.467 61.7195 122.009 62.2889 121.692C62.8675 121.365 63.5302 121.202 64.2769 121.202C65.0049 121.202 65.6489 121.361 66.2089 121.678C66.7689 121.995 67.1982 122.434 67.4969 122.994C67.8049 123.545 67.9589 124.17 67.9589 124.87ZM66.6429 124.604C66.6429 124.119 66.5355 123.703 66.3209 123.358C66.1062 123.003 65.8122 122.737 65.4389 122.56C65.0749 122.373 64.6689 122.28 64.2209 122.28C63.5769 122.28 63.0262 122.485 62.5689 122.896C62.1209 123.307 61.8642 123.876 61.7989 124.604H66.6429ZM73.3785 121.188C74.3118 121.188 75.0678 121.473 75.6465 122.042C76.2252 122.602 76.5145 123.414 76.5145 124.478V129H75.2545V124.66C75.2545 123.895 75.0632 123.311 74.6805 122.91C74.2978 122.499 73.7752 122.294 73.1125 122.294C72.4405 122.294 71.9038 122.504 71.5025 122.924C71.1105 123.344 70.9145 123.955 70.9145 124.758V129H69.6405V121.328H70.9145V122.42C71.1665 122.028 71.5072 121.725 71.9365 121.51C72.3752 121.295 72.8558 121.188 73.3785 121.188ZM80.1496 122.378V126.9C80.1496 127.273 80.2289 127.539 80.3876 127.698C80.5462 127.847 80.8216 127.922 81.2136 127.922H82.1516V129H81.0036C80.2942 129 79.7622 128.837 79.4076 128.51C79.0529 128.183 78.8756 127.647 78.8756 126.9V122.378H77.8816V121.328H78.8756V119.396H80.1496V121.328H82.1516V122.378H80.1496ZM88.7016 122.742C88.9536 122.303 89.3269 121.939 89.8216 121.65C90.3256 121.351 90.9089 121.202 91.5716 121.202C92.2529 121.202 92.8689 121.365 93.4196 121.692C93.9796 122.019 94.4183 122.481 94.7356 123.078C95.0529 123.666 95.2116 124.352 95.2116 125.136C95.2116 125.911 95.0529 126.601 94.7356 127.208C94.4183 127.815 93.9796 128.286 93.4196 128.622C92.8689 128.958 92.2529 129.126 91.5716 129.126C90.9183 129.126 90.3396 128.981 89.8356 128.692C89.3409 128.393 88.9629 128.025 88.7016 127.586V132.64H87.4276V121.328H88.7016V122.742ZM93.9096 125.136C93.9096 124.557 93.7929 124.053 93.5596 123.624C93.3263 123.195 93.0089 122.868 92.6076 122.644C92.2156 122.42 91.7816 122.308 91.3056 122.308C90.8389 122.308 90.4049 122.425 90.0036 122.658C89.6116 122.882 89.2943 123.213 89.0516 123.652C88.8183 124.081 88.7016 124.581 88.7016 125.15C88.7016 125.729 88.8183 126.237 89.0516 126.676C89.2943 127.105 89.6116 127.437 90.0036 127.67C90.4049 127.894 90.8389 128.006 91.3056 128.006C91.7816 128.006 92.2156 127.894 92.6076 127.67C93.0089 127.437 93.3263 127.105 93.5596 126.676C93.7929 126.237 93.9096 125.724 93.9096 125.136ZM103.889 124.87C103.889 125.113 103.875 125.369 103.847 125.64H97.7145C97.7612 126.396 98.0179 126.989 98.4845 127.418C98.9605 127.838 99.5345 128.048 100.207 128.048C100.757 128.048 101.215 127.922 101.579 127.67C101.952 127.409 102.213 127.063 102.363 126.634H103.735C103.529 127.371 103.119 127.973 102.503 128.44C101.887 128.897 101.121 129.126 100.207 129.126C99.4785 129.126 98.8252 128.963 98.2465 128.636C97.6772 128.309 97.2292 127.847 96.9025 127.25C96.5759 126.643 96.4125 125.943 96.4125 125.15C96.4125 124.357 96.5712 123.661 96.8885 123.064C97.2059 122.467 97.6492 122.009 98.2185 121.692C98.7972 121.365 99.4599 121.202 100.207 121.202C100.935 121.202 101.579 121.361 102.139 121.678C102.699 121.995 103.128 122.434 103.427 122.994C103.735 123.545 103.889 124.17 103.889 124.87ZM102.573 124.604C102.573 124.119 102.465 123.703 102.251 123.358C102.036 123.003 101.742 122.737 101.369 122.56C101.005 122.373 100.599 122.28 100.151 122.28C99.5065 122.28 98.9559 122.485 98.4985 122.896C98.0505 123.307 97.7939 123.876 97.7285 124.604H102.573ZM109.308 121.188C110.242 121.188 110.998 121.473 111.576 122.042C112.155 122.602 112.444 123.414 112.444 124.478V129H111.184V124.66C111.184 123.895 110.993 123.311 110.61 122.91C110.228 122.499 109.705 122.294 109.042 122.294C108.37 122.294 107.834 122.504 107.432 122.924C107.04 123.344 106.844 123.955 106.844 124.758V129H105.57V121.328H106.844V122.42C107.096 122.028 107.437 121.725 107.866 121.51C108.305 121.295 108.786 121.188 109.308 121.188ZM114.049 125.136C114.049 124.352 114.208 123.666 114.525 123.078C114.843 122.481 115.277 122.019 115.827 121.692C116.387 121.365 117.013 121.202 117.703 121.202C118.301 121.202 118.856 121.342 119.369 121.622C119.883 121.893 120.275 122.252 120.545 122.7V118.64H121.833V129H120.545V127.558C120.293 128.015 119.92 128.393 119.425 128.692C118.931 128.981 118.352 129.126 117.689 129.126C117.008 129.126 116.387 128.958 115.827 128.622C115.277 128.286 114.843 127.815 114.525 127.208C114.208 126.601 114.049 125.911 114.049 125.136ZM120.545 125.15C120.545 124.571 120.429 124.067 120.195 123.638C119.962 123.209 119.645 122.882 119.243 122.658C118.851 122.425 118.417 122.308 117.941 122.308C117.465 122.308 117.031 122.42 116.639 122.644C116.247 122.868 115.935 123.195 115.701 123.624C115.468 124.053 115.351 124.557 115.351 125.136C115.351 125.724 115.468 126.237 115.701 126.676C115.935 127.105 116.247 127.437 116.639 127.67C117.031 127.894 117.465 128.006 117.941 128.006C118.417 128.006 118.851 127.894 119.243 127.67C119.645 127.437 119.962 127.105 120.195 126.676C120.429 126.237 120.545 125.729 120.545 125.15ZM124.644 120.082C124.402 120.082 124.196 119.998 124.028 119.83C123.86 119.662 123.776 119.457 123.776 119.214C123.776 118.971 123.86 118.766 124.028 118.598C124.196 118.43 124.402 118.346 124.644 118.346C124.878 118.346 125.074 118.43 125.232 118.598C125.4 118.766 125.484 118.971 125.484 119.214C125.484 119.457 125.4 119.662 125.232 119.83C125.074 119.998 124.878 120.082 124.644 120.082ZM125.26 121.328V129H123.986V121.328H125.26ZM131.17 121.188C132.103 121.188 132.859 121.473 133.438 122.042C134.016 122.602 134.306 123.414 134.306 124.478V129H133.046V124.66C133.046 123.895 132.854 123.311 132.472 122.91C132.089 122.499 131.566 122.294 130.904 122.294C130.232 122.294 129.695 122.504 129.294 122.924C128.902 123.344 128.706 123.955 128.706 124.758V129H127.432V121.328H128.706V122.42C128.958 122.028 129.298 121.725 129.728 121.51C130.166 121.295 130.647 121.188 131.17 121.188ZM139.551 121.202C140.213 121.202 140.792 121.347 141.287 121.636C141.791 121.925 142.164 122.289 142.407 122.728V121.328H143.695V129.168C143.695 129.868 143.545 130.489 143.247 131.03C142.948 131.581 142.519 132.01 141.959 132.318C141.408 132.626 140.764 132.78 140.027 132.78C139.019 132.78 138.179 132.542 137.507 132.066C136.835 131.59 136.438 130.941 136.317 130.12H137.577C137.717 130.587 138.006 130.96 138.445 131.24C138.883 131.529 139.411 131.674 140.027 131.674C140.727 131.674 141.296 131.455 141.735 131.016C142.183 130.577 142.407 129.961 142.407 129.168V127.558C142.155 128.006 141.781 128.379 141.287 128.678C140.792 128.977 140.213 129.126 139.551 129.126C138.869 129.126 138.249 128.958 137.689 128.622C137.138 128.286 136.704 127.815 136.387 127.208C136.069 126.601 135.911 125.911 135.911 125.136C135.911 124.352 136.069 123.666 136.387 123.078C136.704 122.481 137.138 122.019 137.689 121.692C138.249 121.365 138.869 121.202 139.551 121.202ZM142.407 125.15C142.407 124.571 142.29 124.067 142.057 123.638C141.823 123.209 141.506 122.882 141.105 122.658C140.713 122.425 140.279 122.308 139.803 122.308C139.327 122.308 138.893 122.42 138.501 122.644C138.109 122.868 137.796 123.195 137.563 123.624C137.329 124.053 137.213 124.557 137.213 125.136C137.213 125.724 137.329 126.237 137.563 126.676C137.796 127.105 138.109 127.437 138.501 127.67C138.893 127.894 139.327 128.006 139.803 128.006C140.279 128.006 140.713 127.894 141.105 127.67C141.506 127.437 141.823 127.105 142.057 126.676C142.29 126.237 142.407 125.729 142.407 125.15Z" fill="#828690"/>
<path d="M27.602 86.098C27.602 86.91 27.322 87.5867 26.762 88.128C26.2113 88.66 25.3667 88.926 24.228 88.926H22.352V93H21.078V83.242H24.228C25.3293 83.242 26.1647 83.508 26.734 84.04C27.3127 84.572 27.602 85.258 27.602 86.098ZM24.228 87.876C24.9373 87.876 25.46 87.722 25.796 87.414C26.132 87.106 26.3 86.6673 26.3 86.098C26.3 84.894 25.6093 84.292 24.228 84.292H22.352V87.876H24.228ZM28.7094 89.136C28.7094 88.352 28.8681 87.666 29.1854 87.078C29.5028 86.4807 29.9368 86.0187 30.4874 85.692C31.0474 85.3653 31.6681 85.202 32.3494 85.202C33.0214 85.202 33.6048 85.3467 34.0994 85.636C34.5941 85.9253 34.9628 86.2893 35.2054 86.728V85.328H36.4934V93H35.2054V91.572C34.9534 92.02 34.5754 92.3933 34.0714 92.692C33.5768 92.9813 32.9981 93.126 32.3354 93.126C31.6541 93.126 31.0381 92.958 30.4874 92.622C29.9368 92.286 29.5028 91.8147 29.1854 91.208C28.8681 90.6013 28.7094 89.9107 28.7094 89.136ZM35.2054 89.15C35.2054 88.5713 35.0888 88.0673 34.8554 87.638C34.6221 87.2087 34.3048 86.882 33.9034 86.658C33.5114 86.4247 33.0774 86.308 32.6014 86.308C32.1254 86.308 31.6914 86.42 31.2994 86.644C30.9074 86.868 30.5948 87.1947 30.3614 87.624C30.1281 88.0533 30.0114 88.5573 30.0114 89.136C30.0114 89.724 30.1281 90.2373 30.3614 90.676C30.5948 91.1053 30.9074 91.4367 31.2994 91.67C31.6914 91.894 32.1254 92.006 32.6014 92.006C33.0774 92.006 33.5114 91.894 33.9034 91.67C34.3048 91.4367 34.6221 91.1053 34.8554 90.676C35.0888 90.2373 35.2054 89.7287 35.2054 89.15ZM45.2544 85.328L40.6344 96.612H39.3184L40.8304 92.916L37.7364 85.328H39.1504L41.5584 91.544L43.9384 85.328H45.2544ZM55.761 85.188C56.3584 85.188 56.8904 85.314 57.357 85.566C57.8237 85.8087 58.1924 86.1773 58.463 86.672C58.7337 87.1667 58.869 87.7687 58.869 88.478V93H57.609V88.66C57.609 87.8947 57.4177 87.3113 57.035 86.91C56.6617 86.4993 56.153 86.294 55.509 86.294C54.8464 86.294 54.319 86.5087 53.927 86.938C53.535 87.358 53.339 87.9693 53.339 88.772V93H52.079V88.66C52.079 87.8947 51.8877 87.3113 51.505 86.91C51.1317 86.4993 50.623 86.294 49.979 86.294C49.3164 86.294 48.789 86.5087 48.397 86.938C48.005 87.358 47.809 87.9693 47.809 88.772V93H46.535V85.328H47.809V86.434C48.061 86.0327 48.397 85.7247 48.817 85.51C49.2464 85.2953 49.7177 85.188 50.231 85.188C50.875 85.188 51.4444 85.3327 51.939 85.622C52.4337 85.9113 52.8024 86.336 53.045 86.896C53.2597 86.3547 53.6144 85.9347 54.109 85.636C54.6037 85.3373 55.1544 85.188 55.761 85.188ZM67.9589 88.87C67.9589 89.1127 67.9449 89.3693 67.9169 89.64H61.7849C61.8315 90.396 62.0882 90.9887 62.5549 91.418C63.0309 91.838 63.6049 92.048 64.2769 92.048C64.8275 92.048 65.2849 91.922 65.6489 91.67C66.0222 91.4087 66.2835 91.0633 66.4329 90.634H67.8049C67.5995 91.3713 67.1889 91.9733 66.5729 92.44C65.9569 92.8973 65.1915 93.126 64.2769 93.126C63.5489 93.126 62.8955 92.9627 62.3169 92.636C61.7475 92.3093 61.2995 91.8473 60.9729 91.25C60.6462 90.6433 60.4829 89.9433 60.4829 89.15C60.4829 88.3567 60.6415 87.6613 60.9589 87.064C61.2762 86.4667 61.7195 86.0093 62.2889 85.692C62.8675 85.3653 63.5302 85.202 64.2769 85.202C65.0049 85.202 65.6489 85.3607 66.2089 85.678C66.7689 85.9953 67.1982 86.434 67.4969 86.994C67.8049 87.5447 67.9589 88.17 67.9589 88.87ZM66.6429 88.604C66.6429 88.1187 66.5355 87.7033 66.3209 87.358C66.1062 87.0033 65.8122 86.7373 65.4389 86.56C65.0749 86.3733 64.6689 86.28 64.2209 86.28C63.5769 86.28 63.0262 86.4853 62.5689 86.896C62.1209 87.3067 61.8642 87.876 61.7989 88.604H66.6429ZM73.3785 85.188C74.3118 85.188 75.0678 85.4727 75.6465 86.042C76.2252 86.602 76.5145 87.414 76.5145 88.478V93H75.2545V88.66C75.2545 87.8947 75.0632 87.3113 74.6805 86.91C74.2978 86.4993 73.7752 86.294 73.1125 86.294C72.4405 86.294 71.9038 86.504 71.5025 86.924C71.1105 87.344 70.9145 87.9553 70.9145 88.758V93H69.6405V85.328H70.9145V86.42C71.1665 86.028 71.5072 85.7247 71.9365 85.51C72.3752 85.2953 72.8558 85.188 73.3785 85.188ZM80.1496 86.378V90.9C80.1496 91.2733 80.2289 91.5393 80.3876 91.698C80.5462 91.8473 80.8216 91.922 81.2136 91.922H82.1516V93H81.0036C80.2942 93 79.7622 92.8367 79.4076 92.51C79.0529 92.1833 78.8756 91.6467 78.8756 90.9V86.378H77.8816V85.328H78.8756V83.396H80.1496V85.328H82.1516V86.378H80.1496ZM86.9516 89.136C86.9516 88.352 87.1103 87.666 87.4276 87.078C87.7449 86.4807 88.1789 86.0187 88.7296 85.692C89.2896 85.3653 89.9149 85.202 90.6056 85.202C91.2029 85.202 91.7583 85.342 92.2716 85.622C92.7849 85.8927 93.1769 86.252 93.4476 86.7V82.64H94.7356V93H93.4476V91.558C93.1956 92.0153 92.8223 92.3933 92.3276 92.692C91.8329 92.9813 91.2543 93.126 90.5916 93.126C89.9103 93.126 89.2896 92.958 88.7296 92.622C88.1789 92.286 87.7449 91.8147 87.4276 91.208C87.1103 90.6013 86.9516 89.9107 86.9516 89.136ZM93.4476 89.15C93.4476 88.5713 93.3309 88.0673 93.0976 87.638C92.8643 87.2087 92.5469 86.882 92.1456 86.658C91.7536 86.4247 91.3196 86.308 90.8436 86.308C90.3676 86.308 89.9336 86.42 89.5416 86.644C89.1496 86.868 88.8369 87.1947 88.6036 87.624C88.3703 88.0533 88.2536 88.5573 88.2536 89.136C88.2536 89.724 88.3703 90.2373 88.6036 90.676C88.8369 91.1053 89.1496 91.4367 89.5416 91.67C89.9336 91.894 90.3676 92.006 90.8436 92.006C91.3196 92.006 91.7536 91.894 92.1456 91.67C92.5469 91.4367 92.8643 91.1053 93.0976 90.676C93.3309 90.2373 93.4476 89.7287 93.4476 89.15ZM103.889 88.87C103.889 89.1127 103.875 89.3693 103.847 89.64H97.7145C97.7612 90.396 98.0179 90.9887 98.4845 91.418C98.9605 91.838 99.5345 92.048 100.207 92.048C100.757 92.048 101.215 91.922 101.579 91.67C101.952 91.4087 102.213 91.0633 102.363 90.634H103.735C103.529 91.3713 103.119 91.9733 102.503 92.44C101.887 92.8973 101.121 93.126 100.207 93.126C99.4785 93.126 98.8252 92.9627 98.2465 92.636C97.6772 92.3093 97.2292 91.8473 96.9025 91.25C96.5759 90.6433 96.4125 89.9433 96.4125 89.15C96.4125 88.3567 96.5712 87.6613 96.8885 87.064C97.2059 86.4667 97.6492 86.0093 98.2185 85.692C98.7972 85.3653 99.4599 85.202 100.207 85.202C100.935 85.202 101.579 85.3607 102.139 85.678C102.699 85.9953 103.128 86.434 103.427 86.994C103.735 87.5447 103.889 88.17 103.889 88.87ZM102.573 88.604C102.573 88.1187 102.465 87.7033 102.251 87.358C102.036 87.0033 101.742 86.7373 101.369 86.56C101.005 86.3733 100.599 86.28 100.151 86.28C99.5065 86.28 98.9559 86.4853 98.4985 86.896C98.0505 87.3067 97.7939 87.876 97.7285 88.604H102.573ZM109.308 85.188C110.242 85.188 110.998 85.4727 111.576 86.042C112.155 86.602 112.444 87.414 112.444 88.478V93H111.184V88.66C111.184 87.8947 110.993 87.3113 110.61 86.91C110.228 86.4993 109.705 86.294 109.042 86.294C108.37 86.294 107.834 86.504 107.432 86.924C107.04 87.344 106.844 87.9553 106.844 88.758V93H105.57V85.328H106.844V86.42C107.096 86.028 107.437 85.7247 107.866 85.51C108.305 85.2953 108.786 85.188 109.308 85.188ZM115.183 84.082C114.941 84.082 114.735 83.998 114.567 83.83C114.399 83.662 114.315 83.4567 114.315 83.214C114.315 82.9713 114.399 82.766 114.567 82.598C114.735 82.43 114.941 82.346 115.183 82.346C115.417 82.346 115.613 82.43 115.771 82.598C115.939 82.766 116.023 82.9713 116.023 83.214C116.023 83.4567 115.939 83.662 115.771 83.83C115.613 83.998 115.417 84.082 115.183 84.082ZM115.799 85.328V93H114.525V85.328H115.799ZM124.971 88.87C124.971 89.1127 124.957 89.3693 124.929 89.64H118.797C118.843 90.396 119.1 90.9887 119.567 91.418C120.043 91.838 120.617 92.048 121.289 92.048C121.839 92.048 122.297 91.922 122.661 91.67C123.034 91.4087 123.295 91.0633 123.445 90.634H124.817C124.611 91.3713 124.201 91.9733 123.585 92.44C122.969 92.8973 122.203 93.126 121.289 93.126C120.561 93.126 119.907 92.9627 119.329 92.636C118.759 92.3093 118.311 91.8473 117.985 91.25C117.658 90.6433 117.495 89.9433 117.495 89.15C117.495 88.3567 117.653 87.6613 117.971 87.064C118.288 86.4667 118.731 86.0093 119.301 85.692C119.879 85.3653 120.542 85.202 121.289 85.202C122.017 85.202 122.661 85.3607 123.221 85.678C123.781 85.9953 124.21 86.434 124.509 86.994C124.817 87.5447 124.971 88.17 124.971 88.87ZM123.655 88.604C123.655 88.1187 123.547 87.7033 123.333 87.358C123.118 87.0033 122.824 86.7373 122.451 86.56C122.087 86.3733 121.681 86.28 121.233 86.28C120.589 86.28 120.038 86.4853 119.581 86.896C119.133 87.3067 118.876 87.876 118.811 88.604H123.655ZM126.176 89.136C126.176 88.352 126.335 87.666 126.652 87.078C126.97 86.4807 127.404 86.0187 127.954 85.692C128.514 85.3653 129.14 85.202 129.83 85.202C130.428 85.202 130.983 85.342 131.496 85.622C132.01 85.8927 132.402 86.252 132.672 86.7V82.64H133.96V93H132.672V91.558C132.42 92.0153 132.047 92.3933 131.552 92.692C131.058 92.9813 130.479 93.126 129.816 93.126C129.135 93.126 128.514 92.958 127.954 92.622C127.404 92.286 126.97 91.8147 126.652 91.208C126.335 90.6013 126.176 89.9107 126.176 89.136ZM132.672 89.15C132.672 88.5713 132.556 88.0673 132.322 87.638C132.089 87.2087 131.772 86.882 131.37 86.658C130.978 86.4247 130.544 86.308 130.068 86.308C129.592 86.308 129.158 86.42 128.766 86.644C128.374 86.868 128.062 87.1947 127.828 87.624C127.595 88.0533 127.478 88.5573 127.478 89.136C127.478 89.724 127.595 90.2373 127.828 90.676C128.062 91.1053 128.374 91.4367 128.766 91.67C129.158 91.894 129.592 92.006 130.068 92.006C130.544 92.006 130.978 91.894 131.37 91.67C131.772 91.4367 132.089 91.1053 132.322 90.676C132.556 90.2373 132.672 89.7287 132.672 89.15Z" fill="#828690"/>
<defs>
<clipPath id="clip0_373_254">
<rect width="12" height="13" fill="white" transform="translate(0 7)"/>
</clipPath>
<clipPath id="clip1_373_254">
<rect width="12" height="13" fill="white" transform="translate(0 44)"/>
</clipPath>
<clipPath id="clip2_373_254">
<rect width="12" height="13" fill="white" transform="translate(0 118)"/>
</clipPath>
<clipPath id="clip3_373_254">
<rect width="12" height="13" fill="white" transform="translate(0 82)"/>
</clipPath>
</defs>
</svg>
