<svg width="162" height="217" viewBox="0 0 162 217" fill="none" xmlns="http://www.w3.org/2000/svg">
<path d="M81 43C91.7401 43 102.328 45.4464 111.897 50.1391C121.467 54.8318 129.746 61.6376 136.059 70.0001C142.372 78.3625 146.539 88.0442 148.219 98.2535C149.899 108.463 149.045 118.91 145.726 128.741L139.253 126.717C142.24 117.869 143.009 108.467 141.497 99.2782C139.985 90.0898 136.235 81.3763 130.553 73.85C124.872 66.3238 117.42 60.1986 108.807 55.9752C100.195 51.7517 90.6661 49.55 81 49.55V43Z" fill="#FF9F00" stroke="white" stroke-width="2"/>
<path d="M145.726 128.741C141.285 141.896 132.631 153.36 121.003 161.491C109.376 169.621 95.3726 174 81.0004 174C66.6282 174 52.6249 169.621 40.9975 161.491C29.3702 153.36 20.7157 141.896 16.2744 128.741L22.747 126.717C26.7441 138.556 34.5332 148.874 44.9978 156.192C55.4625 163.509 68.0654 167.45 81.0004 167.45C93.9354 167.45 106.538 163.509 117.003 156.192C127.468 148.874 135.257 138.556 139.254 126.717L145.726 128.741Z" fill="#0D99FF" stroke="white" stroke-width="2"/>
<path d="M16.2743 128.741C11.833 115.585 11.833 101.415 16.2743 88.2594C20.7156 75.1042 29.3701 63.6398 40.9974 55.5095L44.9977 60.8085C34.5331 68.1259 26.744 78.4438 22.7469 90.2835C18.7498 102.123 18.7498 114.877 22.7469 126.717L16.2743 128.741Z" fill="#3AC977" stroke="white" stroke-width="2"/>
<path d="M40.998 55.5094C52.6221 47.3813 66.6209 43.0024 80.989 43L80.9902 49.55C68.0589 49.5522 55.46 53.4932 44.9983 60.8084L40.998 55.5094Z" fill="#FF5E5E" stroke="white" stroke-width="2"/>
<path d="M40.5728 118.333V119.147H38.4828V126H37.4818V119.147H35.3808V118.333H40.5728ZM44.434 126.099C43.8693 126.099 43.356 125.971 42.894 125.714C42.4393 125.457 42.08 125.094 41.816 124.625C41.5593 124.148 41.431 123.598 41.431 122.975C41.431 122.359 41.563 121.816 41.827 121.347C42.0983 120.87 42.465 120.507 42.927 120.258C43.389 120.001 43.906 119.873 44.478 119.873C45.05 119.873 45.567 120.001 46.029 120.258C46.491 120.507 46.854 120.867 47.118 121.336C47.3893 121.805 47.525 122.352 47.525 122.975C47.525 123.598 47.3857 124.148 47.107 124.625C46.8357 125.094 46.4653 125.457 45.996 125.714C45.5267 125.971 45.006 126.099 44.434 126.099ZM44.434 125.219C44.7933 125.219 45.1307 125.135 45.446 124.966C45.7613 124.797 46.0143 124.544 46.205 124.207C46.403 123.87 46.502 123.459 46.502 122.975C46.502 122.491 46.4067 122.08 46.216 121.743C46.0253 121.406 45.776 121.156 45.468 120.995C45.16 120.826 44.8263 120.742 44.467 120.742C44.1003 120.742 43.763 120.826 43.455 120.995C43.1543 121.156 42.9123 121.406 42.729 121.743C42.5457 122.08 42.454 122.491 42.454 122.975C42.454 123.466 42.542 123.881 42.718 124.218C42.9013 124.555 43.1433 124.808 43.444 124.977C43.7447 125.138 44.0747 125.219 44.434 125.219ZM50.0621 120.797V124.35C50.0621 124.643 50.1245 124.852 50.2491 124.977C50.3738 125.094 50.5901 125.153 50.8981 125.153H51.6351V126H50.7331C50.1758 126 49.7578 125.872 49.4791 125.615C49.2005 125.358 49.0611 124.937 49.0611 124.35V120.797H48.2801V119.972H49.0611V118.454H50.0621V119.972H51.6351V120.797H50.0621ZM52.474 122.964C52.474 122.348 52.5986 121.809 52.848 121.347C53.0973 120.878 53.4383 120.515 53.871 120.258C54.311 120.001 54.7986 119.873 55.334 119.873C55.862 119.873 56.3203 119.987 56.709 120.214C57.0976 120.441 57.3873 120.727 57.578 121.072V119.972H58.59V126H57.578V124.878C57.38 125.23 57.083 125.523 56.687 125.758C56.2983 125.985 55.8436 126.099 55.323 126.099C54.7876 126.099 54.3036 125.967 53.871 125.703C53.4383 125.439 53.0973 125.069 52.848 124.592C52.5986 124.115 52.474 123.573 52.474 122.964ZM57.578 122.975C57.578 122.52 57.4863 122.124 57.303 121.787C57.1196 121.45 56.8703 121.193 56.555 121.017C56.247 120.834 55.906 120.742 55.532 120.742C55.158 120.742 54.817 120.83 54.509 121.006C54.201 121.182 53.9553 121.439 53.772 121.776C53.5886 122.113 53.497 122.509 53.497 122.964C53.497 123.426 53.5886 123.829 53.772 124.174C53.9553 124.511 54.201 124.772 54.509 124.955C54.817 125.131 55.158 125.219 55.532 125.219C55.906 125.219 56.247 125.131 56.555 124.955C56.8703 124.772 57.1196 124.511 57.303 124.174C57.4863 123.829 57.578 123.43 57.578 122.975ZM61.2826 117.86V126H60.2816V117.86H61.2826ZM71.4212 122.755C71.4212 122.946 71.4102 123.147 71.3882 123.36H66.5702C66.6069 123.954 66.8086 124.42 67.1752 124.757C67.5492 125.087 68.0002 125.252 68.5282 125.252C68.9609 125.252 69.3202 125.153 69.6062 124.955C69.8996 124.75 70.1049 124.478 70.2222 124.141H71.3002C71.1389 124.72 70.8162 125.193 70.3322 125.56C69.8482 125.919 69.2469 126.099 68.5282 126.099C67.9562 126.099 67.4429 125.971 66.9882 125.714C66.5409 125.457 66.1889 125.094 65.9322 124.625C65.6756 124.148 65.5472 123.598 65.5472 122.975C65.5472 122.352 65.6719 121.805 65.9212 121.336C66.1706 120.867 66.5189 120.507 66.9662 120.258C67.4209 120.001 67.9416 119.873 68.5282 119.873C69.1002 119.873 69.6062 119.998 70.0462 120.247C70.4862 120.496 70.8236 120.841 71.0582 121.281C71.3002 121.714 71.4212 122.205 71.4212 122.755ZM70.3872 122.546C70.3872 122.165 70.3029 121.838 70.1342 121.567C69.9656 121.288 69.7346 121.079 69.4412 120.94C69.1552 120.793 68.8362 120.72 68.4842 120.72C67.9782 120.72 67.5456 120.881 67.1862 121.204C66.8342 121.527 66.6326 121.974 66.5812 122.546H70.3872ZM79.9915 119.862C80.4608 119.862 80.8788 119.961 81.2455 120.159C81.6122 120.35 81.9018 120.639 82.1145 121.028C82.3272 121.417 82.4335 121.89 82.4335 122.447V126H81.4435V122.59C81.4435 121.989 81.2932 121.53 80.9925 121.215C80.6992 120.892 80.2995 120.731 79.7935 120.731C79.2728 120.731 78.8585 120.9 78.5505 121.237C78.2425 121.567 78.0885 122.047 78.0885 122.678V126H77.0985V122.59C77.0985 121.989 76.9482 121.53 76.6475 121.215C76.3542 120.892 75.9545 120.731 75.4485 120.731C74.9278 120.731 74.5135 120.9 74.2055 121.237C73.8975 121.567 73.7435 122.047 73.7435 122.678V126H72.7425V119.972H73.7435V120.841C73.9415 120.526 74.2055 120.284 74.5355 120.115C74.8728 119.946 75.2432 119.862 75.6465 119.862C76.1525 119.862 76.5998 119.976 76.9885 120.203C77.3772 120.43 77.6668 120.764 77.8575 121.204C78.0262 120.779 78.3048 120.449 78.6935 120.214C79.0822 119.979 79.5148 119.862 79.9915 119.862ZM85.0765 121.083C85.2745 120.738 85.5678 120.452 85.9565 120.225C86.3525 119.99 86.8108 119.873 87.3315 119.873C87.8668 119.873 88.3508 120.001 88.7835 120.258C89.2235 120.515 89.5682 120.878 89.8175 121.347C90.0668 121.809 90.1915 122.348 90.1915 122.964C90.1915 123.573 90.0668 124.115 89.8175 124.592C89.5682 125.069 89.2235 125.439 88.7835 125.703C88.3508 125.967 87.8668 126.099 87.3315 126.099C86.8182 126.099 86.3635 125.985 85.9675 125.758C85.5788 125.523 85.2818 125.234 85.0765 124.889V128.86H84.0755V119.972H85.0765V121.083ZM89.1685 122.964C89.1685 122.509 89.0768 122.113 88.8935 121.776C88.7102 121.439 88.4608 121.182 88.1455 121.006C87.8375 120.83 87.4965 120.742 87.1225 120.742C86.7558 120.742 86.4148 120.834 86.0995 121.017C85.7915 121.193 85.5422 121.453 85.3515 121.798C85.1682 122.135 85.0765 122.528 85.0765 122.975C85.0765 123.43 85.1682 123.829 85.3515 124.174C85.5422 124.511 85.7915 124.772 86.0995 124.955C86.4148 125.131 86.7558 125.219 87.1225 125.219C87.4965 125.219 87.8375 125.131 88.1455 124.955C88.4608 124.772 88.7102 124.511 88.8935 124.174C89.0768 123.829 89.1685 123.426 89.1685 122.964ZM92.5101 117.86V126H91.5091V117.86H92.5101ZM96.8451 126.099C96.2805 126.099 95.7671 125.971 95.3051 125.714C94.8505 125.457 94.4911 125.094 94.2271 124.625C93.9705 124.148 93.8421 123.598 93.8421 122.975C93.8421 122.359 93.9741 121.816 94.2381 121.347C94.5095 120.87 94.8761 120.507 95.3381 120.258C95.8001 120.001 96.3171 119.873 96.8891 119.873C97.4611 119.873 97.9781 120.001 98.4401 120.258C98.9021 120.507 99.2651 120.867 99.5291 121.336C99.8005 121.805 99.9361 122.352 99.9361 122.975C99.9361 123.598 99.7968 124.148 99.5181 124.625C99.2468 125.094 98.8765 125.457 98.4071 125.714C97.9378 125.971 97.4171 126.099 96.8451 126.099ZM96.8451 125.219C97.2045 125.219 97.5418 125.135 97.8571 124.966C98.1725 124.797 98.4255 124.544 98.6161 124.207C98.8141 123.87 98.9131 123.459 98.9131 122.975C98.9131 122.491 98.8178 122.08 98.6271 121.743C98.4365 121.406 98.1871 121.156 97.8791 120.995C97.5711 120.826 97.2375 120.742 96.8781 120.742C96.5115 120.742 96.1741 120.826 95.8661 120.995C95.5655 121.156 95.3235 121.406 95.1401 121.743C94.9568 122.08 94.8651 122.491 94.8651 122.975C94.8651 123.466 94.9531 123.881 95.1291 124.218C95.3125 124.555 95.5545 124.808 95.8551 124.977C96.1558 125.138 96.4858 125.219 96.8451 125.219ZM106.444 119.972L102.814 128.838H101.78L102.968 125.934L100.537 119.972H101.648L103.54 124.856L105.41 119.972H106.444ZM112.951 122.755C112.951 122.946 112.94 123.147 112.918 123.36H108.1C108.136 123.954 108.338 124.42 108.705 124.757C109.079 125.087 109.53 125.252 110.058 125.252C110.49 125.252 110.85 125.153 111.136 124.955C111.429 124.75 111.634 124.478 111.752 124.141H112.83C112.668 124.72 112.346 125.193 111.862 125.56C111.378 125.919 110.776 126.099 110.058 126.099C109.486 126.099 108.972 125.971 108.518 125.714C108.07 125.457 107.718 125.094 107.462 124.625C107.205 124.148 107.077 123.598 107.077 122.975C107.077 122.352 107.201 121.805 107.451 121.336C107.7 120.867 108.048 120.507 108.496 120.258C108.95 120.001 109.471 119.873 110.058 119.873C110.63 119.873 111.136 119.998 111.576 120.247C112.016 120.496 112.353 120.841 112.588 121.281C112.83 121.714 112.951 122.205 112.951 122.755ZM111.917 122.546C111.917 122.165 111.832 121.838 111.664 121.567C111.495 121.288 111.264 121.079 110.971 120.94C110.685 120.793 110.366 120.72 110.014 120.72C109.508 120.72 109.075 120.881 108.716 121.204C108.364 121.527 108.162 121.974 108.111 122.546H111.917ZM119.772 122.755C119.772 122.946 119.761 123.147 119.739 123.36H114.921C114.957 123.954 115.159 124.42 115.526 124.757C115.9 125.087 116.351 125.252 116.879 125.252C117.311 125.252 117.671 125.153 117.957 124.955C118.25 124.75 118.455 124.478 118.573 124.141H119.651C119.489 124.72 119.167 125.193 118.683 125.56C118.199 125.919 117.597 126.099 116.879 126.099C116.307 126.099 115.793 125.971 115.339 125.714C114.891 125.457 114.539 125.094 114.283 124.625C114.026 124.148 113.898 123.598 113.898 122.975C113.898 122.352 114.022 121.805 114.272 121.336C114.521 120.867 114.869 120.507 115.317 120.258C115.771 120.001 116.292 119.873 116.879 119.873C117.451 119.873 117.957 119.998 118.397 120.247C118.837 120.496 119.174 120.841 119.409 121.281C119.651 121.714 119.772 122.205 119.772 122.755ZM118.738 122.546C118.738 122.165 118.653 121.838 118.485 121.567C118.316 121.288 118.085 121.079 117.792 120.94C117.506 120.793 117.187 120.72 116.835 120.72C116.329 120.72 115.896 120.881 115.537 121.204C115.185 121.527 114.983 121.974 114.932 122.546H118.738ZM123.227 126.099C122.765 126.099 122.351 126.022 121.984 125.868C121.617 125.707 121.328 125.487 121.115 125.208C120.902 124.922 120.785 124.596 120.763 124.229H121.797C121.826 124.53 121.966 124.775 122.215 124.966C122.472 125.157 122.805 125.252 123.216 125.252C123.597 125.252 123.898 125.168 124.118 124.999C124.338 124.83 124.448 124.618 124.448 124.361C124.448 124.097 124.331 123.903 124.096 123.778C123.861 123.646 123.498 123.518 123.007 123.393C122.56 123.276 122.193 123.158 121.907 123.041C121.628 122.916 121.386 122.737 121.181 122.502C120.983 122.26 120.884 121.945 120.884 121.556C120.884 121.248 120.976 120.966 121.159 120.709C121.342 120.452 121.603 120.251 121.94 120.104C122.277 119.95 122.662 119.873 123.095 119.873C123.762 119.873 124.301 120.042 124.712 120.379C125.123 120.716 125.343 121.178 125.372 121.765H124.371C124.349 121.45 124.221 121.197 123.986 121.006C123.759 120.815 123.451 120.72 123.062 120.72C122.703 120.72 122.417 120.797 122.204 120.951C121.991 121.105 121.885 121.307 121.885 121.556C121.885 121.754 121.947 121.919 122.072 122.051C122.204 122.176 122.365 122.278 122.556 122.359C122.754 122.432 123.025 122.517 123.37 122.612C123.803 122.729 124.155 122.847 124.426 122.964C124.697 123.074 124.928 123.243 125.119 123.47C125.317 123.697 125.42 123.994 125.427 124.361C125.427 124.691 125.335 124.988 125.152 125.252C124.969 125.516 124.708 125.725 124.371 125.879C124.041 126.026 123.66 126.099 123.227 126.099Z" fill="white"/>
<path d="M67.4734 101.248C69.5054 99.616 71.0974 98.28 72.2494 97.24C73.4014 96.184 74.3694 95.088 75.1534 93.952C75.9534 92.8 76.3534 91.672 76.3534 90.568C76.3534 89.528 76.0974 88.712 75.5854 88.12C75.0894 87.512 74.2814 87.208 73.1614 87.208C72.0734 87.208 71.2254 87.552 70.6174 88.24C70.0254 88.912 69.7054 89.816 69.6574 90.952H67.5454C67.6094 89.16 68.1534 87.776 69.1774 86.8C70.2014 85.824 71.5214 85.336 73.1374 85.336C74.7854 85.336 76.0894 85.792 77.0494 86.704C78.0254 87.616 78.5134 88.872 78.5134 90.472C78.5134 91.8 78.1134 93.096 77.3134 94.36C76.5294 95.608 75.6334 96.712 74.6254 97.672C73.6174 98.616 72.3294 99.72 70.7614 100.984H79.0174V102.808H67.4734V101.248ZM84.7101 93.976C83.8141 93.624 83.1261 93.112 82.6461 92.44C82.1661 91.768 81.9261 90.952 81.9261 89.992C81.9261 89.128 82.1421 88.352 82.5741 87.664C83.0061 86.96 83.6461 86.408 84.4941 86.008C85.3581 85.592 86.3981 85.384 87.6141 85.384C88.8301 85.384 89.8621 85.592 90.7101 86.008C91.5741 86.408 92.2221 86.96 92.6541 87.664C93.1021 88.352 93.3261 89.128 93.3261 89.992C93.3261 90.92 93.0781 91.736 92.5821 92.44C92.0861 93.128 91.4061 93.64 90.5421 93.976C91.5341 94.28 92.3181 94.816 92.8941 95.584C93.4861 96.336 93.7821 97.248 93.7821 98.32C93.7821 99.36 93.5261 100.272 93.0141 101.056C92.5021 101.824 91.7741 102.424 90.8301 102.856C89.9021 103.272 88.8301 103.48 87.6141 103.48C86.3981 103.48 85.3261 103.272 84.3981 102.856C83.4861 102.424 82.7741 101.824 82.2621 101.056C81.7501 100.272 81.4941 99.36 81.4941 98.32C81.4941 97.248 81.7821 96.328 82.3581 95.56C82.9341 94.792 83.7181 94.264 84.7101 93.976ZM91.2141 90.256C91.2141 89.28 90.8941 88.528 90.2541 88C89.6141 87.472 88.7341 87.208 87.6141 87.208C86.5101 87.208 85.6381 87.472 84.9981 88C84.3581 88.528 84.0381 89.288 84.0381 90.28C84.0381 91.176 84.3661 91.896 85.0221 92.44C85.6941 92.984 86.5581 93.256 87.6141 93.256C88.6861 93.256 89.5501 92.984 90.2061 92.44C90.8781 91.88 91.2141 91.152 91.2141 90.256ZM87.6141 94.936C86.4301 94.936 85.4621 95.216 84.7101 95.776C83.9581 96.32 83.5821 97.144 83.5821 98.248C83.5821 99.272 83.9421 100.096 84.6621 100.72C85.3981 101.344 86.3821 101.656 87.6141 101.656C88.8461 101.656 89.8221 101.344 90.5421 100.72C91.2621 100.096 91.6221 99.272 91.6221 98.248C91.6221 97.176 91.2541 96.36 90.5181 95.8C89.7821 95.224 88.8141 94.936 87.6141 94.936Z" fill="white"/>
</svg>
