<svg width="30" height="30" viewBox="0 0 30 30" fill="none" xmlns="http://www.w3.org/2000/svg">
<rect width="30" height="30" rx="15" fill="black" fill-opacity="0.1"/>
<path d="M7.06023 16.1555L22.4545 12.0305C22.6946 11.9662 22.8993 11.8091 23.0236 11.5938C23.1478 11.3785 23.1816 11.1227 23.1173 10.8826C23.0529 10.6425 22.8958 10.4378 22.6805 10.3135C22.4652 10.1892 22.2094 10.1555 21.9693 10.2198L9.56758 13.5427C9.77301 12.7739 10.1394 12.0576 10.6425 11.441C11.1456 10.8245 11.7739 10.3218 12.4858 9.96631C13.1977 9.61081 13.977 9.41058 14.7722 9.37888C15.5673 9.34717 16.3601 9.48472 17.098 9.78241C17.3061 9.86419 17.5367 9.8682 17.7474 9.79373C17.9582 9.71925 18.1351 9.57128 18.2455 9.37695C18.3129 9.25911 18.3541 9.12815 18.3664 8.99296C18.3786 8.85777 18.3616 8.72154 18.3164 8.59352C18.2713 8.46551 18.1991 8.34873 18.1047 8.25112C18.0104 8.15351 17.8962 8.07737 17.7698 8.02788C16.7043 7.60462 15.5559 7.43126 14.413 7.52112C13.27 7.61099 12.1629 7.96169 11.1767 8.54628C10.1904 9.13086 9.35132 9.93377 8.72385 10.8933C8.09638 11.8528 7.69724 12.9434 7.55711 14.0813L6.57273 14.3443C6.33254 14.4087 6.12778 14.5659 6.00348 14.7812C5.87917 14.9966 5.84552 15.2525 5.90992 15.4927C5.97432 15.7329 6.13149 15.9377 6.34686 16.062C6.56224 16.1863 6.81817 16.2199 7.05836 16.1555H7.06023Z" fill="white"/>
<path d="M22.9398 13.8425L7.54699 17.9675C7.42793 17.9993 7.3163 18.0542 7.21847 18.1291C7.12064 18.204 7.03851 18.2974 6.97679 18.4041C6.91507 18.5107 6.87496 18.6285 6.85874 18.7506C6.84253 18.8728 6.85053 18.9969 6.8823 19.116C6.91406 19.235 6.96896 19.3467 7.04387 19.4445C7.11877 19.5423 7.21221 19.6244 7.31886 19.6862C7.53423 19.8108 7.7903 19.8448 8.03074 19.7807L20.4325 16.4577C20.227 17.2265 19.8606 17.9428 19.3576 18.5594C18.8545 19.1759 18.2262 19.6786 17.5143 20.0341C16.8023 20.3896 16.023 20.5898 15.2279 20.6215C14.4328 20.6532 13.64 20.5157 12.902 20.218C12.6939 20.1362 12.4634 20.1322 12.2526 20.2067C12.0418 20.2812 11.865 20.4291 11.7545 20.6235C11.6871 20.7413 11.6459 20.8722 11.6337 21.0074C11.6215 21.1425 11.6385 21.2787 11.6836 21.4067C11.7288 21.5347 11.801 21.6514 11.8953 21.749C11.9896 21.8465 12.1039 21.9226 12.2303 21.9721C13.2959 22.3953 14.4444 22.5687 15.5875 22.4787C16.7305 22.3887 17.8378 22.0378 18.824 21.4531C19.8103 20.8683 20.6494 20.0651 21.2767 19.1054C21.9041 18.1456 22.3031 17.0548 22.4429 15.9168L23.4273 15.6538C23.5462 15.6219 23.6577 15.5669 23.7554 15.4919C23.8531 15.417 23.935 15.3235 23.9966 15.2168C24.0581 15.1102 24.0981 14.9925 24.1141 14.8704C24.1302 14.7483 24.122 14.6243 24.0901 14.5053C24.0582 14.3864 24.0032 14.2749 23.9283 14.1773C23.8533 14.0796 23.7598 13.9976 23.6532 13.9361C23.5465 13.8745 23.4288 13.8346 23.3067 13.8185C23.1847 13.8025 23.0606 13.8106 22.9417 13.8425H22.9398Z" fill="white"/>
</svg>
