<svg width="40" height="40" viewBox="0 0 40 40" fill="none" xmlns="http://www.w3.org/2000/svg">
<rect width="40" height="40" rx="10" fill="#0D99FF" fill-opacity="0.1"/>
<g clip-path="url(#clip0_373_286)">
<path d="M25.4643 23.8637C25.476 22.2815 24.8505 21.0301 23.6029 20.1463C22.6393 19.4659 21.47 19.111 20.3389 18.7699C17.9829 18.0557 17.2994 17.6795 17.2994 16.5528C17.2994 15.2977 18.9304 14.8512 20.3267 14.8512C21.3435 14.8512 22.5134 15.1673 23.24 15.6359L24.6803 13.4051C23.7308 12.7895 22.4312 12.3697 21.148 12.2394V10.1562H18.4909V12.3854C16.129 12.905 14.6411 14.4487 14.6411 16.5528C14.6411 18.0263 15.2534 19.1949 16.4576 20.0191C17.3734 20.6483 18.4904 20.9862 19.5694 21.3134C21.8804 22.0119 22.8189 22.4375 22.8082 23.8472L22.8081 23.8576C22.8081 25.0407 21.2402 25.4614 19.8969 25.4614C18.628 25.4614 17.2481 24.9053 16.4659 24.0785L14.5356 25.9044C15.5262 26.952 16.9654 27.6926 18.4908 27.983V30.1563H21.148V28.0298C23.7725 27.6541 25.4617 26.0739 25.4643 23.8637Z" fill="#0D99FF"/>
</g>
<defs>
<clipPath id="clip0_373_286">
<rect width="12" height="20" fill="white" transform="translate(14 10.1562)"/>
</clipPath>
</defs>
</svg>
