<svg width="22" height="23" viewBox="0 0 22 23" fill="none" xmlns="http://www.w3.org/2000/svg">
<g clip-path="url(#clip0_42_7121)">
<path d="M10.5347 3.1972H7.10732C4.28857 3.1972 2.52124 5.19278 2.52124 8.01795V15.6391C2.52124 18.4643 4.28032 20.4598 7.10732 20.4598H15.196C18.0239 20.4598 19.783 18.4643 19.783 15.6391V11.9468" stroke="#888888" stroke-linecap="round" stroke-linejoin="round"/>
<path fill-rule="evenodd" clip-rule="evenodd" d="M8.09208 10.6514L14.9423 3.80118C15.7957 2.94868 17.179 2.94868 18.0324 3.80118L19.148 4.91676C20.0014 5.77018 20.0014 7.15435 19.148 8.00685L12.2647 14.8901C11.8916 15.2632 11.3856 15.4731 10.8576 15.4731H7.42383L7.51 12.0081C7.52283 11.4984 7.73091 11.0126 8.09208 10.6514Z" stroke="#888888" stroke-linecap="round" stroke-linejoin="round"/>
<path d="M13.9014 4.85956L18.0869 9.04506" stroke="#888888" stroke-linecap="round" stroke-linejoin="round"/>
</g>
<defs>
<clipPath id="clip0_42_7121">
<rect width="22" height="22" fill="white" transform="translate(0 0.640625)"/>
</clipPath>
</defs>
</svg>
