<svg width="21" height="20" viewBox="0 0 21 20" fill="none" xmlns="http://www.w3.org/2000/svg">
<path fill-rule="evenodd" clip-rule="evenodd" d="M17.9937 5.8025C17.9921 5.7425 17.9746 5.68583 17.9587 5.62833C17.9462 5.58 17.9404 5.53083 17.9196 5.48667C17.9004 5.44333 17.8679 5.40833 17.8396 5.36833C17.8046 5.3175 17.7729 5.26667 17.7279 5.225C17.7204 5.2175 17.7171 5.2075 17.7087 5.20083C17.6787 5.175 17.6421 5.16583 17.6096 5.145C17.5596 5.1125 17.5104 5.07917 17.4537 5.0575C17.3979 5.0375 17.3429 5.0325 17.2854 5.02417C17.2454 5.01833 17.2096 5 17.1671 5H13.0004C12.5396 5 12.1671 5.37333 12.1671 5.83333C12.1671 6.29333 12.5396 6.66667 13.0004 6.66667H15.3554L11.9921 10.59L8.42875 8.4525C8.07625 8.23917 7.62291 8.3175 7.35958 8.63333L3.19291 13.6333C2.89875 13.9867 2.94625 14.5125 3.29958 14.8067C3.45625 14.9367 3.64458 15 3.83291 15C4.07208 15 4.30875 14.8983 4.47375 14.7L8.18375 10.2483L11.7379 12.3817C12.0871 12.5908 12.5354 12.5175 12.7996 12.2092L16.3337 8.08583V10C16.3337 10.46 16.7062 10.8333 17.1671 10.8333C17.6279 10.8333 18.0004 10.46 18.0004 10V5.83333C18.0004 5.8225 17.9946 5.81333 17.9937 5.8025Z" fill="#03A66D"/>
</svg>
