<svg width="30" height="30" viewBox="0 0 30 30" fill="none" xmlns="http://www.w3.org/2000/svg">
<rect width="30" height="30" rx="15" fill="#32ADE6"/>
<path d="M21.2742 8.9694C21.2404 8.88709 21.183 8.81663 21.1092 8.7669C21.0354 8.71717 20.9486 8.69039 20.8596 8.68995H18.606C18.5467 8.68961 18.4879 8.70098 18.4329 8.72341C18.378 8.74584 18.3281 8.77889 18.286 8.82066L15.3202 11.7909C15.2783 11.8332 15.2285 11.8667 15.1735 11.8896C15.1186 11.9125 15.0597 11.9242 15.0002 11.9242C14.9407 11.9242 14.8818 11.9125 14.8269 11.8896C14.7719 11.8667 14.7221 11.8332 14.6802 11.7909L11.7144 8.82066C11.6723 8.77889 11.6224 8.74584 11.5675 8.72341C11.5126 8.70098 11.4537 8.68961 11.3944 8.68995H9.14082C9.05184 8.69039 8.96498 8.71717 8.89118 8.7669C8.81739 8.81663 8.75997 8.88709 8.72616 8.9694C8.69164 9.05148 8.68221 9.14194 8.69906 9.22938C8.7159 9.31681 8.75827 9.3973 8.82081 9.46068L13.4046 14.0445C13.614 14.2544 13.8627 14.4209 14.1365 14.5345C14.4103 14.6481 14.7038 14.7066 15.0002 14.7066C15.2966 14.7066 15.5901 14.6481 15.8639 14.5345C16.1377 14.4209 16.3864 14.2544 16.5958 14.0445L21.1796 9.46068C21.2421 9.3973 21.2845 9.31681 21.3013 9.22938C21.3182 9.14194 21.3088 9.05148 21.2742 8.9694Z" fill="white"/>
<path d="M21.1796 20.5394L16.5958 15.9555C16.3864 15.7457 16.1377 15.5792 15.8639 15.4655C15.5901 15.3519 15.2966 15.2935 15.0002 15.2935C14.7038 15.2935 14.4103 15.3519 14.1365 15.4655C13.8627 15.5792 13.614 15.7457 13.4046 15.9555L8.82081 20.5394C8.75827 20.6028 8.7159 20.6833 8.69906 20.7707C8.68221 20.8581 8.69164 20.9486 8.72616 21.0307C8.75997 21.113 8.81739 21.1834 8.89118 21.2332C8.96498 21.2829 9.05184 21.3097 9.14082 21.3101H11.3944C11.4537 21.3105 11.5126 21.2991 11.5675 21.2767C11.6224 21.2542 11.6723 21.2212 11.7144 21.1794L14.6802 18.2092C14.7221 18.1669 14.7719 18.1334 14.8269 18.1105C14.8818 18.0876 14.9407 18.0758 15.0002 18.0758C15.0597 18.0758 15.1186 18.0876 15.1735 18.1105C15.2285 18.1334 15.2783 18.1669 15.3202 18.2092L18.286 21.1794C18.3281 21.2212 18.378 21.2542 18.4329 21.2767C18.4879 21.2991 18.5467 21.3105 18.606 21.3101H20.8596C20.9486 21.3097 21.0354 21.2829 21.1092 21.2332C21.183 21.1834 21.2404 21.113 21.2742 21.0307C21.3088 20.9486 21.3182 20.8581 21.3013 20.7707C21.2845 20.6833 21.2421 20.6028 21.1796 20.5394Z" fill="white"/>
</svg>
