<svg width="1440" height="1024" viewBox="0 0 1440 1024" fill="none" xmlns="http://www.w3.org/2000/svg">
<path d="M1440 901.414L1372.01 991.439L1340.49 1022.35M0 837.461L10.1921 854.736M10.1921 854.736L86.8823 949.514M10.1921 854.736L64.085 803.164L116.85 755.86L168.194 713.766M10.1921 854.736L0 864.955M86.8823 949.514L166.143 1022.35M86.8823 949.514L135.364 889.745L182.74 834.586L228.741 785.034L273.185 742.057M86.8823 949.514L37.4318 1012.93M0 692.39L5.99792 706.705M5.99792 706.705L64.085 803.163L135.363 889.744L218.548 965.025M5.99792 706.705L62.8224 667.942L118.294 634.044L172.052 605.924M5.99792 706.705L0 711.118M218.548 965.025L304.28 1022.35M218.548 965.025L259.295 902.893M218.548 965.025L182.784 1022.35M1440 131.294L1426.49 85.2717M1426.49 85.2717L1389.02 0.597767M1426.49 85.2717L1440 83.2221M1426.49 85.2717L1371.76 96.514M1223.57 1022.35L1231.58 1016.71M1231.58 1016.71L1321.59 929.819L1395.69 833.475M1231.58 1016.71L1235.12 1022.35M1231.58 1016.71L1188.73 950.994L1147.04 890.2L1106.61 835.269L1067.71 787.197M1395.69 833.475L1440 754.693M1395.69 833.475L1440 875.741M1395.69 833.475L1341.08 783.695L1287.63 738.127L1235.64 697.712L1185.4 663.415L1137.19 636.092L1091.34 616.567L1048.18 605.637L1001.8 601.511L959.948 603.788L922.493 611.729M68.5723 0.597767L59.1017 16.7924M59.1017 16.7924L23.6768 99.2747M59.1017 16.7924L109.838 37.6836L159.875 62.6162M59.1017 16.7924L11.7486 0.597767M23.6768 99.2747L0 181.871M23.6768 99.2747L77.9069 113.791M23.6768 99.2747L0 94.5219M0 491.363L21.6924 572.081L62.8224 667.94L116.85 755.858L182.739 834.584L259.295 902.893M259.295 902.893L345.162 959.588L438.764 1003.5M259.295 902.893L298.845 846.738L336.954 797.499L373.416 756.172L408.029 723.583L440.59 700.529L475.542 683.566L507.02 674.344L535.185 672.096M438.764 1003.5L501.181 1022.35M438.764 1003.5L462.419 937.388L485.193 878.814L506.954 828.75L527.563 788.049L546.933 757.538L567.701 732.691L586.372 716.496L603.081 708.072L617.896 706.592M438.764 1003.5L432.405 1022.35M745.933 0.597767L740.589 72.5779L735.199 151.246L730.328 228.378L725.977 303.403L722.143 375.867L718.829 445.371L716.01 511.573L713.642 574.189L711.748 633.02L710.282 687.837L709.606 720.17M922.493 611.729L889.233 624.736L859.919 642.097L841.315 663.387L818.586 681.005L816.872 682.627L816.241 683.31L813.738 685.473M922.493 611.729L896.854 641.329L866.841 667.515M922.493 611.729L943.644 579.367L960.173 544.786M194.872 0.597767L159.875 62.6162M159.875 62.6162L131.26 132.461M159.875 62.6162L208.829 92.1308M131.26 132.461L111.484 206.434M131.26 132.461L183.371 155.886M131.26 132.461L77.9069 113.791M111.484 206.434L101.292 283.765L101.495 363.629L112.95 445.086M111.484 206.434L165.986 223.255M111.484 206.434L55.5382 194.593M112.95 445.086L136.582 527.113M112.95 445.086L169.233 439.565M112.95 445.086L54.7487 456.471M136.582 527.113L172.052 605.924M136.582 527.113L191.218 513.537M136.582 527.113L79.959 546.922M172.052 605.924L217.872 677.875M172.052 605.924L223.802 584.464M217.872 677.875L273.185 742.057M217.872 677.875L265.586 649.072M217.872 677.875L168.194 713.766M273.185 742.057L336.955 797.501L408.03 843.381M273.185 742.057L315.758 706.565M408.03 843.381L485.194 878.816L567.048 903.065L652.127 915.446L738.919 915.389L825.847 902.468L911.286 876.425L993.546 837.176L1067.71 787.197M408.03 843.381L437.525 797.13M408.03 843.381L377.206 897.856L345.163 959.59L314.631 1022.35M1067.71 787.197L1131.75 728.765L1185.4 663.417L1228.42 592.689L1260.78 518.034L1282.47 440.845L1293.56 362.347L1294.15 283.708L1284.36 206.007M1067.71 787.197L1030.55 746.952M1284.36 206.007L1264.32 130.156M1284.36 206.007L1340.26 194.081M1284.36 206.007L1230 222.856M1264.32 130.156L1234.15 57.0093L1201.56 0.597767M1264.32 130.156L1317.58 111.257M1264.32 130.156L1212.39 153.78M699.615 0.597767L699.683 69.9874M699.683 69.9874L740.586 72.5779L780.633 80.2909L819.396 92.9563L856.445 110.46L891.307 132.689M699.683 69.9874L658.349 72.6911M699.683 69.9874L699.908 226.385M699.908 226.385L730.326 228.378L760.091 234.241L788.864 243.89L816.308 257.209M699.908 226.385L669.15 228.463M699.908 226.385L700.607 510.548M700.607 510.548L700.833 573.335M700.607 510.548L716.008 511.573L731.048 514.703L745.57 519.798L759.371 526.8M700.607 510.548L685.048 511.63M700.833 573.335L701.058 632.28M700.833 573.335L713.641 574.189L726.178 576.807L738.287 581.105M700.833 573.335L687.867 574.246M701.058 632.28L711.747 633.019L722.21 635.211M701.058 632.28L690.234 633.048M701.058 632.28L701.441 720.17M701.441 720.17L693.187 720.198M701.441 720.17H714.835M945.38 0.597767L919.561 61.0222L891.307 132.689M891.307 132.689L865.465 203.929L842.059 274.116M891.307 132.689L923.506 159.614L952.527 191.15M842.059 274.116L821.088 342.823L802.507 409.566L786.249 473.975L772.291 535.709M842.059 274.116L865.758 294.524L887.022 318.374M842.059 274.116L816.308 257.209M772.291 535.709L760.498 594.482M772.291 535.709L784.107 546.41L794.615 558.876M772.291 535.709L759.371 526.8M760.498 594.482L750.802 650.068M760.498 594.482L770.307 603.477M760.498 594.482L749.765 586.997M750.802 650.068L743.09 702.296L741.421 716.327M750.802 650.068L758.987 657.639M750.802 650.068L741.873 643.778M741.421 716.327L733.618 717.466L725.681 718.604L717.676 719.771L714.835 720.17M741.421 716.327L748.005 715.388L748.816 715.132L749.042 715.075L753.98 713.624L756.731 712.798L764.534 710.493M823.973 518.318L803.656 573.05M823.973 518.318L832.79 536.961M823.973 518.318L847.627 461.935L874.732 404.244L905.444 345.584M803.656 573.05L786.542 625.819M803.656 573.05L810.963 588.704M803.656 573.05L794.615 558.876M786.542 625.819L772.449 676.395M786.542 625.819L792.563 638.94M786.542 625.819L779.056 613.95M772.449 676.395L777.454 687.411M772.449 676.395L766.248 666.405M772.449 676.395L764.534 710.493M777.454 687.411L780.949 698.852M777.454 687.411L772.066 708.272M777.454 687.411L792.563 638.94M780.949 698.852L781.852 704.203M780.949 698.852L779.079 705.511M780.949 698.852L796.802 652.573M766.248 666.404L756.732 712.797M644.46 714.221L634.313 668.255M634.313 668.255L620.739 616.142M634.313 668.255L641.303 659.432M634.313 668.255L628.517 677.932M620.739 616.142L604.345 561.495L584.998 504.599L562.606 445.712L537.035 385.202L508.195 323.412L476.039 260.796L440.547 197.81L401.717 134.994M620.739 616.142L629.148 605.611M620.739 616.142L613.747 627.641L628.517 677.932M401.717 134.994L359.64 72.8905M401.717 134.994L434.143 98.9051L471.123 67.0557L512.434 39.9037L557.78 17.9306L604.818 2.27657M401.717 134.994L374.161 174.841M359.64 72.8905L321.374 22.8829M359.64 72.8905L396.869 32.1615L434.12 0.597767M359.64 72.8905L327.823 117.974M321.374 22.8829L301.665 0.597767M321.374 22.8829L342.073 0.597767M321.374 22.8829L285.655 72.6633M540.709 1022.35L552.976 964.486M552.976 964.486L567.046 903.065L580.486 850.354L593.248 807.206L605.245 774.475L618.12 747.265L629.711 728.993M552.976 964.486L462.418 937.39L377.204 897.857L298.845 846.74L228.739 785.034L168.194 713.766M552.976 964.486L647.165 978.319L743.292 978.233M629.711 728.993L674.584 735.34L720.292 735.311M629.711 728.993L586.371 716.498L545.264 698.197L507.02 674.346L472.294 645.344L441.649 611.474L415.695 573.136L394.927 530.699L380.293 486.043L372.153 441.159L370.146 396.644L373.957 353.04L383.224 310.889L397.588 270.672L416.8 232.817L440.545 197.81L468.574 166.075M629.711 728.993L640.083 718.718L676.726 723.898L678.372 724.126L681.755 720.198H693.187M720.292 735.311L766.134 728.68L811.368 715.274M720.292 735.311L723.629 754.666L727.373 783.042L730.935 816.941L734.792 861.34M720.292 735.311L717.383 724.098L714.835 720.17M811.368 715.274L855.227 694.981L895.184 668.966L930.158 638.342M811.368 715.274L829.656 731.27L850.063 755.86L869.163 786.144L889.616 826.589M811.368 715.274L795.133 707.02L780.791 705.683M930.158 638.342L959.946 603.789L984.434 566.049M930.158 638.342L967.41 641.672L1008.83 652.004L1047.41 668.825L1088.48 694.668L1131.75 728.765L1176.96 770.262M930.158 638.342L896.853 641.331L867.314 649.898M984.434 566.049L1003.44 525.776L1016.93 483.709L1024.8 440.447L1026.96 396.615L1023.38 352.784L1014 309.551L998.776 267.427M984.434 566.049L1029.89 557.737L1080.22 555.147L1126.92 559.815L1176.44 572.566L1228.42 592.689L1282.47 619.386M984.434 566.049L943.643 579.368L907.361 597.128L875.318 618.731L859.917 642.098L840.052 658.52L834.324 663.273L818.494 680.835M998.776 267.427L977.872 227.211M998.776 267.427L1044.03 214.317L1093.37 162.659L1138.45 122.101L1185.51 87.0075L1234.15 57.0093L1283.89 31.5924M998.776 267.427L957.623 321.419L920.53 375.838M977.872 227.211L952.527 191.15M977.872 227.211L939.809 286.411L905.444 345.584M977.872 227.211L1019.63 168.437L1065.09 110.688L1106.52 64.6369L1149.72 23.8224L1178.52 0.597767M952.527 191.15L990.23 127.395L1031.18 64.295M952.527 191.15L918.117 254.989L887.022 318.374M658.349 72.6911L616.97 80.8315L575.998 94.6928M658.349 72.6911L663.987 151.332L669.15 228.463M658.349 72.6911L652.825 0.597767M575.998 94.6928L536.515 114.103M575.998 94.6928L592.753 170.657L607.996 245.256M575.998 94.6928L557.779 17.9306L553.359 0.597767M536.515 114.103L500.616 138.04M536.515 114.103L558.659 187.649L578.773 259.999M536.515 114.103L512.433 39.9037L498.655 0.597767M500.616 138.04L468.574 166.075M500.616 138.04L527.676 208.596L552.277 278.186M500.616 138.04L471.122 67.0557L441.176 0.597767M468.574 166.075L500.098 233.102L528.691 299.419M468.574 166.075L434.142 98.9051L396.867 32.1615L377.182 0.597767M693.187 720.198L692.196 687.866L690.234 633.048M764.534 710.493L772.065 708.272L774.906 707.418M774.906 707.418L780.791 705.683M774.906 707.418L778.582 705.712L779.033 705.512H779.078L781.942 704.658M780.791 705.683L781.942 704.658M781.942 704.658L785.685 702.922M785.685 702.922L789.879 701.499L792.089 699.99M785.685 702.922L792.089 699.99M792.089 699.99L795.087 698.112L797.41 696.888L797.906 696.661M792.089 699.99L796.982 698.197L797.659 697.202L797.906 696.661M797.906 696.661L798.267 696.062L798.537 695.892L803.792 692.505L807.242 690.257L808.008 689.744L808.256 689.601L811.188 687.695L812.383 686.926L812.947 686.385L813.556 685.219L813.781 684.905L823.184 671.244L831.843 653.54L838.179 634.898L842.125 615.601L843.614 595.905L842.599 576.067L839.013 556.344L832.79 536.961M797.906 696.661L802.192 695.522M832.79 536.961L858.226 483.993L887.427 430.172L920.53 375.838M832.79 536.961L810.963 588.704M905.444 345.584L920.53 375.838M905.444 345.584L887.022 318.374M327.823 117.974L301.823 166.872M327.823 117.974L374.161 174.841M327.823 117.974L285.655 72.6633M301.823 166.872L282.025 219.071M301.823 166.872L351.748 218.017M301.823 166.872L256.296 126.741M282.025 219.071L268.879 274.002M282.025 219.071L334.813 264.012M282.025 219.071L233.769 184.603M268.879 274.002L262.88 331.039L264.526 389.557L274.358 448.815M268.879 274.002L323.764 312.283M268.879 274.002L218.616 245.597M274.358 448.815L292.893 508.072M274.358 448.815L329.852 465.237M274.358 448.815L223.171 440.589M292.893 508.072L319.795 564.626M292.893 508.072L346.425 516.838L394.928 530.699L438.607 549.028L477.595 571.228L512.14 596.759M292.893 508.072L243.443 506.962M319.795 564.626L353.844 615.943M319.795 564.626L370.147 565.963L415.696 573.135L456.624 585.459M319.795 564.626L273.163 570.461M353.844 615.943L394.343 661.424M353.844 615.943L399.981 610.45M353.844 615.943L311 628.181M394.343 661.424L440.591 700.531L491.734 732.721M394.343 661.424L435.338 649.783M394.343 661.424L356.234 679.441M491.734 732.721L546.934 757.54L605.247 774.475L665.724 783.099L727.374 783.042L789.159 774.048L850.065 755.861L908.918 728.395L962.338 693.273L1008.83 652.003L1048.18 605.639L1080.23 555.148L1104.83 501.555L1121.9 445.741L1131.39 388.617L1133.28 330.982L1127.6 273.66M491.734 732.721L519.921 711.346M491.734 732.721L465.463 759.988M1127.6 273.66L1114.3 217.334M1127.6 273.66L1177.57 245.227M1127.6 273.66L1073.12 311.998M1114.3 217.334L1093.37 162.659L1065.09 110.688L1031.18 64.295M1114.3 217.334L1162.24 182.668M1114.3 217.334L1061.94 262.475M1031.18 64.295L992.644 23.8794M1031.18 64.295L1068.48 13.4056M992.644 23.8794L963.894 0.597767M992.644 23.8794L1006.49 0.597767M992.644 23.8794L956.678 91.5617M131.146 0.597767L109.837 37.6836L77.9069 113.791M77.9069 113.791L55.5382 194.593M55.5382 194.593L43.5644 279.239L42.9781 366.844L54.7487 456.471M55.5382 194.593L0 187.223M54.7487 456.471L79.959 546.922M54.7487 456.471L0 471.498M79.959 546.922L118.293 634.044L168.194 713.766M79.959 546.922L21.6924 572.082L0 582.897M743.292 978.233L839.533 963.803L934.059 934.715M743.292 978.233L746.156 1022.35M743.292 978.233L738.918 915.39L734.792 861.34M934.059 934.715L1024.89 890.941M934.059 934.715L957.782 1000.52M934.059 934.715L911.285 876.425L889.616 826.589M1024.89 890.941L1106.61 835.269L1176.96 770.262M1024.89 890.941L1057.52 951.906M1024.89 890.941L993.545 837.177L963.645 791.609M1176.96 770.262L1235.63 697.713L1282.47 619.386M1176.96 770.262L1223.84 818.249M1282.47 619.386L1317.4 536.875L1340.51 451.775L1351.92 365.421L1351.76 279.153L1340.26 194.081M1282.47 619.386L1338.26 651.775M1340.26 194.081L1317.58 111.257M1340.26 194.081L1397.27 186.482M1317.58 111.257L1283.89 31.5924M1317.58 111.257L1371.76 96.514M1283.89 31.5924L1265.67 0.597767M1283.89 31.5924L1334.4 10.189M891.172 0.597767L879.446 35.8047M879.446 35.8047L856.446 110.46L835.385 184.432L816.308 257.209M879.446 35.8047L919.562 61.0222L956.678 91.5617M879.446 35.8047L836.896 15.9669M816.308 257.209L799.193 328.279L784.04 397.128L770.781 463.415L759.371 526.8M759.371 526.8L749.765 586.997M749.765 586.997L741.873 643.778M749.765 586.997L738.287 581.105M741.873 643.778L735.581 696.973M741.873 643.778L732.29 638.826M735.581 696.973L733.619 717.466M735.581 696.973L743.091 702.295L749.945 708.671M735.581 696.973L727.531 692.761M792.563 638.94L810.963 588.704M792.563 638.94L796.802 652.573M779.056 613.95L770.307 603.477M779.056 613.95L794.615 558.876M779.056 613.95L766.248 666.405M770.307 603.477L784.108 546.41L800.434 486.669L819.443 424.565L841.181 360.384L865.759 294.523L893.201 227.438L923.508 159.614L956.678 91.5617M770.307 603.477L758.987 657.639M738.287 581.105L745.571 519.798L754.23 455.105L764.31 387.308L775.855 316.78L788.866 243.889L803.388 169.12L819.397 92.9563L836.896 15.9669M738.287 581.105L732.29 638.826M687.867 574.246L674.924 577.007M687.867 574.246L690.234 633.048M687.867 574.246L685.048 511.63M674.924 577.007L662.16 581.731M674.924 577.007L679.456 635.382M674.924 577.007L669.512 514.931M662.16 581.731L649.916 588.249M662.16 581.731L668.789 639.338L674.178 693.188L676.366 719.43M662.16 581.731L654.177 520.51M649.916 588.249L638.889 596.276M649.916 588.249L658.598 644.831M649.916 588.249L639.475 528.279M638.889 596.276L629.148 605.611M638.889 596.276L649.419 651.577L657.898 703.548L659.702 717.068M638.889 596.276L626.217 537.843M629.148 605.611L641.303 659.432M629.148 605.611L614.469 548.971M628.517 677.932L636.95 712.058M628.517 677.932L623.939 688.292M1079.3 0.597767L1068.48 13.4056M1068.48 13.4056L1106.52 64.6369L1138.45 122.101L1162.24 182.668M1068.48 13.4056L1056.07 0.597767M887.022 318.374L859.196 380.876L834.572 442.04L813.083 501.498L794.615 558.876M766.248 666.405L758.987 657.639M690.234 633.048L679.456 635.382M685.048 511.63L681.778 445.428L678.057 375.924L673.84 303.46L669.15 228.463M685.048 511.63L669.512 514.931M669.15 228.463L638.416 234.696M265.157 0.597767L241.774 32.6458L208.829 92.1308M208.829 92.1308L183.371 155.886M208.829 92.1308L256.296 126.741M183.371 155.886L165.986 223.255M183.371 155.886L233.769 184.603M165.986 223.255L157.372 293.527L158.206 365.905L169.233 439.565M165.986 223.255L218.616 245.597M169.233 439.565L191.218 513.537M169.233 439.565L223.171 440.589M191.218 513.537L223.802 584.464M191.218 513.537L243.443 506.962M223.802 584.464L265.586 649.072M223.802 584.464L273.163 570.461M265.586 649.072L315.758 706.565M265.586 649.072L311 628.181M315.758 706.565L373.417 756.174L437.525 797.13M315.758 706.565L356.234 679.441M437.525 797.13L506.954 828.752L580.487 850.354L656.884 861.369L734.792 861.34M437.525 797.13L465.463 759.988M734.792 861.34L812.835 849.813L889.616 826.589M889.616 826.589L963.645 791.609M963.645 791.609L1030.55 746.952M963.645 791.609L935.39 755.064L908.917 728.396L880.618 707.59L855.228 694.982L832.633 689.716L812.632 690.997M1030.55 746.952L1088.48 694.668L1137.18 636.094L1176.44 572.567L1206.21 505.368L1226.41 435.722L1237.06 364.738L1238.23 293.47L1230 222.856M1030.55 746.952L995.327 715.387M1230 222.856L1212.39 153.78M1230 222.856L1177.57 245.227M1212.39 153.78L1185.51 87.0075L1149.72 23.8224L1132.18 0.597767M1212.39 153.78L1162.24 182.668M684.845 720.198L683.131 689.829M683.131 689.829L679.456 635.382M683.131 689.829L692.197 687.865L701.284 687.21L710.281 687.836L719.075 689.686M683.131 689.829L674.18 693.187L665.611 697.855L657.899 703.547L651.089 710.208L651.991 715.985M679.456 635.382L668.79 639.338L658.598 644.831M669.512 514.931L663.198 449.355L655.914 380.535L647.661 308.84L638.416 234.696M669.512 514.931L654.177 520.51M638.416 234.696L628.178 158.504L616.971 80.8315L604.818 2.27657M638.416 234.696L607.996 245.256M604.818 2.27657L604.524 0.597767M604.818 2.27657L613.297 0.597767M1440 720.368L1395.46 689.003L1338.26 651.775M1338.26 651.775L1287.63 738.129L1223.84 818.249M1338.26 651.775L1375.73 561.096L1400.15 467.713L1411.7 373.248L1410.66 279.096L1397.27 186.482M995.327 715.387L962.338 693.272L926.957 677.305L895.186 668.966L866.841 667.515M995.327 715.387L935.391 755.064L869.164 786.144L800.569 806.751L730.936 816.94L661.439 816.997L593.25 807.206L527.564 788.051L465.463 759.988M995.327 715.387L1047.42 668.825L1091.34 616.569L1126.93 559.816L1154.07 499.647L1172.72 437.145L1182.85 373.277L1184.47 309.038L1177.57 245.227M866.841 667.515L841.721 672.154L819.668 682.201M866.841 667.515L832.634 689.714L799.915 704.799L797.727 705.824L795.134 707.019L770.51 714.305L763.137 716.468L756.484 718.46M582.245 685.501L560.192 676.052L535.185 672.096M535.185 672.096L505.375 647.306L479.038 618.332L456.624 585.459M535.185 672.096L567.927 692.446L588.041 693.328L599.722 698.167L603.24 698.822L604.39 699.249L605.044 699.647L605.427 700.501L610.275 702.635L616.566 704.885M654.177 520.51L644.819 455.959L634.018 388.333L621.751 317.976L607.996 245.256M654.177 520.51L639.475 528.279M607.996 245.256L578.773 259.999M796.802 652.573L816.082 604.984M796.802 652.573L799.192 666.405L799.801 680.323L798.673 694.099L797.726 696.404M816.082 604.984L810.963 588.704M816.082 604.984L839.015 556.343L865.736 506.933L896.471 457.153M816.082 604.984L819.014 621.52M639.475 528.279L626.217 537.843M639.475 528.279L627.208 465.18L613.025 399.206L596.902 330.67L578.773 259.999M626.217 537.843L614.469 548.971M626.217 537.843L611.288 476.508L594.038 412.554L574.375 346.324L552.277 278.186M614.469 548.971L604.344 561.495L595.888 575.213L589.213 589.957L608.222 639.992L623.939 688.292M614.469 548.971L597.195 489.714L577.194 428.151L554.374 364.596L528.691 299.419M623.939 688.292L629.847 710.008M623.939 688.292L620.648 699.193L619.453 706.166M667.842 718.234L665.61 697.856L658.598 644.831M658.598 644.831L649.421 651.577L641.303 659.432M578.773 259.999L552.277 278.186M285.655 72.6633L256.296 126.741M285.655 72.6633L241.775 32.6458L200.555 0.597767M256.296 126.741L233.769 184.603M233.769 184.603L218.616 245.597M218.616 245.597L211.378 309.095L212.685 374.33L223.171 440.589M223.171 440.589L243.443 506.962M243.443 506.962L273.163 570.461M273.163 570.461L311 628.181M311 628.181L356.234 679.441M356.234 679.441L408.03 723.585L465.463 759.988M1177.57 245.227L1162.24 182.668M0 17.5039L7.41854 0.597767M1084.67 1022.35L1091.28 1019.1L1188.73 950.994L1272.14 871.756L1341.08 783.696L1395.47 689.003L1435.38 589.757M1435.38 589.757L1440 571.428M1435.38 589.757L1440 592.232M1435.38 589.757L1375.73 561.095L1317.4 536.874L1260.78 518.033L1206.21 505.367L1154.07 499.646L1104.83 501.553L1051.61 511.173L1003.45 525.774L960.173 544.786M965.223 1022.35L957.782 1000.52M957.782 1000.52L887.54 1022.35M957.782 1000.52L1057.52 951.906M840.662 0.597767L836.896 15.9669M836.896 15.9669L792.406 1.65049M732.29 638.826L727.531 692.761M732.29 638.826L722.21 635.211M727.531 692.761L725.683 718.604M727.531 692.761L719.075 689.686M0 965.823L37.4318 1012.93M37.4318 1012.93L47.5339 1022.35M37.4318 1012.93L30.2615 1022.35M552.277 278.186L528.691 299.419M758.987 657.639L749.945 708.671M722.21 635.211L726.179 576.807L731.05 514.704L736.845 449.071L743.61 380.193L751.344 308.469L760.093 234.241L769.857 158.02L780.636 80.2909L792.406 1.65049M722.21 635.211L719.075 689.686M641.303 659.432L651.088 710.208L647.3 715.047M643.964 1022.35L647.166 978.317L652.127 915.445L656.885 861.367L661.44 816.995L665.724 783.097L670.37 754.693L674.586 735.338L678.374 724.125L717.474 724.096L725.389 722.929L756.484 718.46M649.286 715.615L640.085 718.718L631.54 716.27L603.082 708.073L601.977 707.589L567.928 692.447L545.266 698.196L519.921 711.346M519.921 711.346L475.543 683.568L435.338 649.783M519.921 711.346L567.702 732.693L618.122 747.265L670.37 754.694L723.631 754.665L777.005 746.924L829.658 731.27L880.619 707.589L926.958 677.306L967.412 641.672L1001.8 601.512L1029.9 557.738L1051.61 511.174L1066.85 462.562L1075.56 412.697L1077.65 362.29L1073.12 311.998M1057.52 951.906L1147.04 890.201L1223.84 818.249M1057.52 951.906L1091.27 1019.1L1092.83 1022.35M1223.84 818.249L1272.14 871.757L1321.59 929.82L1372.01 991.44L1396.7 1022.35M1397.27 186.482L1371.76 96.514M1397.27 186.482L1440 183.522M1371.76 96.514L1334.4 10.189M1334.4 10.189L1328.65 0.597767M1334.4 10.189L1361.57 0.597767M851.642 1022.35L839.534 963.801L825.846 902.465L812.835 849.811L800.568 806.749L789.158 774.046L777.004 746.922L766.136 728.678L756.484 718.46M756.484 718.46L748.006 715.386M749.945 708.671L753.982 713.624M749.945 708.671L749.043 715.075M719.075 689.686L717.678 719.771M585.042 686.1L583.464 684.819M583.464 684.819L583.148 684.307L567.408 667.287M583.464 684.819L582.787 685.104M567.408 667.287L553.631 647.307M567.408 667.287L582.787 685.104M567.408 667.287L561.23 662.364L541.702 646.852M553.631 647.307L542.424 625.078M553.631 647.307L573.339 669.052L578.119 674.346L587.342 687.694L587.568 687.808L587.996 688.235M553.631 647.307L548.625 643.038L525.376 623.143M542.424 625.078L564.973 651.376L568.671 655.702M542.424 625.078L534.283 601.539L529.458 577.717M542.424 625.078L512.14 596.759M512.14 596.759L525.376 623.143M512.14 596.759L502.579 568.867M823.975 518.317L813.083 501.496L800.434 486.668L786.25 473.974L770.781 463.414L754.23 455.103L736.845 449.07L718.828 445.37L700.405 444.145L681.779 445.427L663.198 449.354L644.821 455.957L627.21 465.179L611.29 476.507L597.196 489.713L584.997 504.598L574.828 520.907L566.755 538.44L560.892 556.94L584.388 605.467L604.255 652.999L620.648 699.192L623.196 707.816M956.678 91.5617L990.231 127.395L1019.64 168.437L1044.03 214.317L1061.94 262.475M374.161 174.841L351.748 218.017M374.161 174.841L416.802 232.817L455.723 291.307L490.945 349.796L522.469 407.858L550.407 465.009L574.828 520.909L595.889 575.213L613.748 627.641L608.224 639.993L604.255 653L601.887 666.491L601.211 680.323L602.293 694.326M351.748 218.017L334.813 264.012M351.748 218.017L397.59 270.672L439.374 324.237L477.099 378.229L510.833 432.221L540.688 485.758L566.755 538.441L589.214 589.957L584.388 605.469L581.502 621.635L580.645 638.171L581.908 654.935M334.813 264.012L323.764 312.283M334.813 264.012L383.225 310.889L427.219 359.188L466.883 408.371M323.764 312.283L318.961 362.319L320.855 413.522L329.852 465.237M323.764 312.283L373.958 353.041L419.508 395.733L460.502 439.849M329.852 465.237L346.426 516.838L370.148 565.963L399.981 610.45M329.852 465.237L380.294 486.043L425.776 510.605L466.477 538.384M399.981 610.45L435.338 649.783M399.981 610.45L441.651 611.474L479.038 618.333L512.297 630.316M435.338 649.783L472.296 645.344L505.375 647.307L534.802 654.992L560.193 676.054L588.042 693.33L599.722 698.168L605.111 700.901M1073.12 311.998L1061.94 262.475M1073.12 311.998L1023.38 352.785L978.302 395.506L937.825 439.65M1061.94 262.475L1014 309.551L970.5 358.021L931.354 407.374L896.471 457.153M792.406 1.65049L786.972 0.597767M792.406 1.65049L792.587 0.597767M528.691 299.419L508.193 323.412L490.943 349.796L477.098 378.23L466.883 408.371M604.391 699.25L602.293 694.326M602.293 694.326L603.172 698.482M602.293 694.326L600.669 691.195L581.908 654.935M593.588 692.534L591.153 688.179L585.38 671.672M593.588 692.534L593.249 692.335L590.408 690.57L588.829 689.403L587.702 688.635M593.588 692.534L594.602 693.16L598.255 695.437M585.38 671.672L597.331 693.757L598.255 695.437M585.38 671.672L581.908 654.935M585.38 671.672L561.793 635.952L534.283 601.541L530.833 598.012L502.579 568.867M502.579 568.867L496.987 540.69L495.205 512.569L497.032 484.905L460.502 439.849M502.579 568.867L466.477 538.384M460.502 439.849L466.883 408.371M460.502 439.849L458.156 472.268L460.051 505.255L466.477 538.384M593.25 692.333L591.153 688.177L587.793 683.339L568.671 655.702M568.671 655.702L578.119 674.344L587.568 687.807L587.928 688.347L588.83 689.401L590.408 690.567M568.671 655.702L561.793 635.949L557.69 615.94L555.299 612.696L529.458 577.717M529.458 577.717L527.834 553.923L495.205 512.568L458.157 472.266L416.508 433.472M529.458 577.717L526.594 574.443L496.987 540.688L493.559 537.385L460.051 505.253L418.493 471.895M416.508 433.472L370.147 396.643L318.96 362.317L262.88 331.038L211.377 309.094L157.371 293.525L101.291 283.763L43.5652 279.237L0 279.18M416.508 433.472L419.508 395.731L427.22 359.187L439.373 324.236L455.722 291.305L476.039 260.794L500.099 233.101L527.677 208.595L558.66 187.647L592.754 170.656L628.179 158.502L663.987 151.33L699.773 148.996L735.198 151.244L769.856 158.019L803.387 169.118L835.385 184.431L865.466 203.927L893.201 227.437L918.118 254.988L939.811 286.41L957.624 321.418L970.5 358.019L978.302 395.504L981.121 433.415M416.508 433.472L418.493 471.895M581.908 654.935L579.923 651.748L557.69 615.943L556.246 595.934L557.351 576.181L560.892 556.941L533.607 507.674L502.309 458.008L466.883 408.371M1440 280.917L1410.66 279.095L1351.76 279.152L1294.15 283.706L1238.23 293.468L1184.47 309.037L1133.28 330.981L1077.66 362.289L1026.96 396.614L981.121 433.415M981.121 433.415L940.014 472.237L903.529 512.539L871.464 553.894M981.121 433.415L978.979 471.298L971.989 508.583L960.173 544.786M871.464 553.894L869.773 577.318M871.464 553.894L843.616 595.904L819.804 638.17L799.803 680.322L792.384 699.221L792.316 699.391M871.464 553.894L870.133 530.356M869.773 577.318L865.128 600.287L857.641 622.487L847.337 643.606M869.773 577.318L872.592 574.045L901.658 540.232L905.018 536.931L938.008 504.712L978.98 471.298L1024.8 440.446L1075.56 412.696L1131.39 388.616L1182.85 373.276L1237.06 364.737L1293.57 362.346L1351.92 365.42L1411.7 373.247L1440 378.74M869.773 577.318L842.128 615.599L823.457 646.481L818.496 654.65L815.159 670.787L809.837 686.356L808.259 689.6M847.337 643.606L834.326 663.273L819.173 681.716L813.783 685.729M847.337 643.606L851.869 639.565L875.32 618.731L887.474 593.684L921.591 567.613L960.173 544.786M847.337 643.606L823.186 671.243L814.301 684.619L813.783 685.729M813.783 685.729L812.836 686.27L810.513 687.038L808.01 689.742M813.783 685.729L813.084 686.47M812.632 690.997L802.192 695.522M812.632 690.997L841.72 672.155L867.314 649.898M802.192 695.522L797.659 697.486L795.088 698.113M920.53 375.838L931.354 407.375L937.825 439.65M896.471 457.153L901.815 484.732L870.133 530.356M896.471 457.153L887.429 430.171L874.733 404.243L859.197 380.875L841.18 360.382L821.088 342.822L799.193 328.277L775.855 316.779L751.343 308.468L725.975 303.402L700.044 301.694L673.841 303.459L647.662 308.838L621.753 317.975L596.903 330.668L574.376 346.322L554.375 364.595L537.035 385.201L522.468 407.857L510.833 432.22L502.309 458.007L497.032 484.903L529.278 530.47M819.014 621.52L819.803 638.171L818.495 654.65L798.674 694.098L798.268 696.062M819.014 621.52L799.193 666.404L786.137 701.753L785.912 702.352M819.014 621.52L842.6 576.066L870.133 530.356M1440 480.919L1400.15 467.712L1340.51 451.774L1282.47 440.844L1226.41 435.721L1172.72 437.144L1121.9 445.739L1066.85 462.561L1016.93 483.708L971.988 508.583L931.827 536.646L900.032 564.141L896.289 567.385L887.473 593.684L857.64 622.488L835.181 649.498L831.843 653.539L809.835 686.356M870.133 530.356L865.737 506.932L858.228 483.992L847.63 461.934L834.573 442.039L819.443 424.564L802.508 409.564L784.041 397.127L764.31 387.307L743.61 380.192L722.143 375.865L700.225 374.414L678.059 375.922L655.915 380.534L634.02 388.332L613.026 399.205L594.04 412.553L577.196 428.15L562.606 445.711L550.407 465.008L540.689 485.757L533.608 507.672L529.278 530.47M529.278 530.47L557.352 576.18L581.502 621.634L601.886 666.49L616.251 704.088L616.566 704.885M529.278 530.47L527.835 553.923L556.247 595.932L580.646 638.17L601.211 680.322L609.87 701.669L610.005 701.981M616.566 704.885L618.663 706.364L623.241 707.987L625.022 708.641L629.848 710.007L644.46 714.22L647.301 715.045L649.285 715.614L651.991 715.984L659.703 717.066L667.843 718.232L676.367 719.428L681.756 720.196M867.314 649.898L889.231 624.738L907.361 597.129L921.59 567.615L931.827 536.648L938.006 504.714L940.013 472.239L937.825 439.65M867.314 649.898L841.313 663.388L819.17 681.718L816.239 683.312M937.825 439.65L901.815 484.733L903.528 512.541L901.657 540.234L896.29 567.387L868.351 596.902L865.127 600.289L838.181 634.898L815.158 670.789L804.289 691.537L803.793 692.505M466.477 538.384L477.594 571.229L493.108 602.338L512.297 630.316M512.297 630.316L534.801 654.992L560.778 667.686L583.147 684.308L584.658 685.703L585.041 686.101L587.702 688.635M512.297 630.316L541.702 646.852M587.702 688.635L588.582 689.061M587.702 688.635L582.787 685.104M598.255 695.437L603.239 698.824L604.546 699.62L605.764 700.105L610.274 702.638L617.061 706.224L618.662 706.366L619.948 706.395L623.24 707.989L625.021 708.643M525.376 623.143L541.702 646.852M525.376 623.143L493.108 602.337L456.624 585.459M582.787 685.104L560.779 667.685L541.702 646.852M456.624 585.459L438.607 549.027L425.777 510.604L418.493 471.895M418.493 471.895L372.154 441.157L320.854 413.52L264.526 389.555L212.685 374.328L158.206 365.903L101.494 363.627L42.9789 366.842L0 372.563M0 0H1439.98V1024H0V0Z" stroke="url(#paint0_radial_40_5999)" stroke-opacity="0.5" stroke-linecap="round" stroke-linejoin="round"/>
<defs>
<radialGradient id="paint0_radial_40_5999" cx="0" cy="0" r="1" gradientUnits="userSpaceOnUse" gradientTransform="translate(-40.9999 1081) rotate(-36.1262) scale(1833.55 2578.39)">
<stop offset="0.0148181" stop-color="white"/>
<stop offset="0.395072" stop-color="white" stop-opacity="0"/>
<stop offset="0.681702" stop-color="white" stop-opacity="0"/>
<stop offset="0.741" stop-color="white" stop-opacity="0.241146"/>
<stop offset="1" stop-color="white"/>
</radialGradient>
</defs>
</svg>
